<?xml version="1.0" encoding="UTF-8" standalone="no"?>
<!-- Created with Inkscape (http://www.inkscape.org/) -->

<svg
   width="300"
   height="300"
   viewBox="0 0 7.9382938 7.9382938"
   version="1.1"
   id="svg5"
   sodipodi:docname="icon_logo.svg"
   inkscape:version="1.1.2 (0a00cf5339, 2022-02-04)"
   xmlns:inkscape="http://www.inkscape.org/namespaces/inkscape"
   xmlns:sodipodi="http://sodipodi.sourceforge.net/DTD/sodipodi-0.dtd"
   xmlns="http://www.w3.org/2000/svg"
   xmlns:svg="http://www.w3.org/2000/svg">
  <sodipodi:namedview
     id="namedview7"
     pagecolor="#ffffff"
     bordercolor="#000000"
     borderopacity="0.25"
     inkscape:pageshadow="2"
     inkscape:pageopacity="0.0"
     inkscape:pagecheckerboard="0"
     inkscape:document-units="mm"
     showgrid="false"
     inkscape:snap-global="true"
     inkscape:zoom="0.32"
     inkscape:cx="-178.125"
     inkscape:cy="-103.125"
     inkscape:window-width="1280"
     inkscape:window-height="648"
     inkscape:window-x="0"
     inkscape:window-y="0"
     inkscape:window-maximized="1"
     inkscape:current-layer="layer1"
     showguides="true"
     inkscape:guide-bbox="true"
     units="px"
     width="300px"
     scale-x="0.10001">
    <sodipodi:guide
       position="149.13191,454.97874"
       orientation="0,-1"
       id="guide618" />
  </sodipodi:namedview>
  <defs
     id="defs2">
    <clipPath
       clipPathUnits="userSpaceOnUse"
       id="clipPath215">
      <g
         inkscape:label="Clip"
         id="use217">
        <g
           id="g227">
          <path
             style="fill:#000000;stroke-width:0.141715"
             d="m 161.88063,180.4672 c -0.0942,-0.19065 -0.17163,-0.84903 -0.1721,-1.46305 -0.001,-1.65595 -0.19534,-2.47682 -0.95339,-4.03242 -0.37611,-0.77184 -0.66168,-1.50326 -0.63458,-1.62538 0.0858,-0.38671 0.98522,-0.22881 2.50732,0.4402 0.78923,0.34688 1.59964,0.6307 1.80093,0.6307 0.98195,0 3.31593,-1.10311 4.26185,-2.01429 0.69418,-0.66868 0.8285,-1.83305 0.83443,-7.23356 0.003,-2.91542 0.0574,-4.63968 0.14336,-4.55929 0.076,0.0711 0.77916,1.07858 1.56256,2.23882 1.56061,2.31134 1.88025,2.77691 2.50069,3.64249 0.39019,0.54436 0.4102,0.6413 0.3229,1.56513 -0.15144,1.6027 -0.75419,3.41368 -1.50691,4.52753 -1.08865,1.61096 -3.15166,3.16024 -5.1869,3.89526 -3.57047,1.28948 -3.66699,1.36079 -4.04558,2.98896 -0.16493,0.70929 -0.66567,1.34555 -1.05896,1.34555 -0.11239,0 -0.28143,-0.15599 -0.37562,-0.34665 z m -9.69582,-6.48659 c -0.0745,-0.31296 -0.0475,-0.45402 0.0956,-0.49799 0.10977,-0.0337 0.83192,-0.35738 1.60478,-0.71919 2.51127,-1.17563 2.58572,-1.41014 2.58572,-8.14523 0,-2.58246 -0.0332,-5.36906 -0.0738,-6.19246 -0.0633,-1.28404 -0.0423,-1.49021 0.14756,-1.44881 0.12174,0.0265 0.80238,0.17681 1.51252,0.33392 l 1.29118,0.28564 v 5.63833 5.63832 l 0.50789,0.44178 c 0.48074,0.41817 1.25558,0.65522 1.66867,0.5105 0.22021,-0.0772 0.24593,-0.52879 0.0369,-0.64794 -0.25052,-0.1428 -0.16313,-1.13954 0.14947,-1.70466 0.53449,-0.9663 1.6045,-1.32085 2.47345,-0.8196 0.98859,0.57026 1.0042,1.79432 0.0342,2.67918 -0.64963,0.5926 -0.92108,0.73427 -3.09979,1.61782 -0.85218,0.34559 -1.81503,0.73952 -2.13967,0.87539 -0.32463,0.13588 -1.32069,0.55313 -2.21344,0.92723 -2.76386,1.15817 -4.06406,1.66441 -4.27476,1.66441 -0.11136,0 -0.24927,-0.19649 -0.30645,-0.43664 z m 37.70916,-0.019 c -2.46243,-1.00647 -7.81582,-3.21847 -8.8538,-3.65834 -1.93455,-0.81982 -2.78189,-2.09871 -2.08228,-3.14275 0.30291,-0.45204 0.8447,-0.77301 1.30482,-0.77301 0.13288,0 0.51207,0.12076 0.84264,0.26835 1.01888,0.45491 1.49628,1.74694 0.97649,2.64273 -0.11326,0.19517 -0.16837,0.38949 -0.12248,0.43182 0.15611,0.14398 0.97702,0.10102 1.43849,-0.0753 0.87334,-0.33364 0.88786,-0.431 0.89721,-6.01684 0.005,-2.79203 0.055,-5.31798 0.11186,-5.61323 0.10332,-0.53682 0.10332,-0.53682 1.47992,-0.86148 0.75714,-0.17856 1.41074,-0.29319 1.45244,-0.25473 0.0417,0.0385 -0.007,1.52329 -0.10843,3.29961 -0.20457,3.58605 -0.11018,8.3881 0.19524,9.93303 0.27835,1.408 0.77962,1.93184 2.62899,2.74743 1.45176,0.64023 1.59532,0.77758 1.37251,1.31309 -0.12414,0.29838 -0.27225,0.27517 -1.53362,-0.2404 z m -15.93683,-4.07066 c 0,-0.0942 0.16601,-0.45882 0.3689,-0.81035 0.61751,-1.06986 0.49881,-1.51864 -0.96395,-3.64464 -0.54121,-0.78659 -1.43578,-2.10385 -1.98796,-2.92724 -0.55217,-0.82339 -1.33676,-1.98703 -1.74352,-2.58586 -0.90616,-1.33401 -1.20376,-1.77593 -2.01639,-2.99415 -0.34952,-0.52398 -0.84684,-1.25891 -1.10515,-1.63318 -0.25829,-0.37427 -0.96897,-1.44604 -1.57928,-2.38171 -1.1652,-1.78639 -2.3974,-3.63211 -2.82862,-4.23702 -0.24922,-0.3496 -0.24723,-0.36 0.0822,-0.43183 0.18568,-0.0405 0.85257,-0.11617 1.48201,-0.1682 0.8522,-0.0704 1.20395,-0.049 1.37762,0.0839 0.12827,0.0982 0.80855,0.94752 1.51174,1.8874 0.70317,0.93989 1.67692,2.24093 2.16388,2.8912 7.06008,9.4279 7.64118,10.27433 7.98971,11.63786 0.24099,0.94278 0.24075,1.04567 -0.005,2.00563 -0.27683,1.08303 -0.97851,2.14504 -1.99137,3.01398 -0.57491,0.49323 -0.75521,0.56346 -0.75521,0.29418 z m -5.50562,-4.1161 c -2.04734,-1.44536 -2.53224,-3.42229 -1.38572,-5.64957 0.28947,-0.56235 0.68931,-1.16368 0.88851,-1.33628 0.36219,-0.31382 0.36219,-0.31382 0.84208,0.45976 0.47691,0.7688 0.47927,0.78169 0.38023,2.08126 -0.0748,0.98175 -0.16682,1.37639 -0.36913,1.58343 -0.1482,0.15167 -0.30835,0.42321 -0.35588,0.60343 -0.0927,0.35169 0.20969,1.15044 0.57756,1.52535 0.14011,0.1428 0.20782,0.41983 0.17882,0.73176 l -0.0467,0.50196 z m 5.52998,-6.23321 c -0.0876,-0.0974 -1.12502,-1.51741 -2.30529,-3.15559 l -2.14597,-2.97853 -0.002,-5.86089 c -0.001,-3.22349 -0.0382,-5.98524 -0.0825,-6.13721 -0.11843,-0.40652 -1.30381,-0.96298 -3.49569,-1.64102 -2.32598,-0.71952 -3.04852,-0.75406 -5.25652,-0.25121 -1.66161,0.37841 -2.4201,0.35973 -3.00072,-0.0739 -0.27718,-0.20701 -0.31891,-0.3483 -0.26785,-0.90676 0.11566,-1.26477 0.0538,-2.02443 -0.20156,-2.47631 -0.35036,-0.61996 -0.35073,-1.24045 -0.001,-1.48319 0.3829,-0.26565 1.487,-0.13923 2.49273,0.28544 2.35722,0.99532 6.38703,1.31238 12.41947,0.97714 2.12232,-0.11794 4.24723,-0.27879 4.72203,-0.35744 1.37672,-0.22806 4.75423,-1.03838 5.88041,-1.41082 2.08375,-0.68912 2.74045,-0.33929 1.97177,1.05038 -0.29551,0.53424 -0.30425,0.63785 -0.13817,1.63843 0.1544,0.93026 0.14706,1.11065 -0.0568,1.39769 -0.27798,0.39128 -0.13944,0.3838 -2.02048,0.10902 -2.01986,-0.29505 -4.29659,-0.2052 -5.48818,0.21661 -0.47426,0.16788 -1.2047,0.56101 -1.62319,0.87362 -1.33877,1.00006 -1.27687,0.61505 -1.27712,7.94267 0,4.12678 0.0518,6.43062 0.14497,6.43062 0.12129,0 2.44953,-3.05027 3.4701,-4.54625 0.16232,-0.23794 0.46994,-0.64442 0.68363,-0.90331 0.21367,-0.25888 0.71169,-0.90693 1.10672,-1.44011 1.93293,-2.60895 4.15454,-5.29368 4.90276,-5.92483 1.36805,-1.15397 1.54819,-1.19714 5.01019,-1.20059 l 2.99705,-0.003 -0.0458,0.51037 c -0.0458,0.51037 -0.0458,0.51037 -0.8574,0.58262 -0.94371,0.084 -1.30297,0.24359 -1.81717,0.80719 -0.79161,0.86769 -1.18742,2.6783 -1.57801,7.21838 -0.22475,2.6125 -0.20498,2.55329 -0.91162,2.72878 -0.98057,0.24353 -2.68399,0.5221 -2.79737,0.45748 -0.0576,-0.0328 -0.0768,-0.83974 -0.0426,-1.79311 0.16169,-4.51047 0.17233,-5.61835 0.0546,-5.68545 -0.0699,-0.0398 -0.25551,0.15938 -0.41245,0.44273 -0.15697,0.28335 -0.75224,1.2501 -1.32283,2.14835 -1.3729,2.16126 -1.45727,2.29231 -2.82965,4.39584 -0.64948,0.99548 -1.18087,1.83722 -1.18087,1.87053 0,0.0955 -3.38159,5.10115 -3.88059,5.74427 -0.48611,0.62653 -0.5751,0.67025 -0.81707,0.40134 z m -8.7306,-1.60188 c -3.48636,-0.26782 -6.41999,-0.74581 -9.37026,-1.52674 -1.08554,-0.28733 -2.69734,-1.01399 -3.5637,-1.60665 -0.70866,-0.48478 -0.76641,-0.56854 -0.85525,-1.24025 -0.15771,-1.19278 -0.39809,-2.04603 -0.76846,-2.7278 -0.19315,-0.35555 -0.30701,-0.64646 -0.253,-0.64646 0.054,0 0.90177,0.27315 1.88393,0.607 0.98215,0.33385 2.08453,0.67057 2.44975,0.74827 0.36522,0.0777 1.15746,0.26385 1.76053,0.41367 0.60308,0.14983 2.64096,0.48728 4.52862,0.74991 1.88764,0.26262 3.52371,0.50992 3.63569,0.54956 0.11197,0.0396 0.34769,0.33004 0.52382,0.64536 0.17612,0.31532 0.82239,1.27762 1.43615,2.13844 1.59778,2.24093 1.52989,2.0448 0.70015,2.02242 -0.38837,-0.0105 -1.33695,-0.0675 -2.10797,-0.12673 z m 10.93041,-0.0161 c 0.006,-0.0981 0.50021,-0.9133 1.09845,-1.81154 0.59825,-0.89825 1.26888,-1.92556 1.4903,-2.28293 0.22509,-0.36329 0.53775,-0.67767 0.7092,-0.7131 0.16864,-0.0348 1.50189,-0.2213 2.96276,-0.41436 3.17154,-0.41911 6.85988,-1.21967 9.06096,-1.96667 0.88031,-0.29876 1.64317,-0.5432 1.69524,-0.5432 0.0521,0 -0.0642,0.29091 -0.25837,0.64646 -0.4014,0.73503 -0.68487,1.82866 -0.68487,2.64226 0,0.46354 -0.088,0.62768 -0.54203,1.01126 -0.96872,0.81838 -3.63062,1.87055 -6.12544,2.42122 -1.43948,0.31773 -2.3607,0.45795 -4.91624,0.74828 -3.74428,0.4254 -4.50243,0.46969 -4.48996,0.26232 z m -18.9568,-6.16841 c -0.72175,-0.17453 -1.36121,-0.39037 -1.42103,-0.47965 -0.0598,-0.0893 -0.15185,-0.72179 -0.2045,-1.40559 -0.1555,-2.01961 -0.53745,-5.12283 -0.74878,-6.08345 -0.42424,-1.9285 -1.28018,-2.86369 -2.73243,-2.98546 -0.81159,-0.068 -0.81159,-0.068 -0.8574,-0.57841 l -0.0458,-0.51037 2.92328,0.001 c 2.76809,10e-4 2.96246,0.0185 3.6611,0.32394 0.4058,0.17743 1.01209,0.5428 1.34733,0.81193 0.54824,0.44015 2.72053,2.9488 3.55363,4.10387 0.17957,0.24898 0.39538,0.49195 0.47958,0.53994 0.0842,0.048 0.15308,0.16196 0.15308,0.25325 0,0.12022 -0.41467,0.16388 -1.50407,0.15836 -1.50405,-0.008 -1.50405,-0.008 -1.99642,-0.71841 -0.2708,-0.39093 -0.55695,-0.71078 -0.63588,-0.71078 -0.0919,0 -0.10835,1.37076 -0.0457,3.81074 0.1132,4.411 0.33305,4.01502 -1.92595,3.46876 z m -4.95917,-1.24935 c -0.67648,-0.22236 -1.91833,-0.77223 -1.91833,-0.8494 0,-0.16104 1.08918,-1.04192 1.83787,-1.48637 0.70905,-0.42093 1.93053,-0.83633 2.45921,-0.83633 0.1972,0 0.2828,0.15484 0.35744,0.64647 0.17743,1.1688 0.19121,1.13541 -0.661,1.60163 -0.44124,0.24141 -0.91672,0.56927 -1.05658,0.72859 -0.24765,0.28206 -0.56803,0.34353 -1.01861,0.19541 z m 38.11678,-0.15617 c -0.0967,-0.14572 -0.56155,-0.46521 -1.03294,-0.70998 -0.47138,-0.24477 -0.88172,-0.46288 -0.91185,-0.48469 -0.0301,-0.0218 -0.008,-0.44744 0.0504,-0.94585 0.10521,-0.90621 0.10521,-0.90621 0.71883,-0.82065 0.85527,0.11926 2.54517,0.91266 3.38042,1.58711 0.38551,0.31129 0.70092,0.61204 0.70092,0.66835 0,0.14479 -1.5951,0.7826 -2.21344,0.88506 -0.41503,0.0688 -0.55102,0.0335 -0.69236,-0.17935 z m -30.85604,-2.97678 c 0.0436,-0.91355 0.0436,-0.91355 0.56011,-1.02613 0.76414,-0.16658 3.59129,-0.15479 4.94337,0.0206 2.4622,0.31942 2.85237,0.4277 3.32314,0.92223 0.64419,0.67668 0.58149,0.74727 -0.55633,0.62634 -1.7632,-0.1874 -5.31635,-0.11188 -6.58235,0.1399 -1.80568,0.35911 -1.73899,0.38609 -1.68794,-0.68296 z m 23.61687,0.74386 c -0.26377,-0.078 -0.47958,-0.20418 -0.47958,-0.2803 0,-0.27148 1.09777,-1.86369 1.28495,-1.86369 0.20762,0 0.26584,1.11648 0.0984,1.88836 -0.0988,0.45565 -0.16475,0.4743 -0.90382,0.25563 z m -7.19371,-0.21816 c -0.83261,-0.2497 -1.54941,-0.88895 -1.54941,-1.3818 0,-0.068 0.28221,-0.0291 0.62714,0.0865 0.7177,0.24054 2.32876,0.18253 3.6153,-0.13018 0.42609,-0.10357 0.77471,-0.16858 0.77471,-0.14447 0,0.0241 -0.27485,0.41323 -0.61078,0.8647 -0.61077,0.82086 -0.61077,0.82086 -1.58631,0.8073 -0.53654,-0.007 -1.10833,-0.0534 -1.27065,-0.10208 z M 79.258409,128.26153 c -0.144214,-0.13448 -0.184454,-2.35996 -0.184454,-10.19938 0,-8.55812 0.03111,-10.05117 0.212343,-10.18989 0.154086,-0.11794 1.076105,-0.15052 3.360931,-0.11874 3.148601,0.0438 3.148601,0.0438 4.133011,0.49112 1.093532,0.4969 1.995999,1.33521 2.511143,2.33263 0.265348,0.51377 0.322544,0.8721 0.327428,2.05152 0.0053,1.29107 -0.03344,1.50293 -0.401682,2.19452 -0.368805,0.69264 -1.274091,1.59379 -2.172781,2.16286 -0.322543,0.20424 -0.317216,0.21193 0.509448,0.73704 0.964709,0.6128 1.854413,1.68724 2.304525,2.78304 0.409148,0.9961 0.451573,2.64272 0.09566,3.71312 -0.552064,1.66029 -2.056811,3.17385 -3.796995,3.81922 -0.723532,0.26833 -1.131839,0.30609 -3.762863,0.34797 -2.238461,0.0356 -2.995815,0.005 -3.135719,-0.12503 z m 6.751019,-1.29341 c 1.148544,-0.50151 2.082797,-1.34178 2.625962,-2.3618 0.35306,-0.66302 0.399056,-0.90641 0.398775,-2.11043 0,-1.26537 -0.03338,-1.41934 -0.47083,-2.19172 -0.26706,-0.47151 -0.796443,-1.10101 -1.224229,-1.45574 -1.138215,-0.94384 -1.909262,-1.15331 -4.618273,-1.25464 -1.25836,-0.0471 -2.32114,-0.0351 -2.361765,0.0265 -0.06229,0.0946 -0.180558,9.40981 -0.123879,9.75703 0.01063,0.0649 1.098328,0.0936 2.417175,0.0638 2.313025,-0.0523 2.431857,-0.0691 3.357064,-0.47306 z m -0.06317,-10.62045 c 1.10609,-0.34674 2.153701,-1.4012 2.48985,-2.50614 0.31099,-1.02223 0.229269,-2.06845 -0.230022,-2.94498 -0.408647,-0.77988 -1.581302,-1.72887 -2.373304,-1.92064 -0.983052,-0.23803 -5.423968,-0.3392 -5.498989,-0.12528 -0.08996,0.25648 -0.189176,7.57832 -0.103767,7.6571 0.04049,0.0373 1.179592,0.0679 2.531315,0.0679 1.910945,0 2.619484,-0.0507 3.184917,-0.22796 z m 6.398019,11.62616 c -1.086199,-0.77048 -1.459017,-1.92289 -0.970775,-3.00065 0.269392,-0.59462 1.15514,-1.28716 1.785855,-1.39629 0.43695,-0.0756 0.526904,-0.15472 0.587922,-0.51708 0.03962,-0.2353 0.208522,-1.28524 0.375329,-2.33319 0.1668,-1.04796 0.36837,-2.27284 0.44792,-2.72196 0.0796,-0.44912 0.38153,-2.28644 0.67105,-4.08294 0.692204,-4.29527 0.891664,-5.36316 1.091154,-5.84175 0.14592,-0.35008 0.19187,-0.37382 0.3828,-0.19772 0.307707,0.28381 0.500667,1.24844 1.765737,8.82744 0.61829,3.70415 1.13622,6.74047 1.15096,6.74739 0.0148,0.007 0.24533,0.0928 0.512421,0.19097 2.04974,0.75303 2.41251,3.09268 0.66964,4.31875 -0.46974,0.33044 -0.67459,0.3813 -1.535871,0.3813 -0.88792,0 -1.05429,-0.0446 -1.56091,-0.41797 -0.31187,-0.22988 -0.67745,-0.6175 -0.81238,-0.86138 -0.341237,-0.61679 -0.391757,-0.64105 -0.547627,-0.26295 -0.40356,0.97897 -1.454854,1.61035 -2.681334,1.61035 -0.57284,0 -0.827579,-0.0846 -1.331891,-0.44232 z m 2.349991,-0.7043 c 0.46855,-0.22348 0.759214,-0.72825 0.759214,-1.31849 0,-0.90535 -0.634324,-1.47425 -1.648742,-1.4787 -0.575615,-0.003 -0.764599,0.0662 -1.143615,0.41573 -0.381333,0.35172 -0.454038,0.52374 -0.454038,1.0744 0,0.53565 0.07834,0.73297 0.428111,1.07831 0.345859,0.34147 0.545733,0.42269 1.040277,0.42269 0.33668,0 0.795143,-0.0873 1.018793,-0.19394 z m 5.717332,-0.2688 c 0.6862,-0.63288 0.7017,-1.35919 0.0437,-2.05034 -0.40383,-0.42421 -0.541021,-0.48108 -1.160601,-0.48108 -0.85579,0 -1.40898,0.35266 -1.61083,1.02693 -0.32093,1.07199 0.39221,1.96723 1.5671,1.96723 0.55256,0 0.73983,-0.0747 1.160591,-0.46274 z m -2.811401,-2.97883 c 0.4091,-0.32456 0.40943,-0.32622 0.23263,-1.19771 -0.36216,-1.78519 -0.26166,-1.62123 -0.993847,-1.62123 -0.65694,0 -0.65694,0 -0.6225,-0.47153 0.0366,-0.50152 -0.1,-0.74977 -0.29716,-0.54013 -0.0657,0.0699 -0.2382,0.91307 -0.38329,1.87379 -0.2638,1.74676 -0.2638,1.74676 0.17248,2.17756 0.23996,0.23695 0.5248,0.63784 0.63298,0.89087 l 0.19667,0.46006 0.326187,-0.62334 c 0.17939,-0.34283 0.51052,-0.76959 0.73585,-0.94834 z m -0.43617,-4.52016 c 0.22392,-0.31519 0.22392,-0.36531 0,-0.68049 -0.420767,-0.59229 -1.396257,-0.34022 -1.410727,0.36455 -0.0133,0.64898 1.01113,0.87842 1.410727,0.31594 z m 6.589881,8.82679 c -0.26331,-0.10158 -0.27057,-20.19321 -0.007,-20.43595 0.25997,-0.23976 5.1179,-0.21869 6.11647,0.0265 4.81828,1.18324 6.46741,6.65077 2.97312,9.85716 -0.72216,0.66265 -2.25944,1.52132 -2.72366,1.52132 -0.10879,0 -0.19778,0.0843 -0.19778,0.18727 0,0.10301 1.03231,1.98387 2.29403,4.1797 2.38654,4.15343 2.59573,4.68354 1.84807,4.68354 -0.42016,0 -0.53391,-0.16426 -2.45069,-3.53854 -0.72285,-1.27252 -1.68135,-2.95673 -2.12998,-3.7427 l -0.81572,-1.42902 h -1.9921 -1.99211 l -0.0738,4.35513 c -0.0717,4.23078 -0.0822,4.35587 -0.36891,4.38093 -0.16232,0.0142 -0.37813,-0.006 -0.47958,-0.0454 z m 6.64965,-10.15861 c 1.16575,-0.49223 2.18817,-1.41998 2.69674,-2.44704 0.36065,-0.7283 0.42084,-1.02196 0.42493,-2.07335 0.004,-1.04753 -0.0521,-1.33672 -0.38783,-1.99726 -0.81552,-1.60449 -2.31499,-2.61667 -4.21017,-2.84198 -1.51015,-0.17952 -3.93737,-0.15906 -4.14775,0.035 -0.13073,0.12057 -0.17708,1.36455 -0.17708,4.7523 0,2.52393 0.0438,4.69413 0.0972,4.82266 0.088,0.21145 0.32451,0.22733 2.48569,0.16687 2.16664,-0.0606 2.46555,-0.0994 3.21824,-0.41718 z m 6.4987,10.08581 c -0.17402,-0.24859 -0.21567,-19.83072 -0.043,-20.22977 0.1366,-0.31574 0.1366,-0.31574 3.35091,-0.27219 3.2143,0.0435 3.2143,0.0435 4.18769,0.48586 1.15372,0.52426 2.06787,1.38528 2.59218,2.44155 0.4895,0.98611 0.54947,2.62883 0.13319,3.64884 -0.37524,0.91951 -1.24961,1.96805 -1.98607,2.38171 -0.55144,0.30973 -0.81263,0.68049 -0.47939,0.68049 0.0739,0 0.4773,0.25005 0.8965,0.55566 2.23812,1.63167 2.99354,4.63881 1.7628,7.01732 -0.6397,1.23628 -1.86936,2.37034 -3.19474,2.94634 -1.00072,0.4349 -1.00072,0.4349 -4.04744,0.47946 -2.40449,0.0352 -3.07327,0.007 -3.17261,-0.13527 z m 6.4666,-1.14567 c 1.73684,-0.65559 2.86255,-1.84889 3.30874,-3.50739 0.6016,-2.23616 -0.62707,-4.54057 -2.95717,-5.54623 -0.9063,-0.39116 -1.01269,-0.40488 -3.34979,-0.43203 l -2.41376,-0.028 -0.0387,4.94957 -0.0388,4.94957 2.39976,-0.0625 c 1.91245,-0.0498 2.53987,-0.11539 3.08972,-0.32294 z m 0.65796,-10.90347 c 0.78675,-0.38807 1.46082,-1.01471 1.85251,-1.72218 0.38359,-0.69283 0.52191,-2.17396 0.27799,-2.97672 -0.24851,-0.81789 -1.0626,-1.79208 -1.85586,-2.22083 -0.75776,-0.40958 -1.8771,-0.53686 -4.72139,-0.53686 h -1.62319 l -0.0392,3.92345 -0.0392,3.92345 2.76908,-0.0447 c 2.52203,-0.0407 2.82353,-0.0715 3.3792,-0.34562 z m 6.67853,12.00584 c -0.91049,-0.45643 -0.86963,0.0199 -0.86963,-10.13693 v -9.26145 l 0.50496,-0.50837 0.50498,-0.50836 h 3.80908 c 3.49381,0 3.81318,0.0195 3.85841,0.23549 0.0454,0.21656 -0.20948,0.23844 -3.17044,0.27219 -3.21976,0.0367 -3.21976,0.0367 -3.21976,0.37695 0,0.34025 0,0.34025 3.09455,0.37712 2.99148,0.0357 3.70388,0.13504 3.17565,0.44305 -0.12106,0.0706 -1.59798,0.12929 -3.28204,0.13043 -3.06194,0.002 -3.06194,0.002 -3.06194,0.33099 0,0.4245 0.15414,0.46645 1.41163,0.38425 1.6672,-0.10899 5.08115,0.0973 5.08115,0.30696 0,0.30312 -0.38641,0.34087 -3.4896,0.34087 -3.02278,0 -3.02278,0 -2.97609,0.37427 0.0467,0.37427 0.0467,0.37427 3.25619,0.41094 2.58289,0.0295 3.2095,0.0727 3.2095,0.22116 0,0.28723 -0.70446,0.35461 -3.70752,0.35461 -2.78526,0 -2.78526,0 -2.78526,0.34024 0,0.34025 0,0.34025 2.56176,0.34025 2.94016,0 3.93102,0.0898 3.93102,0.35615 0,0.29466 -0.49963,0.33631 -3.54152,0.29519 -2.87748,-0.0389 -2.87748,-0.0389 -2.92728,0.28595 -0.0274,0.17867 0.039,0.37678 0.14756,0.44024 0.10855,0.0634 1.57524,0.11631 3.2593,0.11746 2.62235,0.002 3.06194,0.0314 3.06194,0.20623 0,0.25009 0.16063,0.23485 -2.87748,0.27306 -3.83614,0.0483 -3.6153,0.0273 -3.6153,0.34365 0,0.15206 0.083,0.30202 0.18445,0.33325 0.14388,0.0443 3.94818,0.17294 5.97632,0.2021 0.19248,0.003 0.33201,0.0895 0.33201,0.20627 0,0.17062 -0.49168,0.20711 -3.2095,0.23817 -3.2095,0.0367 -3.2095,0.0367 -3.2557,0.4062 -0.0639,0.51154 0.22586,0.55595 3.00663,0.46073 2.5318,-0.0867 3.45857,-0.0135 3.45857,0.27327 0,0.14796 -0.62993,0.1913 -3.2095,0.22078 -3.2095,0.0367 -3.2095,0.0367 -3.2095,0.37692 0,0.34024 0,0.34024 3.17261,0.40829 2.68893,0.0577 3.17261,0.0992 3.17261,0.2722 0,0.17302 -0.48368,0.21452 -3.17261,0.27219 -3.17261,0.068 -3.17261,0.068 -3.21902,0.43964 -0.0464,0.3716 -0.0464,0.3716 3.17068,0.4083 2.91405,0.0332 3.2217,0.0589 3.26616,0.27219 0.0451,0.21656 -0.20983,0.23845 -3.17067,0.2722 -3.21976,0.0367 -3.21976,0.0367 -3.21976,0.37695 0,0.34024 0,0.34024 3.21976,0.37695 2.96081,0.0338 3.21583,0.0556 3.17075,0.27219 -0.0441,0.21198 -0.36556,0.24229 -3.21976,0.30354 -3.17075,0.068 -3.17075,0.068 -3.17075,0.4083 0,0.34024 0,0.34024 3.17261,0.40829 2.68893,0.0577 3.17261,0.0992 3.17261,0.2722 0,0.17302 -0.48348,0.21452 -3.17075,0.27219 -2.95428,0.0634 -3.1744,0.0855 -3.22402,0.32394 -0.0293,0.14074 0.0363,0.30822 0.1457,0.37218 0.10944,0.064 1.57685,0.11724 3.26091,0.11839 2.62235,0.002 3.06194,0.0314 3.06194,0.20623 0,0.11228 -0.0166,0.21637 -0.0369,0.23132 -0.0203,0.0149 -1.46456,0.0609 -3.2095,0.10208 -3.17261,0.0749 -3.17261,0.0749 -3.17261,0.41514 0,0.34024 0,0.34024 3.2095,0.37692 2.60384,0.0298 3.2095,0.072 3.2095,0.22361 0,0.31546 -0.36256,0.35215 -3.4798,0.35215 -3.01298,0 -3.01298,0 -3.01298,0.32205 0,0.32204 0,0.32204 3.10361,0.38549 1.9351,0.0395 3.16365,0.1188 3.26305,0.21048 0.40655,0.37497 -0.0851,0.44296 -3.20276,0.44296 -3.1639,0 -3.1639,0 -3.1639,0.34024 0,0.34025 0,0.34025 2.78526,0.34025 3.00967,0 3.70752,0.0673 3.70752,0.35726 0,0.2788 -7.27808,0.26339 -7.8366,-0.0166 z m 10.296,0.11299 c -0.0541,-0.0499 -0.0984,-4.67266 -0.0984,-10.2728 0,-10.18207 0,-10.18207 0.35275,-10.26373 0.19402,-0.0449 1.57189,-0.059 3.06194,-0.0314 3.11527,0.0578 3.83535,0.23155 5.1947,1.25314 1.8074,1.3583 2.53847,2.87028 2.4281,5.02168 -0.0553,1.07802 -0.1308,1.37059 -0.54779,2.12287 -0.8426,1.52013 -2.30002,2.67295 -4.03829,3.19429 -0.31249,0.0937 -0.55702,-0.38765 2.39343,4.7115 2.14464,3.70649 2.35265,4.24085 1.68493,4.32865 -0.40788,0.0536 -0.60289,-0.21071 -2.08867,-2.83157 -0.65775,-1.16024 -1.68844,-2.96694 -2.29041,-4.01489 l -1.0945,-1.90537 h -1.97474 -1.97472 l -0.0391,4.2075 c -0.0263,2.8274 -0.0927,4.26708 -0.20252,4.38915 -0.17301,0.19227 -0.60176,0.24312 -0.76676,0.0909 z m 5.59258,-9.8562 c 1.71093,-0.28896 3.10922,-1.30754 3.87466,-2.82244 0.33035,-0.65382 0.39062,-0.96082 0.39258,-2.00012 0.002,-1.1152 -0.0421,-1.31102 -0.48268,-2.13637 -1.13183,-2.12043 -2.96278,-2.88902 -6.67182,-2.8007 l -1.69698,0.0404 -0.0388,4.76265 c -0.0214,2.61946 -0.007,4.83956 0.0323,4.93355 0.0912,0.21927 3.33266,0.23552 4.59082,0.023 z M 45.780598,103.72301 c -1.208661,-0.48517 -1.748138,-2.12788 -1.102652,-3.35765 0.172575,-0.3288 0.482237,-0.842792 0.688132,-1.142202 0.344722,-0.50133 0.369602,-0.64128 0.314369,-1.76928 -0.04403,-0.89929 -0.159236,-1.45098 -0.433408,-2.07549 -0.377216,-0.85916 -0.353606,-0.92479 0.276489,-0.76885 0.251241,0.0622 0.350802,0.24855 0.489777,0.9168 0.223101,1.07279 0.662648,2.40789 0.977784,2.96993 0.366547,0.65376 1.679107,1.877852 2.249056,2.097492 0.274807,0.1059 0.658693,0.15572 0.853093,0.11072 0.586564,-0.13578 0.421381,0.24368 -0.352072,0.80873 -0.388017,0.28348 -0.789242,0.68989 -0.891577,0.90314 -0.381717,0.79535 -1.465702,1.5096 -2.271707,1.49685 -0.185206,-0.003 -0.543992,-0.0885 -0.797284,-0.19019 z m 1.476282,-0.40153 c 0.71248,-0.27456 1.137211,-0.897 1.156925,-1.69546 0.02668,-1.08021 -0.815449,-2.065232 -1.761684,-2.060612 -1.685394,0.008 -2.42535,2.136012 -1.175872,3.381292 0.567498,0.56559 1.031865,0.66333 1.780631,0.37478 z m 52.99376,0.0293 c -0.516761,-0.37491 -0.953091,-1.25335 -0.957271,-1.92728 -0.002,-0.29165 0.19827,-0.94503 0.45386,-1.482137 0.399571,-0.839655 0.444481,-1.053775 0.356761,-1.701245 -0.113161,-0.83544 -0.554691,-2.10596 -0.901471,-2.59409 -0.28276,-0.39802 -0.21252,-0.48455 0.25907,-0.31918 0.28347,0.0994 0.44833,0.36768 0.775931,1.26271 0.63149,1.72529 1.01338,2.31851 2.00025,3.107015 0.73739,0.589177 1.00287,0.721017 1.47484,0.732437 0.31657,0.008 0.61814,-0.0254 0.67019,-0.0734 0.052,-0.048 -0.30854,-0.848722 -0.80131,-1.779392 -0.73975,-1.39714 -1.04931,-1.82705 -1.77566,-2.46605 -1.0159,-0.89371 -1.884471,-1.30305 -2.773941,-1.30729 -0.34493,-0.002 -0.62772,-0.0489 -0.62843,-0.10506 0,-0.0561 -0.21711,-0.31643 -0.48089,-0.57841 -0.93008,-0.92373 -1.697927,-1.86425 -3.666711,-4.49124 -1.09392,-1.45965 -2.22182,-2.960134 -2.506425,-3.334404 -0.912059,-1.19939 -2.443338,-3.26083 -2.552683,-3.43647 -0.05826,-0.0936 -0.03859,-0.17012 0.04369,-0.17012 0.202767,0 8.518549,8.480304 9.596649,9.786524 1.06015,1.28446 2.132321,2.27407 2.814051,2.59737 0.33852,0.16053 0.64358,0.47168 0.88538,0.90307 0.47354,0.84483 1.16015,1.27552 2.03346,1.27552 h 0.66175 l -0.0992,-2.82403 c -0.24658,-7.01655 -0.40282,-9.767014 -0.57349,-10.095284 -0.22589,-0.43449 -0.7624,-0.68592 -1.46912,-0.68848 -0.30435,-0.001 -0.55336,-0.0549 -0.55336,-0.11953 0,-0.14572 5.19269,-0.29818 5.35874,-0.15734 0.0661,0.0561 -0.17359,0.17025 -0.53275,0.25366 -0.35915,0.0834 -0.74528,0.25478 -0.85806,0.38082 -0.16992,0.18989 -0.19907,1.36249 -0.17001,6.841194 0.0249,4.69521 0.0825,6.6266 0.19875,6.66233 0.40855,0.1256 1.16009,0.89099 1.38584,1.41136 0.19116,0.44062 0.22552,0.782105 0.14923,1.482782 -0.0899,0.8259 -0.0687,0.93843 0.2292,1.21315 0.30317,0.27961 0.41725,0.29597 1.48924,0.21351 0.97796,-0.0752 1.16092,-0.057 1.16092,0.11545 0,0.2971 -0.60504,0.39243 -1.97054,0.31048 -1.46497,-0.0879 -2.64323,-0.47777 -3.63971,-1.20424 l -0.74004,-0.53953 -0.50427,0.50766 c -0.27733,0.27922 -0.5839,0.66425 -0.68123,0.85563 -0.0973,0.19139 -0.24919,0.49175 -0.33745,0.66748 -0.0883,0.17573 -0.35759,0.49726 -0.59853,0.71451 -0.56567,0.51008 -1.59576,0.55613 -2.22521,0.0995 z m 1.71457,-0.18986 c 1.10568,-0.52734 1.13658,-2.38016 0.0528,-3.166407 -0.61641,-0.447205 -1.19926,-0.384955 -1.7882,0.190977 -0.429411,0.41993 -0.497011,0.57972 -0.497011,1.1748 0,0.73959 0.361111,1.44205 0.930321,1.80977 0.40284,0.26024 0.74227,0.25786 1.30208,-0.009 z m 5.00638,-2.37671 c 0.15614,-0.0771 0.3912,-0.33153 0.52237,-0.56546 0.45596,-0.813212 -0.0383,-1.906002 -1.06534,-2.355502 -1.01605,-0.44469 -2.12134,0.17523 -2.12134,1.18978 0,0.41615 0.66682,1.358882 1.16144,1.641992 0.445,0.25473 1.08996,0.293 1.50287,0.0892 z m -9.210471,-8.664712 c 0.11623,-0.42712 -0.23703,-0.78492 -0.65436,-0.66276 -0.544277,0.15933 -0.589187,0.95491 -0.06,1.06372 0.39997,0.0823 0.61587,-0.0389 0.7144,-0.40096 z M 55.685177,103.37515 c -1.671479,-0.22901 -3.640238,-1.09814 -4.450995,-1.96492 -0.672992,-0.71949 -0.987788,-1.29703 -1.619876,-2.971882 -0.943195,-2.49918 -2.585131,-4.12328 -4.446007,-4.39773 -0.320906,-0.0473 -0.645885,-0.1255 -0.722204,-0.17373 -0.557125,-0.35205 -4.969739,-6.959814 -6.079695,-9.104174 -0.289475,-0.55923 -0.500137,-0.55719 -0.968709,0.009 -1.112553,1.34532 -1.707336,3.431934 -1.707336,5.989754 0,3.35923 1.098254,5.93475 3.350925,7.85829 0.984823,0.84092 2.407141,1.541562 3.593771,1.770292 0.974035,0.18776 1.022997,0.2263 0.917578,0.72235 -0.08343,0.3926 -0.08343,0.3926 -1.132253,0.30922 -3.029031,-0.2408 -6.010665,-1.924042 -7.647216,-4.317132 -2.847808,-4.16432 -2.127508,-9.98967 1.636152,-13.232254 0.416173,-0.35856 0.756675,-0.72699 0.756675,-0.81873 0,-0.0918 -0.397314,-0.80891 -0.88293,-1.5937 -0.894514,-1.445597 -1.107211,-1.968381 -0.662293,-1.62783 0.124027,0.09495 0.880244,0.97517 1.680465,1.95606 0.800221,0.98089 2.011494,2.45712 2.691716,3.28051 3.763528,4.555604 4.560104,5.553554 5.323138,6.668804 1.002014,1.46453 2.037362,2.57998 2.673758,2.88063 0.547357,0.25858 0.637075,0.36572 0.835931,0.99816 0.241768,0.76894 1.416047,1.76734 2.080333,1.76876 0.318087,6.8e-4 0.926963,-1.27192 1.305654,-2.72893 0.422282,-1.62466 0.4233,-4.66995 0.0021,-6.19337 -0.949038,-3.432434 -3.349775,-5.757734 -6.60049,-6.393074 -0.547475,-0.10701 -1.271789,-0.19562 -1.609576,-0.19692 -0.983598,-0.004 -2.788636,0.36379 -3.759218,0.76551 -0.89658,0.3711 -0.89658,0.3711 -1.1727,0.0398 -0.151858,-0.18223 -0.27646,-0.36194 -0.276873,-0.39937 -0.0015,-0.11739 1.501485,-0.65872 2.502776,-0.90153 0.680399,-0.165 1.516685,-0.23028 2.877484,-0.22463 2.310826,0.01 3.805332,0.31566 5.681185,1.16345 1.625602,0.73468 3.372042,2.28862 4.166951,3.70763 1.87575,3.348454 1.641346,7.446964 -0.603239,10.547084 -0.336842,0.46524 -0.610941,0.91546 -0.609097,1.0005 0.0019,0.085 0.213524,0.25012 0.470402,0.36684 1.177659,0.53513 1.664234,1.7383 1.313299,3.247482 -0.30553,1.31398 0.02907,1.63231 1.82825,1.73931 1.382328,0.0822 1.558445,0.14007 1.189197,0.39071 -0.305662,0.20747 -0.746906,0.22107 -1.927014,0.0594 z m -1.917614,-2.23494 c 1.033681,-0.95337 0.36817,-2.673822 -1.189936,-3.076172 -0.587242,-0.15164 -0.744899,-0.14486 -1.190717,0.0512 -1.140133,0.50145 -1.161323,1.788575 -0.04639,2.816882 0.523614,0.48292 0.656258,0.53659 1.326328,0.53659 0.590312,0 0.818298,-0.068 1.100719,-0.32852 z m -9.967972,-9.939372 c 0.419714,-0.46642 -0.159147,-1.25491 -0.694182,-0.94558 -0.52655,0.30443 -0.337153,1.14224 0.258235,1.14224 0.142443,0 0.338629,-0.0885 0.435947,-0.19666 z m 16.606592,11.219072 c -0.09792,-0.14614 0.03037,-0.21531 0.61286,-0.33045 0.660656,-0.13058 0.926122,-0.46837 1.088073,-1.38448 0.07791,-0.44076 0.18621,-3.413132 0.240646,-6.605292 l 0.09897,-5.80393 1.065038,0.35329 1.065023,0.35328 0.07945,5.72284 c 0.0449,3.23439 0.145792,5.959552 0.232043,6.267222 0.199564,0.71197 0.586623,0.98147 1.572832,1.09511 0.527495,0.0608 0.807776,0.1565 0.807776,0.27583 0,0.14777 -0.649145,0.18175 -3.392568,0.17755 -1.865908,-0.003 -3.427466,-0.0573 -3.470143,-0.12097 z m 14.4612,0 c -0.101995,-0.15223 0.03488,-0.21602 0.701575,-0.32697 0.414196,-0.0689 0.610986,-0.19545 0.784033,-0.50409 0.282525,-0.50388 0.499871,-3.317902 0.504357,-6.530022 l 0.0031,-2.25892 -0.85507,-0.75223 c -0.470285,-0.41372 -1.138672,-0.88567 -1.485284,-1.04876 -0.687851,-0.32364 -0.718043,-0.51577 -0.129191,-0.82199 0.3624,-0.18847 0.402405,-0.17859 0.702784,0.17361 0.366813,0.43009 2.352351,1.85111 3.050605,2.18328 0.336858,0.16024 0.844564,0.22327 1.77076,0.21983 1.395417,-0.005 1.871235,-0.15301 2.157197,-0.67022 0.439163,-0.79426 0.496979,-0.38462 0.568916,4.03101 0.03158,1.93873 -1.382225,3.05272 -2.934635,2.31231 -0.29036,-0.13848 -0.481027,-0.16751 -0.513314,-0.0782 -0.121857,0.33714 0.169757,2.714572 0.378662,3.087142 0.262737,0.46862 0.40335,0.53385 1.418541,0.65806 0.467584,0.0572 0.739616,0.15702 0.739616,0.27138 0,0.14536 -0.666351,0.17987 -3.392568,0.1757 -1.865908,-0.003 -3.427466,-0.0573 -3.470142,-0.12097 z m 6.535592,-4.566022 c 0.515055,-0.33273 0.770103,-0.92771 0.766562,-1.78828 -0.006,-1.46074 -0.946412,-2.62664 -2.118655,-2.62664 -0.723487,0 -1.196354,0.30766 -1.480885,0.96353 -0.326942,0.75361 -0.289623,1.43812 0.122979,2.25542 0.591345,1.17134 1.87274,1.73684 2.709999,1.19597 z M 17.156158,102.2733 c -1.652193,-0.17784 -2.651417,-0.58848 -3.551774,-1.45964 -1.23844,-1.198272 -1.278961,-1.330082 -1.348994,-4.388922 -0.05866,-2.56188 -0.07285,-2.6671 -0.376301,-2.79 -0.23861,-0.0966 -0.326425,-0.26963 -0.36097,-0.71105 -0.0556,-0.71071 0.315402,-1.32392 1.201269,-1.98555 1.090891,-0.81477 1.506311,-0.94686 2.688042,-0.85473 0.579894,0.0452 1.259777,0.0279 1.510826,-0.0385 1.150772,-0.3044 2.379635,0.2664 2.752542,1.27853 0.239067,0.64888 0.114671,1.03352 -0.411525,1.27238 -0.391131,0.17755 -0.391131,0.17755 -0.391131,2.25855 0,1.8094 0.0337,2.10901 0.258236,2.29563 0.37397,0.31083 1.067738,0.45024 1.077758,0.21658 0.05684,-1.32484 -0.05363,-6.0622 -0.146619,-6.28776 -0.06795,-0.16484 -0.36336,-0.56445 -0.656465,-0.88801 -0.293105,-0.32357 -0.53291,-0.67419 -0.53291,-0.77918 0,-0.10498 0.2383,-0.43415 0.529546,-0.73148 0.822768,-0.83995 0.88749,-1.24934 0.861371,-5.448494 l -0.02329,-3.742691 -1.693229,-0.03816 c -1.693244,-0.03816 -1.693244,-0.03816 -2.554158,0.578416 -1.025225,0.734255 -1.505219,0.782815 -2.407067,0.24348 -1.142449,-0.68322 -1.55179,-2.245749 -0.922934,-3.522988 0.325111,-0.660311 1.791226,-1.841945 2.621255,-2.112626 0.828007,-0.270024 10.959524,-0.267303 11.312819,0.003 0.219825,0.168213 0.244188,0.743393 0.244926,5.784162 0,3.526147 0.05876,5.789787 0.157376,6.117377 0.08612,0.286 0.38455,0.752754 0.663209,1.037234 0.613346,0.62615 0.626819,0.81989 0.09724,1.39816 -0.225182,0.24588 -0.507397,0.56348 -0.627144,0.70577 -0.176294,0.20949 -0.231763,1.01231 -0.291511,4.21904 -0.07378,3.96032 -0.07378,3.96032 -0.484333,4.73137 -0.441833,0.82983 -1.871648,2.171362 -3.046842,2.858742 -1.457866,0.85271 -3.305402,1.08747 -6.149226,0.78136 z m 5.599214,-1.89664 c 1.720086,-0.489997 2.916883,-1.604612 3.194759,-2.975412 0.08174,-0.4032 0.148611,-2.18545 0.148611,-3.96055 0,-3.48395 0.05678,-3.82778 0.771668,-4.67302 0.440048,-0.5203 0.440048,-0.5203 0.138473,-0.81659 -0.165861,-0.16296 -0.437038,-0.57188 -0.602619,-0.90873 -0.287615,-0.585144 -0.301191,-0.869054 -0.304275,-6.369144 l -0.0032,-5.756701 -5.127823,0.04059 c -5.659524,0.0448 -5.828528,0.06948 -6.305836,0.920772 -0.479123,0.854536 -0.128778,2.342236 0.651728,2.767467 0.684015,0.372665 0.995049,0.304202 1.106459,-0.243547 0.05311,-0.261078 0.222142,-0.536676 0.375637,-0.612441 0.157907,-0.07794 1.404537,-0.137751 2.871138,-0.137751 h 2.592052 l 0.03607,3.164271 c 0.06112,5.36165 0.0166,5.78862 -0.707094,6.780464 -0.50592,0.69337 -0.50592,0.69337 -0.121503,1.15821 0.722661,0.87383 0.779104,1.23037 0.786054,4.96517 0.0065,3.47906 0.0065,3.47906 -0.441155,3.8746 -0.387383,0.3423 -0.58106,0.40166 -1.438742,0.44101 -1.138937,0.0522 -1.837443,-0.23999 -2.122018,-0.88776 -0.168739,-0.38409 -0.202649,-4.35263 -0.0412,-4.82177 0.04678,-0.13595 0.246637,-0.28458 0.444136,-0.3303 0.603593,-0.13972 0.383841,-0.84673 -0.3758,-1.20904 -0.597778,-0.2851 -1.220672,-0.25673 -1.680022,0.0765 -0.388814,0.28208 -0.388814,0.28208 -0.777629,0 -0.852134,-0.61821 -2.414888,-0.0579 -2.414888,0.86581 0,0.11721 0.09487,0.2131 0.210809,0.2131 0.115941,0 0.315151,0.0962 0.44269,0.21387 0.193013,0.17802 0.232486,0.61714 0.235482,2.61988 0.004,2.63305 0.123067,3.37418 0.664374,4.13374 0.563175,0.790235 2.062314,1.502042 3.685141,1.749732 1.082657,0.16525 2.999607,0.0335 4.108575,-0.28245 z m -6.618124,-5.070992 c -0.105419,-1.81527 -0.04628,-2.54719 0.205821,-2.54719 0.069,0 0.166688,0.22966 0.217095,0.51036 0.109581,0.61019 -0.04533,3.42281 -0.203696,3.69857 -0.0613,0.10673 -0.159944,-0.64105 -0.21922,-1.66174 z m 8.001662,0.86931 c -0.05833,-0.47881 -0.106053,-1.81087 -0.106053,-2.96013 0,-1.76664 0.03421,-2.08955 0.221344,-2.08955 0.188454,0 0.219427,0.33873 0.208419,2.27964 -0.0071,1.2538 -0.059,2.58586 -0.115291,2.96013 l -0.102365,0.68049 z m -0.07449,-7.09404 c -0.08039,-0.18872 -0.319577,-0.42873 -0.531552,-0.53336 -0.471288,-0.23263 -0.480259,-0.31342 -0.05402,-0.48623 0.182241,-0.0739 0.42631,-0.31808 0.542384,-0.54264 l 0.211015,-0.4083 0.195861,0.44232 c 0.107721,0.24328 0.245457,0.44326 0.306105,0.4444 0.06063,10e-4 0.199225,0.0541 0.307965,0.11767 0.156092,0.0912 0.125015,0.18564 -0.147564,0.44824 -0.189899,0.18295 -0.421499,0.45153 -0.514671,0.59684 -0.162113,0.25286 -0.175644,0.24948 -0.31552,-0.0789 z m -0.03156,-5.215244 c 0,-2.70139 0.175792,-5.941874 0.317939,-5.860848 0.142945,0.08148 0.172221,6.607038 0.03252,7.251228 -0.201128,0.92749 -0.350462,0.33502 -0.350462,-1.39038 z m 64.571811,17.758356 c -0.0653,-0.0974 0.01092,-0.15532 0.204493,-0.15532 0.169712,0 0.534946,-0.0872 0.811612,-0.19385 0.852267,-0.32843 0.86661,-0.48858 0.762194,-8.516402 -0.09293,-7.145144 -0.09293,-7.145144 0.269746,-6.736854 0.76181,0.85763 0.774028,0.93651 0.958955,6.192454 0.2083,5.91979 0.352882,7.973842 0.595299,8.457082 0.221419,0.44137 0.714782,0.66148 1.482701,0.66148 0.320817,0 0.583297,0.0612 0.583297,0.13609 0,0.0809 -0.553858,0.13639 -1.364954,0.1368 -0.750728,4.1e-4 -2.002685,0.0397 -2.782114,0.0873 -0.993986,0.0607 -1.44823,0.0402 -1.521229,-0.0687 z M 82.689258,91.623858 c -0.772583,-0.23409 -1.064773,-0.38049 -2.703138,-1.3544 -2.482944,-1.47597 -4.716092,-1.57669 -6.350474,-0.28642 l -0.629608,0.49705 -1.429829,-0.31367 c -0.786409,-0.17253 -1.861451,-0.46042 -2.38899,-0.63977 -1.700504,-0.57812 -2.419506,-0.82583 -3.17261,-1.09302 -2.487814,-0.88268 -7.693285,-2.695234 -8.613003,-2.999064 -0.956254,-0.3159 -1.373489,-0.59119 -1.174382,-0.77483 0.03412,-0.0315 1.187781,0.14791 2.563705,0.39862 1.37591,0.25071 2.761426,0.49809 3.078923,0.54973 l 0.577252,0.0939 -0.0985,-3.53563 c -0.05417,-1.94459 -0.13871,-3.721063 -0.187863,-3.947712 -0.134578,-0.620566 -0.549186,-0.937345 -1.453454,-1.110484 -0.774958,-0.14838 -1.113453,-0.400896 -0.55832,-0.416502 1.549355,-0.04356 6.275688,0.01464 6.387999,0.07866 0.252495,0.143925 -0.0047,0.33689 -0.449065,0.33689 -0.234153,0 -0.598856,0.137799 -0.810432,0.30622 -0.549835,0.437689 -0.678289,1.552028 -0.630582,5.470608 l 0.03965,3.25644 2.803702,0.51129 c 1.542036,0.28122 3.600544,0.730764 4.574462,0.998994 1.836306,0.50574 3.541562,0.6516 4.352555,0.3723 0.296381,-0.10207 0.461047,-0.0616 0.842955,0.20703 0.511455,0.35979 1.414527,0.53321 2.032153,0.39024 0.211075,-0.0489 0.785273,-0.42927 1.275994,-0.84534 0.917047,-0.77757 1.864595,-1.268774 2.457652,-1.274034 0.496742,-0.004 1.235739,0.31506 1.65535,0.715604 0.202899,0.19367 0.637606,0.83055 0.966023,1.41528 0.853284,1.51926 1.304902,1.5277 2.623852,0.049 0.900357,-1.00942 1.132149,-1.14539 1.132149,-0.66415 0,0.76134 -2.095147,2.61306 -3.764176,3.32681 -0.93294,0.39896 -2.170346,0.51656 -2.949952,0.28034 z m 1.549414,-0.75142 c 0.537824,-0.36407 0.733183,-0.8066 0.735647,-1.66641 0.0027,-0.92363 -0.399705,-1.56695 -1.208956,-1.93308 -1.694646,-0.766724 -3.367084,1.05341 -2.574596,2.80196 0.4775,1.05356 2.058523,1.46726 3.047905,0.79753 z M 70.43314,88.917448 c 0.304674,-0.40118 0.289681,-0.68875 -0.05618,-1.07745 -0.232456,-0.26126 -0.335854,-0.29323 -0.553362,-0.1711 -0.444652,0.24969 -0.575924,0.79571 -0.28853,1.20024 0.305943,0.43066 0.59586,0.44625 0.89807,0.0483 z m 7.976724,-1.11102 c -0.243509,-0.0979 -0.533854,-0.27922 -0.645206,-0.40297 -0.111366,-0.12375 -0.352543,-0.225 -0.535979,-0.225 -0.333508,0 -0.333508,0 -0.39575,-4.457214 -0.05311,-3.803373 -0.09792,-4.519274 -0.3055,-4.880351 -0.251861,-0.438121 -0.755376,-0.693962 -1.500084,-0.762207 -0.447796,-0.04104 -0.683085,-0.308209 -0.349636,-0.397027 0.104888,-0.02794 1.606049,-0.03201 3.335918,-0.0091 2.349089,0.03117 3.130422,0.08272 3.086714,0.203656 -0.03218,0.08905 -0.287734,0.19628 -0.567883,0.238278 -1.295694,0.194246 -1.327715,0.331059 -1.423218,6.080591 -0.04384,2.63995 -0.119526,4.797524 -0.168163,4.794594 -0.04865,-0.003 -0.287704,-0.0854 -0.531213,-0.1833 z"
             id="path225" />
        </g>
      </g>
    </clipPath>
  </defs>
  <g
     inkscape:label="Capa 1"
     inkscape:groupmode="layer"
     id="layer1">
    <g
       id="g408"
       transform="matrix(0.06645311,0,0,0.06584819,-3.0848422,-4.7637563)"
       inkscape:export-filename="/home/rodnye/Descargas/g408.svg"
       inkscape:export-xdpi="96"
       inkscape:export-ydpi="96">
      <path
         style="fill:#000000;stroke-width:0.361743"
         d="m 80.236918,193.58036 c -0.24872,-0.47049 -0.45316,-2.09524 -0.4544,-3.61052 -0.003,-4.08656 -0.51576,-6.1123 -2.51727,-9.95122 -0.99305,-1.90474 -1.74705,-3.70974 -1.6755,-4.01111 0.22654,-0.95433 2.60131,-0.56466 6.62016,1.08632 2.08382,0.85604 4.22357,1.55645 4.75504,1.55645 2.59267,0 8.75515,-2.72226 11.25269,-4.97087 1.832862,-1.65017 2.187512,-4.52361 2.203162,-17.851 0.008,-7.19468 0.15156,-11.44981 0.37852,-11.25142 0.20067,0.17546 2.05724,2.66172 4.12567,5.52496 4.12052,5.70393 4.96448,6.85287 6.60264,8.98895 1.03023,1.34337 1.08307,1.5826 0.85257,3.86243 -0.39986,3.95514 -1.99131,8.42428 -3.97874,11.17305 -2.87439,3.97553 -8.32142,7.79884 -13.695122,9.61273 -9.42721,3.18218 -9.68205,3.35816 -10.68166,7.37616 -0.43546,1.75039 -1.75758,3.32055 -2.796,3.32055 -0.29674,0 -0.74306,-0.38495 -0.99176,-0.85546 z M 54.63677,177.57274 c -0.849407,0 -0.125416,-1.12044 0.252415,-1.22894 0.289829,-0.0832 2.196541,-0.88195 4.237145,-1.77482 6.630578,-2.90123 6.827148,-3.47995 6.827148,-20.10082 0,-6.373 -0.0877,-13.24978 -0.19486,-15.28177 -0.16713,-3.16875 -0.11168,-3.67754 0.38961,-3.57537 0.32143,0.0654 2.09642,0.5458 3.99355,0.82405 l 3.40914,0.7049 v 13.91428 13.91426 l 1.34099,1.09023 c 1.26932,1.03196 3.31515,1.61695 4.40585,1.25981 0.58143,-0.19052 0.64933,-1.30495 0.0974,-1.59899 -0.66147,-0.3524 -0.43072,-2.81216 0.39465,-4.20676 1.41123,-2.38464 4.2364,-3.2596 6.53072,-2.02261 2.6102,1.40729 2.65141,4.42802 0.0903,6.61168 -1.71523,1.46242 -2.43195,1.81204 -8.18447,3.99246 -2.25003,0.85285 -4.79227,1.82499 -5.64943,2.16029 -0.85713,0.33533 -3.48705,1.36502 -5.8442,2.28822 -7.297499,2.85814 -10.730454,4.10744 -11.286771,4.10744 -0.294027,0 -0.157337,-1.07754 -0.809128,-1.07754 z m 99.56456,-0.0469 c 0,6.5648 -20.63633,-7.94255 -23.37694,-9.02806 -5.10785,-2.02316 -7.3451,-5.1792 -5.4979,-7.75569 0.79978,-1.11554 2.23028,-1.90763 3.44515,-1.90763 0.35085,0 1.35203,0.29801 2.22485,0.66223 2.69017,1.12263 3.95067,4.3111 2.57825,6.52174 -0.29904,0.48164 -0.44455,0.96118 -0.32339,1.06564 0.41219,0.35532 2.57966,0.2493 3.79809,-0.18582 2.3059,-0.82336 2.34424,-1.06362 2.36893,-14.84837 0.0132,-6.89018 0.14522,-13.12372 0.29534,-13.85234 0.2728,-1.32477 0.2728,-1.32477 3.90748,-2.12597 1.9991,-0.44065 3.72481,-0.72353 3.83492,-0.62862 0.1101,0.095 -0.0185,3.75918 -0.28629,8.14279 -0.54014,8.84966 -0.29092,20.70017 0.51549,24.51275 3.86481,6.42509 6.91019,6.74803 6.51602,9.4273 z m -42.07846,-10.04559 c 0,-0.23246 0.43832,-1.13227 0.97402,-1.99978 1.63042,-2.6402 1.31702,-3.7477 -2.54515,-8.99425 -1.42897,-1.94115 -3.79093,-5.19188 -5.24886,-7.22385 -1.45791,-2.03196 -3.52949,-4.9036 -4.60347,-6.38139 -2.392562,-3.29207 -3.178322,-4.38264 -5.323932,-7.38897 -0.92285,-1.29308 -2.23593,-3.10674 -2.91796,-4.03036 -0.68197,-0.92363 -2.5584,-3.56854 -4.16981,-5.87759 -3.07651,-4.40846 -6.32993,-8.96333 -7.46849,-10.45613 -0.65802,-0.86274 -0.65277,-0.88841 0.21704,-1.06567 0.49025,-0.0999 2.25106,-0.28669 3.91299,-0.41509 2.25009,-0.17373 3.17882,-0.12092 3.63737,0.20705 0.33867,0.24234 2.13483,2.3383 3.99149,4.65773 1.8566,2.31947 4.42761,5.53017 5.71335,7.13491 18.640922,23.26619 20.175222,25.35502 21.095452,28.71994 0.6363,2.32659 0.63566,2.5805 -0.0132,4.9495 -0.73092,2.6727 -2.58359,5.29353 -5.25787,7.4379 -1.51795,1.2172 -1.994,1.39051 -1.994,0.72598 z M 97.586228,157.32253 c -5.40557,-3.56698 -6.68595,-8.44553 -3.65876,-13.94202 0.7643,-1.38777 1.82001,-2.87173 2.34596,-3.29767 0.9563,-0.77445 0.9563,-0.77445 2.22337,1.1346 1.259201,1.89724 1.265431,1.92905 1.003931,5.13613 -0.1975,2.42277 -0.44046,3.39666 -0.974631,3.9076 -0.39129,0.37429 -0.81414,1.04439 -0.93964,1.48914 -0.24475,0.8679 0.55366,2.83906 1.524951,3.76426 0.36994,0.3524 -0.10112,1.24846 0.47215,1.80584 l -0.12331,1.23874 z m 14.600962,-15.38232 c -0.2313,-0.24037 -3.54348,-3.40826 -6.08672,-7.78738 l -5.66607,-7.35042 -0.005,-14.46352 c -0.003,-7.95494 -0.10086,-14.770392 -0.21783,-15.145422 -0.312691,-1.00321 -3.442482,-2.376446 -9.229762,-4.049714 -6.14135,-1.775633 -8.0491,-1.860871 -13.87895,-0.619937 -4.38719,0.933841 -6.38986,0.887743 -7.92288,-0.18237 -0.73185,-0.51086 -0.84203,-0.859536 -0.70721,-2.237705 0.30538,-3.121202 0.14205,-4.995892 -0.53219,-6.111043 -0.92506,-1.529938 -0.92604,-3.061185 -0.003,-3.660219 1.01098,-0.655572 3.92617,-0.343592 6.58163,0.704409 6.22384,2.456253 16.86386,3.238695 32.791482,2.411389 5.60362,-0.291053 11.21408,-0.687999 12.4677,-0.882092 3.635,-0.562807 12.55273,-2.562516 15.52621,-3.481624 5.50179,-1.700612 7.23569,-0.837301 5.20612,2.59213 -0.78024,1.318398 -0.80332,1.574087 -0.36481,4.043321 0.40767,2.295697 0.38829,2.740864 -0.14997,3.449222 -0.73396,0.965602 -0.36817,0.947143 -5.33473,0.26904 -5.33309,-0.728125 -11.34441,-0.506393 -14.4906,0.534551 -1.2522,0.414294 -3.1808,1.384461 -4.28575,2.155921 -3.53479,2.46795 -3.37136,1.517821 -3.37202,19.600943 0,10.18408 0.13677,15.8695 0.38277,15.8695 0.32025,0 6.46757,-7.52746 9.1622,-11.21925 0.42858,-0.58718 1.2408,-1.5903 1.80501,-2.22919 0.56416,-0.63886 1.8791,-2.23812 2.92211,-3.5539 5.10356,-6.43838 10.96934,-13.063762 12.94489,-14.621322 3.6121,-2.847766 4.08773,-2.955534 13.22854,-2.962814 l 7.9132,-0.0074 -0.12093,1.259492 c -0.12093,1.259492 -0.12093,1.259492 -2.26382,1.437792 -2.4917,0.2073 -3.44026,0.60113 -4.79792,1.99199 -2.09011,2.14128 -3.13518,6.609512 -4.16646,17.813532 -0.59342,6.44713 -0.54122,6.30101 -2.40698,6.73409 -2.58903,0.60098 -7.08661,1.28844 -7.38597,1.12897 -0.15209,-0.0809 -0.20278,-2.07231 -0.11248,-4.42504 0.42691,-11.13095 0.45501,-13.86498 0.14416,-14.03057 -0.18456,-0.0982 -0.67463,0.39332 -1.089,1.09257 -0.41446,0.69925 -1.98616,3.085 -3.49271,5.30171 -3.6249,5.33356 -3.84767,5.65696 -7.4712,10.84806 -1.71484,2.45665 -3.11789,4.53389 -3.11789,4.6161 0,0.23567 -8.9285,12.58863 -10.24603,14.17572 -1.28349,1.54615 -1.51845,1.65404 -2.15733,0.99043 z m -23.051652,-3.95313 c -9.20513,-0.66092 -16.95089,-1.84051 -24.74057,-3.76769 -2.86618,-0.70907 -7.121857,-2.50233 -9.409332,-3.96489 -1.871095,-1.19635 -2.023574,-1.40305 -2.25814,-3.0607 -0.416406,-2.94354 -1.051088,-5.04919 -2.028987,-6.73167 -0.509979,-0.87742 -0.810607,-1.59533 -0.668003,-1.59533 0.142578,0 2.380969,0.67408 4.974193,1.49795 2.593198,0.82388 5.503843,1.65484 6.468139,1.84659 0.9643,0.19174 3.05608,0.65113 4.64838,1.02085 1.59233,0.36975 6.973,1.20251 11.95704,1.85063 4.984,0.6481 9.30376,1.25838 9.59942,1.35621 0.29564,0.0977 0.91802,0.81447 1.38306,1.59262 0.46502,0.77815 2.17138,3.15291 3.79191,5.27724 4.21866,5.53018 4.03941,5.04617 1.84862,4.99094 -1.02542,-0.0259 -3.52998,-0.16658 -5.56573,-0.31275 z m 28.859872,-0.0397 c 0.0158,-0.24209 1.32072,-2.25384 2.90027,-4.47052 1.57957,-2.2167 3.35025,-4.7519 3.93488,-5.63382 0.59431,-0.89653 1.41983,-1.67236 1.87252,-1.75979 0.44526,-0.0859 3.96548,-0.54613 7.82265,-1.02256 8.37391,-1.03428 18.11234,-3.0099 23.92391,-4.85335 2.32431,-0.73728 4.33851,-1.34051 4.47599,-1.34051 0.13756,0 -0.16951,0.71791 -0.68218,1.59533 -1.05983,1.81391 -1.80828,4.51277 -1.80828,6.52058 0,1.14392 -0.23235,1.54899 -1.43114,2.49559 -2.55774,2.0196 -9.58603,4.61615 -16.17317,5.97509 -3.8007,0.78409 -6.23302,1.13013 -12.98049,1.84661 -9.88612,1.0498 -11.88789,1.1591 -11.85496,0.64735 z M 67.943228,122.72497 c -1.90565,-0.43071 -3.59404,-0.96336 -3.75198,-1.18369 -0.15789,-0.22037 -0.40094,-1.78123 -0.53995,-3.46871 -0.41057,-4.984 -1.41904,-12.64214 -1.97702,-15.01276 -1.120138,-4.759162 -3.3801,-7.067022 -7.214516,-7.367522 -2.142864,-0.16784 -3.19424,-0.50923 -2.263817,-1.427426 l -0.120927,-1.259493 7.718417,0.0025 c 7.308663,0.0025 7.821863,0.04565 9.666503,0.79942 1.07145,0.437862 2.67225,1.339519 3.55739,2.003679 1.44754,1.08621 7.1831,7.277062 9.38276,10.127542 0.47412,0.61444 1.04393,1.21404 1.26625,1.33247 0.22232,0.11846 0.40418,0.39969 0.40418,0.62497 0,0.29668 -1.09486,0.40443 -3.97124,0.3908 -3.97119,-0.0197 -3.97119,-0.0197 -5.27121,-1.77289 -0.715,-0.96474 -1.47053,-1.75407 -1.67893,-1.75407 -0.24265,0 -0.28608,3.38277 -0.12066,9.40416 0.29888,10.88547 0.87936,9.90827 -5.08514,8.56021 z m -13.093833,-3.08315 c -1.786129,-0.54874 -5.06502,-1.90571 -5.06502,-2.09615 0,-0.39742 2.875792,-2.57126 4.852579,-3.66807 1.872125,-1.03877 5.097233,-2.0639 6.493124,-2.0639 0.52067,0 0.74668,0.38211 0.94376,1.59536 0.46847,2.88437 0.50485,2.80197 -1.745261,3.95251 -1.165018,0.59575 -2.420441,1.40484 -2.789717,1.79801 -0.653878,0.69607 -1.499786,0.84777 -2.689465,0.48224 z m 100.640805,-0.3854 c 0.46174,0 -1.48267,-1.14805 -2.7273,-1.75209 -1.2446,-0.60404 -2.32803,-1.1423 -2.40758,-1.19612 -0.0795,-0.0538 -0.0211,-1.10419 0.13307,-2.33417 0.27779,-2.23635 0.27779,-2.23635 1.89795,-2.0252 2.25819,0.29431 6.72008,2.25226 8.92541,3.91667 1.01788,0.7682 1.85066,1.5104 1.85066,1.64936 0,0.35731 -4.21158,1.9313 -5.8442,2.18415 -1.09582,0.16979 -2.50269,-0.4426 -1.82806,-0.4426 z m -81.470072,-7.34611 c 0,2.25703 0.11512,-2.25446 1.47888,-2.53228 2.01758,-0.41109 9.48219,-0.38199 13.05212,0.0508 6.50102,0.78827 7.53119,1.05548 8.77418,2.27588 1.700871,1.66991 1.53532,1.84412 -1.46889,1.54568 -4.65543,-0.46246 -14.03691,-0.27609 -17.37957,0.34525 -4.76759,0.88621 -4.45672,-4.32663 -4.45672,-1.68541 z m 62.356292,1.83571 c -0.69644,-0.19249 -1.26625,-0.50388 -1.26625,-0.69173 0,-0.66996 2.89847,-4.59922 3.39269,-4.59922 0.54818,0 0.7019,2.75525 0.25981,4.6601 -0.26087,1.12446 -0.435,1.17048 -2.38638,0.63085 z m -18.99375,-0.53838 c 0,2.14514 -4.09095,-2.19375 -4.09095,-3.41001 0,-0.16781 0.74512,-0.0718 1.65585,0.21346 1.89496,0.59361 6.14869,0.45045 9.54558,-0.32125 1.12502,-0.25559 2.04549,-0.41603 2.04549,-0.35653 0,0.0595 -0.7257,1.01977 -1.61266,2.13391 -1.61264,2.02572 -1.61264,2.02572 -4.18838,1.99226 -1.41664,-0.0173 -3.35493,-0.67011 -3.35493,-0.25192 z"
         id="path73"
         sodipodi:nodetypes="scssssscsssssssssssssscscccscssssssssssssssssssccsscccscsssssssssssscscsccsssssscsscscscccssssscsssssscssscsssssscsssssscssssssccssscssssssssssscsscssssssssccssscsccsssssccscccssssssssssscsssssssssssssscsssccsssssscss"
         inkscape:transform-center-x="9.7184685"
         inkscape:transform-center-y="-94.584322" />
    </g>
  </g>
</svg>
