<?xml version="1.0" encoding="UTF-8" standalone="no"?>
<!-- Created with Inkscape (http://www.inkscape.org/) -->

<svg
   width="62mm"
   height="196mm"
   viewBox="0 0 62 196"
   version="1.1"
   id="svg5"
   inkscape:version="1.1.2 (0a00cf5339, 2022-02-04)"
   sodipodi:docname="img_08.svg"
   xmlns:inkscape="http://www.inkscape.org/namespaces/inkscape"
   xmlns:sodipodi="http://sodipodi.sourceforge.net/DTD/sodipodi-0.dtd"
   xmlns="http://www.w3.org/2000/svg"
   xmlns:svg="http://www.w3.org/2000/svg">
  <sodipodi:namedview
     id="namedview7"
     pagecolor="#ffffff"
     bordercolor="#000000"
     borderopacity="0.25"
     inkscape:pageshadow="2"
     inkscape:pageopacity="0.0"
     inkscape:pagecheckerboard="0"
     inkscape:document-units="mm"
     showgrid="false"
     inkscape:zoom="0.4187009"
     inkscape:cx="353.47428"
     inkscape:cy="253.16401"
     inkscape:window-width="1280"
     inkscape:window-height="648"
     inkscape:window-x="0"
     inkscape:window-y="0"
     inkscape:window-maximized="1"
     inkscape:current-layer="layer2" />
  <defs
     id="defs2">
    <clipPath
       clipPathUnits="userSpaceOnUse"
       id="clipPath1015">
      <g
         inkscape:label="Clip"
         id="use1017">
        <path
           style="fill:#1a1a1a;stroke:none;stroke-width:0.568792"
           d="m 338.22188,151.17924 -6.00665,4.14731 6.00665,-4.14731"
           id="path2368" />
        <path
           style="fill:#1a1a1a;stroke:none;stroke-width:0.568792"
           d="m -56.57849,151.17924 -6.006645,4.14731 6.006645,-4.14731"
           id="path2370" />
        <path
           style="fill:#1a1a1a;stroke:none;stroke-width:0.568792"
           d="m 339.31399,148.21688 -1.09211,1.77742 1.09211,-1.77742"
           id="path2372" />
        <path
           style="fill:#1a1a1a;stroke:none;stroke-width:0.568792"
           d="m -55.486373,148.21688 -1.092117,1.77742 1.092117,-1.77742"
           id="path2374" />
        <path
           style="fill:#1a1a1a;stroke:none;stroke-width:0.568792"
           d="m 291.8069,143.47711 c 1.98983,3.73494 4.70593,6.91 8.73693,7.70213 l -6.00664,-8.2946 -2.73029,0.59247"
           id="path2376" />
        <path
           style="fill:#1a1a1a;stroke:none;stroke-width:0.568792"
           d="m 183.14123,145.847 c 0,14.45039 12.48509,18.59532 24.02658,15.31184 3.05957,-0.87034 7.13207,-4.42873 10.14359,-4.34282 3.27526,0.0936 7.25875,3.62415 10.60664,4.49509 11.41099,2.96769 23.47888,-1.24894 23.48052,-15.46411 -3.71375,2.82668 -6.47953,6.48638 -11.46723,4.85827 -6.80335,-2.22118 -15.28746,-14.86394 -22.3884,-6.04322 -10.09554,-8.185 -15.15258,4.96847 -24.57264,6.38863 -4.22213,0.6369 -6.70724,-2.82728 -9.82906,-5.20368"
           id="path2378" />
        <path
           style="fill:#782121;stroke:none;stroke-width:0.568792"
           d="m 17.139421,141.10722 c -4.82334,20.00659 -29.820806,5.51414 -42.046512,3.55483 -1.756671,4.94892 -3.411228,12.50471 2.192425,15.35984 6.336464,3.22838 17.2319714,0.009 24.0183874,-0.49472 12.8045296,-0.95151 25.9252196,2.31124 38.7701596,2.31657 5.54031,0.002 13.74266,2.16667 18.44149,-2.16193 3.84917,-3.54535 2.30874,-12.51834 2.30874,-17.38965 -2.92906,2.06003 -1.63818,8.99432 -1.63818,12.44191 h -0.54606 v -12.44191 h -0.54606 v 13.62686 h -0.54605 v -13.62686 h -1.09212 v 13.62686 h -0.54606 v -13.62686 h -0.54606 v 14.21933 h -0.54606 v -14.21933 h -1.09211 v 14.21933 h -0.54606 v -14.8118 h -0.54606 v 14.8118 h -0.54606 v -14.21933 h -1.09212 v 14.8118 h -0.54606 v -15.40427 h -0.54605 v 15.40427 h -0.54606 v -15.40427 h -0.54606 l -0.54606,15.40427 h -0.54606 v -15.40427 h -0.54606 v 15.40427 h -0.54606 v -15.40427 h -1.09211 v 15.40427 h -0.54606 v -15.40427 h -0.54606 v 15.40427 h -0.54606 v -15.40427 h -1.09212 v 15.40427 h -0.54605 v -15.40427 h -0.54606 v 15.40427 h -0.54606 v -15.40427 h -1.09212 v 15.40427 h -0.54606 v -15.40427 h -0.54606 v 15.40427 h -0.54605 v -15.40427 h -1.09212 v 14.8118 h -0.54606 v -14.8118 h -0.54606 v 15.40427 h -0.54606 v -15.40427 h -0.54606 v 14.8118 h -1.09211 v -14.8118 h -0.54606 v 14.8118 h -0.54606 v -15.40427 h -0.54606 v 15.40427 h -1.09212 v -15.40427 h -0.54606 v 15.40427 h -0.54605 v -15.40427 h -0.54606 v 14.8118 h -1.09212 v -14.8118 h -0.54606 v 14.8118 h -0.54606 v -14.8118 h -0.54606 v 14.8118 h -0.54605 l -0.54606,-14.8118 h -0.54606 v 14.8118 h -0.54606 v -14.8118 h -0.54606 v 14.21933 h -0.54606 l -0.54606,-14.21933 h -0.54605 v 14.21933 h -0.54606 v -14.21933 h -0.54606 v 13.62685 h -0.54606 v -13.62685 h -1.09212 v 13.03438 h -0.54606 v -13.03438 h -0.54605 v 13.03438 h -0.54606 l -1.09212,-13.03438"
           id="path2380" />
        <path
           style="fill:#1a1a1a;stroke:none;stroke-width:0.568792"
           d="m 330.57706,145.847 v 0.59247 h -12.01329 c 1.1631,5.43948 3.98131,9.62648 9.28299,10.66449 -1.04952,6.18896 6.22179,5.86962 4.91453,0 5.2793,-1.03386 8.81885,-5.53013 9.283,-11.25696 3.11963,-0.53975 4.25762,-4.40918 0.52203,-5.19717 -6.93495,-1.46222 -16.9715,-0.94973 -23.99436,-0.0705 -2.72156,0.34067 -4.47004,4.06436 -1.06809,5.07926 3.86718,1.15413 9.06621,0.18841 13.07319,0.18841"
           id="path2382" />
        <path
           style="fill:#1a1a1a;stroke:none;stroke-width:0.568792"
           d="m -64.223311,145.847 v 0.59247 H -76.2366 c 0.758257,5.46851 4.197553,9.66855 9.282996,10.66449 -1.343085,6.03018 6.257614,6.03018 4.914528,0 5.279404,-1.03386 8.818682,-5.53013 9.282996,-11.25696 3.119578,-0.53975 4.257346,-4.40918 0.522032,-5.19717 -6.93478,-1.46222 -16.971774,-0.94973 -23.994142,-0.0705 -2.721775,0.34067 -4.470418,4.06436 -1.068528,5.07926 3.867515,1.15413 9.066156,0.18841 13.073407,0.18841"
           id="path2384" />
        <path
           style="fill:#501616;stroke:none;stroke-width:0.568792"
           d="m 92.495511,138.73733 c -0.37733,5.19065 -3.98186,17.55435 -0.30907,21.67322 2.98257,3.34509 9.546739,2.02566 13.414469,2.02566 h 33.85564 c 3.79783,0 9.77881,1.20923 12.89026,-1.69092 3.43798,-3.20527 1.25702,-18.14208 -0.87697,-22.00796 v 14.8118 h -1.09212 v -14.8118 h -0.54606 v 14.8118 h -0.54606 l -0.54606,-14.8118 h -0.54606 v 14.8118 h -0.54605 v -14.8118 h -0.54606 v 14.8118 h -1.09212 v -14.8118 h -0.54606 v 14.8118 h -0.54606 v -14.8118 h -0.54606 l -0.54606,14.8118 h -0.54605 v -14.8118 h -0.54606 v 14.8118 h -0.54606 l -0.54606,-14.8118 h -0.54606 v 14.8118 h -0.54606 v -14.8118 h -0.54606 v 14.8118 h -1.09211 v -14.8118 h -0.54606 v 14.8118 h -0.54606 v -14.8118 h -0.54606 l -0.54606,14.8118 h -0.54606 v -14.8118 h -0.54605 v 14.8118 h -1.09212 v -14.8118 h -0.54606 v 14.8118 h -0.54606 v -14.8118 h -0.54606 l -0.54606,14.8118 h -0.54605 v -14.8118 h -0.54606 v 14.8118 h -0.54606 l -0.54606,-14.8118 h -0.54606 v 14.8118 h -0.54606 v -14.8118 h -0.54606 v 14.8118 h -1.09211 v -14.8118 h -0.54606 v 14.8118 h -0.54606 v -14.8118 h -0.54606 l -0.54606,14.8118 h -0.54606 v -14.8118 h -0.54605 v 14.8118 h -0.54606 l -0.54606,-14.8118 h -0.54606 v 14.8118 h -0.54606 v -14.8118 h -0.54606 l -0.54606,14.8118 h -0.54605 v -14.8118 h -0.54606 v 14.8118 h -0.54606 V 139.3298 h -1.09212 v 14.21933 h -0.54606 v -14.8118 h -0.54606 v 14.8118 h -1.09211 v -14.8118 h -0.54606 v 14.8118 h -0.54606 v -14.8118 h -0.54606 l -0.54606,14.8118 h -0.54606 v -14.8118 h -0.54606 v 14.8118 h -0.54605 l -0.54606,-14.8118 h -0.54606 v 14.8118 h -0.54606 v -14.8118 h -0.54606 v 14.8118 h -1.09212 v -14.8118 h -0.54605 v 14.8118 h -0.54606 v -14.8118 h -0.54606 l -0.54606,14.8118 h -0.54606 v -14.8118 h -0.54606 c 0,4.17752 1.28925,11.40153 -1.09211,14.8118 1.14344,-4.19766 1.12924,-10.58984 0,-14.8118 h -0.54606 v 14.8118 h -0.54606 v -14.8118 h -0.54606 l -0.54606,14.8118 h -0.54606 v -14.8118 h -0.54606 v 14.8118 h -0.54605 l -0.54606,-14.8118 h -0.546059 v 14.8118 h -0.54606 v -14.8118 h -0.54606 v 14.8118 h -1.09212 v -14.8118 h -0.54605 v 14.8118 h -0.54606 v -14.8118 h -0.54606 l -0.54606,14.8118 h -0.54606 v -14.8118 h -0.54606 c 0,4.17752 1.28925,11.40153 -1.09211,14.8118 0.95887,-3.51987 1.73646,-11.8678 -0.54606,-14.8118"
           id="path2386" />
        <path
           style="fill:#1a1a1a;stroke:none;stroke-width:0.568792"
           d="m 323.47829,132.81261 v 6.51719 h 7.09877 l -7.09877,-6.51719"
           id="path2388" />
        <path
           style="fill:#ff0000;stroke:none;stroke-width:0.568792"
           d="m -71.868131,132.81261 v 6.51719 h 7.64482 l -7.64482,-6.51719"
           id="path2390" />
        <path
           style="fill:#1a1a1a;stroke:none;stroke-width:0.568792"
           d="m 318.56377,128.66531 v 10.66449 h 2.18423 c 0,-3.84514 0.7765,-7.98889 -2.18423,-10.66449"
           id="path2392" />
        <path
           style="fill:#ff0000;stroke:none;stroke-width:0.568792"
           d="m -76.2366,128.66531 v 10.66449 h 1.638176 c 0,-3.53705 0.843879,-8.0274 -1.638176,-10.66449"
           id="path2394" />
        <path
           style="fill:#1a1a1a;stroke:none;stroke-width:0.568792"
           d="m 114.88391,128.07284 v 1.18494 c 3.16659,1.80704 6.16063,4.05429 9.82905,2.96236 -2.39228,-2.15778 -6.70887,-4.70778 -9.82905,-4.1473"
           id="path2396" />
        <path
           style="fill:#1a1a1a;stroke:none;stroke-width:0.568792"
           d="m 166.75948,125.70295 v 2.96236 l -1.63818,-2.36989 0.54606,-0.59247 h 1.09212"
           id="path2398" />
        <path
           style="fill:#1a1a1a;stroke:none;stroke-width:0.568792"
           d="m 290.71478,124.82313 c 8.35033,-0.48938 9.73349,15.20816 1.09212,15.60393 -8.40057,0.38452 -9.75753,-15.09618 -1.09212,-15.60393"
           id="path2400" />
        <path
           style="fill:#1a1a1a;stroke:none;stroke-width:0.568792"
           d="m 269.96455,124.16786 c 8.82376,-1.94627 10.07478,13.90709 1.63818,15.54172 -8.89147,1.72291 -9.93117,-13.71276 -1.63818,-15.54172"
           id="path2402" />
        <path
           style="fill:#1a1a1a;stroke:none;stroke-width:0.568792"
           d="m 172.76612,130.44273 c -0.15617,-1.68914 -0.50893,-3.15906 -1.10031,-4.73978 -0.42319,-1.12984 -0.85403,-2.43328 -1.61305,-3.35754 -5.11821,-6.23458 -13.52861,10.87305 -2.74723,9.65552 1.84295,-0.20796 3.65532,-1.10496 5.46059,-1.5582"
           id="path2404" />
        <path
           style="fill:#1a1a1a;stroke:none;stroke-width:0.568792"
           d="m -17.80833,120.96317 7.644821,10.6645 6.0066444,-10.6645 -6.0066444,2.96236 1.0921174,-2.96236 h -3.8224104 l 0.546058,2.96236 -5.460586,-2.96236"
           id="path2406" />
        <path
           style="fill:#1a1a1a;stroke:none;stroke-width:0.568792"
           d="m 323.47829,113.26104 0.32928,9.42623 5.13131,5.38557 13.10541,10.66449 -0.32928,-9.37824 -5.13131,-5.30854 -13.10541,-10.78951"
           id="path2408" />
        <path
           style="fill:#0000ff;stroke:none;stroke-width:0.568792"
           d="m -71.868131,113.26104 0.329492,8.83376 5.131094,5.38557 13.651465,11.25696 c 0,-2.8249 0.677222,-6.88748 -0.561239,-9.45644 -2.632166,-5.45904 -13.380729,-13.64522 -18.550812,-16.01985"
           id="path2410" />
        <path
           style="fill:#1a1a1a;stroke:none;stroke-width:0.568792"
           d="m -3.0647466,112.66857 0.546058,0.59247 v 1.18494 l -2.184234,0.59248 0.546058,-2.36989 h 1.092118"
           id="path2412" />
        <path
           style="fill:#1a1a1a;stroke:none;stroke-width:0.568792"
           d="m -18.354388,112.66857 0.546058,2.36989 h -1.638175 l 1.092117,-2.36989"
           id="path2414" />
        <path
           style="fill:#1a1a1a;stroke:none;stroke-width:0.568792"
           d="m 71.199221,112.33323 c 8.72383,-2.57785 10.30249,11.62074 2.72975,14.16719 -8.59387,2.89008 -10.7437,-11.79967 -2.72975,-14.16719"
           id="path2416" />
        <path
           style="fill:#1a1a1a;stroke:none;stroke-width:0.568792"
           d="m 109.96938,111.84207 c 8.05273,-0.0622 9.92407,14.44802 1.09212,14.40181 -7.82557,-0.0409 -9.69636,-14.33545 -1.09212,-14.40181"
           id="path2418" />
        <path
           style="fill:#1a1a1a;stroke:none;stroke-width:0.568792"
           d="m 210.99022,110.29868 c -3.07868,5.4697 5.01774,7.47996 1.62835,1.85918 -0.45924,-0.76192 -1.01895,-1.25249 -1.62835,-1.85918"
           id="path2420" />
        <path
           style="fill:#1a1a1a;stroke:none;stroke-width:0.568792"
           d="m 318.56377,109.11374 c 0,3.63007 -1.16038,9.25619 2.18423,11.25696 0,-3.73376 1.1227,-9.05593 -2.18423,-11.25696"
           id="path2422" />
        <path
           style="fill:#1a1a1a;stroke:none;stroke-width:0.568792"
           d="m -6.8871576,109.11374 v 2.96236 l -8.7369374,-0.59248 v -1.77741 l 8.7369374,-0.59247"
           id="path2424" />
        <path
           style="fill:#0000ff;stroke:none;stroke-width:0.568792"
           d="m -76.2366,109.11374 c 0,3.18927 -1.089496,8.74607 1.638176,10.66449 0,-3.53706 0.843879,-8.0274 -1.638176,-10.66449"
           id="path2426" />
        <path
           style="fill:#1a1a1a;stroke:none;stroke-width:0.568792"
           d="m 138.91049,106.15138 c -3.22557,6.9728 0.48435,10.12593 2.18423,1.18494 l -2.18423,-1.18494"
           id="path2428" />
        <path
           style="fill:#1a1a1a;stroke:none;stroke-width:0.568792"
           d="m 201.70723,104.96643 c -9.51944,6.83476 -20.30683,11.58461 -31.12534,15.40427 l 3.27635,9.47955 c 12.10994,-3.04115 23.12394,-10.13067 33.85563,-16.58921 l -6.00664,-8.29461"
           id="path2430" />
        <path
           style="fill:#1a1a1a;stroke:none;stroke-width:0.568792"
           d="m 30.244831,104.37396 c 1.92868,4.73859 17.43674,4.94418 19.11205,0 -5.01118,-1.60738 -14.10087,-1.60738 -19.11205,0"
           id="path2432" />
        <path
           style="fill:#1a1a1a;stroke:none;stroke-width:0.568792"
           d="m 210.99022,103.78149 v 1.18494 l -2.18423,0.59247 v -2.36988 l 2.18423,0.59247"
           id="path2434" />
        <path
           style="fill:#1a1a1a;stroke:none;stroke-width:0.568792"
           d="m 144.37107,102.00407 -0.54606,2.36989 h -1.09211 l -0.54606,-2.36989 h 2.18423"
           id="path2436" />
        <path
           style="fill:#1a1a1a;stroke:none;stroke-width:0.568792"
           d="m 275.42514,100.81913 c -0.3746,5.14562 -1.03096,12.77962 -3.67388,17.17932 -3.5401,5.8945 -9.61337,6.40047 -9.42279,14.81416 0.33091,14.61747 16.24197,8.84798 19.10331,-1.18494 -2.57412,-2.57192 -6.63133,-10.36352 -6.37469,-14.21933 0.39098,-5.86784 6.47407,-13.10844 0.36805,-16.58921"
           id="path2438" />
        <path
           style="fill:#1a1a1a;stroke:none;stroke-width:0.568792"
           d="m 31.336941,100.81913 v 2.36989 l 17.47388,-0.59248 c -2.55392,-3.842177 -13.34294,-1.77741 -17.47388,-1.77741"
           id="path2440" />
        <path
           style="fill:#1a1a1a;stroke:none;stroke-width:0.568792"
           d="m 208.25993,112.0761 c 1.16693,-0.89464 2.22082,-1.78571 3.16223,-2.97362 0.70113,-0.88456 1.35586,-1.85088 1.73919,-2.9511 3.40905,-9.776977 -13.71317,-6.11313 -8.34814,1.77623 1.02113,1.50251 2.24648,2.81898 3.44672,4.14849"
           id="path2442" />
        <path
           style="fill:#1a1a1a;stroke:none;stroke-width:0.568792"
           d="m -10.709568,99.041713 0.546059,0.59248 v 1.184937 l -0.546059,0.59247 h -1.092117 l -0.546059,-0.59247 v -1.184937 l 0.546059,-0.59248 h 1.092117"
           id="path2444" />
        <path
           style="fill:#1a1a1a;stroke:none;stroke-width:0.568792"
           d="m 136.72625,99.041713 c 1.02004,3.832697 9.10717,13.661217 10.6274,4.730887 0.45759,-2.68804 -1.52897,-5.885017 -2.43652,-8.285717 l -8.19088,3.55483"
           id="path2446" />
        <path
           style="fill:#1a1a1a;stroke:none;stroke-width:0.568792"
           d="m 280.88572,94.894413 v 1.18494 h -2.73029 l 0.54606,-1.77741 2.18423,0.59247"
           id="path2448" />
        <path
           style="fill:#1a1a1a;stroke:none;stroke-width:0.568792"
           d="m 323.47829,93.709473 c 0,2.94043 -0.75519,7.362637 0.56135,10.018697 2.92578,5.90457 12.87661,12.37022 18.00465,16.05006 l -0.32928,-9.9008 -5.13131,-5.16221 -13.10541,-11.005747"
           id="path2450" />
        <path
           style="fill:#1a1a1a;stroke:none;stroke-width:0.568792"
           d="m 84.850691,93.709473 c -2.39502,4.44828 -4.34881,10.566727 -8.24167,13.743567 -4.51099,3.68043 -10.57169,2.55 -12.21751,9.9553 -2.51952,11.33577 12.4272,15.56128 17.09709,6.1943 1.64419,-3.2977 -1.974,-9.70647 -1.62561,-13.30396 0.57445,-5.93894 5.34154,-9.71772 8.26405,-14.219327 l -3.27635,-2.36988"
           id="path2452" />
        <path
           style="fill:#ff0000;stroke:none;stroke-width:0.568792"
           d="m -71.868131,93.709473 c 0,2.8249 -0.677222,6.887477 0.561239,9.456437 2.635006,5.46496 13.413493,13.53561 18.550812,16.01985 0,-2.82491 0.677222,-6.88749 -0.561239,-9.45645 -2.614529,-5.42289 -13.455703,-13.555747 -18.550812,-16.019837"
           id="path2454" />
        <path
           style="fill:#1a1a1a;stroke:none;stroke-width:0.568792"
           d="m 318.56377,89.562163 c 0,3.63008 -1.16038,9.25619 2.18423,11.256967 0,-3.843957 1.06973,-8.843827 -2.18423,-11.256967"
           id="path2456" />
        <path
           style="fill:#ff0000;stroke:none;stroke-width:0.568792"
           d="m -76.2366,89.562163 c 0,3.65318 -0.924968,8.53338 1.638176,11.256967 0,-3.653177 0.924969,-8.533367 -1.638176,-11.256967"
           id="path2458" />
        <path
           style="fill:#1a1a1a;stroke:none;stroke-width:0.568792"
           d="m 89.765211,89.562163 v 1.18495 l -2.18423,0.59247 v -2.36989 l 2.18423,0.59247"
           id="path2460" />
        <path
           style="fill:#1a1a1a;stroke:none;stroke-width:0.568792"
           d="m 30.244831,80.675083 1.63817,19.551577 h 15.8357 l 1.63818,-19.551577 h -19.11205"
           id="path2462" />
        <path
           style="fill:#1a1a1a;stroke:none;stroke-width:0.568792"
           d="m 30.244831,80.082613 h 19.11205 c -1.22208,-3.99563 -17.88997,-3.99563 -19.11205,0"
           id="path2464" />
        <path
           style="fill:#1a1a1a;stroke:none;stroke-width:0.568792"
           d="m 323.47829,74.157893 0.32928,9.42653 5.13131,5.38527 13.10541,10.6645 -0.32928,-9.37824 -5.13131,-5.31519 -13.10541,-10.78287"
           id="path2466" />
        <path
           style="fill:#0000ff;stroke:none;stroke-width:0.568792"
           d="m -71.868131,74.157893 0.329492,8.83406 5.131094,5.38527 13.651465,11.25697 -0.329492,-9.30833 -5.131094,-5.25203 -13.651465,-10.91594"
           id="path2468" />
        <path
           style="fill:#1a1a1a;stroke:none;stroke-width:0.568792"
           d="m -26.545267,72.972953 c -0.274668,3.64957 -3.956741,10.81883 1.092117,11.25697 l -1.092117,-11.25697"
           id="path2470" />
        <path
           style="fill:#1a1a1a;stroke:none;stroke-width:0.568792"
           d="m 318.56377,70.010593 c 0,3.62996 -1.16038,9.25607 2.18423,11.25697 0,-3.73353 1.1227,-9.05617 -2.18423,-11.25697"
           id="path2472" />
        <path
           style="fill:#0000ff;stroke:none;stroke-width:0.568792"
           d="m -76.2366,70.010593 c 0,3.18928 -1.089496,8.74583 1.638176,10.66449 0,-3.53694 0.843879,-8.02728 -1.638176,-10.66449"
           id="path2474" />
        <path
           style="fill:#1a1a1a;stroke:none;stroke-width:0.568792"
           d="M 343.1364,69.418123 V 139.3298 h 0.54606 V 90.747113 l -0.54606,-21.32899"
           id="path2476" />
        <path
           style="fill:#1a1a1a;stroke:none;stroke-width:0.568792"
           d="m 329.48494,69.418123 12.55935,11.25696 v -11.25696 h -12.55935"
           id="path2478" />
        <path
           style="fill:#1a1a1a;stroke:none;stroke-width:0.568792"
           d="M 316.92559,69.418123 V 139.3298 h 0.54606 V 90.747113 l -0.54606,-21.32899"
           id="path2480" />
        <path
           style="fill:#1a1a1a;stroke:none;stroke-width:0.568792"
           d="m -10.709568,69.418123 0.546059,0.59247 v 1.18494 l -0.546059,0.59247 h -1.092117 l -0.546059,-0.59247 v -1.18494 l 0.546059,-0.59247 h 1.092117"
           id="path2482" />
        <path
           style="fill:#1a1a1a;stroke:none;stroke-width:0.568792"
           d="M -51.663963,69.418123 V 139.3298 h 0.546059 V 90.747113 l -0.546059,-21.32899"
           id="path2484" />
        <path
           style="fill:#ff0000;stroke:none;stroke-width:0.568792"
           d="m -64.769369,69.418123 c 2.201926,4.12959 8.024549,8.73564 12.013289,10.66449 v -10.66449 h -12.013289"
           id="path2486" />
        <path
           style="fill:#1a1a1a;stroke:none;stroke-width:0.568792"
           d="M -77.874776,69.418123 V 139.3298 h 0.546059 V 90.747113 l -0.546059,-21.32899"
           id="path2488" />
        <path
           style="fill:#1a1a1a;stroke:none;stroke-width:0.568792"
           d="m -15.615904,67.387423 c -4.156598,1.33573 -3.285635,6.64197 -3.284543,10.3253 0.0027,8.05075 -2.023147,29.541837 10.3729294,25.811637 5.557239,-1.67196 4.126019,-9.312477 4.419799,-13.962197 0.561894,-8.90295 4.461844,-22.51393 -7.1479074,-22.51393 -1.432312,0 -2.970013,-0.10742 -4.360278,0.33919"
           id="path2490" />
        <path
           style="fill:#1a1a1a;stroke:none;stroke-width:0.568792"
           d="m -16.16797,66.712653 c 1.548077,-0.46604 3.322767,-0.25689 4.912344,-0.25689 12.0771784,0 8.2056224,11.29583 8.1908794,20.73651 -0.0087,5.78549 0.855673,15.165507 -5.460586,17.215457 -13.6165184,4.41925 -10.1905464,-17.357057 -11.0767994,-25.510057 -0.456505,-4.19536 -1.525688,-10.69228 3.434162,-12.18502"
           id="path2492" />
        <path
           style="fill:#1a1a1a;stroke:none;stroke-width:0.568792"
           d="m -10.163509,60.531043 -0.546059,2.36989 h -1.092117 l -0.546059,-0.59248 v -1.18494 l 2.184235,-0.59247"
           id="path2494" />
        <path
           style="fill:#1a1a1a;stroke:none;stroke-width:0.568792"
           d="m 322.38618,58.753623 -1.09212,1.77742 1.09212,-1.77742"
           id="path2496" />
        <path
           style="fill:#1a1a1a;stroke:none;stroke-width:0.568792"
           d="m -72.41419,58.753623 -1.092117,1.77742 1.092117,-1.77742"
           id="path2498" />
        <path
           style="fill:#a02c2c;stroke:none;stroke-width:0.568792"
           d="m -22.073593,58.600943 c -4.836441,2.32243 -2.840051,15.10282 -2.833498,19.70426 0.0142,9.5068 1.358047,19.6043 2.498764,29.031117 0.409544,3.38716 -0.504558,7.7051 1.680222,10.52941 2.482929,3.20942 13.6853214,2.93748 17.1091084,1.47289 5.567068,-2.38233 3.937083,-16.67216 4.532287,-22.074317 1.027682,-9.32077 1.881171,-18.50142 1.503845,-27.84618 -0.127232,-3.15711 0.901543,-8.02267 -1.783974,-10.22471 -3.000592,-2.46012 -9.933352,-1.03226 -13.5269634,-1.03226 -2.710635,0 -6.654816,-0.77252 -9.179791,0.43979"
           id="path2500" />
        <path
           style="fill:#1a1a1a;stroke:none;stroke-width:0.568792"
           d="m 129.62749,58.753623 c 0.23481,12.34937 1.37607,28.51982 6.5527,39.69562 l 8.19088,-3.55483 -5.46058,-37.32573 -9.283,1.18494"
           id="path2502" />
        <path
           style="fill:#1a1a1a;stroke:none;stroke-width:0.568792"
           d="m 76.659811,57.568683 2.18423,8.29461 h -0.54606 l -1.63817,-8.29461"
           id="path2504" />
        <path
           style="fill:#1a1a1a;stroke:none;stroke-width:0.568792"
           d="m -23.814974,54.013853 v 4.1473 c 7.089479,-2.03502 18.1411594,-2.75908 25.1186954,0 v -4.1473 H -23.814974"
           id="path2506" />
        <path
           style="fill:#1a1a1a;stroke:none;stroke-width:0.568792"
           d="m 328.39282,53.421373 v 0.59248 l -6.00664,4.1473 6.00664,-4.73978"
           id="path2508" />
        <path
           style="fill:#1a1a1a;stroke:none;stroke-width:0.568792"
           d="m -66.407545,53.421373 v 0.59248 l -6.006645,4.1473 6.006645,-4.73978"
           id="path2510" />
        <path
           style="fill:#1a1a1a;stroke:none;stroke-width:0.568792"
           d="m 246.48403,52.236433 v 1.18494 l -2.18423,1.18495 2.18423,3.55483 -2.18423,1.18494 v 0.59248 l 2.18423,1.18494 v 1.18494 c -3.76835,3.68393 -0.03,4.86935 -0.35876,8.85734 -0.30579,3.71113 -3.20645,5.10213 0.35876,8.32435 v 1.18494 l -2.18423,1.18495 2.18423,1.77741 -2.18423,2.96236 v 0.59247 l 2.18423,1.18495 v 1.18494 h -6.00664 l 1.63817,-2.36989 v -0.59247 c -1.44432,-1.59712 -1.44432,-2.55017 0,-4.1473 v -0.59247 l -1.63817,-2.36989 c 2.6948,-3.0978 0.46961,-4.79488 0.24136,-8.29461 -0.24027,-3.69045 2.66531,-5.54619 -0.24136,-8.88708 l 1.63817,-2.36988 v -0.59248 c -1.44432,-1.59712 -1.44432,-2.55017 0,-4.1473 v -0.59247 l -1.63817,-2.36989 h 6.00664"
           id="path2512" />
        <path
           style="fill:#4d4d4d;stroke:none;stroke-width:0.568792"
           d="m 155.8383,86.599803 v 0.59247 c -3.7465,1.27086 -9.53636,10.34101 -7.64482,14.219327 4.14786,-2.508527 10.37129,-7.362647 10.37512,-13.034377 l 4.91452,-9.47955 9.283,-24.88382 -4.68464,9.47955 -9.51288,24.88382 -2.7303,-0.59247 v -0.59248 c 3.48167,-0.6244 4.25817,-5.15415 5.53704,-8.2946 3.35007,-8.22707 7.56564,-16.80037 9.7526,-25.4763 -1.9871,-1.08209 -5.28693,-2.65279 -7.42967,-1.16805 -1.86042,1.28886 -2.71937,4.99483 -3.5674,7.09277 -2.06628,5.1112 -3.92288,10.32519 -6.05688,15.40427 -0.95124,2.26437 -2.90176,5.68418 -2.76961,8.23246 0.12068,2.33025 2.85479,3.09045 4.53392,3.61698"
           id="path2514" />
        <path
           style="fill:#1a1a1a;stroke:none;stroke-width:0.568792"
           d="m 135.08808,50.459023 v 2.36988 l -2.18424,-0.59247 v -1.18494 l 2.18424,-0.59247"
           id="path2516" />
        <path
           style="fill:#1a1a1a;stroke:none;stroke-width:0.568792"
           d="m 253.03673,49.866543 v 42.06551 h 1.09212 v -42.06551 h -1.09212"
           id="path2518" />
        <path
           style="fill:#1a1a1a;stroke:none;stroke-width:0.568792"
           d="m 232.28651,49.866583 v 42.06551 h 1.63817 v -42.06555 h -1.63817"
           id="path2520" />
        <path
           style="fill:#1a1a1a;stroke:none;stroke-width:0.568792"
           d="m 73.383461,49.274113 c 3.17369,10.56419 5.65716,21.36596 8.91877,31.99349 1.19696,3.89882 1.77688,8.85153 3.79238,12.35659 1.39791,2.43091 4.85173,3.07019 6.94696,4.70008 3.12618,2.431497 5.63641,5.963817 7.473899,9.604557 2.55665,5.06623 0.12668,10.5069 2.90394,15.4019 4.41324,7.77797 16.63677,5.29255 15.72376,-4.7374 -1.02605,-11.27356 -10.925,-6.75833 -16.17754,-12.50412 -5.419079,-5.92709 -7.932039,-13.459187 -12.334369,-19.893487 -1.43449,-2.09688 -4.28547,-1.07095 -5.9433,-2.89239 -3.08741,-3.39255 -4.86047,-12.82791 -5.84392,-17.44 h 0.54606 l 5.46059,17.77415 h 4.36846 l -9.69417,-22.51393 -6.14152,-11.84944"
           id="path2522" />
        <path
           style="fill:#1a1a1a;stroke:none;stroke-width:0.568792"
           d="m 104.5088,48.089173 -9.963939,23.1064 -4.45037,10.6645 2.94708,8.88708 h 0.54605 l 8.037989,-29.6236 2.88319,-13.03438"
           id="path2524" />
        <path
           style="fill:#1a1a1a;stroke:none;stroke-width:0.568792"
           d="m -3.0647466,48.089173 -0.546059,0.59247 0.546059,-0.59247"
           id="path2526" />
        <path
           style="fill:#1a1a1a;stroke:none;stroke-width:0.568792"
           d="m -6.3410986,48.089173 -0.546059,0.59247 0.546059,-0.59247"
           id="path2528" />
        <path
           style="fill:#1a1a1a;stroke:none;stroke-width:0.568792"
           d="m -7.4332156,48.089173 -0.546059,0.59247 0.546059,-0.59247"
           id="path2530" />
        <path
           style="fill:#1a1a1a;stroke:none;stroke-width:0.568792"
           d="m -8.5253326,48.089173 -0.546059,0.59247 0.546059,-0.59247"
           id="path2532" />
        <path
           style="fill:#1a1a1a;stroke:none;stroke-width:0.568792"
           d="m -11.801685,48.089173 -0.546059,0.59247 0.546059,-0.59247"
           id="path2534" />
        <path
           style="fill:#1a1a1a;stroke:none;stroke-width:0.568792"
           d="m -17.262271,48.089173 -0.546059,0.59247 0.546059,-0.59247"
           id="path2536" />
        <path
           style="fill:#1a1a1a;stroke:none;stroke-width:0.568792"
           d="m -22.722857,48.089173 -0.546059,0.59247 0.546059,-0.59247"
           id="path2538" />
        <path
           style="fill:#1a1a1a;stroke:none;stroke-width:0.568792"
           d="m 209.89811,83.045013 v 0.59247 l -2.18424,0.59248 c 1.03751,4.90922 2.20171,9.16257 1.09212,14.21932 l 3.82241,0.59247 c 1.03751,-5.80444 1.38043,-10.79957 0,-16.58921 l -2.73029,0.59247 -2.83514,-11.84944 -8.08604,-23.69887 c -11.36129,3.55121 -2.70899,17.03279 0,25.47629 0.8868,2.76341 2.01824,9.73668 4.52028,11.18699 1.81837,1.05401 4.59672,-0.59164 6.4009,-1.11497"
           id="path2540" />
        <path
           style="fill:#1a1a1a;stroke:none;stroke-width:0.568792"
           d="m 327.84676,51.643963 c -5.64843,1.47259 -6.5669,5.21363 -9.43261,9.90974 -1.10686,1.81368 -5.34537,5.16938 -0.91028,6.49113 6.03995,1.80016 14.44871,0.18834 20.71801,0.18834 1.85878,0 5.36284,0.68046 6.52704,-1.37281 1.09976,-1.94017 -0.47999,-3.57368 -2.16895,-3.87169 -3.99278,-0.70427 -8.50377,-0.0877 -12.54897,-0.0877 v -0.59248 h 12.01329 c -0.8797,-5.52272 -4.2811,-9.36046 -9.283,-10.66449 1.14509,-5.62315 -6.05961,-5.62321 -4.91453,0"
           id="path2542" />
        <path
           style="fill:#1a1a1a;stroke:none;stroke-width:0.568792"
           d="m 278.70149,46.904183 v 30.80854 c 0,5.09811 -1.12597,9.57198 3.82241,11.84944 1.5104,-9.68662 -0.18348,-22.79885 -1.24829,-32.58595 -0.34456,-3.16955 0.68967,-8.89662 -2.57412,-10.07203"
           id="path2544" />
        <path
           style="fill:#1a1a1a;stroke:none;stroke-width:0.568792"
           d="m 277.06331,46.904183 c 0,11.04356 -0.12231,22.14613 -0.56735,33.17843 -0.23044,5.7026 -1.71026,12.71682 -0.35112,18.34353 0.6722,2.782837 3.68153,4.793087 5.16626,7.132757 2.42341,3.81908 3.96384,9.00025 4.3095,13.62686 0.36313,4.87071 -3.51225,8.63172 -2.9935,13.62685 0.94796,9.13 12.79962,13.71277 16.62421,4.14671 4.8075,-12.0254 -9.64721,-13.9693 -12.12741,-23.10581 -1.27068,-4.6823 -3.11363,-9.39364 -3.81422,-14.219317 -0.35549,-2.45106 0.40845,-5.81215 -0.569,-8.06355 -1.04952,-2.41669 -4.25052,-2.16667 -4.95766,-5.0033 -0.88025,-3.52966 -0.17365,-8.17132 -0.17365,-11.81698 0,-9.28166 0.54606,-18.54206 0.54606,-27.84618 h -1.09212"
           id="path2546" />
        <path
           style="fill:#1a1a1a;stroke:none;stroke-width:0.568792"
           d="m 237.20104,46.904153 v 4.14731 l -2.7303,-1.18495 v 42.06551 l 2.7303,-1.18494 v 4.1473 l 12.01328,0.59247 0.54606,-4.73977 2.18424,1.18494 v -42.06548 l -2.18424,1.18495 v -4.14731 h -12.55934"
           id="path2548" />
        <path
           style="fill:#1a1a1a;stroke:none;stroke-width:0.568792"
           d="m 200.06905,46.904153 7.82666,24.88382 4.18663,10.07203 -7.83266,-25.4763 -4.18063,-9.47955"
           id="path2550" />
        <path
           style="fill:#1a1a1a;stroke:none;stroke-width:0.568792"
           d="m 129.62749,58.161123 c 2.30273,-0.31579 6.58547,-0.0678 8.40767,-1.77054 5.17827,-4.83979 -5.81771,-14.96413 -8.17068,-5.92247 -0.61595,2.36663 -0.23699,5.25197 -0.23699,7.69301"
           id="path2552" />
        <path
           style="fill:#803300;stroke:none;stroke-width:0.568792"
           d="m 48.264761,76.527783 c 1.63545,-6.20644 6.73181,-13.09837 6.92457,-19.55157 0.11686,-3.91358 -4.03974,-6.91107 -6.92457,-8.35315 -6.76512,-3.38171 -20.6148,-2.55201 -23.61321,6.57573 -1.17239,3.56822 1.84895,8.62799 3.09451,11.84944 1.3504,3.49078 2.20936,9.26875 6.32937,9.46812 4.7103,0.22798 9.47411,0.0114 14.18933,0.0114"
           id="path2554" />
        <path
           style="fill:#1a1a1a;stroke:none;stroke-width:0.568792"
           d="m -23.814974,46.904183 v 5.92472 h 18.0199344 l 6.769488,-0.60894 0.875332,-5.31578 c -7.114051,1.83773 -18.5507034,1.83773 -25.6647544,0"
           id="path2556" />
        <path
           style="fill:#1a1a1a;stroke:none;stroke-width:0.568792"
           d="m -66.953604,51.643963 c -5.158451,1.34485 -8.747476,5.46585 -9.282996,11.25697 -2.544414,0.5757 -4.725317,4.05156 -1.060118,5.1439 6.548171,1.95154 17.779613,0.95903 24.538126,0.12388 2.794946,-0.34541 4.481721,-3.89906 1.06263,-5.01089 -3.829072,-1.24508 -9.087289,-0.25689 -13.073407,-0.25689 v -0.59248 h 12.013289 c -1.201001,-5.4835 -4.137377,-9.32296 -9.282996,-10.66449 1.137385,-5.58446 -6.222393,-5.83875 -4.914528,0"
           id="path2558" />
      </g>
    </clipPath>
  </defs>
  <g
     inkscape:label="Capa 1"
     inkscape:groupmode="layer"
     id="layer1" />
  <g
     inkscape:groupmode="layer"
     id="layer2"
     inkscape:label="SRC"
     style="display:inline">
    <path
       style="fill:#000000;stroke-width:0.264583"
       d="m 171.13437,314.38119 c -0.70126,-0.38316 -0.92023,-0.76313 -0.79357,-1.37708 0.086,-0.4169 -0.17881,-0.67135 -1.24821,-1.19935 -1.33649,-0.65986 -2.50672,-2.0966 -2.94891,-3.62049 -0.16765,-0.57776 -0.12559,-0.58777 2.82141,-0.67105 l 2.9916,-0.0845 -3.49642,-0.0566 c -3.15347,-0.051 -3.52329,-0.10676 -3.77032,-0.56833 -0.3721,-0.6953 -0.34567,-0.96615 0.14189,-1.45371 0.35521,-0.35521 1.35441,-0.41577 6.86026,-0.41577 5.50586,0 6.50506,0.0606 6.86027,0.41577 0.7463,0.7463 0.35073,1.96548 -0.63771,1.96548 -0.26738,0 -0.54515,0.42897 -0.76927,1.18802 -0.42052,1.42422 -1.97957,3.11979 -3.31142,3.60139 -0.72175,0.26099 -0.9171,0.45759 -0.80515,0.81031 0.33951,1.06971 -0.88516,2.01735 -1.89445,1.4659 z m 3.29616,-3.6277 c 0.60392,-0.43747 1.09803,-0.92606 1.09803,-1.08574 0,-0.15968 -0.42086,0.0792 -0.93525,0.53083 -0.51438,0.45163 -1.10267,0.82116 -1.3073,0.82116 -0.20463,0 -0.44563,0.11906 -0.53557,0.26458 -0.33356,0.53971 0.61674,0.23946 1.68009,-0.53083 z m 1.6272,-2.14623 c 0,-0.14552 -0.11906,-0.191 -0.26458,-0.10107 -0.14552,0.0899 -0.26459,0.28259 -0.26459,0.42811 0,0.14552 0.11907,0.191 0.26459,0.10106 0.14552,-0.0899 0.26458,-0.28258 0.26458,-0.4281 z m -71.04062,5.48195 c -3.14439,-0.99444 -4.63021,-2.80051 -4.63021,-5.62822 v -1.25282 l 0.99218,0.94846 c 1.30174,1.24436 1.92296,1.54019 3.2343,1.54019 1.24339,0 2.61945,-0.63728 4.93491,-2.28544 2.93428,-2.08863 4.44988,-2.4039 6.34532,-1.31992 1.06375,0.60834 1.10041,0.61122 1.71979,0.13486 0.79931,-0.61475 2.08861,-0.87126 3.26753,-0.6501 0.50318,0.0944 2.16075,1.0142 3.6835,2.044 3.9006,2.63788 5.47602,2.77563 7.76076,0.67857 l 1.21534,-1.11551 -0.15127,1.69454 c -0.20085,2.24996 -1.11488,3.57131 -3.21248,4.64406 -1.327,0.67865 -1.90102,0.80337 -4.10472,0.89189 -3.02557,0.12152 -5.11791,-0.32862 -7.56343,-1.6272 l -1.63306,-0.86716 -1.53626,0.85066 c -0.84494,0.46786 -2.28741,1.03934 -3.20548,1.26995 -1.97363,0.49576 -5.62488,0.521 -7.11672,0.0492 z m 50.79999,-4.87844 c -0.83991,-0.51221 -2.51354,-2.28822 -2.51354,-2.6673 0,-0.12348 0.23093,-0.28491 0.51317,-0.35871 0.37844,-0.099 0.69026,0.1334 1.18771,0.8851 0.371,0.56062 1.03304,1.28436 1.47121,1.60831 1.35792,1.00395 0.82332,1.43631 -0.65855,0.5326 z m -14.25593,-3.75366 c -2.43743,-0.73853 -3.52667,-3.90173 -2.25098,-6.53695 0.38765,-0.80076 1.00848,-1.45419 2.02762,-2.13406 0.8079,-0.53895 1.69822,-1.29046 1.97851,-1.67003 0.31244,-0.42313 0.78787,-2.10261 1.22887,-4.34114 l 0.71928,-3.65101 0.8404,0.76926 0.84041,0.76926 -0.92142,1.85209 c -0.6845,1.37587 -0.96024,2.32829 -1.07239,3.70416 -0.14952,1.83412 -0.14054,1.86719 0.92556,3.40915 0.59209,0.85639 1.07653,1.77912 1.07653,2.05052 0,0.2714 0.24733,0.74079 0.54963,1.04308 0.58529,0.58529 0.51556,1.30246 -0.12662,1.30246 -0.21304,0 -0.46313,0.23877 -0.55575,0.5306 -0.6237,1.96509 -3.36354,3.47711 -5.25965,2.90261 z m 3.28972,-1.72683 c 1.50086,-1.43791 1.65048,-3.59125 0.3564,-5.12918 -1.22903,-1.46062 -3.36818,-1.32954 -4.73085,0.28991 -1.30092,1.54606 -1.09533,3.8254 0.46333,5.13694 1.09776,0.9237 2.76906,0.7965 3.91112,-0.29767 z m 6.18025,1.49747 c -1.11175,-0.67793 -1.90247,-1.73965 -2.24614,-3.01593 -0.35239,-1.30869 -0.1422,-2.52998 0.73251,-4.25614 0.57676,-1.13817 0.64471,-1.53007 0.49492,-2.85407 -0.35539,-3.14126 -1.77801,-6.16776 -3.61736,-7.69563 l -1.09431,-0.90899 0.2995,-9.76519 c 0.16472,-5.37086 0.29847,-10.62839 0.29723,-11.68342 -0.001,-1.11165 0.10967,-1.91823 0.26393,-1.91823 0.17683,0 0.20689,3.10783 0.0896,9.25732 l -0.17664,9.25732 1.36566,0.56754 1.36566,0.56754 v 2.06324 c 0,1.73251 0.20842,2.72755 1.30021,6.20737 0.75612,2.40994 1.5351,4.39414 1.86152,4.74159 0.30871,0.32861 1.01718,0.73406 1.57437,0.901 2.87644,0.8618 4.24015,3.99747 2.96224,6.8113 -0.92237,2.03098 -3.59057,2.87119 -5.47285,1.72338 z m 3.33942,-0.69479 c 2.363,-1.22195 1.9907,-5.02733 -0.61692,-6.30568 -1.19806,-0.58733 -1.99295,-0.44095 -3.13194,0.57674 -0.66254,0.59198 -0.85095,1.0005 -0.95346,2.0673 -0.28198,2.93462 2.26817,4.92039 4.70232,3.66164 z m -6.62325,-19.61129 c 0,-0.49825 -0.75247,-0.77196 -1.11782,-0.40661 -0.20828,0.20828 -0.19795,0.3976 0.0371,0.68086 0.37797,0.45542 1.08069,0.27708 1.08069,-0.27425 z m 17.58662,3.8726 c 0,-8.65849 0.0334,-12.20059 0.0742,-7.87135 0.0408,4.32925 0.0408,11.41346 0,15.74271 -0.0408,4.32924 -0.0742,0.78713 -0.0742,-7.87136 z m 0.66963,13.18816 c 0,-2.40549 0.004,-2.41894 0.52917,-1.94336 0.43767,0.39608 0.52917,0.81491 0.52917,2.42225 0,1.76698 -0.048,1.94337 -0.52917,1.94337 -0.49063,0 -0.52917,-0.17639 -0.52917,-2.42226 z m 2.38125,0.96259 v -1.45967 l 1.71979,1.35153 c 0.94589,0.74334 1.7198,1.4002 1.7198,1.45967 0,0.0595 -0.77391,0.10814 -1.7198,0.10814 h -1.71979 z m 9.64912,-14.15075 c 0,-8.65849 0.0334,-12.20059 0.0742,-7.87135 0.0408,4.32925 0.0408,11.41346 0,15.74271 -0.0408,4.32924 -0.0742,0.78713 -0.0742,-7.87136 z m -5.23787,11.86336 -4.41125,-3.48247 v -2.22512 -2.22513 l 1.8049,1.40812 c 0.9927,0.77447 3.01108,2.36062 4.4853,3.52479 l 2.68039,2.11666 0.0126,2.18282 c 0.007,1.20054 -0.0264,2.18281 -0.074,2.18281 -0.0477,0 -2.07173,-1.56712 -4.49792,-3.48248 z m -81.954508,-0.20134 c -1.47333,-1.47332 -0.85198,-3.18038 1.401168,-3.84949 0.74858,-0.22231 1.40644,-0.40419 1.46192,-0.40419 0.17058,0 1.65517,3.4046 1.65517,3.79578 0,0.22238 -0.60842,0.53854 -1.53871,0.79956 -2.0203,0.56687 -2.0776,0.5603 -2.979548,-0.34166 z m 1.960688,-1.75948 c -0.0797,-0.20765 -0.31447,-0.37754 -0.52174,-0.37754 -0.52454,0 -0.77965,0.79915 -0.34155,1.06991 0.46079,0.28478 1.05529,-0.19202 0.86329,-0.69237 z m 2.34335,-0.5937 c -0.45432,-1.10372 -0.80034,-2.02944 -0.76893,-2.05715 0.0314,-0.0277 1.72399,-0.673 3.76128,-1.43398 3.35628,-1.25364 8.56027,-3.69382 10.57636,-4.95932 l 0.78677,-0.49385 1.36853,1.73596 1.36852,1.73596 -1.36155,0.87967 c -2.88822,1.86602 -8.31938,4.36508 -12.76345,5.87289 l -2.1415,0.72658 z m 71.3093,-2.48837 c -0.40176,-0.29467 -0.46274,-0.67971 -0.39687,-2.50572 0.0729,-2.02084 0.10788,-2.13552 0.55202,-1.80975 0.40107,0.29416 0.46227,0.68056 0.39688,2.50572 -0.0725,2.02212 -0.10719,2.13601 -0.55203,1.80975 z m 6.2294,-3.68788 -4.29948,-3.44048 v -2.23857 -2.23858 l 1.91823,1.51886 c 1.05503,0.83536 3.07909,2.45363 4.49792,3.59614 l 2.57969,2.0773 v 2.10366 c 0,1.15702 -0.0893,2.09433 -0.19844,2.08291 -0.10914,-0.0114 -2.1332,-1.56897 -4.49792,-3.46124 z m -58.32127,2.09552 c -0.23078,-0.18332 -0.61332,-0.64137 -0.85009,-1.01789 -0.40286,-0.64062 -0.39889,-0.71319 0.0619,-1.13022 0.46855,-0.42404 0.52762,-0.39249 1.21769,0.65028 0.61901,0.93539 0.67141,1.1498 0.35766,1.46355 -0.29769,0.29768 -0.44741,0.3042 -0.7872,0.0343 z m -2.85265,-3.02904 c -1.77779,-2.019 -1.77659,-1.9973 -0.17937,-3.22954 1.51807,-1.17119 2.11482,-1.30828 2.99899,-0.68899 1.28994,0.90351 0.97683,2.62074 -0.78686,4.3154 l -0.91182,0.87614 z m 2.30421,-2.13278 c 0.14466,-0.43448 -0.68434,-0.74463 -1.03991,-0.38905 -0.15217,0.15216 -0.1926,0.41269 -0.0898,0.57894 0.23377,0.37826 0.98248,0.25241 1.12975,-0.18989 z m 52.50648,-1.97129 c -0.19687,-0.19687 -0.3175,-1.1674 -0.3175,-2.55455 0,-2.22028 0.004,-2.23346 0.52917,-1.75815 0.4435,0.40136 0.52917,0.8149 0.52917,2.55455 0,2.05999 -0.13015,2.36884 -0.74084,1.75815 z m 6.47627,-3.70103 -4.41252,-3.48937 v -2.21823 -2.21823 l 1.79803,1.40812 c 0.98891,0.77447 3.01105,2.36062 4.49365,3.52479 l 2.69561,2.11666 0.004,2.18282 c 0.002,1.20054 -0.0342,2.18281 -0.0811,2.18281 -0.047,0 -2.07103,-1.57022 -4.49792,-3.48937 z m -59.24741,3.0424 c -0.38765,-0.1013 -0.46302,-0.43547 -0.46302,-2.05271 0,-1.06244 -0.17987,-2.4415 -0.3997,-3.06458 -0.21984,-0.62308 -0.36867,-1.16132 -0.33073,-1.19608 0.0888,-0.0814 2.09185,-0.91258 2.19919,-0.91258 0.2863,0 0.68328,3.29321 0.55032,4.5653 -0.29449,2.81752 -0.38216,2.96742 -1.55606,2.66065 z m 33.99896,-4.53107 -0.8599,-0.40963 v -9.08013 c 0,-7.97754 0.0492,-9.08012 0.40518,-9.08012 0.22285,0 0.4526,0.14883 0.51055,0.33073 0.17144,0.5381 0.99433,16.92475 0.89507,17.82413 l -0.091,0.82465 z m -37.87004,-2.76102 c -1.18572,-2.78452 -4.84645,-13.43854 -4.72566,-13.75332 0.19181,-0.49984 2.84939,-1.89485 3.08977,-1.62186 0.44193,0.50189 5.59195,15.26299 5.39154,15.45336 -0.17559,0.16678 -2.85133,1.04629 -3.18314,1.04629 -0.0515,0 -0.30915,-0.50601 -0.57251,-1.12447 z m 4.4141,-0.34377 c -0.46979,-0.79218 -5.55133,-15.24133 -5.40989,-15.38277 0.0938,-0.0938 0.21595,-0.1209 0.27149,-0.0603 0.29691,0.32417 5.48272,15.10916 5.39344,15.37699 -0.0601,0.18042 -0.1703,0.20895 -0.25504,0.0661 z m 52.36195,-0.44254 c -0.40176,-0.29467 -0.46274,-0.67971 -0.39687,-2.50572 0.0729,-2.02085 0.10788,-2.13552 0.55202,-1.80975 0.40107,0.29416 0.46227,0.68056 0.39688,2.50572 -0.0725,2.02212 -0.10719,2.13601 -0.55203,1.80975 z m 7.88305,-2.36557 c -1.45521,-1.16606 -2.68552,-2.22871 -2.73403,-2.36146 -0.0498,-0.1362 1.18937,-0.24135 2.84427,-0.24135 h 2.93247 v 2.38125 c 0,1.30968 -0.0893,2.37234 -0.19844,2.36145 -0.10914,-0.0109 -1.38906,-0.97383 -2.84427,-2.13989 z m -9.5061,-3.54775 c -0.22868,-0.22868 -0.41578,-0.57736 -0.41578,-0.77485 0,-0.45291 0.72348,-1.19063 1.16765,-1.19063 0.18485,0 0.481,-0.48365 0.65811,-1.07478 0.40373,-1.34753 1.87825,-3.00346 3.18962,-3.58204 0.76408,-0.33711 0.9706,-0.56107 0.87047,-0.94398 -0.16855,-0.64453 0.64092,-1.54295 1.39019,-1.54295 0.76227,0 1.55866,0.89877 1.38496,1.56299 -0.1025,0.39195 0.0438,0.58493 0.58706,0.7743 1.46896,0.51209 3.04671,2.25443 3.56575,3.93776 0.17837,0.57849 0.13996,0.58766 -2.81075,0.67105 l -2.9916,0.0845 3.35454,0.0566 c 3.42992,0.0578 4.18609,0.28312 4.18609,1.24719 0,0.19749 -0.1871,0.54617 -0.41578,0.77485 -0.62304,0.62304 -13.09749,0.62304 -13.72053,0 z m 3.02381,-3.58421 c 0,-0.14552 -0.11907,-0.191 -0.26459,-0.10106 -0.14552,0.0899 -0.26458,0.28258 -0.26458,0.4281 0,0.14552 0.11906,0.191 0.26458,0.10107 0.14552,-0.0899 0.26459,-0.28259 0.26459,-0.42811 z m 2.24895,-2.04322 c 0.58209,-0.3014 0.89021,-0.55326 0.68471,-0.55969 -0.58669,-0.0184 -2.5878,1.24696 -2.78506,1.76101 -0.14719,0.38357 -0.0725,0.36718 0.43202,-0.0948 0.3355,-0.30721 1.08625,-0.80516 1.66833,-1.10656 z"
       id="path2660"
       sodipodi:nodetypes="sssssccssscssssssssssssssssssscsssssssscsssscssssssssssssssscccsssssssssssssssssscscsccccsssssssssssssssssssssscsssccsssccssssccccssccsscsssssssssssssscccsscsssscsscccsscssscssssccsssscscscccsssssccccssccsccsssssssccssssccsssssssscsssssscsssscssssssssssssssccssssssssscssscc" />
    <path
       d="m 46.483736,81.926108 c -0.653762,24.626832 0.344836,48.973752 3.07156,74.887282 l 2.218808,21.08718 -4.305369,4.82123 c -3.85333,4.31508 -4.882853,4.85319 -9.806317,5.12586 -5.563545,0.30757 -12.202515,-0.74888 -15.144395,-2.41102 -1.317309,-0.7443 -1.080909,-2.84364 1.316149,-11.69023 5.882397,-21.70874 8.117321,-47.94411 5.25499,-61.68858 -1.351711,-6.49064 -6.364975,-11.36929 -12.443845,-12.109485 -9.1088392,-1.109137 -7.4338642,-2.243568 4.345555,-2.942993 16.487873,-0.979109 16.912815,-3.080499 0.529344,-2.618666 L 8.7433858,94.746836 22.27733,93.511503 35.811274,92.276171 22.21265,92.367201 8.6140228,92.458231 21.879013,91.480481 C 29.523666,90.916832 35.118007,90.039022 35.082363,89.40845 35.047293,88.785308 29.29588,88.483341 21.72224,88.706934 L 8.4241738,89.099544 22.522993,87.829069 36.621641,86.55856 22.458329,86.685093 8.2948508,86.811626 22.124881,85.800225 C 30.141999,85.213807 35.928885,84.328328 35.892998,83.693442 35.857488,83.06539 29.91725,82.780315 21.968022,83.025182 L 8.1049618,83.452324 22.768498,82.146928 37.432242,80.841482 22.70385,81.003234 7.9756728,81.165021 22.370622,80.119974 c 8.690248,-0.630893 14.36963,-1.492986 14.331065,-2.175196 -0.0385,-0.682164 -5.778909,-0.898715 -14.484896,-0.54633 L 7.7957658,77.982222 22.449371,76.501204 37.103192,75.020132 22.380482,75.282448 7.6579858,75.544721 22.052089,74.484727 c 8.379275,-0.617174 14.368212,-1.518057 14.33214,-2.156232 -0.03594,-0.632579 -6.165053,-0.901183 -14.489918,-0.635082 L 7.4663598,72.15461 22.694876,70.814454 37.923344,69.474296 22.630246,69.671076 7.3371028,69.867898 22.296965,68.789212 c 19.403248,-1.398841 19.697644,-3.426568 0.407976,-2.809933 L 8.2769098,66.440486 22.94058,65.133798 37.604129,63.827114 22.875865,63.988865 8.1474748,64.150653 22.542508,63.105605 c 8.690293,-0.630898 14.369631,-1.492948 14.331071,-2.175153 -0.0385,-0.682125 -5.779927,-0.899301 -14.484992,-0.547913 L 7.9673828,60.964611 23.185375,59.43678 38.403153,57.908961 23.121503,58.306756 7.8396348,58.704507 23.060445,57.226605 C 41.207255,55.464547 40.212652,54.10379 21.217336,54.705071 L 7.6378668,55.135022 22.866614,53.79742 38.095141,52.459834 22.802129,52.656614 7.5089038,52.853436 22.694872,51.761967 C 41.990314,50.37522 41.097241,48.435822 21.444789,49.047645 L 7.3186438,49.487499 22.547312,48.148574 37.775767,46.809663 22.482756,47.006443 7.1895288,47.203265 22.216188,46.1208 c 19.515297,-1.405598 18.857102,-3.47927 -0.8524,-2.685125 L 7.0092538,44.013977 22.227246,42.486147 37.445019,40.958284 22.163368,41.356078 6.8815008,41.753873 22.099493,40.226039 37.317271,38.698223 22.962951,39.276513 C 3.2534398,40.070532 2.5951718,37.997075 22.11046,36.591395 L 37.136994,35.508935 21.843982,35.705714 6.5507518,35.902494 21.779353,34.562332 37.007736,33.22218 22.579914,33.683373 C 14.577653,33.939016 8.1252188,33.671413 8.0919058,33.082074 8.0585358,32.492761 14.439762,31.499565 22.419866,30.851949 L 36.80776,29.684334 21.525358,30.068781 6.2427358,30.45323 21.460724,28.925397 36.678501,27.397581 22.257512,27.979638 C 3.3381238,28.743131 2.7819168,26.662068 21.538546,25.290183 L 35.368667,24.278782 21.206275,24.42384 7.0438858,24.568897 21.137222,23.202159 35.230556,21.835458 21.373686,22.373634 C 13.053089,22.696994 7.4915148,22.460304 7.4531598,21.781738 7.4146598,21.102347 12.90448,20.248318 21.21918,19.64019 L 35.049301,18.628789 20.886909,18.77381 6.7245168,18.918868 20.817856,17.552167 34.911187,16.185428 21.054322,16.723604 C 13.41295,17.020143 7.1709428,16.789014 7.1380928,16.207851 7.1047228,15.618496 12.600717,14.848526 19.606753,14.460994 26.497396,14.080054 32.413801,13.456001 32.7543,13.074615 33.094815,12.693333 27.308056,12.623224 19.894586,12.919031 L 6.4157768,13.456834 18.808657,12.09229 31.201748,10.727737 19.39832,10.865995 C 11.357495,10.960157 7.4200408,10.562447 7.0465608,9.6182245 6.6296448,8.5639034 9.4292148,8.0817798 18.743951,7.6039383 c 14.83676,-0.7610977 19.324716,0.3151901 22.73627,5.4527457 2.316559,3.488689 2.669282,5.856119 4.020143,26.980311 0.814158,12.735868 1.256893,31.586068 0.983381,41.88936 z"
       style="fill:#000000;stroke-width:0.299466"
       id="path7471" />
  </g>
</svg>
