<?xml version="1.0" encoding="UTF-8" standalone="no"?>
<!-- Created with Inkscape (http://www.inkscape.org/) -->

<svg
   width="115mm"
   height="297mm"
   viewBox="0 0 115 297"
   version="1.1"
   id="svg5"
   inkscape:version="1.1.2 (0a00cf5339, 2022-02-04)"
   sodipodi:docname="img_01.svg"
   xmlns:inkscape="http://www.inkscape.org/namespaces/inkscape"
   xmlns:sodipodi="http://sodipodi.sourceforge.net/DTD/sodipodi-0.dtd"
   xmlns="http://www.w3.org/2000/svg"
   xmlns:svg="http://www.w3.org/2000/svg">
  <sodipodi:namedview
     id="namedview7"
     pagecolor="#ffffff"
     bordercolor="#000000"
     borderopacity="0.25"
     inkscape:pageshadow="2"
     inkscape:pageopacity="0.0"
     inkscape:pagecheckerboard="0"
     inkscape:document-units="mm"
     showgrid="false"
     inkscape:zoom="0.20935045"
     inkscape:cx="663.95845"
     inkscape:cy="759.49204"
     inkscape:window-width="1280"
     inkscape:window-height="648"
     inkscape:window-x="0"
     inkscape:window-y="0"
     inkscape:window-maximized="1"
     inkscape:current-layer="layer1" />
  <defs
     id="defs2">
    <clipPath
       clipPathUnits="userSpaceOnUse"
       id="clipPath1015">
      <g
         inkscape:label="Clip"
         id="use1017">
        <path
           style="fill:#1a1a1a;stroke:none;stroke-width:0.568792"
           d="m 338.22188,151.17924 -6.00665,4.14731 6.00665,-4.14731"
           id="path2368" />
        <path
           style="fill:#1a1a1a;stroke:none;stroke-width:0.568792"
           d="m -56.57849,151.17924 -6.006645,4.14731 6.006645,-4.14731"
           id="path2370" />
        <path
           style="fill:#1a1a1a;stroke:none;stroke-width:0.568792"
           d="m 339.31399,148.21688 -1.09211,1.77742 1.09211,-1.77742"
           id="path2372" />
        <path
           style="fill:#1a1a1a;stroke:none;stroke-width:0.568792"
           d="m -55.486373,148.21688 -1.092117,1.77742 1.092117,-1.77742"
           id="path2374" />
        <path
           style="fill:#1a1a1a;stroke:none;stroke-width:0.568792"
           d="m 291.8069,143.47711 c 1.98983,3.73494 4.70593,6.91 8.73693,7.70213 l -6.00664,-8.2946 -2.73029,0.59247"
           id="path2376" />
        <path
           style="fill:#1a1a1a;stroke:none;stroke-width:0.568792"
           d="m 183.14123,145.847 c 0,14.45039 12.48509,18.59532 24.02658,15.31184 3.05957,-0.87034 7.13207,-4.42873 10.14359,-4.34282 3.27526,0.0936 7.25875,3.62415 10.60664,4.49509 11.41099,2.96769 23.47888,-1.24894 23.48052,-15.46411 -3.71375,2.82668 -6.47953,6.48638 -11.46723,4.85827 -6.80335,-2.22118 -15.28746,-14.86394 -22.3884,-6.04322 -10.09554,-8.185 -15.15258,4.96847 -24.57264,6.38863 -4.22213,0.6369 -6.70724,-2.82728 -9.82906,-5.20368"
           id="path2378" />
        <path
           style="fill:#782121;stroke:none;stroke-width:0.568792"
           d="m 17.139421,141.10722 c -4.82334,20.00659 -29.820806,5.51414 -42.046512,3.55483 -1.756671,4.94892 -3.411228,12.50471 2.192425,15.35984 6.336464,3.22838 17.2319714,0.009 24.0183874,-0.49472 12.8045296,-0.95151 25.9252196,2.31124 38.7701596,2.31657 5.54031,0.002 13.74266,2.16667 18.44149,-2.16193 3.84917,-3.54535 2.30874,-12.51834 2.30874,-17.38965 -2.92906,2.06003 -1.63818,8.99432 -1.63818,12.44191 h -0.54606 v -12.44191 h -0.54606 v 13.62686 h -0.54605 v -13.62686 h -1.09212 v 13.62686 h -0.54606 v -13.62686 h -0.54606 v 14.21933 h -0.54606 v -14.21933 h -1.09211 v 14.21933 h -0.54606 v -14.8118 h -0.54606 v 14.8118 h -0.54606 v -14.21933 h -1.09212 v 14.8118 h -0.54606 v -15.40427 h -0.54605 v 15.40427 h -0.54606 v -15.40427 h -0.54606 l -0.54606,15.40427 h -0.54606 v -15.40427 h -0.54606 v 15.40427 h -0.54606 v -15.40427 h -1.09211 v 15.40427 h -0.54606 v -15.40427 h -0.54606 v 15.40427 h -0.54606 v -15.40427 h -1.09212 v 15.40427 h -0.54605 v -15.40427 h -0.54606 v 15.40427 h -0.54606 v -15.40427 h -1.09212 v 15.40427 h -0.54606 v -15.40427 h -0.54606 v 15.40427 h -0.54605 v -15.40427 h -1.09212 v 14.8118 h -0.54606 v -14.8118 h -0.54606 v 15.40427 h -0.54606 v -15.40427 h -0.54606 v 14.8118 h -1.09211 v -14.8118 h -0.54606 v 14.8118 h -0.54606 v -15.40427 h -0.54606 v 15.40427 h -1.09212 v -15.40427 h -0.54606 v 15.40427 h -0.54605 v -15.40427 h -0.54606 v 14.8118 h -1.09212 v -14.8118 h -0.54606 v 14.8118 h -0.54606 v -14.8118 h -0.54606 v 14.8118 h -0.54605 l -0.54606,-14.8118 h -0.54606 v 14.8118 h -0.54606 v -14.8118 h -0.54606 v 14.21933 h -0.54606 l -0.54606,-14.21933 h -0.54605 v 14.21933 h -0.54606 v -14.21933 h -0.54606 v 13.62685 h -0.54606 v -13.62685 h -1.09212 v 13.03438 h -0.54606 v -13.03438 h -0.54605 v 13.03438 h -0.54606 l -1.09212,-13.03438"
           id="path2380" />
        <path
           style="fill:#1a1a1a;stroke:none;stroke-width:0.568792"
           d="m 330.57706,145.847 v 0.59247 h -12.01329 c 1.1631,5.43948 3.98131,9.62648 9.28299,10.66449 -1.04952,6.18896 6.22179,5.86962 4.91453,0 5.2793,-1.03386 8.81885,-5.53013 9.283,-11.25696 3.11963,-0.53975 4.25762,-4.40918 0.52203,-5.19717 -6.93495,-1.46222 -16.9715,-0.94973 -23.99436,-0.0705 -2.72156,0.34067 -4.47004,4.06436 -1.06809,5.07926 3.86718,1.15413 9.06621,0.18841 13.07319,0.18841"
           id="path2382" />
        <path
           style="fill:#1a1a1a;stroke:none;stroke-width:0.568792"
           d="m -64.223311,145.847 v 0.59247 H -76.2366 c 0.758257,5.46851 4.197553,9.66855 9.282996,10.66449 -1.343085,6.03018 6.257614,6.03018 4.914528,0 5.279404,-1.03386 8.818682,-5.53013 9.282996,-11.25696 3.119578,-0.53975 4.257346,-4.40918 0.522032,-5.19717 -6.93478,-1.46222 -16.971774,-0.94973 -23.994142,-0.0705 -2.721775,0.34067 -4.470418,4.06436 -1.068528,5.07926 3.867515,1.15413 9.066156,0.18841 13.073407,0.18841"
           id="path2384" />
        <path
           style="fill:#501616;stroke:none;stroke-width:0.568792"
           d="m 92.495511,138.73733 c -0.37733,5.19065 -3.98186,17.55435 -0.30907,21.67322 2.98257,3.34509 9.546739,2.02566 13.414469,2.02566 h 33.85564 c 3.79783,0 9.77881,1.20923 12.89026,-1.69092 3.43798,-3.20527 1.25702,-18.14208 -0.87697,-22.00796 v 14.8118 h -1.09212 v -14.8118 h -0.54606 v 14.8118 h -0.54606 l -0.54606,-14.8118 h -0.54606 v 14.8118 h -0.54605 v -14.8118 h -0.54606 v 14.8118 h -1.09212 v -14.8118 h -0.54606 v 14.8118 h -0.54606 v -14.8118 h -0.54606 l -0.54606,14.8118 h -0.54605 v -14.8118 h -0.54606 v 14.8118 h -0.54606 l -0.54606,-14.8118 h -0.54606 v 14.8118 h -0.54606 v -14.8118 h -0.54606 v 14.8118 h -1.09211 v -14.8118 h -0.54606 v 14.8118 h -0.54606 v -14.8118 h -0.54606 l -0.54606,14.8118 h -0.54606 v -14.8118 h -0.54605 v 14.8118 h -1.09212 v -14.8118 h -0.54606 v 14.8118 h -0.54606 v -14.8118 h -0.54606 l -0.54606,14.8118 h -0.54605 v -14.8118 h -0.54606 v 14.8118 h -0.54606 l -0.54606,-14.8118 h -0.54606 v 14.8118 h -0.54606 v -14.8118 h -0.54606 v 14.8118 h -1.09211 v -14.8118 h -0.54606 v 14.8118 h -0.54606 v -14.8118 h -0.54606 l -0.54606,14.8118 h -0.54606 v -14.8118 h -0.54605 v 14.8118 h -0.54606 l -0.54606,-14.8118 h -0.54606 v 14.8118 h -0.54606 v -14.8118 h -0.54606 l -0.54606,14.8118 h -0.54605 v -14.8118 h -0.54606 v 14.8118 h -0.54606 V 139.3298 h -1.09212 v 14.21933 h -0.54606 v -14.8118 h -0.54606 v 14.8118 h -1.09211 v -14.8118 h -0.54606 v 14.8118 h -0.54606 v -14.8118 h -0.54606 l -0.54606,14.8118 h -0.54606 v -14.8118 h -0.54606 v 14.8118 h -0.54605 l -0.54606,-14.8118 h -0.54606 v 14.8118 h -0.54606 v -14.8118 h -0.54606 v 14.8118 h -1.09212 v -14.8118 h -0.54605 v 14.8118 h -0.54606 v -14.8118 h -0.54606 l -0.54606,14.8118 h -0.54606 v -14.8118 h -0.54606 c 0,4.17752 1.28925,11.40153 -1.09211,14.8118 1.14344,-4.19766 1.12924,-10.58984 0,-14.8118 h -0.54606 v 14.8118 h -0.54606 v -14.8118 h -0.54606 l -0.54606,14.8118 h -0.54606 v -14.8118 h -0.54606 v 14.8118 h -0.54605 l -0.54606,-14.8118 h -0.546059 v 14.8118 h -0.54606 v -14.8118 h -0.54606 v 14.8118 h -1.09212 v -14.8118 h -0.54605 v 14.8118 h -0.54606 v -14.8118 h -0.54606 l -0.54606,14.8118 h -0.54606 v -14.8118 h -0.54606 c 0,4.17752 1.28925,11.40153 -1.09211,14.8118 0.95887,-3.51987 1.73646,-11.8678 -0.54606,-14.8118"
           id="path2386" />
        <path
           style="fill:#1a1a1a;stroke:none;stroke-width:0.568792"
           d="m 323.47829,132.81261 v 6.51719 h 7.09877 l -7.09877,-6.51719"
           id="path2388" />
        <path
           style="fill:#ff0000;stroke:none;stroke-width:0.568792"
           d="m -71.868131,132.81261 v 6.51719 h 7.64482 l -7.64482,-6.51719"
           id="path2390" />
        <path
           style="fill:#1a1a1a;stroke:none;stroke-width:0.568792"
           d="m 318.56377,128.66531 v 10.66449 h 2.18423 c 0,-3.84514 0.7765,-7.98889 -2.18423,-10.66449"
           id="path2392" />
        <path
           style="fill:#ff0000;stroke:none;stroke-width:0.568792"
           d="m -76.2366,128.66531 v 10.66449 h 1.638176 c 0,-3.53705 0.843879,-8.0274 -1.638176,-10.66449"
           id="path2394" />
        <path
           style="fill:#1a1a1a;stroke:none;stroke-width:0.568792"
           d="m 114.88391,128.07284 v 1.18494 c 3.16659,1.80704 6.16063,4.05429 9.82905,2.96236 -2.39228,-2.15778 -6.70887,-4.70778 -9.82905,-4.1473"
           id="path2396" />
        <path
           style="fill:#1a1a1a;stroke:none;stroke-width:0.568792"
           d="m 166.75948,125.70295 v 2.96236 l -1.63818,-2.36989 0.54606,-0.59247 h 1.09212"
           id="path2398" />
        <path
           style="fill:#1a1a1a;stroke:none;stroke-width:0.568792"
           d="m 290.71478,124.82313 c 8.35033,-0.48938 9.73349,15.20816 1.09212,15.60393 -8.40057,0.38452 -9.75753,-15.09618 -1.09212,-15.60393"
           id="path2400" />
        <path
           style="fill:#1a1a1a;stroke:none;stroke-width:0.568792"
           d="m 269.96455,124.16786 c 8.82376,-1.94627 10.07478,13.90709 1.63818,15.54172 -8.89147,1.72291 -9.93117,-13.71276 -1.63818,-15.54172"
           id="path2402" />
        <path
           style="fill:#1a1a1a;stroke:none;stroke-width:0.568792"
           d="m 172.76612,130.44273 c -0.15617,-1.68914 -0.50893,-3.15906 -1.10031,-4.73978 -0.42319,-1.12984 -0.85403,-2.43328 -1.61305,-3.35754 -5.11821,-6.23458 -13.52861,10.87305 -2.74723,9.65552 1.84295,-0.20796 3.65532,-1.10496 5.46059,-1.5582"
           id="path2404" />
        <path
           style="fill:#1a1a1a;stroke:none;stroke-width:0.568792"
           d="m -17.80833,120.96317 7.644821,10.6645 6.0066444,-10.6645 -6.0066444,2.96236 1.0921174,-2.96236 h -3.8224104 l 0.546058,2.96236 -5.460586,-2.96236"
           id="path2406" />
        <path
           style="fill:#1a1a1a;stroke:none;stroke-width:0.568792"
           d="m 323.47829,113.26104 0.32928,9.42623 5.13131,5.38557 13.10541,10.66449 -0.32928,-9.37824 -5.13131,-5.30854 -13.10541,-10.78951"
           id="path2408" />
        <path
           style="fill:#0000ff;stroke:none;stroke-width:0.568792"
           d="m -71.868131,113.26104 0.329492,8.83376 5.131094,5.38557 13.651465,11.25696 c 0,-2.8249 0.677222,-6.88748 -0.561239,-9.45644 -2.632166,-5.45904 -13.380729,-13.64522 -18.550812,-16.01985"
           id="path2410" />
        <path
           style="fill:#1a1a1a;stroke:none;stroke-width:0.568792"
           d="m -3.0647466,112.66857 0.546058,0.59247 v 1.18494 l -2.184234,0.59248 0.546058,-2.36989 h 1.092118"
           id="path2412" />
        <path
           style="fill:#1a1a1a;stroke:none;stroke-width:0.568792"
           d="m -18.354388,112.66857 0.546058,2.36989 h -1.638175 l 1.092117,-2.36989"
           id="path2414" />
        <path
           style="fill:#1a1a1a;stroke:none;stroke-width:0.568792"
           d="m 71.199221,112.33323 c 8.72383,-2.57785 10.30249,11.62074 2.72975,14.16719 -8.59387,2.89008 -10.7437,-11.79967 -2.72975,-14.16719"
           id="path2416" />
        <path
           style="fill:#1a1a1a;stroke:none;stroke-width:0.568792"
           d="m 109.96938,111.84207 c 8.05273,-0.0622 9.92407,14.44802 1.09212,14.40181 -7.82557,-0.0409 -9.69636,-14.33545 -1.09212,-14.40181"
           id="path2418" />
        <path
           style="fill:#1a1a1a;stroke:none;stroke-width:0.568792"
           d="m 210.99022,110.29868 c -3.07868,5.4697 5.01774,7.47996 1.62835,1.85918 -0.45924,-0.76192 -1.01895,-1.25249 -1.62835,-1.85918"
           id="path2420" />
        <path
           style="fill:#1a1a1a;stroke:none;stroke-width:0.568792"
           d="m 318.56377,109.11374 c 0,3.63007 -1.16038,9.25619 2.18423,11.25696 0,-3.73376 1.1227,-9.05593 -2.18423,-11.25696"
           id="path2422" />
        <path
           style="fill:#1a1a1a;stroke:none;stroke-width:0.568792"
           d="m -6.8871576,109.11374 v 2.96236 l -8.7369374,-0.59248 v -1.77741 l 8.7369374,-0.59247"
           id="path2424" />
        <path
           style="fill:#0000ff;stroke:none;stroke-width:0.568792"
           d="m -76.2366,109.11374 c 0,3.18927 -1.089496,8.74607 1.638176,10.66449 0,-3.53706 0.843879,-8.0274 -1.638176,-10.66449"
           id="path2426" />
        <path
           style="fill:#1a1a1a;stroke:none;stroke-width:0.568792"
           d="m 138.91049,106.15138 c -3.22557,6.9728 0.48435,10.12593 2.18423,1.18494 l -2.18423,-1.18494"
           id="path2428" />
        <path
           style="fill:#1a1a1a;stroke:none;stroke-width:0.568792"
           d="m 201.70723,104.96643 c -9.51944,6.83476 -20.30683,11.58461 -31.12534,15.40427 l 3.27635,9.47955 c 12.10994,-3.04115 23.12394,-10.13067 33.85563,-16.58921 l -6.00664,-8.29461"
           id="path2430" />
        <path
           style="fill:#1a1a1a;stroke:none;stroke-width:0.568792"
           d="m 30.244831,104.37396 c 1.92868,4.73859 17.43674,4.94418 19.11205,0 -5.01118,-1.60738 -14.10087,-1.60738 -19.11205,0"
           id="path2432" />
        <path
           style="fill:#1a1a1a;stroke:none;stroke-width:0.568792"
           d="m 210.99022,103.78149 v 1.18494 l -2.18423,0.59247 v -2.36988 l 2.18423,0.59247"
           id="path2434" />
        <path
           style="fill:#1a1a1a;stroke:none;stroke-width:0.568792"
           d="m 144.37107,102.00407 -0.54606,2.36989 h -1.09211 l -0.54606,-2.36989 h 2.18423"
           id="path2436" />
        <path
           style="fill:#1a1a1a;stroke:none;stroke-width:0.568792"
           d="m 275.42514,100.81913 c -0.3746,5.14562 -1.03096,12.77962 -3.67388,17.17932 -3.5401,5.8945 -9.61337,6.40047 -9.42279,14.81416 0.33091,14.61747 16.24197,8.84798 19.10331,-1.18494 -2.57412,-2.57192 -6.63133,-10.36352 -6.37469,-14.21933 0.39098,-5.86784 6.47407,-13.10844 0.36805,-16.58921"
           id="path2438" />
        <path
           style="fill:#1a1a1a;stroke:none;stroke-width:0.568792"
           d="m 31.336941,100.81913 v 2.36989 l 17.47388,-0.59248 c -2.55392,-3.842177 -13.34294,-1.77741 -17.47388,-1.77741"
           id="path2440" />
        <path
           style="fill:#1a1a1a;stroke:none;stroke-width:0.568792"
           d="m 208.25993,112.0761 c 1.16693,-0.89464 2.22082,-1.78571 3.16223,-2.97362 0.70113,-0.88456 1.35586,-1.85088 1.73919,-2.9511 3.40905,-9.776977 -13.71317,-6.11313 -8.34814,1.77623 1.02113,1.50251 2.24648,2.81898 3.44672,4.14849"
           id="path2442" />
        <path
           style="fill:#1a1a1a;stroke:none;stroke-width:0.568792"
           d="m -10.709568,99.041713 0.546059,0.59248 v 1.184937 l -0.546059,0.59247 h -1.092117 l -0.546059,-0.59247 v -1.184937 l 0.546059,-0.59248 h 1.092117"
           id="path2444" />
        <path
           style="fill:#1a1a1a;stroke:none;stroke-width:0.568792"
           d="m 136.72625,99.041713 c 1.02004,3.832697 9.10717,13.661217 10.6274,4.730887 0.45759,-2.68804 -1.52897,-5.885017 -2.43652,-8.285717 l -8.19088,3.55483"
           id="path2446" />
        <path
           style="fill:#1a1a1a;stroke:none;stroke-width:0.568792"
           d="m 280.88572,94.894413 v 1.18494 h -2.73029 l 0.54606,-1.77741 2.18423,0.59247"
           id="path2448" />
        <path
           style="fill:#1a1a1a;stroke:none;stroke-width:0.568792"
           d="m 323.47829,93.709473 c 0,2.94043 -0.75519,7.362637 0.56135,10.018697 2.92578,5.90457 12.87661,12.37022 18.00465,16.05006 l -0.32928,-9.9008 -5.13131,-5.16221 -13.10541,-11.005747"
           id="path2450" />
        <path
           style="fill:#1a1a1a;stroke:none;stroke-width:0.568792"
           d="m 84.850691,93.709473 c -2.39502,4.44828 -4.34881,10.566727 -8.24167,13.743567 -4.51099,3.68043 -10.57169,2.55 -12.21751,9.9553 -2.51952,11.33577 12.4272,15.56128 17.09709,6.1943 1.64419,-3.2977 -1.974,-9.70647 -1.62561,-13.30396 0.57445,-5.93894 5.34154,-9.71772 8.26405,-14.219327 l -3.27635,-2.36988"
           id="path2452" />
        <path
           style="fill:#ff0000;stroke:none;stroke-width:0.568792"
           d="m -71.868131,93.709473 c 0,2.8249 -0.677222,6.887477 0.561239,9.456437 2.635006,5.46496 13.413493,13.53561 18.550812,16.01985 0,-2.82491 0.677222,-6.88749 -0.561239,-9.45645 -2.614529,-5.42289 -13.455703,-13.555747 -18.550812,-16.019837"
           id="path2454" />
        <path
           style="fill:#1a1a1a;stroke:none;stroke-width:0.568792"
           d="m 318.56377,89.562163 c 0,3.63008 -1.16038,9.25619 2.18423,11.256967 0,-3.843957 1.06973,-8.843827 -2.18423,-11.256967"
           id="path2456" />
        <path
           style="fill:#ff0000;stroke:none;stroke-width:0.568792"
           d="m -76.2366,89.562163 c 0,3.65318 -0.924968,8.53338 1.638176,11.256967 0,-3.653177 0.924969,-8.533367 -1.638176,-11.256967"
           id="path2458" />
        <path
           style="fill:#1a1a1a;stroke:none;stroke-width:0.568792"
           d="m 89.765211,89.562163 v 1.18495 l -2.18423,0.59247 v -2.36989 l 2.18423,0.59247"
           id="path2460" />
        <path
           style="fill:#1a1a1a;stroke:none;stroke-width:0.568792"
           d="m 30.244831,80.675083 1.63817,19.551577 h 15.8357 l 1.63818,-19.551577 h -19.11205"
           id="path2462" />
        <path
           style="fill:#1a1a1a;stroke:none;stroke-width:0.568792"
           d="m 30.244831,80.082613 h 19.11205 c -1.22208,-3.99563 -17.88997,-3.99563 -19.11205,0"
           id="path2464" />
        <path
           style="fill:#1a1a1a;stroke:none;stroke-width:0.568792"
           d="m 323.47829,74.157893 0.32928,9.42653 5.13131,5.38527 13.10541,10.6645 -0.32928,-9.37824 -5.13131,-5.31519 -13.10541,-10.78287"
           id="path2466" />
        <path
           style="fill:#0000ff;stroke:none;stroke-width:0.568792"
           d="m -71.868131,74.157893 0.329492,8.83406 5.131094,5.38527 13.651465,11.25697 -0.329492,-9.30833 -5.131094,-5.25203 -13.651465,-10.91594"
           id="path2468" />
        <path
           style="fill:#1a1a1a;stroke:none;stroke-width:0.568792"
           d="m -26.545267,72.972953 c -0.274668,3.64957 -3.956741,10.81883 1.092117,11.25697 l -1.092117,-11.25697"
           id="path2470" />
        <path
           style="fill:#1a1a1a;stroke:none;stroke-width:0.568792"
           d="m 318.56377,70.010593 c 0,3.62996 -1.16038,9.25607 2.18423,11.25697 0,-3.73353 1.1227,-9.05617 -2.18423,-11.25697"
           id="path2472" />
        <path
           style="fill:#0000ff;stroke:none;stroke-width:0.568792"
           d="m -76.2366,70.010593 c 0,3.18928 -1.089496,8.74583 1.638176,10.66449 0,-3.53694 0.843879,-8.02728 -1.638176,-10.66449"
           id="path2474" />
        <path
           style="fill:#1a1a1a;stroke:none;stroke-width:0.568792"
           d="M 343.1364,69.418123 V 139.3298 h 0.54606 V 90.747113 l -0.54606,-21.32899"
           id="path2476" />
        <path
           style="fill:#1a1a1a;stroke:none;stroke-width:0.568792"
           d="m 329.48494,69.418123 12.55935,11.25696 v -11.25696 h -12.55935"
           id="path2478" />
        <path
           style="fill:#1a1a1a;stroke:none;stroke-width:0.568792"
           d="M 316.92559,69.418123 V 139.3298 h 0.54606 V 90.747113 l -0.54606,-21.32899"
           id="path2480" />
        <path
           style="fill:#1a1a1a;stroke:none;stroke-width:0.568792"
           d="m -10.709568,69.418123 0.546059,0.59247 v 1.18494 l -0.546059,0.59247 h -1.092117 l -0.546059,-0.59247 v -1.18494 l 0.546059,-0.59247 h 1.092117"
           id="path2482" />
        <path
           style="fill:#1a1a1a;stroke:none;stroke-width:0.568792"
           d="M -51.663963,69.418123 V 139.3298 h 0.546059 V 90.747113 l -0.546059,-21.32899"
           id="path2484" />
        <path
           style="fill:#ff0000;stroke:none;stroke-width:0.568792"
           d="m -64.769369,69.418123 c 2.201926,4.12959 8.024549,8.73564 12.013289,10.66449 v -10.66449 h -12.013289"
           id="path2486" />
        <path
           style="fill:#1a1a1a;stroke:none;stroke-width:0.568792"
           d="M -77.874776,69.418123 V 139.3298 h 0.546059 V 90.747113 l -0.546059,-21.32899"
           id="path2488" />
        <path
           style="fill:#1a1a1a;stroke:none;stroke-width:0.568792"
           d="m -15.615904,67.387423 c -4.156598,1.33573 -3.285635,6.64197 -3.284543,10.3253 0.0027,8.05075 -2.023147,29.541837 10.3729294,25.811637 5.557239,-1.67196 4.126019,-9.312477 4.419799,-13.962197 0.561894,-8.90295 4.461844,-22.51393 -7.1479074,-22.51393 -1.432312,0 -2.970013,-0.10742 -4.360278,0.33919"
           id="path2490" />
        <path
           style="fill:#1a1a1a;stroke:none;stroke-width:0.568792"
           d="m -16.16797,66.712653 c 1.548077,-0.46604 3.322767,-0.25689 4.912344,-0.25689 12.0771784,0 8.2056224,11.29583 8.1908794,20.73651 -0.0087,5.78549 0.855673,15.165507 -5.460586,17.215457 -13.6165184,4.41925 -10.1905464,-17.357057 -11.0767994,-25.510057 -0.456505,-4.19536 -1.525688,-10.69228 3.434162,-12.18502"
           id="path2492" />
        <path
           style="fill:#1a1a1a;stroke:none;stroke-width:0.568792"
           d="m -10.163509,60.531043 -0.546059,2.36989 h -1.092117 l -0.546059,-0.59248 v -1.18494 l 2.184235,-0.59247"
           id="path2494" />
        <path
           style="fill:#1a1a1a;stroke:none;stroke-width:0.568792"
           d="m 322.38618,58.753623 -1.09212,1.77742 1.09212,-1.77742"
           id="path2496" />
        <path
           style="fill:#1a1a1a;stroke:none;stroke-width:0.568792"
           d="m -72.41419,58.753623 -1.092117,1.77742 1.092117,-1.77742"
           id="path2498" />
        <path
           style="fill:#a02c2c;stroke:none;stroke-width:0.568792"
           d="m -22.073593,58.600943 c -4.836441,2.32243 -2.840051,15.10282 -2.833498,19.70426 0.0142,9.5068 1.358047,19.6043 2.498764,29.031117 0.409544,3.38716 -0.504558,7.7051 1.680222,10.52941 2.482929,3.20942 13.6853214,2.93748 17.1091084,1.47289 5.567068,-2.38233 3.937083,-16.67216 4.532287,-22.074317 1.027682,-9.32077 1.881171,-18.50142 1.503845,-27.84618 -0.127232,-3.15711 0.901543,-8.02267 -1.783974,-10.22471 -3.000592,-2.46012 -9.933352,-1.03226 -13.5269634,-1.03226 -2.710635,0 -6.654816,-0.77252 -9.179791,0.43979"
           id="path2500" />
        <path
           style="fill:#1a1a1a;stroke:none;stroke-width:0.568792"
           d="m 129.62749,58.753623 c 0.23481,12.34937 1.37607,28.51982 6.5527,39.69562 l 8.19088,-3.55483 -5.46058,-37.32573 -9.283,1.18494"
           id="path2502" />
        <path
           style="fill:#1a1a1a;stroke:none;stroke-width:0.568792"
           d="m 76.659811,57.568683 2.18423,8.29461 h -0.54606 l -1.63817,-8.29461"
           id="path2504" />
        <path
           style="fill:#1a1a1a;stroke:none;stroke-width:0.568792"
           d="m -23.814974,54.013853 v 4.1473 c 7.089479,-2.03502 18.1411594,-2.75908 25.1186954,0 v -4.1473 H -23.814974"
           id="path2506" />
        <path
           style="fill:#1a1a1a;stroke:none;stroke-width:0.568792"
           d="m 328.39282,53.421373 v 0.59248 l -6.00664,4.1473 6.00664,-4.73978"
           id="path2508" />
        <path
           style="fill:#1a1a1a;stroke:none;stroke-width:0.568792"
           d="m -66.407545,53.421373 v 0.59248 l -6.006645,4.1473 6.006645,-4.73978"
           id="path2510" />
        <path
           style="fill:#1a1a1a;stroke:none;stroke-width:0.568792"
           d="m 246.48403,52.236433 v 1.18494 l -2.18423,1.18495 2.18423,3.55483 -2.18423,1.18494 v 0.59248 l 2.18423,1.18494 v 1.18494 c -3.76835,3.68393 -0.03,4.86935 -0.35876,8.85734 -0.30579,3.71113 -3.20645,5.10213 0.35876,8.32435 v 1.18494 l -2.18423,1.18495 2.18423,1.77741 -2.18423,2.96236 v 0.59247 l 2.18423,1.18495 v 1.18494 h -6.00664 l 1.63817,-2.36989 v -0.59247 c -1.44432,-1.59712 -1.44432,-2.55017 0,-4.1473 v -0.59247 l -1.63817,-2.36989 c 2.6948,-3.0978 0.46961,-4.79488 0.24136,-8.29461 -0.24027,-3.69045 2.66531,-5.54619 -0.24136,-8.88708 l 1.63817,-2.36988 v -0.59248 c -1.44432,-1.59712 -1.44432,-2.55017 0,-4.1473 v -0.59247 l -1.63817,-2.36989 h 6.00664"
           id="path2512" />
        <path
           style="fill:#4d4d4d;stroke:none;stroke-width:0.568792"
           d="m 155.8383,86.599803 v 0.59247 c -3.7465,1.27086 -9.53636,10.34101 -7.64482,14.219327 4.14786,-2.508527 10.37129,-7.362647 10.37512,-13.034377 l 4.91452,-9.47955 9.283,-24.88382 -4.68464,9.47955 -9.51288,24.88382 -2.7303,-0.59247 v -0.59248 c 3.48167,-0.6244 4.25817,-5.15415 5.53704,-8.2946 3.35007,-8.22707 7.56564,-16.80037 9.7526,-25.4763 -1.9871,-1.08209 -5.28693,-2.65279 -7.42967,-1.16805 -1.86042,1.28886 -2.71937,4.99483 -3.5674,7.09277 -2.06628,5.1112 -3.92288,10.32519 -6.05688,15.40427 -0.95124,2.26437 -2.90176,5.68418 -2.76961,8.23246 0.12068,2.33025 2.85479,3.09045 4.53392,3.61698"
           id="path2514" />
        <path
           style="fill:#1a1a1a;stroke:none;stroke-width:0.568792"
           d="m 135.08808,50.459023 v 2.36988 l -2.18424,-0.59247 v -1.18494 l 2.18424,-0.59247"
           id="path2516" />
        <path
           style="fill:#1a1a1a;stroke:none;stroke-width:0.568792"
           d="m 253.03673,49.866543 v 42.06551 h 1.09212 v -42.06551 h -1.09212"
           id="path2518" />
        <path
           style="fill:#1a1a1a;stroke:none;stroke-width:0.568792"
           d="m 232.28651,49.866583 v 42.06551 h 1.63817 v -42.06555 h -1.63817"
           id="path2520" />
        <path
           style="fill:#1a1a1a;stroke:none;stroke-width:0.568792"
           d="m 73.383461,49.274113 c 3.17369,10.56419 5.65716,21.36596 8.91877,31.99349 1.19696,3.89882 1.77688,8.85153 3.79238,12.35659 1.39791,2.43091 4.85173,3.07019 6.94696,4.70008 3.12618,2.431497 5.63641,5.963817 7.473899,9.604557 2.55665,5.06623 0.12668,10.5069 2.90394,15.4019 4.41324,7.77797 16.63677,5.29255 15.72376,-4.7374 -1.02605,-11.27356 -10.925,-6.75833 -16.17754,-12.50412 -5.419079,-5.92709 -7.932039,-13.459187 -12.334369,-19.893487 -1.43449,-2.09688 -4.28547,-1.07095 -5.9433,-2.89239 -3.08741,-3.39255 -4.86047,-12.82791 -5.84392,-17.44 h 0.54606 l 5.46059,17.77415 h 4.36846 l -9.69417,-22.51393 -6.14152,-11.84944"
           id="path2522" />
        <path
           style="fill:#1a1a1a;stroke:none;stroke-width:0.568792"
           d="m 104.5088,48.089173 -9.963939,23.1064 -4.45037,10.6645 2.94708,8.88708 h 0.54605 l 8.037989,-29.6236 2.88319,-13.03438"
           id="path2524" />
        <path
           style="fill:#1a1a1a;stroke:none;stroke-width:0.568792"
           d="m -3.0647466,48.089173 -0.546059,0.59247 0.546059,-0.59247"
           id="path2526" />
        <path
           style="fill:#1a1a1a;stroke:none;stroke-width:0.568792"
           d="m -6.3410986,48.089173 -0.546059,0.59247 0.546059,-0.59247"
           id="path2528" />
        <path
           style="fill:#1a1a1a;stroke:none;stroke-width:0.568792"
           d="m -7.4332156,48.089173 -0.546059,0.59247 0.546059,-0.59247"
           id="path2530" />
        <path
           style="fill:#1a1a1a;stroke:none;stroke-width:0.568792"
           d="m -8.5253326,48.089173 -0.546059,0.59247 0.546059,-0.59247"
           id="path2532" />
        <path
           style="fill:#1a1a1a;stroke:none;stroke-width:0.568792"
           d="m -11.801685,48.089173 -0.546059,0.59247 0.546059,-0.59247"
           id="path2534" />
        <path
           style="fill:#1a1a1a;stroke:none;stroke-width:0.568792"
           d="m -17.262271,48.089173 -0.546059,0.59247 0.546059,-0.59247"
           id="path2536" />
        <path
           style="fill:#1a1a1a;stroke:none;stroke-width:0.568792"
           d="m -22.722857,48.089173 -0.546059,0.59247 0.546059,-0.59247"
           id="path2538" />
        <path
           style="fill:#1a1a1a;stroke:none;stroke-width:0.568792"
           d="m 209.89811,83.045013 v 0.59247 l -2.18424,0.59248 c 1.03751,4.90922 2.20171,9.16257 1.09212,14.21932 l 3.82241,0.59247 c 1.03751,-5.80444 1.38043,-10.79957 0,-16.58921 l -2.73029,0.59247 -2.83514,-11.84944 -8.08604,-23.69887 c -11.36129,3.55121 -2.70899,17.03279 0,25.47629 0.8868,2.76341 2.01824,9.73668 4.52028,11.18699 1.81837,1.05401 4.59672,-0.59164 6.4009,-1.11497"
           id="path2540" />
        <path
           style="fill:#1a1a1a;stroke:none;stroke-width:0.568792"
           d="m 327.84676,51.643963 c -5.64843,1.47259 -6.5669,5.21363 -9.43261,9.90974 -1.10686,1.81368 -5.34537,5.16938 -0.91028,6.49113 6.03995,1.80016 14.44871,0.18834 20.71801,0.18834 1.85878,0 5.36284,0.68046 6.52704,-1.37281 1.09976,-1.94017 -0.47999,-3.57368 -2.16895,-3.87169 -3.99278,-0.70427 -8.50377,-0.0877 -12.54897,-0.0877 v -0.59248 h 12.01329 c -0.8797,-5.52272 -4.2811,-9.36046 -9.283,-10.66449 1.14509,-5.62315 -6.05961,-5.62321 -4.91453,0"
           id="path2542" />
        <path
           style="fill:#1a1a1a;stroke:none;stroke-width:0.568792"
           d="m 278.70149,46.904183 v 30.80854 c 0,5.09811 -1.12597,9.57198 3.82241,11.84944 1.5104,-9.68662 -0.18348,-22.79885 -1.24829,-32.58595 -0.34456,-3.16955 0.68967,-8.89662 -2.57412,-10.07203"
           id="path2544" />
        <path
           style="fill:#1a1a1a;stroke:none;stroke-width:0.568792"
           d="m 277.06331,46.904183 c 0,11.04356 -0.12231,22.14613 -0.56735,33.17843 -0.23044,5.7026 -1.71026,12.71682 -0.35112,18.34353 0.6722,2.782837 3.68153,4.793087 5.16626,7.132757 2.42341,3.81908 3.96384,9.00025 4.3095,13.62686 0.36313,4.87071 -3.51225,8.63172 -2.9935,13.62685 0.94796,9.13 12.79962,13.71277 16.62421,4.14671 4.8075,-12.0254 -9.64721,-13.9693 -12.12741,-23.10581 -1.27068,-4.6823 -3.11363,-9.39364 -3.81422,-14.219317 -0.35549,-2.45106 0.40845,-5.81215 -0.569,-8.06355 -1.04952,-2.41669 -4.25052,-2.16667 -4.95766,-5.0033 -0.88025,-3.52966 -0.17365,-8.17132 -0.17365,-11.81698 0,-9.28166 0.54606,-18.54206 0.54606,-27.84618 h -1.09212"
           id="path2546" />
        <path
           style="fill:#1a1a1a;stroke:none;stroke-width:0.568792"
           d="m 237.20104,46.904153 v 4.14731 l -2.7303,-1.18495 v 42.06551 l 2.7303,-1.18494 v 4.1473 l 12.01328,0.59247 0.54606,-4.73977 2.18424,1.18494 v -42.06548 l -2.18424,1.18495 v -4.14731 h -12.55934"
           id="path2548" />
        <path
           style="fill:#1a1a1a;stroke:none;stroke-width:0.568792"
           d="m 200.06905,46.904153 7.82666,24.88382 4.18663,10.07203 -7.83266,-25.4763 -4.18063,-9.47955"
           id="path2550" />
        <path
           style="fill:#1a1a1a;stroke:none;stroke-width:0.568792"
           d="m 129.62749,58.161123 c 2.30273,-0.31579 6.58547,-0.0678 8.40767,-1.77054 5.17827,-4.83979 -5.81771,-14.96413 -8.17068,-5.92247 -0.61595,2.36663 -0.23699,5.25197 -0.23699,7.69301"
           id="path2552" />
        <path
           style="fill:#803300;stroke:none;stroke-width:0.568792"
           d="m 48.264761,76.527783 c 1.63545,-6.20644 6.73181,-13.09837 6.92457,-19.55157 0.11686,-3.91358 -4.03974,-6.91107 -6.92457,-8.35315 -6.76512,-3.38171 -20.6148,-2.55201 -23.61321,6.57573 -1.17239,3.56822 1.84895,8.62799 3.09451,11.84944 1.3504,3.49078 2.20936,9.26875 6.32937,9.46812 4.7103,0.22798 9.47411,0.0114 14.18933,0.0114"
           id="path2554" />
        <path
           style="fill:#1a1a1a;stroke:none;stroke-width:0.568792"
           d="m -23.814974,46.904183 v 5.92472 h 18.0199344 l 6.769488,-0.60894 0.875332,-5.31578 c -7.114051,1.83773 -18.5507034,1.83773 -25.6647544,0"
           id="path2556" />
        <path
           style="fill:#1a1a1a;stroke:none;stroke-width:0.568792"
           d="m -66.953604,51.643963 c -5.158451,1.34485 -8.747476,5.46585 -9.282996,11.25697 -2.544414,0.5757 -4.725317,4.05156 -1.060118,5.1439 6.548171,1.95154 17.779613,0.95903 24.538126,0.12388 2.794946,-0.34541 4.481721,-3.89906 1.06263,-5.01089 -3.829072,-1.24508 -9.087289,-0.25689 -13.073407,-0.25689 v -0.59248 h 12.013289 c -1.201001,-5.4835 -4.137377,-9.32296 -9.282996,-10.66449 1.137385,-5.58446 -6.222393,-5.83875 -4.914528,0"
           id="path2558" />
      </g>
    </clipPath>
  </defs>
  <g
     inkscape:label="Capa 1"
     inkscape:groupmode="layer"
     id="layer1">
    <g
       id="g3772"
       transform="matrix(5.5988942,0,0,5.5988942,-152.10524,-1119.5211)"
       style="display:inline">
      <path
         style="fill:#000000;stroke-width:0.0700042"
         d="m 35.853274,204.56049 c 0.486467,-0.24604 0.815562,-0.51626 0.731324,-0.6005 -0.225316,-0.22531 -2.610823,1.31545 -2.755412,1.77968 -0.0834,0.26778 0.08184,0.2133 0.507998,-0.16749 0.347384,-0.3104 1.029625,-0.76566 1.51609,-1.01169 z"
         id="path3543" />
      <path
         style="fill:#000000;stroke-width:0.0700042"
         d="m 33.778166,206.50219 c 0,-0.14552 -0.119063,-0.191 -0.264583,-0.10106 -0.145521,0.0899 -0.264583,0.28258 -0.264583,0.4281 0,0.14552 0.119062,0.191 0.264583,0.10107 0.14552,-0.0899 0.264583,-0.28259 0.264583,-0.42811 z"
         id="path3541" />
      <path
         style="fill:#000000;stroke-width:0.0700042"
         d="m 30.754357,210.0864 c -0.228676,-0.22868 -0.415774,-0.57736 -0.415774,-0.77485 0,-0.44351 0.720009,-1.19063 1.147421,-1.19063 0.17373,0 0.522227,-0.581 0.774438,-1.29112 0.522047,-1.46986 1.711832,-2.7561 3.126932,-3.38044 0.734697,-0.32415 0.936659,-0.54835 0.837054,-0.92924 -0.168549,-0.64453 0.640924,-1.54295 1.390196,-1.54295 0.762264,0 1.558654,0.89877 1.384955,1.56299 -0.102496,0.39195 0.04382,0.58493 0.587058,0.7743 1.468968,0.51209 3.046712,2.25443 3.565753,3.93776 0.178374,0.57849 0.139956,0.58766 -2.810752,0.67105 l -2.991597,0.0845 3.354539,0.0566 c 2.641943,0.0445 3.44286,0.14488 3.770312,0.47233 0.527737,0.52774 0.527737,1.02197 0,1.54971 -0.62304,0.62304 -13.097495,0.62304 -13.720535,0 z"
         id="path3539" />
      <path
         style="fill:#0000ff;stroke-width:0.0700042"
         d="m 40.283473,213.54488 -2.837371,-2.24896 h 2.928532 2.928532 v 2.24896 c 0,1.23693 -0.04102,2.24896 -0.09116,2.24896 -0.05014,0 -1.367978,-1.01203 -2.928533,-2.24896 z"
         id="path3537" />
      <path
         style="fill:#ff2a2a;stroke-width:0.0700042"
         d="m 32.256812,215.75564 c -0.209436,-0.21038 -0.330729,-1.10988 -0.330729,-2.45267 0,-1.91235 0.04012,-2.08032 0.40881,-1.71163 0.313707,0.3137 0.390646,0.88428 0.330729,2.45266 -0.0625,1.63602 -0.144074,1.97756 -0.40881,1.71164 z"
         id="path3535" />
      <path
         style="fill:#ff2a2a;stroke-width:0.0700042"
         d="m 38.606812,220.88937 -4.564062,-3.62819 v -2.05659 c 0,-1.13112 0.05909,-2.05659 0.131309,-2.05659 0.07222,0 2.155813,1.61044 4.630208,3.57876 l 4.498899,3.57876 v 2.10978 c 0,1.16038 -0.02977,2.10809 -0.06615,2.10603 -0.03638,-0.002 -2.119974,-1.63645 -4.630208,-3.63196 z"
         id="path3533" />
      <path
         style="fill:#0000ff;stroke-width:0.0700042"
         d="m 32.256812,224.75135 c -0.212684,-0.21356 -0.330729,-1.13615 -0.330729,-2.58483 0,-2.03047 0.04029,-2.21246 0.408307,-1.84443 0.316259,0.31626 0.390818,0.89897 0.330729,2.58483 -0.06209,1.7421 -0.143592,2.11025 -0.408307,1.84443 z"
         id="path3531" />
      <path
         style="fill:#0000ff;stroke-width:0.0700042"
         d="m 38.573374,229.66449 -4.530622,-3.59185 v -2.12897 c 0,-2.04837 0.01921,-2.11522 0.50744,-1.76596 0.279092,0.19965 2.362686,1.82869 4.630208,3.62008 l 4.122769,3.25709 v 2.10073 c 0,1.1554 -0.04481,2.10073 -0.09959,2.10073 -0.05477,0 -2.138367,-1.61634 -4.630208,-3.59185 z"
         id="path3529" />
      <path
         style="fill:#ff2a2a;stroke-width:0.0700042"
         d="m 32.256812,233.32333 c -0.230457,-0.0774 -0.330729,-0.80345 -0.330729,-2.3947 0,-2.0595 0.04012,-2.24348 0.40881,-1.87479 0.528348,0.52835 0.456644,4.4491 -0.07808,4.26949 z"
         id="path3527" />
      <path
         style="fill:#ff2a2a;stroke-width:0.0700042"
         d="m 38.606812,238.35187 -4.564062,-3.62819 v -2.05659 c 0,-1.13112 0.05971,-2.05659 0.132692,-2.05659 0.07298,0 2.156575,1.6144 4.630209,3.58754 l 4.497515,3.58754 v 2.10101 c 0,1.15555 -0.02977,2.09931 -0.06615,2.09724 -0.03638,-0.002 -2.119974,-1.63645 -4.630208,-3.63196 z"
         id="path3525" />
      <path
         style="fill:#000000;stroke-width:0.0700042"
         d="m 43.956445,226.64175 c 0,-8.65849 0.03338,-12.20059 0.07417,-7.87135 0.04079,4.32925 0.04079,11.41346 0,15.74271 -0.04079,4.32924 -0.07417,0.78713 -0.07417,-7.87136 z"
         id="path3523" />
      <path
         style="fill:#0000ff;stroke-width:0.0700042"
         d="m 35.431812,242.05711 -1.389062,-0.0972 v -1.34148 c 0,-1.02995 0.07681,-1.28351 0.330728,-1.09184 0.65139,0.49169 2.981444,2.30633 3.227917,2.51389 0.13964,0.11759 0.02204,0.18992 -0.264583,0.16273 -0.283766,-0.0269 -1.141016,-0.0927 -1.905,-0.14612 z"
         id="path3521" />
      <path
         style="fill:#0000ff;stroke-width:0.0700042"
         d="m 31.926083,239.79443 c 0,-2.07627 0.04912,-2.32879 0.396875,-2.04018 0.289987,0.24067 0.396875,0.87885 0.396875,2.36956 0,1.63709 -0.07841,2.04017 -0.396875,2.04017 -0.323235,0 -0.396875,-0.43968 -0.396875,-2.36955 z"
         id="path3519" />
      <path
         style="fill:#000000;stroke-width:0.0700042"
         d="m 31.256445,226.64175 c 0,-8.65849 0.03338,-12.20059 0.07417,-7.87135 0.0408,4.32925 0.0408,11.41346 0,15.74271 -0.04079,4.32924 -0.07417,0.78713 -0.07417,-7.87136 z"
         id="path3517" />
      <path
         style="fill:#000000;stroke-width:0.0700042"
         d="m 41.980249,246.45474 c 0,-0.14552 -0.119062,-0.191 -0.264583,-0.10107 -0.145521,0.0899 -0.264583,0.28259 -0.264583,0.42811 0,0.14552 0.119062,0.191 0.264583,0.10106 0.145521,-0.0899 0.264583,-0.28258 0.264583,-0.4281 z"
         id="path3515" />
      <path
         style="fill:#000000;stroke-width:0.0700042"
         d="m 40.353052,248.60097 c 0.603917,-0.43747 1.098031,-0.936 1.098031,-1.10783 0,-0.17183 -0.327422,-0.003 -0.727604,0.37603 -0.400183,0.37866 -1.144323,0.86747 -1.653646,1.08625 -0.699429,0.30045 -0.790077,0.40308 -0.370427,0.41938 0.305588,0.0119 1.049729,-0.33635 1.653646,-0.77383 z"
         id="path3513" />
      <path
         style="fill:#000000;stroke-width:0.0700042"
         d="m 36.418651,251.76764 c -0.158703,-0.29654 -0.222036,-0.74873 -0.14074,-1.00487 0.111715,-0.35199 -0.08172,-0.54871 -0.792104,-0.80559 -1.041106,-0.37647 -2.680444,-1.88362 -3.011203,-2.7684 -0.704124,-1.88353 -0.900943,-1.73443 2.413006,-1.82808 l 2.991598,-0.0845 -3.452813,-0.0566 c -2.262981,-0.0371 -3.562222,-0.16597 -3.770312,-0.37406 -0.43944,-0.43944 -0.396899,-1.1528 0.09827,-1.64798 0.62304,-0.62304 13.097495,-0.62304 13.720535,0 0.228676,0.22868 0.415774,0.53416 0.415774,0.67885 0,0.55887 -0.568771,1.28663 -1.00554,1.28663 -0.310416,0 -0.609354,0.42684 -0.928748,1.32611 -0.548969,1.54566 -1.881578,2.98659 -3.204467,3.46496 -0.762886,0.27586 -0.905418,0.44051 -0.787624,0.90983 0.315497,1.25705 -1.929924,2.05416 -2.545636,0.90369 z"
         id="path3321" />
    </g>
  </g>
  <g
     inkscape:groupmode="layer"
     id="layer2"
     inkscape:label="SRC"
     style="display:none">
    <path
       style="fill:#000000;stroke-width:0.264583"
       d="m 200.02261,185.74034 c -0.70126,-0.38316 -0.92023,-0.76313 -0.79357,-1.37708 0.086,-0.4169 -0.17881,-0.67135 -1.24821,-1.19935 -1.33649,-0.65986 -2.50672,-2.0966 -2.94891,-3.62049 -0.16765,-0.57776 -0.12559,-0.58777 2.82141,-0.67105 l 2.9916,-0.0845 -3.49642,-0.0566 c -3.15347,-0.051 -3.52329,-0.10676 -3.77032,-0.56833 -0.3721,-0.6953 -0.34567,-0.96615 0.14189,-1.45371 0.35521,-0.35521 1.35441,-0.41577 6.86026,-0.41577 5.50586,0 6.50506,0.0606 6.86027,0.41577 0.7463,0.7463 0.35073,1.96548 -0.63771,1.96548 -0.26738,0 -0.54515,0.42897 -0.76927,1.18802 -0.42052,1.42422 -1.97957,3.11979 -3.31142,3.60139 -0.72175,0.26099 -0.9171,0.45759 -0.80515,0.81031 0.33951,1.06971 -0.88516,2.01735 -1.89445,1.4659 z m 3.29616,-3.6277 c 0.60392,-0.43747 1.09803,-0.92606 1.09803,-1.08574 0,-0.15968 -0.42086,0.0792 -0.93525,0.53083 -0.51438,0.45163 -1.10267,0.82116 -1.3073,0.82116 -0.20463,0 -0.44563,0.11906 -0.53557,0.26458 -0.33356,0.53971 0.61674,0.23946 1.68009,-0.53083 z m 1.6272,-2.14623 c 0,-0.14552 -0.11906,-0.191 -0.26458,-0.10107 -0.14552,0.0899 -0.26459,0.28259 -0.26459,0.42811 0,0.14552 0.11907,0.191 0.26459,0.10106 0.14552,-0.0899 0.26458,-0.28258 0.26458,-0.4281 z m -152.664581,5.43675 c -5.739056,-0.47746 -11.434593,-0.56559 -17.518544,-0.27107 l -4.950836,0.23967 -1.068435,-1.06844 c -0.956268,-0.95626 -1.068279,-1.20364 -1.066959,-2.35633 0.0016,-1.30254 0.335754,-2.83807 0.762503,-3.50276 0.191085,-0.29764 0.677942,-0.21477 2.711029,0.46141 4.989026,1.65928 11.082645,2.52699 14.328243,2.04028 1.532694,-0.22984 2.737461,-1.33554 2.990408,-2.74452 0.379037,-2.1113 0.6217,-1.70541 0.629545,1.05302 0.01098,3.86106 0.495839,3.98794 0.604186,0.1581 l 0.0845,-2.98676 0.109773,3.175 0.109773,3.175 0.158149,-3.175 0.158149,-3.175 0.05322,3.10885 c 0.03067,1.79161 0.161766,3.10886 0.309404,3.10886 0.145904,0 0.292258,-1.3383 0.339981,-3.10886 l 0.08379,-3.10885 0.110527,3.30729 0.110524,3.30729 0.157322,-3.30729 0.157321,-3.30729 0.05363,3.24115 c 0.03109,1.87886 0.161414,3.24114 0.31007,3.24114 0.147045,0 0.291944,-1.38263 0.339667,-3.24114 l 0.08323,-3.24115 0.111226,3.43958 0.111228,3.43959 0.156546,-3.43959 0.156546,-3.43958 0.05402,3.37344 c 0.03261,2.03655 0.158872,3.37344 0.318601,3.37344 0.159729,0 0.285991,-1.33689 0.318601,-3.37344 l 0.05402,-3.37344 0.152344,3.43958 0.152347,3.43959 0.133009,-3.43959 0.133008,-3.43958 0.0575,3.37344 c 0.03347,1.96379 0.164759,3.37344 0.31418,3.37344 0.148106,0 0.291658,-1.42696 0.339373,-3.37344 l 0.0827,-3.37344 0.111882,3.57188 0.111884,3.57187 0.155822,-3.57187 0.155821,-3.57188 0.05438,3.50573 c 0.07054,4.54701 0.539875,4.64247 0.650434,0.13229 l 0.0827,-3.37344 0.111519,3.43959 0.111522,3.43958 0.156546,-3.43958 0.156546,-3.43959 0.05402,3.37344 c 0.03261,2.03656 0.158872,3.37344 0.318601,3.37344 0.15971,0 0.286139,-1.33712 0.318966,-3.37344 l 0.05438,-3.37344 0.155821,3.57188 0.155822,3.57187 0.108762,-3.57187 0.108762,-3.57188 0.144137,3.57188 c 0.171844,4.25855 0.502555,4.04437 0.61282,-0.39688 l 0.07882,-3.175 0.111276,3.57188 0.111275,3.57187 0.155821,-3.57187 0.155822,-3.57188 0.05438,3.55865 c 0.0691,4.52169 0.533522,4.33882 0.649994,-0.25595 l 0.08372,-3.3027 0.111591,3.57188 0.111588,3.57187 0.155821,-3.57187 0.155821,-3.57188 0.05438,3.52135 c 0.07063,4.57326 0.563261,4.44698 0.637932,-0.16352 l 0.05438,-3.35783 0.155821,3.57188 0.155821,3.57187 0.108763,-3.57187 0.108762,-3.57188 0.155821,3.57188 0.155821,3.57187 0.05438,-3.35782 c 0.07467,-4.6105 0.567304,-4.73678 0.637932,-0.16352 l 0.05438,3.52134 0.155821,-3.57187 0.155821,-3.57188 0.111885,3.57188 0.111882,3.57187 0.0827,-3.37343 c 0.04587,-1.87102 0.19349,-3.37344 0.331467,-3.37344 0.137978,0 0.285602,1.50242 0.331468,3.37344 l 0.0827,3.37343 0.111882,-3.57187 0.111884,-3.57188 0.155821,3.57188 0.155821,3.57187 0.05438,-3.37343 c 0.07135,-4.42567 0.564444,-4.52804 0.63718,-0.1323 l 0.05363,3.24115 0.152983,-3.30729 0.152982,-3.30729 0.133053,3.30729 0.133054,3.30729 0.05721,-3.24115 c 0.03435,-1.94623 0.162915,-3.24114 0.321792,-3.24114 0.15907,0 0.285969,1.29252 0.318214,3.24114 l 0.05363,3.24115 0.152982,-3.30729 0.152982,-3.30729 0.133054,3.30729 0.133054,3.30729 0.05721,-3.24115 c 0.03155,-1.78735 0.167888,-3.24114 0.303961,-3.24114 0.137991,0 0.245195,1.29286 0.243213,2.93314 -0.0019,1.61323 0.06561,3.00229 0.150119,3.08681 0.08452,0.0845 0.1772,-1.26517 0.205965,-2.99929 l 0.0523,-3.15295 0.154982,2.91041 0.154985,2.91042 0.123444,-2.75664 c 0.08409,-1.87789 0.228873,-2.7916 0.454173,-2.86632 0.251572,-0.0834 0.327155,0.57635 0.315797,2.75664 -0.0181,3.47282 -0.328502,4.50606 -1.572567,5.23451 -0.844786,0.49465 -1.401977,0.54574 -6.35,0.58231 -2.983177,0.022 -7.38849,-0.12335 -9.789583,-0.3231 z m 32.928599,-0.23412 c -0.357188,-0.35719 -0.649433,-0.95765 -0.649433,-1.33435 0,-1.0319 0.811085,-8.17592 0.943245,-8.30808 0.0633,-0.0633 0.115088,1.39304 0.115088,3.2363 0,2.05787 0.102119,3.35139 0.264583,3.35139 0.159729,0 0.285991,-1.33688 0.318601,-3.37344 l 0.05402,-3.37343 0.156546,3.43958 0.156546,3.43958 0.05402,-3.22553 c 0.07417,-4.42876 0.567201,-4.55529 0.637201,-0.16352 l 0.05402,3.38905 0.156546,-3.43958 0.156546,-3.43958 0.05402,3.37343 c 0.03261,2.03656 0.158872,3.37344 0.318601,3.37344 0.159729,0 0.285991,-1.33688 0.318601,-3.37344 l 0.05402,-3.37343 0.156546,3.43958 0.156546,3.43958 0.05402,-3.24114 c 0.03247,-1.94836 0.159551,-3.24115 0.3186,-3.24115 0.159049,0 0.286129,1.29279 0.318601,3.24115 l 0.05402,3.24114 0.156546,-3.43958 0.156546,-3.43958 0.05402,3.37343 c 0.02971,1.8554 0.145558,3.37344 0.257442,3.37344 0.111885,0 0.162798,-1.16086 0.113139,-2.57969 -0.04966,-1.41882 0.02985,-2.87734 0.176678,-3.24114 0.204843,-0.50754 0.28344,0.10814 0.337756,2.64583 l 0.07079,3.30729 0.156546,-3.43958 0.156546,-3.43958 0.05402,3.37343 c 0.03261,2.03656 0.158871,3.37344 0.3186,3.37344 0.159729,0 0.285991,-1.33688 0.318601,-3.37344 l 0.05402,-3.37343 0.156546,3.43958 0.156546,3.43958 0.05402,-3.22553 c 0.07417,-4.42876 0.5672,-4.55529 0.637201,-0.16352 l 0.05402,3.38905 0.156546,-3.43958 0.156546,-3.43958 0.05402,3.37343 c 0.03261,2.03656 0.158872,3.37344 0.318601,3.37344 0.159729,0 0.285991,-1.33688 0.318601,-3.37344 l 0.05402,-3.37343 0.156546,3.43958 0.156546,3.43958 0.05402,-3.24114 c 0.03131,-1.8786 0.161821,-3.24115 0.310456,-3.24115 0.147045,0 0.291944,1.38264 0.339667,3.24115 l 0.08323,3.24114 0.111226,-3.43958 0.111228,-3.43958 0.156546,3.43958 0.156546,3.43958 0.05402,-3.24114 c 0.03247,-1.94836 0.159552,-3.24115 0.318601,-3.24115 0.159049,0 0.286128,1.29279 0.318601,3.24115 l 0.05402,3.24114 0.156546,-3.43958 0.156546,-3.43958 0.05402,3.37343 c 0.03261,2.03656 0.158871,3.37344 0.3186,3.37344 0.159729,0 0.285991,-1.33688 0.318601,-3.37344 l 0.05402,-3.37343 0.156546,3.43958 0.156546,3.43958 0.05402,-3.24114 c 0.03247,-1.94836 0.159552,-3.24115 0.318601,-3.24115 0.159049,0 0.286128,1.29279 0.3186,3.24115 l 0.05402,3.24114 0.156546,-3.43958 0.156546,-3.43958 0.05402,3.37343 c 0.03261,2.03656 0.158872,3.37344 0.318601,3.37344 0.159729,0 0.285991,-1.33688 0.318601,-3.37344 l 0.05402,-3.37343 0.152345,3.43958 0.152347,3.43958 0.133009,-3.43958 0.133007,-3.43958 0.0575,3.37343 c 0.0347,2.03424 0.16254,3.37344 0.32208,3.37344 0.15973,0 0.286,-1.33688 0.31861,-3.37344 l 0.054,-3.37343 0.15654,3.43958 0.15655,3.43958 0.054,-3.22553 c 0.0742,-4.42876 0.5672,-4.55529 0.6372,-0.16352 l 0.054,3.38905 0.15654,-3.43958 0.15655,-3.43958 0.054,3.37343 c 0.0326,2.03656 0.15887,3.37344 0.3186,3.37344 0.15973,0 0.28599,-1.33688 0.3186,-3.37344 l 0.054,-3.37343 0.15655,3.43958 0.15654,3.43958 0.054,-3.24114 c 0.0325,-1.94836 0.15956,-3.24115 0.3186,-3.24115 0.15905,0 0.28613,1.29279 0.31861,3.24115 l 0.054,3.24114 0.15654,-3.43958 0.15655,-3.43958 0.054,3.37343 c 0.0297,1.8554 0.14331,3.37367 0.25245,3.37396 0.10914,2.7e-4 0.16119,-1.38526 0.11566,-3.07899 -0.0519,-1.932 0.022,-3.18431 0.19844,-3.36073 0.19856,-0.19856 0.29709,0.72582 0.33523,3.14514 l 0.054,3.42635 0.15655,-3.43958 0.15654,-3.43958 0.054,3.37343 c 0.0326,2.03656 0.15888,3.37344 0.3186,3.37344 0.15973,0 0.286,-1.33688 0.31861,-3.37344 l 0.054,-3.37343 0.15654,3.43958 0.15655,3.43958 0.054,-3.24114 c 0.0325,-1.94836 0.15955,-3.24115 0.3186,-3.24115 0.15905,0 0.28613,1.29279 0.3186,3.24115 l 0.054,3.24114 0.15654,-3.43958 0.15655,-3.43958 0.054,3.37343 c 0.0326,2.03656 0.15887,3.37344 0.3186,3.37344 0.15973,0 0.28599,-1.33688 0.3186,-3.37344 l 0.054,-3.37343 0.15655,3.43958 0.15654,3.43958 0.054,-3.41753 c 0.0297,-1.87964 0.12074,-3.35082 0.20229,-3.26927 0.0816,0.0816 0.15441,1.58967 0.16193,3.35139 0.008,1.76172 0.11939,3.20312 0.24861,3.20312 0.12922,0 0.25925,-1.51804 0.28896,-3.37344 l 0.054,-3.37343 0.15654,3.43958 0.15655,3.43958 0.054,-3.22553 c 0.0742,-4.42876 0.5672,-4.55529 0.6372,-0.16352 l 0.054,3.38905 0.15655,-3.43958 0.15654,-3.43958 0.054,3.37343 c 0.0326,2.03656 0.15888,3.37344 0.3186,3.37344 0.15973,0 0.286,-1.33688 0.3186,-3.37344 l 0.054,-3.37343 0.15655,3.43958 0.15655,3.43958 0.054,-3.24114 c 0.0325,-1.94836 0.15955,-3.24115 0.3186,-3.24115 0.15905,0 0.28613,1.29279 0.3186,3.24115 l 0.054,3.24114 0.15654,-3.43958 0.15655,-3.43958 0.054,3.37343 c 0.0326,2.03656 0.15887,3.37344 0.3186,3.37344 0.16247,0 0.26458,-1.29352 0.26458,-3.35139 0,-1.84326 0.0613,-3.29008 0.13624,-3.21515 0.10878,0.10878 1.18525,7.78908 1.18638,8.46447 1.7e-4,0.098 -0.30794,0.54446 -0.68468,0.99219 l -0.68498,0.81405 H 99.870841 85.859418 Z m 48.695362,0.27932 c -3.14439,-0.99444 -4.63021,-2.80051 -4.63021,-5.62822 v -1.25282 l 0.99218,0.94846 c 1.30174,1.24436 1.92296,1.54019 3.2343,1.54019 1.24339,0 2.61945,-0.63728 4.93491,-2.28544 2.93428,-2.08863 4.44988,-2.4039 6.34532,-1.31992 1.06375,0.60834 1.10041,0.61122 1.71979,0.13486 0.79931,-0.61475 2.08861,-0.87126 3.26753,-0.6501 0.50318,0.0944 2.16075,1.0142 3.6835,2.044 3.9006,2.63788 5.47602,2.77563 7.76076,0.67857 l 1.21534,-1.11551 -0.15127,1.69454 c -0.20085,2.24996 -1.11488,3.57131 -3.21248,4.64406 -1.327,0.67865 -1.90102,0.80337 -4.10472,0.89189 -3.02557,0.12152 -5.11791,-0.32862 -7.56343,-1.6272 l -1.63306,-0.86716 -1.53626,0.85066 c -0.84494,0.46786 -2.28741,1.03934 -3.20548,1.26995 -1.97363,0.49576 -5.62488,0.521 -7.11672,0.0492 z m 50.79999,-4.87844 c -0.83991,-0.51221 -2.51354,-2.28822 -2.51354,-2.6673 0,-0.12348 0.23093,-0.28491 0.51317,-0.35871 0.37844,-0.099 0.69026,0.1334 1.18771,0.8851 0.371,0.56062 1.03304,1.28436 1.47121,1.60831 1.35792,1.00395 0.82332,1.43631 -0.65855,0.5326 z m -14.25593,-3.75366 c -2.43743,-0.73853 -3.52667,-3.90173 -2.25098,-6.53695 0.38765,-0.80076 1.00848,-1.45419 2.02762,-2.13406 0.8079,-0.53895 1.69822,-1.29046 1.97851,-1.67003 0.31244,-0.42313 0.78787,-2.10261 1.22887,-4.34114 l 0.71928,-3.65101 0.8404,0.76926 0.84041,0.76926 -0.92142,1.85209 c -0.6845,1.37587 -0.96024,2.32829 -1.07239,3.70416 -0.14952,1.83412 -0.14054,1.86719 0.92556,3.40915 0.59209,0.85639 1.07653,1.77912 1.07653,2.05052 0,0.2714 0.24733,0.74079 0.54963,1.04308 0.58529,0.58529 0.51556,1.30246 -0.12662,1.30246 -0.21304,0 -0.46313,0.23877 -0.55575,0.5306 -0.6237,1.96509 -3.36354,3.47711 -5.25965,2.90261 z m 3.28972,-1.72683 c 1.50086,-1.43791 1.65048,-3.59125 0.3564,-5.12918 -1.22903,-1.46062 -3.36818,-1.32954 -4.73085,0.28991 -1.30092,1.54606 -1.09533,3.8254 0.46333,5.13694 1.09776,0.9237 2.76906,0.7965 3.91112,-0.29767 z m 6.18025,1.49747 c -1.11175,-0.67793 -1.90247,-1.73965 -2.24614,-3.01593 -0.35239,-1.30869 -0.1422,-2.52998 0.73251,-4.25614 0.57676,-1.13817 0.64471,-1.53007 0.49492,-2.85407 -0.35539,-3.14126 -1.77801,-6.16776 -3.61736,-7.69563 l -1.09431,-0.90899 0.2995,-9.76519 c 0.16472,-5.37086 0.29847,-10.62839 0.29723,-11.68342 -0.001,-1.11165 0.10967,-1.91823 0.26393,-1.91823 0.17683,0 0.20689,3.10783 0.0896,9.25732 l -0.17664,9.25732 1.36566,0.56754 1.36566,0.56754 v 2.06324 c 0,1.73251 0.20842,2.72755 1.30021,6.20737 0.75612,2.40994 1.5351,4.39414 1.86152,4.74159 0.30871,0.32861 1.01718,0.73406 1.57437,0.901 2.87644,0.8618 4.24015,3.99747 2.96224,6.8113 -0.92237,2.03098 -3.59057,2.87119 -5.47285,1.72338 z m 3.33942,-0.69479 c 2.363,-1.22195 1.9907,-5.02733 -0.61692,-6.30568 -1.19806,-0.58733 -1.99295,-0.44095 -3.13194,0.57674 -0.66254,0.59198 -0.85095,1.0005 -0.95346,2.0673 -0.28198,2.93462 2.26817,4.92039 4.70232,3.66164 z m -6.62325,-19.61129 c 0,-0.49825 -0.75247,-0.77196 -1.11782,-0.40661 -0.20828,0.20828 -0.19795,0.3976 0.0371,0.68086 0.37797,0.45542 1.08069,0.27708 1.08069,-0.27425 z m 17.58662,3.8726 c 0,-8.65849 0.0334,-12.20059 0.0742,-7.87135 0.0408,4.32925 0.0408,11.41346 0,15.74271 -0.0408,4.32924 -0.0742,0.78713 -0.0742,-7.87136 z m 0.66963,13.18816 c 0,-2.40549 0.004,-2.41894 0.52917,-1.94336 0.43767,0.39608 0.52917,0.81491 0.52917,2.42225 0,1.76698 -0.048,1.94337 -0.52917,1.94337 -0.49063,0 -0.52917,-0.17639 -0.52917,-2.42226 z m 2.38125,0.96259 v -1.45967 l 1.71979,1.35153 c 0.94589,0.74334 1.7198,1.4002 1.7198,1.45967 0,0.0595 -0.77391,0.10814 -1.7198,0.10814 h -1.71979 z m 9.64912,-14.15075 c 0,-8.65849 0.0334,-12.20059 0.0742,-7.87135 0.0408,4.32925 0.0408,11.41346 0,15.74271 -0.0408,4.32924 -0.0742,0.78713 -0.0742,-7.87136 z m -5.23787,11.86336 -4.41125,-3.48247 v -2.22512 -2.22513 l 1.8049,1.40812 c 0.9927,0.77447 3.01108,2.36062 4.4853,3.52479 l 2.68039,2.11666 0.0126,2.18282 c 0.007,1.20054 -0.0264,2.18281 -0.074,2.18281 -0.0477,0 -2.07173,-1.56712 -4.49792,-3.48248 z m -81.95451,-0.20134 c -1.47333,-1.47332 -0.85198,-3.18038 1.40117,-3.84949 0.74858,-0.22231 1.40644,-0.40419 1.46192,-0.40419 0.17058,0 1.65517,3.4046 1.65517,3.79578 0,0.22238 -0.60842,0.53854 -1.53871,0.79956 -2.0203,0.56687 -2.0776,0.5603 -2.97955,-0.34166 z m 1.96069,-1.75948 c -0.0797,-0.20765 -0.31447,-0.37754 -0.52174,-0.37754 -0.52454,0 -0.77965,0.79915 -0.34155,1.06991 0.46079,0.28478 1.05529,-0.19202 0.86329,-0.69237 z m 2.34335,-0.5937 c -0.45432,-1.10372 -0.80034,-2.02944 -0.76893,-2.05715 0.0314,-0.0277 1.72399,-0.673 3.76128,-1.43398 3.35628,-1.25364 8.56027,-3.69382 10.57636,-4.95932 l 0.78677,-0.49385 1.36853,1.73596 1.36852,1.73596 -1.36155,0.87967 c -2.88822,1.86602 -8.31938,4.36508 -12.76345,5.87289 l -2.1415,0.72658 z m 71.3093,-2.48837 c -0.40176,-0.29467 -0.46274,-0.67971 -0.39687,-2.50572 0.0729,-2.02084 0.10788,-2.13552 0.55202,-1.80975 0.40107,0.29416 0.46227,0.68056 0.39688,2.50572 -0.0725,2.02212 -0.10719,2.13601 -0.55203,1.80975 z m 6.2294,-3.68788 -4.29948,-3.44048 v -2.23857 -2.23858 l 1.91823,1.51886 c 1.05503,0.83536 3.07909,2.45363 4.49792,3.59614 l 2.57969,2.0773 v 2.10366 c 0,1.15702 -0.0893,2.09433 -0.19844,2.08291 -0.10914,-0.0114 -2.1332,-1.56897 -4.49792,-3.46124 z m -58.32127,2.09552 c -0.23078,-0.18332 -0.61332,-0.64137 -0.85009,-1.01789 -0.40286,-0.64062 -0.39889,-0.71319 0.0619,-1.13022 0.46855,-0.42404 0.52762,-0.39249 1.21769,0.65028 0.61901,0.93539 0.67141,1.1498 0.35766,1.46355 -0.29769,0.29768 -0.44741,0.3042 -0.7872,0.0343 z M 107.1545,164.2771 c -0.17575,-0.458 0.36284,-2.99581 0.67699,-3.18997 0.10947,-0.0677 0.38817,0.022 0.61935,0.19925 0.36855,0.28255 0.37904,0.50152 0.0852,1.77746 -0.33915,1.47252 -1.04436,2.09184 -1.38151,1.21326 z m 33.24411,-1.92461 c -1.77779,-2.019 -1.77659,-1.9973 -0.17937,-3.22954 1.51807,-1.17119 2.11482,-1.30828 2.99899,-0.68899 1.28994,0.90351 0.97683,2.62074 -0.78686,4.3154 l -0.91182,0.87614 z m 2.30421,-2.13278 c 0.14466,-0.43448 -0.68434,-0.74463 -1.03991,-0.38905 -0.15217,0.15216 -0.1926,0.41269 -0.0898,0.57894 0.23377,0.37826 0.98248,0.25241 1.12975,-0.18989 z m -86.928932,0.93913 c -0.174625,-0.17462 -0.317499,-0.53181 -0.317499,-0.79375 0,-0.4393 0.337499,-0.47625 4.350009,-0.47625 2.553406,0 4.416152,0.10702 4.510153,0.25912 0.08808,0.14251 0.03139,0.4997 -0.125986,0.79375 -0.267269,0.49939 -0.5436,0.53463 -4.192651,0.53463 -2.685632,0 -4.005752,-0.0992 -4.224026,-0.3175 z m 53.486882,0.055 c -0.56836,-0.22934 -1.60581,-1.45589 -2.19196,-2.59149 -0.2977,-0.57675 -0.22186,-0.64727 1.62044,-1.50672 l 1.93276,-0.90165 0.70734,1.50672 c 0.89042,1.8967 0.90324,2.30145 0.0984,3.10625 -0.67734,0.67733 -1.2111,0.77263 -2.16702,0.38689 z m 1.14352,-1.48395 c 0.18718,-0.48779 -0.45269,-0.99622 -0.80738,-0.64153 -0.2888,0.2888 -0.0237,1.0651 0.36364,1.0651 0.15466,0 0.35434,-0.19061 0.44374,-0.42357 z m -54.617479,-0.7009 c 0.07998,-0.24062 1.194948,-0.35059 4.092202,-0.40361 3.37067,-0.0617 4.006051,-0.0109 4.137141,0.33073 0.13485,0.35142 -0.394272,0.4036 -4.092202,0.4036 -3.279904,0 -4.222043,-0.0753 -4.137141,-0.33072 z m 56.213439,-0.88258 c -0.3472,-0.66266 -0.30736,-0.7522 0.87464,-1.96572 0.68113,-0.69929 1.49528,-1.81789 1.80923,-2.48579 0.31394,-0.66789 0.67472,-1.21435 0.80173,-1.21435 0.127,0 0.66681,0.18213 1.19958,0.40473 l 0.96867,0.40474 -0.47333,0.81542 c -0.75009,1.29216 -2.41414,3.08221 -3.66588,3.94343 l -1.15087,0.79182 z m 83.20905,0.10201 c -0.19687,-0.19687 -0.3175,-1.1674 -0.3175,-2.55455 0,-2.22028 0.004,-2.23346 0.52917,-1.75815 0.4435,0.40136 0.52917,0.8149 0.52917,2.55455 0,2.05999 -0.13015,2.36884 -0.74084,1.75815 z M 56.14195,157.57374 c 0.353965,-1.20483 0.235808,-2.30506 -0.37298,-3.47305 -0.405035,-0.77707 -0.577165,-1.57833 -0.577165,-2.68666 v -1.57936 h 4.630208 4.630209 l -0.0058,1.38907 c -0.0034,0.82084 -0.226306,1.87518 -0.54483,2.57742 -0.609277,1.34325 -0.69174,2.08057 -0.392332,3.50799 l 0.208113,0.99219 h -3.894587 -3.894587 l 0.213762,-0.7276 z m 145.54362,-3.02635 -4.41252,-3.48937 v -2.21823 -2.21823 l 1.79803,1.40812 c 0.98891,0.77447 3.01105,2.36062 4.49365,3.52479 l 2.69561,2.11666 0.004,2.18282 c 0.002,1.20054 -0.0342,2.18281 -0.0811,2.18281 -0.047,0 -2.07103,-1.57022 -4.49792,-3.48937 z m -59.24741,3.0424 c -0.38765,-0.1013 -0.46302,-0.43547 -0.46302,-2.05271 0,-1.06244 -0.17987,-2.4415 -0.3997,-3.06458 -0.21984,-0.62308 -0.36867,-1.16132 -0.33073,-1.19608 0.0888,-0.0814 2.09185,-0.91258 2.19919,-0.91258 0.2863,0 0.68328,3.29321 0.55032,4.5653 -0.29449,2.81752 -0.38216,2.96742 -1.55606,2.66065 z m -36.00545,-0.28064 c -0.0657,-0.10914 -0.36423,-1.03187 -0.66337,-2.05052 -1.03225,-3.51511 -2.02874,-9.69553 -2.21748,-13.75323 l -0.0736,-1.58241 1.5875,-0.19699 c 0.87313,-0.10834 1.84307,-0.25864 2.15544,-0.33399 0.53595,-0.12929 0.57798,-0.0142 0.74623,2.04397 0.30751,3.76147 1.17018,9.22504 1.86491,11.81095 0.36737,1.36742 0.6358,2.51538 0.59651,2.55104 -0.0981,0.0891 -3.69692,1.70962 -3.79657,1.70962 -0.044,0 -0.13385,-0.0893 -0.19957,-0.19844 z m 49.03618,-2.3151 c 0,-0.89157 -0.32091,-1.21248 -0.66146,-0.66146 -0.56256,0.91024 -0.66146,-0.45454 -0.66146,-9.12812 0,-6.08542 0.0932,-9.39271 0.26458,-9.39271 0.14552,0 0.26459,0.11906 0.26459,0.26458 0,0.14552 0.17859,0.26458 0.39687,0.26458 0.27718,0 0.39688,-0.27928 0.39688,-0.92604 v -0.92604 h 3.04271 3.0427 v 0.92604 c 0,0.50932 0.11907,0.92604 0.26459,0.92604 0.14552,0 0.26458,-0.11906 0.26458,-0.26458 0,-0.14552 0.11906,-0.26458 0.26458,-0.26458 0.17142,0 0.26459,3.30729 0.26459,9.39271 0,6.08541 -0.0932,9.3927 -0.26459,9.3927 -0.14552,0 -0.26458,-0.11906 -0.26458,-0.26458 0,-0.14552 -0.11906,-0.26458 -0.26458,-0.26458 -0.14552,0 -0.26459,0.41672 -0.26459,0.92604 v 0.92604 h -3.0427 -3.04271 z m 4.39043,-1.49535 c 0.10358,-0.16759 -0.008,-0.44861 -0.24897,-0.62448 -0.5443,-0.398 -0.56099,-0.8188 -0.0404,-1.01856 0.5795,-0.22238 0.48483,-0.89696 -0.17549,-1.25035 l -0.57236,-0.30632 0.63851,-0.50716 0.63851,-0.50717 -0.59532,-0.41872 c -0.76191,-0.53591 -0.79478,-1.8953 -0.0661,-2.73543 0.29104,-0.33558 0.52916,-0.7523 0.52916,-0.92604 0,-0.17375 -0.23812,-0.59047 -0.52916,-0.92605 -0.72839,-0.83983 -0.69557,-2.19875 0.0661,-2.73871 0.56001,-0.39697 0.56786,-0.44377 0.13229,-0.78904 -0.5679,-0.45018 -0.59355,-0.86346 -0.0661,-1.06584 0.5795,-0.22238 0.48483,-0.89697 -0.17549,-1.25036 l -0.57236,-0.30631 0.63851,-0.4948 c 0.54224,-0.42019 0.57867,-0.53437 0.24163,-0.75727 -0.21828,-0.14436 -0.84709,-0.2643 -1.39736,-0.26653 -1.1389,-0.005 -1.59847,0.60773 -0.86089,1.14706 0.41345,0.30232 0.41641,0.36309 0.0332,0.68114 -0.52993,0.43981 -0.53603,0.9177 -0.0172,1.34829 0.36025,0.29898 0.35585,0.38762 -0.041,0.82614 -0.41379,0.45724 -0.41425,0.52472 -0.007,0.97509 0.47726,0.52736 0.59809,2.29632 0.17473,2.55797 -0.67887,0.41957 -0.78246,1.13631 -0.26019,1.80028 0.63743,0.81035 0.67931,2.21993 0.0855,2.87612 -0.40749,0.45028 -0.40734,0.5176 0.002,0.97008 0.41195,0.4552 0.40587,0.51713 -0.0954,0.97076 l -0.53542,0.48455 0.52959,0.56372 c 0.48607,0.51739 0.49471,0.59861 0.1051,0.98822 -0.23348,0.23347 -0.34386,0.55499 -0.24529,0.71447 0.2382,0.38542 2.44651,0.3733 2.68633,-0.0147 z m -6.77168,-8.29423 c 0,-8.17269 0.0516,-9.39271 0.39687,-9.39271 0.34533,0 0.39688,1.22002 0.39688,9.39271 0,8.17268 -0.0516,9.3927 -0.39688,9.3927 -0.34532,0 -0.39687,-1.22002 -0.39687,-9.3927 z m 10.05416,0 c 0,-6.08542 0.0932,-9.39271 0.26459,-9.39271 0.17142,0 0.26458,3.30729 0.26458,9.39271 0,6.08541 -0.0932,9.3927 -0.26458,9.3927 -0.17142,0 -0.26459,-3.30729 -0.26459,-9.3927 z m 13.29532,7.85425 -0.8599,-0.40963 v -9.08013 c 0,-7.97754 0.0492,-9.08012 0.40518,-9.08012 0.22285,0 0.4526,0.14883 0.51055,0.33073 0.17144,0.5381 0.99433,16.92475 0.89507,17.82413 l -0.091,0.82465 z m -58.86588,-0.21924 c -0.0706,-0.12467 1.28077,-3.5009 3.00307,-7.50272 1.72231,-4.00183 3.17765,-7.39511 3.23409,-7.54063 0.0564,-0.14552 0.1987,-0.17488 0.31613,-0.0652 0.11743,0.10963 -1.17804,3.44338 -2.87881,7.40833 -3.28558,7.65958 -3.47396,8.05435 -3.67448,7.70027 z m -2.53165,-1.0441 c -0.75618,-0.37682 -1.3671,-0.8233 -1.35761,-0.99218 0.01,-0.16889 1.35328,-3.40269 2.98619,-7.18623 3.2901,-7.62338 3.09101,-7.37402 5.37663,-6.73408 0.6372,0.1784 1.21181,0.41054 1.27689,0.51585 0.0651,0.10532 -1.25929,3.39297 -2.94306,7.3059 -1.68378,3.91292 -3.12206,7.26324 -3.19618,7.44514 -0.19581,0.48055 -0.60224,0.41333 -2.14286,-0.3544 z m 23.52749,-1.49768 c -1.18572,-2.78452 -4.84645,-13.43854 -4.72566,-13.75332 0.19181,-0.49984 2.84939,-1.89485 3.08977,-1.62186 0.44193,0.50189 5.59195,15.26299 5.39154,15.45336 -0.17559,0.16678 -2.85133,1.04629 -3.18314,1.04629 -0.0515,0 -0.30915,-0.50601 -0.57251,-1.12447 z m 4.4141,-0.34377 c -0.46979,-0.79218 -5.55133,-15.24133 -5.40989,-15.38277 0.0938,-0.0938 0.21595,-0.1209 0.27149,-0.0603 0.29691,0.32417 5.48272,15.10916 5.39344,15.37699 -0.0601,0.18042 -0.1703,0.20895 -0.25504,0.0661 z m 52.36195,-0.44254 c -0.40176,-0.29467 -0.46274,-0.67971 -0.39687,-2.50572 0.0729,-2.02085 0.10788,-2.13552 0.55202,-1.80975 0.40107,0.29416 0.46227,0.68056 0.39688,2.50572 -0.0725,2.02212 -0.10719,2.13601 -0.55203,1.80975 z m -140.100956,-0.6689 c 0.08075,-0.41929 0.513368,-0.46302 4.579839,-0.46302 4.066472,0 4.499094,0.0437 4.57984,0.46302 0.0822,0.42685 -0.275585,0.46302 -4.57984,0.46302 -4.304254,0 -4.662042,-0.0362 -4.579839,-0.46302 z m 147.984006,-1.69667 c -1.45521,-1.16606 -2.68552,-2.22871 -2.73403,-2.36146 -0.0498,-0.1362 1.18937,-0.24135 2.84427,-0.24135 h 2.93247 v 2.38125 c 0,1.30968 -0.0893,2.37234 -0.19844,2.36145 -0.10914,-0.0109 -1.38906,-0.97383 -2.84427,-2.13989 z M 54.059701,143.48797 c -0.978072,-2.33375 -1.778312,-4.50172 -1.778312,-4.81771 0,-0.34092 0.523472,-1.07909 1.287393,-1.81542 3.390797,-3.26829 9.760059,-3.12524 12.844145,0.28848 1.850432,1.91459 -0.07941,4.38359 -0.845497,6.20906 l -1.782337,4.23334 -3.973541,0.0727 -3.973539,0.0727 z m 139.660379,0.1101 c -0.22868,-0.22868 -0.41578,-0.57736 -0.41578,-0.77485 0,-0.45291 0.72348,-1.19063 1.16765,-1.19063 0.18485,0 0.481,-0.48365 0.65811,-1.07478 0.40373,-1.34753 1.87825,-3.00346 3.18962,-3.58204 0.76408,-0.33711 0.9706,-0.56107 0.87047,-0.94398 -0.16855,-0.64453 0.64092,-1.54295 1.39019,-1.54295 0.76227,0 1.55866,0.89877 1.38496,1.56299 -0.1025,0.39195 0.0438,0.58493 0.58706,0.7743 1.46896,0.51209 3.04671,2.25443 3.56575,3.93776 0.17837,0.57849 0.13996,0.58766 -2.81075,0.67105 l -2.9916,0.0845 3.35454,0.0566 c 3.42992,0.0578 4.18609,0.28312 4.18609,1.24719 0,0.19749 -0.1871,0.54617 -0.41578,0.77485 -0.62304,0.62304 -13.09749,0.62304 -13.72053,0 z m 3.02381,-3.58421 c 0,-0.14552 -0.11907,-0.191 -0.26459,-0.10106 -0.14552,0.0899 -0.26458,0.28258 -0.26458,0.4281 0,0.14552 0.11906,0.191 0.26458,0.10107 0.14552,-0.0899 0.26459,-0.28259 0.26459,-0.42811 z m 2.24895,-2.04322 c 0.58209,-0.3014 0.89021,-0.55326 0.68471,-0.55969 -0.58669,-0.0184 -2.5878,1.24696 -2.78506,1.76101 -0.14719,0.38357 -0.0725,0.36718 0.43202,-0.0948 0.3355,-0.30721 1.08625,-0.80516 1.66833,-1.10656 z m -95.64687,-0.32389 c 0,-1.62102 0.0832,-1.9422 0.64943,-2.50848 0.88849,-0.88848 2.21975,-0.87677 3.0688,0.027 0.51363,0.54673 0.63662,0.9624 0.64143,2.16785 l 0.006,1.49141 -0.92604,0.18179 c -0.50933,0.1 -1.49159,0.25327 -2.18282,0.34064 l -1.25677,0.15884 v -1.85905 z m 2.64583,-1.06064 c 0,-0.37865 -0.14248,-0.52113 -0.45998,-0.45999 -0.6897,0.13283 -0.76662,1.00855 -0.0886,1.00855 0.37864,0 0.54856,-0.16992 0.54856,-0.54856 z"
       id="path2660"
       sodipodi:nodetypes="sssssccssscssssssssssssssssssscscsssssscccccssscccccssscccccssscccccssscccccsscccccssscccccsscccccsscccccsscccccccsscccccssscccccsscccccssscccccsscsscccsssscsssssssscccsscccssscccssscccssssscccssscccsscccssscccssscccccssscccssscccssscccsssccccccsscccsscccsssccccsscccssssscccsssccccsscccssscccsscsscccsscccsssccccsscccsssssscccssscsssssssscsssscssssssssssssssscccsssssssssssssssssscscsccccsssssssssssssssssssssscsssccsssccssssccccssccsscsssssssssssssscccsscsssscsscccsscssscssssccsssssssssscscscccssssssscsscssccsssssssssssssscsscsssssssssccccssccccsccccssccsccsssssssssscsssscssssssssscccssssssssscccsccsscccsssssssscsscsssscssscscsssccssssssssssccssssccsscssssscsssssssssssssscsssssscssssssssscsssssscccccssssssssssssccssssssssscsssccscsccssccssssss" />
    <path
       d="m 74.806771,244.02406 c -0.09701,-0.097 -0.17639,-0.57022 -0.17639,-1.05155 0,-0.69888 -0.155162,-0.95539 -0.770387,-1.27353 -0.767789,-0.39703 -1.875446,-1.59723 -1.875446,-2.03214 0,-0.46669 0.884941,-0.20777 1.478381,0.43257 0.337161,0.3638 0.750673,0.66144 0.918919,0.66144 0.194175,0 0.245266,-0.24157 0.139885,-0.66144 -0.15376,-0.61264 -0.09659,-0.66146 0.774374,-0.66146 0.847749,0 0.913411,0.0504 0.666499,0.51177 -0.363069,0.6784 -0.346086,0.81113 0.10378,0.81113 0.207719,0 0.618892,-0.30666 0.91372,-0.68146 0.333904,-0.42449 0.740368,-0.64899 1.077868,-0.59531 l 0.541821,0.0862 -0.535291,0.87582 c -0.294413,0.4817 -0.949405,1.04884 -1.455542,1.26032 -0.832416,0.34781 -0.920247,0.48517 -0.920247,1.43929 0,0.99429 -0.383792,1.37654 -0.881944,0.87839 z m -3.956833,-5.74801 c -0.750451,-0.69548 -0.882859,-1.26702 -1.10998,-4.79123 -0.08441,-1.30968 -0.401378,-4.7625 -0.704387,-7.67291 -0.391613,-3.76145 -0.519126,-6.41825 -0.440955,-9.1875 0.103272,-3.65861 0.148196,-3.93653 0.737738,-4.56407 l 0.627769,-0.66823 h 5.091615 c 2.800387,0 5.284348,0.074 5.519915,0.16436 0.985393,0.37813 1.20805,1.50018 1.216586,6.13087 0.0045,2.45192 -0.120629,5.52113 -0.278106,6.82046 -0.15748,1.29934 -0.503087,4.79508 -0.768014,7.76832 -0.620618,6.96509 -0.342014,6.63266 -5.55869,6.63266 -3.483223,0 -3.682111,-0.029 -4.333491,-0.63273 z m 1.22051,-1.65803 c 0.09575,-0.0957 0.04027,-0.33534 -0.123299,-0.53244 -0.223388,-0.26915 -0.386696,-0.28421 -0.656251,-0.0605 -0.197371,0.16382 -0.293611,0.4034 -0.213863,0.53244 0.170053,0.27514 0.743821,0.3101 0.993413,0.0605 z m 7.272064,-0.28893 c -0.04904,-0.25467 -0.264501,-0.46302 -0.478797,-0.46302 -0.214297,0 -0.429755,0.20835 -0.478798,0.46302 -0.06256,0.32486 0.0803,0.46301 0.478798,0.46301 0.398502,0 0.541361,-0.13815 0.478797,-0.46301 z m -2.066297,-1.52136 c 0,-0.64629 -0.04514,-0.66145 -1.96876,-0.66145 -1.963181,0 -2.444183,0.20865 -2.164032,0.93871 0.110834,0.28883 0.642125,0.38421 2.140114,0.38421 1.949135,0 1.992678,-0.0144 1.992678,-0.66147 z m -0.28339,-2.97696 c 1.822757,-0.92945 1.868765,-1.10676 2.201031,-8.48219 l 0.300154,-6.66258 -0.761524,-0.79486 c -0.750697,-0.78356 -0.80061,-0.79486 -3.510499,-0.79486 -2.707108,0 -2.761176,0.0122 -3.549896,0.80092 l -0.800918,0.80092 0.188675,4.16002 c 0.327379,7.21827 0.534654,9.22079 1.033169,9.98162 0.90424,1.38005 3.218793,1.84817 4.899808,0.99101 z m -3.700775,-0.45508 c -0.372282,-0.20248 -0.819901,-0.68206 -0.994712,-1.06572 -0.374912,-0.82285 -1.011756,-12.38447 -0.741484,-13.46131 0.124143,-0.49464 0.474824,-0.85087 1.09107,-1.10836 1.119119,-0.46759 4.262628,-0.49018 5.158457,-0.0371 1.238896,0.62664 1.298535,1.12158 0.95128,7.89481 -0.345995,6.74864 -0.497726,7.37788 -1.908383,7.91421 -0.953479,0.36251 -2.766658,0.29288 -3.556228,-0.13657 z m 2.278621,-0.95663 c 0.272658,-0.44117 -0.340574,-0.94708 -0.70557,-0.58208 -0.305308,0.30531 -0.114226,0.86972 0.294447,0.86972 0.128344,0 0.313349,-0.12944 0.411123,-0.28764 z m 0,-13.22917 c 0.272658,-0.44117 -0.340574,-0.94708 -0.70557,-0.58208 -0.305308,0.30531 -0.114226,0.86972 0.294447,0.86972 0.128344,0 0.313349,-0.12944 0.411123,-0.28764 z m 0.0713,-4.29835 c 0.0495,-0.25521 -0.0833,-0.44109 -0.315114,-0.44109 -0.491524,0 -0.788183,0.43131 -0.555551,0.80771 0.239327,0.38724 0.767604,0.16479 0.870665,-0.36662 z m -8.756761,9.81151 c -0.06399,-0.1819 -0.0033,-0.62838 0.134871,-0.99219 0.138171,-0.3638 0.409265,-1.37583 0.602432,-2.24895 l 0.351216,-1.5875 0.02334,1.19062 c 0.01283,0.65484 0.09841,1.8157 0.19018,2.57969 0.162983,1.3569 0.151191,1.38906 -0.509418,1.38906 -0.371944,0 -0.72862,-0.14883 -0.792615,-0.33073 z m 2.188921,-12.20867 v -0.95435 h 6.085417 6.085417 v 0.93535 c 0,0.85502 -0.04569,0.9109 -0.531993,0.65064 -0.631029,-0.33772 -10.46262,-0.2533 -11.17582,0.096 -0.397301,0.19457 -0.463021,0.0913 -0.463021,-0.7276 z m 0.02088,-2.74029 c 0.01148,-0.69122 0.08094,-1.10794 0.15434,-0.92604 0.158456,0.3927 0.883105,0.44698 0.883105,0.0661 0,-0.14552 0.416718,-0.26459 0.926041,-0.26459 0.562285,0 0.927635,0.12992 0.930093,0.33073 0.003,0.24219 0.06522,0.23418 0.232555,-0.0299 0.192919,-0.3045 0.250841,-0.3045 0.371936,0 0.101838,0.25608 0.149489,0.26476 0.164319,0.0299 0.02461,-0.38961 1.343806,-0.45455 1.343806,-0.0661 0,0.14552 0.178593,0.26458 0.396875,0.26458 0.218281,0 0.396875,-0.11906 0.396875,-0.26458 0,-0.14552 0.297656,-0.26459 0.661458,-0.26459 0.363802,0 0.663281,0.14883 0.665509,0.33073 0.0027,0.22049 0.08955,0.19844 0.260533,-0.0661 0.227983,-0.35278 0.257381,-0.35278 0.264583,0 0.0066,0.32514 0.0494,0.33169 0.236606,0.0362 0.192918,-0.3045 0.250841,-0.3045 0.371935,0 0.101838,0.25608 0.14949,0.26476 0.16432,0.0299 0.01148,-0.1819 0.318545,-0.33073 0.682347,-0.33073 0.363802,0 0.663281,0.14883 0.665509,0.33073 0.0027,0.22049 0.08954,0.19844 0.260533,-0.0661 0.227983,-0.35278 0.257381,-0.35278 0.264583,0 0.0066,0.32514 0.0494,0.33169 0.236606,0.0362 0.192919,-0.3045 0.250841,-0.3045 0.371936,0 0.101838,0.25608 0.149489,0.26476 0.164319,0.0299 0.01148,-0.1819 0.199483,-0.33073 0.417764,-0.33073 0.218281,0 0.405244,0.14883 0.415473,0.33073 0.01021,0.1819 0.120919,0.0926 0.245985,-0.19843 0.221896,-0.51639 0.227841,-0.51559 0.245986,0.0331 0.01024,0.30923 -0.05582,0.93431 -0.146767,1.38906 l -0.165365,0.82682 h -6.052347 -6.052344 l 0.02088,-1.25677 z m 6.786621,-0.75516 c -0.08792,-0.0879 -0.316124,-0.0973 -0.507119,-0.0209 -0.211066,0.0845 -0.148373,0.14716 0.159853,0.15986 0.278913,0.0115 0.435184,-0.051 0.347266,-0.13897 z m 2.645833,0 c -0.08792,-0.0879 -0.316124,-0.0973 -0.507119,-0.0209 -0.211066,0.0845 -0.148373,0.14716 0.159853,0.15986 0.278913,0.0115 0.435184,-0.051 0.347266,-0.13897 z"
       style="fill:#000000;stroke-width:0.0700042"
       id="path3879" />
    <path
       d="m 128.90082,230.33891 c -0.38906,-0.12009 -1.19027,-0.48974 -1.78045,-0.82144 -0.83628,-0.47002 -1.00874,-0.6806 -0.78156,-0.95433 0.41082,-0.49501 0.86081,-0.43702 1.42219,0.1833 0.26606,0.29399 0.98587,0.68094 1.59958,0.8599 0.6137,0.17894 1.15862,0.44442 1.21091,0.58994 0.12357,0.34392 -0.77107,0.4203 -1.67067,0.14263 z m -25.66312,-2.04989 c -1.555,-0.96474 -2.21981,-3.34087 -1.45014,-5.18298 0.44263,-1.05935 2.05437,-2.50732 3.02083,-2.71387 2.32238,-0.49633 3.00326,-0.94368 4.15401,-2.72922 0.62178,-0.96479 1.4601,-2.40792 1.86293,-3.20694 0.66567,-1.32039 0.7524,-1.39874 0.95173,-0.8599 0.13388,0.3619 0.44061,0.59288 0.78735,0.59288 0.47567,0 0.31274,0.2729 -1.0021,1.67846 -1.10535,1.18163 -1.75097,2.16205 -2.18108,3.31217 -0.58709,1.56985 -0.59412,1.67781 -0.18001,2.76215 0.23703,0.62065 0.43096,1.73963 0.43096,2.48662 0,0.80832 0.12639,1.4003 0.31219,1.46223 0.18271,0.0609 0.23665,0.30089 0.13006,0.57866 -0.11449,0.29835 -0.33856,0.41458 -0.60335,0.31297 -0.26371,-0.10119 -0.60646,0.0739 -0.91661,0.46816 -1.10195,1.40089 -3.86335,1.94032 -5.31677,1.03861 z m 3.47634,-0.73458 c 2.14404,-1.10872 2.64351,-4.30038 0.88897,-5.6805 -2.38429,-1.87549 -6.10531,1.08704 -5.11902,4.07556 0.56604,1.71508 2.55658,2.47033 4.23005,1.60494 z m 15.61401,0.43165 c -0.50705,-0.26972 -1.27137,-0.98335 -1.69848,-1.58585 -0.7198,-1.01536 -0.77784,-1.2745 -0.79396,-3.5445 -0.0156,-2.20288 -0.0929,-2.57518 -0.76883,-3.70394 -1.62703,-2.71714 -4.73351,-3.27338 -6.50843,-5.48743 -0.3789,-0.47265 -0.58814,-0.82098 -0.84114,-1.61095 -3.35632,-10.47951 -4.2235,-13.27666 -4.14148,-13.35868 0.0534,-0.0534 0.86533,2.11021 1.80435,4.80795 0.93902,2.69774 1.78391,5.03141 1.87754,5.18593 0.0936,0.15453 0.76767,0.33836 1.49786,0.40853 l 1.32761,0.12756 0.83825,1.99696 c 0.93945,2.23804 5.1386,7.76354 6.3929,8.41217 0.39989,0.20679 1.33422,0.37598 2.07627,0.37598 0.74206,0 1.68629,0.17432 2.09829,0.38737 1.70147,0.87987 2.89362,3.20165 2.5592,4.98423 -0.4796,2.5565 -3.35176,3.86438 -5.71995,2.60467 z m 3.61118,-0.77226 c 1.90348,-1.54187 1.34975,-4.53755 -1.0567,-5.71679 -0.86615,-0.42445 -1.16415,-0.45234 -2.03745,-0.19069 -3.44272,1.03147 -2.20851,6.37101 1.47148,6.36605 0.60671,-8e-4 1.29915,-0.1965 1.62267,-0.45857 z m -12.20601,-15.67068 c 0,-0.21429 -0.20836,-0.42975 -0.46302,-0.47879 -0.32487,-0.0626 -0.46302,0.0803 -0.46302,0.47879 0,0.39851 0.13815,0.54137 0.46302,0.4788 0.25466,-0.049 0.46302,-0.2645 0.46302,-0.4788 z m 1.34873,-0.87276 c -0.23248,-0.53862 -0.59713,-1.38227 -0.81033,-1.87477 -0.35692,-0.82449 -0.34307,-0.98699 0.17475,-2.05052 0.30932,-0.63529 1.90606,-3.93667 3.54832,-7.3364 1.64225,-3.39974 3.05229,-6.24771 3.13342,-6.32884 0.0811,-0.0811 -0.0322,0.43829 -0.25179,1.15425 -0.21961,0.71596 -1.4263,4.75456 -2.68153,8.97467 -1.25523,4.2201 -2.37401,7.84572 -2.48619,8.05692 -0.15053,0.28341 -0.3147,0.12744 -0.62665,-0.59531 z m -3.44973,-2.2769 c -0.0813,-0.13158 -0.96983,-2.48307 -1.97445,-5.22552 -1.00463,-2.74245 -2.19228,-5.96854 -2.63923,-7.16909 -0.44695,-1.20054 -0.76563,-2.18281 -0.70818,-2.18281 0.10163,0 7.29057,14.50873 7.29057,14.71383 0,0.21718 -1.82849,0.0905 -1.96871,-0.13641 z"
       style="fill:#000000;stroke-width:0.0700042"
       id="path4743"
       sodipodi:nodetypes="ssssssssssssssssssssscsssssssscacsssscsssssssssssssssssssssssssssssss" />
  </g>
</svg>
