<?xml version="1.0" encoding="UTF-8" standalone="no"?>
<!-- Created with Inkscape (http://www.inkscape.org/) -->

<svg
   version="1.1"
   id="svg2"
   width="465.76529"
   height="12.072492"
   viewBox="0 0 465.76529 12.072492"
   sodipodi:docname="l1.svg"
   inkscape:version="1.1.2 (0a00cf5339, 2022-02-04)"
   xmlns:inkscape="http://www.inkscape.org/namespaces/inkscape"
   xmlns:sodipodi="http://sodipodi.sourceforge.net/DTD/sodipodi-0.dtd"
   xmlns="http://www.w3.org/2000/svg"
   xmlns:svg="http://www.w3.org/2000/svg">
  <defs
     id="defs6" />
  <sodipodi:namedview
     id="namedview4"
     pagecolor="#ffffff"
     bordercolor="#000000"
     borderopacity="0.25"
     inkscape:pageshadow="2"
     inkscape:pageopacity="0.0"
     inkscape:pagecheckerboard="0"
     showgrid="false"
     fit-margin-top="0"
     fit-margin-left="0"
     fit-margin-right="0"
     fit-margin-bottom="0"
     inkscape:zoom="0.56890112"
     inkscape:cx="162.59416"
     inkscape:cy="119.52868"
     inkscape:window-width="1366"
     inkscape:window-height="696"
     inkscape:window-x="0"
     inkscape:window-y="0"
     inkscape:window-maximized="1"
     inkscape:current-layer="g8" />
  <g
     inkscape:groupmode="layer"
     inkscape:label="Image"
     id="g8"
     transform="translate(-78.758914,-77.655369)">
    <path
       style="fill:#000000;stroke-width:0.32"
       d="m 308.87334,89.096731 c -3.51651,-1.78708 -4.23852,-6.76829 -1.39343,-9.61338 1.85071,-1.85072 4.33083,-2.33159 6.60203,-1.28007 3.29632,1.52615 4.56163,4.94052 3.05808,8.25216 -1.29613,2.85488 -5.31789,4.13987 -8.26668,2.64129 z m -13.3514,-2.15145 c -1.21604,-0.7663 -1.61699,-1.27985 -1.89006,-2.42089 -0.83311,-3.48126 3.64049,-5.92812 6.18545,-3.38317 0.83196,0.83197 0.98461,1.22808 0.98461,2.55496 0,1.26101 -0.17334,1.76431 -0.88,2.55514 -1.14117,1.27708 -3.00751,1.57144 -4.4,0.69396 z m 29.08419,0.25771 c -1.24512,-0.50309 -2.04419,-1.88878 -2.04419,-3.54492 0,-1.28432 0.1593,-1.69153 0.98461,-2.51685 1.94656,-1.94653 5.2896,-1.10683 6.07865,1.52685 0.87175,2.90965 -2.19145,5.67739 -5.01907,4.53492 z M 79.361943,84.956611 c -0.84455,-0.84455 -0.80737,-1.46172 0.14545,-2.41454 0.90475,-0.90476 1.40304,-0.97394 2.27338,-0.31564 0.54314,0.41081 13.38358,0.46982 102.221167,0.46982 88.83759,0 101.67803,-0.059 102.22116,-0.46982 0.836,-0.63231 1.33697,-0.59169 2.09884,0.17018 1.71651,1.7165 -0.48048,4.19627 -2.41884,2.73018 -0.54313,-0.41081 -13.36425,-0.46983 -102.06116,-0.46983 -88.696907,0 -101.518037,0.059 -102.061167,0.46983 -0.85323,0.64535 -1.66007,0.58859 -2.41883,-0.17018 z m 255.569597,0.0548 c -0.7121,-0.78686 -0.66778,-1.83663 0.1104,-2.6148 0.76189,-0.76188 1.26285,-0.8025 2.09885,-0.17018 0.54307,0.41076 13.38605,0.4711 102.15241,0.48 92.08605,0.009 101.60317,-0.0369 102.30432,-0.49636 0.9504,-0.62273 1.91984,-0.3621 2.61834,0.70392 1.08224,1.6517 -0.90029,3.35485 -2.60499,2.23789 -0.71885,-0.47101 -9.4937,-0.5144 -102.15767,-0.5051 -88.62566,0.009 -101.44937,0.0693 -101.99241,0.48 -0.84413,0.63845 -1.89024,0.59074 -2.52925,-0.11537 z"
       id="path50"
       sodipodi:nodetypes="sssssssssssssssssssssssscsssscssscss" />
  </g>
</svg>
