<?xml version="1.0" encoding="utf-8" ?>
<svg xmlns="http://www.w3.org/2000/svg" xmlns:xlink="http://www.w3.org/1999/xlink" width="2000" height="1000">
	<path fill="#231F20" transform="scale(0.976562 0.976562)" d="M98.7486 425.396Q96.7883 420.385 95.0414 415.296C86.367 389.422 89.8259 359.123 101.951 334.935C115.336 308.235 140.2 284.648 168.82 275.192C184.915 269.875 215.228 264.686 230.901 273.579C231.08 273.681 231.242 273.812 231.413 273.928L230.415 272.453L231.646 273.58C227.43 274.428 221.608 272.584 217.219 272.156C198.801 270.36 181.883 272.304 164.874 279.613C136.395 291.85 113.797 316.271 102.379 344.94C92.1785 370.552 91.0916 396.297 102.053 421.748C108.447 416.138 114.961 410.985 122.093 406.335Q126.332 403.605 130.68 401.053Q135.028 398.501 139.478 396.13Q143.928 393.759 148.471 391.574Q153.015 389.389 157.645 387.393Q162.275 385.397 166.984 383.594Q171.692 381.791 176.471 380.183Q181.25 378.576 186.091 377.167Q190.932 375.759 195.827 374.551C261.436 357.995 318.217 369.201 382.743 382.883Q385.448 378.517 388.689 374.532C404.056 355.672 430.241 342.74 454.276 340.334C510.372 334.717 565.822 368.8 607.552 403.067C604.434 404.825 600.831 406.454 598.664 409.38C565.322 379.19 524.553 348.241 478.25 344.062C448.906 341.414 423.296 348.34 400.64 367.379C396.495 370.862 387.447 377.887 386.961 383.453C398.003 388.707 414.809 390.783 427.045 394.533C451.429 402.006 475.653 411.334 499.124 421.281C548.515 442.213 597.065 465.902 645.412 489.145C720.44 525.216 794.289 561.607 878.564 568.789C907.827 571.283 939.851 571.332 968.627 564.841C981.414 561.956 993.075 557.046 1004.76 551.226C1008.39 549.422 1013.51 544.952 1017.43 545.464L1017.12 547.234C1002.82 559.027 983.728 564.228 966.557 570.599C999.38 565.244 1030.92 565.445 1064.01 566.611C1060.52 562.48 1046.86 556.628 1041.63 553.203C1036.77 550.022 1032.27 546.157 1027.79 542.465C1033.76 543.665 1059.92 559.44 1068.26 563.633C1071.05 562.642 1076.33 560.266 1079.13 561.397C1077.16 563.838 1073.81 565.022 1071.03 566.35Q1074.94 566.823 1078.86 567.232Q1082.78 567.641 1086.7 567.986Q1090.62 568.33 1094.55 568.61Q1098.48 568.89 1102.42 569.105Q1106.35 569.32 1110.29 569.47Q1114.22 569.621 1118.16 569.706Q1122.1 569.792 1126.04 569.813Q1129.98 569.834 1133.91 569.79Q1137.85 569.746 1141.79 569.637Q1145.73 569.528 1149.66 569.355Q1153.6 569.181 1157.53 568.943Q1161.46 568.705 1165.39 568.402Q1169.32 568.099 1173.24 567.731Q1177.16 567.364 1181.08 566.932Q1184.99 566.5 1188.9 566.004Q1192.81 565.507 1196.71 564.947Q1200.61 564.386 1204.5 563.762Q1208.38 563.137 1212.26 562.449Q1216.14 561.76 1220.01 561.008Q1223.87 560.256 1227.73 559.44Q1231.58 558.624 1235.42 557.745Q1239.26 556.866 1243.09 555.924Q1246.91 554.982 1250.72 553.978Q1254.53 552.973 1258.32 551.905Q1262.11 550.838 1265.89 549.708Q1269.66 548.579 1273.41 547.387Q1277.17 546.196 1280.9 544.943Q1284.64 543.69 1288.35 542.375Q1292.06 541.061 1295.76 539.686Q1299.45 538.31 1303.11 536.875Q1306.78 535.439 1310.43 533.943Q1314.07 532.447 1317.69 530.891C1349.25 517.148 1379.12 500.138 1409.79 484.585Q1464.83 456.399 1521.64 431.993Q1567.96 411.878 1615.95 396.135Q1630.1 391.593 1644.43 387.637C1650.74 385.941 1657.9 384.958 1663.78 382.186C1656.86 373.339 1643.67 365.28 1633.89 359.737C1605.16 343.461 1568.76 340.496 1537.85 352.469C1527.83 356.349 1518.26 363.136 1507.92 365.862C1507.66 365.931 1507.4 365.995 1507.13 366.061C1507.84 363.138 1510.1 361.587 1512.26 359.67C1510.85 358.067 1508.78 358.262 1506.7 357.981C1544.73 341.448 1581.97 335.848 1621.53 351.37C1636.03 357.055 1656.87 369.197 1665.86 382.002C1676.25 381.228 1694.38 374.991 1702.82 375.995L1706.58 377.555C1707.18 379.909 1706.36 380.716 1705.36 382.779C1694.7 385.147 1683.85 386.275 1673.22 388.802C1676.65 391.659 1681.81 396.393 1682.39 401.122C1682.45 401.592 1682.41 401.755 1682.37 402.261C1753.64 394.226 1819.79 388.752 1884.79 425.883C1894.88 431.648 1905.14 437.796 1914.22 445.057C1916.51 446.889 1921.25 450.486 1921.85 453.404C1927.59 450.414 1935.91 441.691 1937.97 435.543C1938.43 434.142 1938.09 433.489 1937.73 432.106L1942.07 432.821C1942.63 434.683 1942.29 434.992 1941.63 436.76C1940.86 441.991 1930.58 452.166 1926.28 455.463C1925.42 456.124 1924.47 456.661 1923.5 457.152C1940.86 468.293 1953.03 494.588 1957.28 514.045C1960.43 528.442 1959.49 539.075 1956.15 553.392L1955.44 553.967C1954.61 544.556 1956.83 535.004 1955.89 525.677C1953.96 506.311 1938.63 475.316 1923.97 462.883Q1922.39 461.544 1920.57 460.557C1918.09 466.365 1905.67 475.5 1899.9 478.508C1905.09 480.732 1911.52 486.646 1913.58 491.985C1913.83 492.643 1914.02 493.271 1914.17 493.956C1910.24 490.094 1903.5 480.986 1897.92 481.117C1896.74 481.144 1895.55 481.302 1894.38 481.447C1893.9 479.858 1894.16 479.591 1894.69 478.07C1857.27 441.436 1784.44 433.933 1734.04 434.47C1714.8 434.675 1695.44 434.995 1676.33 437.493C1612.98 445.778 1542.45 471.596 1483.05 495.392C1466.32 502.094 1425.96 521.768 1411.06 524.112C1406.88 532.071 1329.6 555.829 1316.26 559.978C1270.4 574.246 1202.94 583.275 1154.77 581.296C1137.97 580.607 1121.39 576.899 1104.68 576.414C1145.41 586.044 1188.6 613.574 1210.75 649.49C1221.79 667.393 1227.16 689.82 1222.14 710.548C1219.66 720.768 1215.01 731.769 1205.72 737.52C1205.53 737.638 1205.34 737.749 1205.15 737.864L1202.58 736.239L1202.77 736.542C1210.55 731.569 1214.83 724.981 1216.78 715.955C1221.49 694.17 1211.62 669.048 1199.77 651.167C1175.8 615.01 1147.77 599.397 1108.54 583.68C1095.79 578.569 1082.65 573.067 1069.13 570.41Q1067.9 570.167 1066.65 569.983C1064.96 575.272 1055.85 582.352 1051.77 586.42C1064.76 589.904 1111.15 601.796 1117.28 611.913L1118.23 613.59C1116.9 616.247 1115.73 617.185 1112.9 618.365C1102.41 604.605 1064.8 592.881 1047.86 590.604C1047.41 590.543 1046.96 590.502 1046.5 590.457C1046.07 595.873 1036.76 606.053 1032.92 610.277C1040.57 612 1072.29 619.952 1076.37 626.669C1076.84 627.44 1076.75 627.274 1076.93 627.937C1077.55 630.563 1078.36 631.858 1077.16 634.377L1074.82 635.925C1066 625.137 1045.5 616.188 1032.39 612.607C1032.56 616.371 1017.46 647.471 1014.91 654.526C1011.36 664.308 999.857 711.93 1006.02 718.915C1009.1 717.795 1010.7 714.75 1012.01 711.923C1017.62 699.88 1019.97 691.834 1021.89 678.897C1022.22 676.741 1022.62 671.994 1024.57 670.787C1024.47 671.671 1024.63 671.706 1023.95 672.352C1026.26 674.591 1026.51 694.82 1026.87 699.296L1026.25 699.488C1025.58 696.845 1025.49 694.247 1023.41 692.421L1022.95 692.749C1017.42 696.717 1017.87 708.969 1014.8 715.111C1012.45 719.825 1007.14 724.768 1006.14 729.9C1003.48 743.599 1015.81 774.6 1023.82 785.837C1026.71 781.65 1034.05 773.1 1034.03 767.987L1036.22 769.646L1035.76 772.875C1036.5 775.417 1037.16 776.438 1035.83 778.985C1034.26 781.996 1026.94 790.096 1027.84 793.236C1029.58 799.37 1053.46 826.235 1059.61 829.779C1060.46 830.27 1061.45 830.5 1062.41 830.665C1064.78 829.148 1065.48 828.054 1066.18 825.265C1069.26 812.934 1068.04 797.827 1064.3 785.78C1062.07 778.575 1051.78 763.849 1053.74 757.334C1057.82 758.096 1060.76 762.379 1063 765.699C1072.39 779.635 1076.16 802.118 1072.88 818.592C1071.91 823.46 1070.11 832.072 1066.71 835.724C1075.52 839.594 1109.17 854.142 1114.75 858.384C1116.82 860.265 1117.32 860.309 1117.59 863.034C1103.51 859.243 1073.8 841.68 1063.94 841.041C1063.71 839.494 1061.85 838.123 1060.75 837.051C1060.58 836.672 1028.02 805.347 1023.39 799.008C1013.27 814.04 999.698 824.753 986.914 837.372L991.375 847.812C990.778 849.338 990.426 850.877 988.939 851.755C986.339 847.632 984.459 843.626 982.661 839.119C955.556 855.553 923.893 868.88 891.791 869.73C859.248 870.591 821.451 860.075 797.565 837.139C789.124 829.034 776.46 813.509 776.231 801.511C778.525 801.934 783.553 813.442 785.427 816.109C803.548 841.907 829.378 858.009 860.188 863.209C903.413 870.503 944.616 858.893 980.064 833.724C975.933 818.693 974.363 802.786 977.519 787.404C979.14 779.507 988.263 759.735 995.32 755.048L997.005 755.534C998.316 763.441 989.832 775.329 986.803 782.686C983.057 791.788 978.49 815.801 982.583 824.98C983.632 827.335 984.27 827.468 986.527 828.328C997.768 826.325 1013.59 803.633 1020.28 794.264C1010.1 776.574 1001.84 756.994 998.692 736.72C994.398 740.782 990.03 744.865 985.522 748.69C971.443 760.635 953.42 767.602 934.827 765.969C917.065 764.408 901.383 756.672 889.905 742.932C877.114 727.62 872.364 705.918 874.125 686.345C876.445 660.542 891.05 640.255 910.565 624.091C947.972 593.11 997.535 581.875 1045.1 586.234C1049.21 583.805 1059.56 573.66 1061.05 569.231C1032.57 563.624 997.78 567.577 969.375 573.257C930.642 581.003 872.488 608.555 850.204 642.573C834.758 666.153 826.979 691.275 834.897 719.132C836.559 724.978 840.623 729.967 841.851 735.768L840.53 735.99C838.142 733.956 836.24 731.864 834.802 729.051C824.787 709.465 822.575 685.274 829.759 664.423C845.845 617.74 889.805 597.57 931.067 577.568C873.084 582.918 817.236 582.115 760.279 568.455C729.546 561.084 699.412 550.365 669.893 539.168C623.892 521.72 579.11 501.171 533.209 483.519Q501.255 471.128 468.473 461.127Q435.692 451.127 402.262 443.571C394.86 441.878 376.671 436.037 369.742 438.66C367.861 440.565 367.717 441.123 367.06 443.747C369.601 452.638 391.392 445.047 402.041 448.792C428.443 458.076 429.808 472.875 448.35 488.138C463.455 483.548 476.645 483.851 491.983 487.198C512.63 491.705 532.085 500.28 551.662 508.05L636.728 542.109C668.038 554.363 700.654 563.587 731.537 576.741C726.97 579.067 604.741 534.94 588.5 528.636C561.832 518.286 535.592 504.812 508.121 496.857C490.465 491.744 472.891 489.636 454.541 490.155C476.388 496.913 498.144 502.617 519.596 510.705C596.171 539.578 672.194 577.309 752.277 595.328C774.757 600.386 801.077 603.876 824.195 603.016C834.205 602.643 855.928 597.582 864.426 599.338C858.709 600.998 853.381 601.829 847.766 604.038C836.22 620.335 821.589 630.996 802.535 637.025C747.297 654.505 691.481 635.637 640.019 615.444C619.98 607.581 600.036 599.675 580.888 589.783C581.84 587.348 580.207 586.374 581.094 584.305L584.713 584.826L585.077 583.099C583.838 580.238 580.328 578.344 577.818 576.582L578.943 575.307C641.144 605.68 734.011 657.541 804.039 633.231C820.205 627.619 831.072 616.615 841.834 603.769C740.227 616.53 629.966 570.864 537.474 533.494C506.12 520.826 475.509 507.441 443.138 497.362C399.674 483.828 351.029 474.613 305.369 474.637C274.657 474.654 243.903 478.481 215.029 489.345C187.603 499.665 159.692 515.287 141.498 538.764C128.503 555.532 118.589 578.559 115.018 599.443C115.291 590.718 110.114 583.674 109.397 574.848C124.967 535.109 140.02 518.087 174.672 493.298C166.185 489.606 157.999 485.233 149.772 481.002C146.576 483.309 140.388 488.957 136.729 489.221C139.309 485.268 143.337 482.27 146.876 479.197C138.618 473.654 131.213 467.439 123.826 460.788C112.167 474.52 101.05 491.951 96.1822 509.437C95.1793 513.04 95.0682 516.766 94.2774 520.385C93.3902 524.445 91.4577 527.072 91.4782 531.445C91.5153 539.347 95.44 548.789 94.1133 556.357L92.8378 556.233C90.2151 551.935 90.4749 544.005 90.307 538.992C89.2911 508.667 101.044 480.234 121.554 458.202C114.838 451.179 109.404 443.457 104.266 435.235C78.2243 458.767 65.4424 483.068 56.2868 516.395L53.9502 517.324C51.9319 513.723 53.9073 507.22 52.4653 502.765Q53.0739 499.962 53.7959 497.187Q54.5179 494.411 55.3521 491.667Q56.1863 488.923 57.1314 486.215Q58.0765 483.507 59.1309 480.84Q60.1853 478.172 61.3473 475.55Q62.5092 472.928 63.7768 470.355Q65.0444 467.783 66.4155 465.263Q67.7866 462.744 69.259 460.283Q70.7313 457.822 72.3026 455.422Q73.8738 453.023 75.5412 450.689Q77.2087 448.356 78.9696 446.092Q80.7306 443.828 82.5821 441.638Q84.4336 439.447 86.3726 437.334Q88.3116 435.221 90.3349 433.188Q92.3583 431.155 94.4625 429.206Q96.5668 427.258 98.7486 425.396ZM1404.62 513.001C1415.63 509.09 1426.35 503.484 1436.98 498.609Q1459.89 487.936 1483.36 478.548C1565.65 445.12 1650.45 418.72 1740.14 422.098C1762.58 422.944 1785.36 425.03 1806.97 431.395C1826.1 437.03 1887.16 458.128 1896.82 475.849C1902.32 475.055 1913.95 464.417 1917.51 459.767C1917.9 459.254 1917.98 458.756 1918.12 458.142C1916.5 450.598 1897.06 438.402 1890.88 434.431C1841.2 402.474 1779.91 397.988 1722.57 401.209C1714.35 401.671 1694.64 402.119 1688.1 403.671C1687.53 403.804 1686.96 404.03 1686.43 404.249L1686.23 406.869C1681.2 406.793 1676.03 406.29 1671.02 406.717C1665.3 407.205 1657.87 410.453 1652.45 409.542C1660.85 405.295 1670.9 406.356 1679.24 402.583C1678.48 398.103 1674.21 393.154 1670.57 390.534C1670.09 390.185 1669.94 390.117 1669.38 389.792C1638.6 394.907 1610.09 405.939 1581.13 417.107C1554.57 427.349 1528.97 438.947 1503.02 450.59C1491.48 455.77 1479.58 460.349 1468.24 465.932C1399.39 499.823 1326.89 541.767 1251.78 559.139C1212.38 568.251 1171.03 573.76 1130.54 572.85C1115.57 572.514 1099.32 568.372 1084.56 569.375C1168.83 588.294 1257.1 573.108 1337.04 543.704C1359.42 535.471 1383.2 526.094 1403.61 513.659C1403.96 513.45 1404.29 513.223 1404.62 513.001ZM108.312 432.176C112.345 440.729 117.304 447.615 123.588 454.653C162.913 414.56 221.689 395.49 277.032 394.913Q291.496 394.807 305.924 395.825Q320.352 396.844 334.658 398.98C348.936 401.015 359.215 404.445 373.862 403.933L374.731 406.208C376.896 406.986 379.04 407.721 381.261 408.328L381.198 409.081C378.005 409.637 373.285 406.953 371.287 409.703C370.071 408.966 370.849 409.482 369.878 408.749C364.563 404.735 355.392 404.265 348.969 403.334C315.321 398.457 280.521 397.211 246.852 402.365C202.789 409.109 160.105 426.313 127.489 457.337C134.453 464.064 141.939 471.6 150.06 476.883C200.675 438.941 248.566 424.647 311.239 423.259Q329.08 422.885 346.897 423.888Q364.715 424.892 382.401 427.268Q400.404 429.848 418.244 433.385Q436.084 436.922 453.71 441.407Q471.335 445.892 488.696 451.312Q506.057 456.732 523.104 463.071C588.564 487.257 650.897 518.937 716.114 543.721C740.057 552.82 764.104 561.67 789.101 567.452Q801.216 570.147 813.471 572.109Q825.726 574.071 838.077 575.293Q850.428 576.515 862.83 576.992Q875.232 577.47 887.64 577.201C903.561 576.789 920.556 576.565 936.133 573.155C921.752 572.742 907.374 573.515 892.999 573.046Q880.835 572.621 868.713 571.529Q856.591 570.437 844.547 568.681Q832.503 566.925 820.573 564.51Q808.644 562.095 796.865 559.029C630.692 515.892 498.202 400.4 322.074 380.174C298.548 377.472 273.868 375.336 250.212 377.414C198.567 381.056 147.13 396.503 108.312 432.176ZM290.293 459.242C292.934 456.842 295.765 454.497 298.037 451.744L297.08 449.512L297.503 449.327C294.216 450.521 292.991 453.028 289.447 452.736C287.485 450.915 286.658 450.257 285.806 447.638C286.784 444.703 288.039 443.196 286.628 440.358C284.052 438.8 281.468 438.343 278.555 437.77C274.143 440.317 270.364 442.512 268.89 447.674C267.984 450.849 268.222 454.55 269.96 457.409C271.519 459.974 273.903 461.762 276.832 462.505C281.54 463.699 286.357 461.714 290.293 459.242ZM350.095 436.961C346.486 438.554 343.591 440.063 342.09 443.927C341.186 446.256 341.125 448.668 342.133 450.982C343.312 453.689 345.718 455.908 348.502 456.892C350.912 457.743 353.342 457.587 355.85 457.417C357.738 456.05 359.209 455.43 360.027 453.157L356.84 450.439C356.486 444.217 362.376 444.701 361.275 437.865L361.492 438.532C361.291 438.483 361.09 438.432 360.888 438.385C357.344 437.567 353.709 437.303 350.095 436.961ZM152.954 478.661L172.791 490.131C173.738 490.385 175.61 491.143 176.529 491.132C181.462 491.071 193.473 483.205 198.381 480.773C212.866 473.597 230.533 468.931 246.268 465.78C253.273 464.378 262.119 463.898 268.632 461.152L268.44 461.437C265.558 456.151 263.745 451.976 265.682 445.967C267.543 440.191 274.495 437.373 279.453 434.795C275.33 434.952 270.938 434.805 266.867 435.389C228.161 439.978 183.767 454.035 152.954 478.661ZM344.073 435.169C339.116 434.73 334.033 434.029 329.057 434.292C310.31 438.827 311.763 453.303 294.369 462.453C337.405 463.062 383.525 465.692 424.364 480.094C429.589 481.709 434.807 483.431 440.066 484.928C428.371 468.904 414.888 453.556 394.087 450.472C388.561 449.653 382.936 449.757 377.536 451.281C366.403 454.422 349.342 467.491 339.67 454.593C337.658 451.909 337.226 447.865 337.924 444.642C338.729 440.932 341.562 437.865 344.073 435.169ZM1027.65 608.812C1031.37 605.73 1040.93 595.167 1041.85 590.5C1041.88 590.315 1041.88 590.124 1041.89 589.936C1003.43 583.572 959.875 597.297 928.62 619.578C906.989 634.998 888.749 657.45 884.354 684.33Q884.077 685.983 883.881 687.648Q883.686 689.312 883.573 690.984Q883.459 692.657 883.428 694.332Q883.398 696.008 883.449 697.683Q883.501 699.359 883.635 701.029Q883.769 702.7 883.985 704.362Q884.201 706.024 884.498 707.673Q884.796 709.323 885.174 710.956Q885.553 712.588 886.011 714.2Q886.469 715.813 887.006 717.4Q887.543 718.988 888.158 720.547Q888.772 722.107 889.463 723.634Q890.153 725.161 890.918 726.652Q891.683 728.144 892.52 729.596Q893.358 731.047 894.265 732.456Q895.173 733.865 896.149 735.228C905.26 747.736 920.906 756.225 936.064 758.663C952.439 761.298 968.573 755.346 981.638 745.686C988.228 740.814 993.645 735.356 998.25 728.572C996.521 698.254 999.762 666.725 1013.07 638.922C1015.18 634.529 1025.61 617.522 1025.83 614.887C1025.88 614.304 1025.54 613.755 1025.39 613.189C1021.32 610.721 1017.97 611.307 1013.42 612.421C1002.12 615.189 990.138 621.623 980.605 628.148C966.044 638.369 953.807 650.828 946.229 667.143C942.364 675.466 940.361 684.502 943.711 693.351C945.764 698.774 949.533 705.333 955.149 707.681C958.848 709.228 963.023 708.864 966.635 707.24C969.976 705.739 973.952 702.504 975.153 698.911C976.018 696.326 975.524 695.158 974.462 692.842C971.792 690.395 967.81 689.903 964.374 689.114C966.102 687.868 967.63 687.898 969.744 688.05C972.581 688.254 974.58 688.636 976.479 690.976C978.437 693.386 979.181 696.542 978.747 699.588C978.25 703.07 976.544 706.232 973.671 708.316C969.616 711.257 963.146 712.368 958.271 711.478C951.801 710.297 946.654 705.888 943.11 700.526C936.992 691.27 935.495 679.104 937.937 668.406C942.053 650.377 958.277 633.826 973.523 624.3C983.91 614.538 1003.85 608.325 1017.76 605.176C1020.78 606.208 1025.01 607.11 1027.65 608.812ZM284.72 435.055C290.692 437.282 295.624 439.128 299.861 444.15L300.413 445.446C306.08 442.458 311.248 437.492 316.779 434.006C313.541 433.813 310.23 433.46 306.991 433.441C299.591 433.816 292.046 433.935 284.72 435.055Z"/>
	<path fill="#544643" transform="scale(0.976562 0.976562)" d="M1404.62 513.001C1415.63 509.09 1426.35 503.484 1436.98 498.609Q1459.89 487.936 1483.36 478.548C1565.65 445.12 1650.45 418.72 1740.14 422.098C1762.58 422.944 1785.36 425.03 1806.97 431.395C1826.1 437.03 1887.16 458.128 1896.82 475.849L1894.69 478.07C1857.27 441.436 1784.44 433.933 1734.04 434.47C1714.8 434.675 1695.44 434.995 1676.33 437.493C1612.98 445.778 1542.45 471.596 1483.05 495.392C1466.32 502.094 1425.96 521.768 1411.06 524.112C1410.1 523.279 1408.84 523.291 1408.04 522.632C1405.81 520.789 1408.62 517.697 1404.62 513.001Z"/>
	<path fill="#544643" transform="scale(0.976562 0.976562)" d="M973.523 624.3C976.092 624.697 978.362 624.369 979.856 626.739C980.206 627.293 980.335 627.591 980.605 628.148C966.044 638.369 953.807 650.828 946.229 667.143C942.364 675.466 940.361 684.502 943.711 693.351C945.764 698.774 949.533 705.333 955.149 707.681C958.848 709.228 963.023 708.864 966.635 707.24C969.976 705.739 973.952 702.504 975.153 698.911C976.018 696.326 975.524 695.158 974.462 692.842C971.792 690.395 967.81 689.903 964.374 689.114C966.102 687.868 967.63 687.898 969.744 688.05C972.581 688.254 974.58 688.636 976.479 690.976C978.437 693.386 979.181 696.542 978.747 699.588C978.25 703.07 976.544 706.232 973.671 708.316C969.616 711.257 963.146 712.368 958.271 711.478C951.801 710.297 946.654 705.888 943.11 700.526C936.992 691.27 935.495 679.104 937.937 668.406C942.053 650.377 958.277 633.826 973.523 624.3Z"/>
	<path fill="#544643" transform="scale(0.976562 0.976562)" d="M1022.72 122.687L1023.27 122.478C1031.81 119.123 1038.34 113.477 1046.18 109.003C1052.84 105.204 1073.59 98.332 1081.03 98.2625L1081.68 99.0803L1081.92 98.5746C1079.94 98.454 1076.27 100.366 1074.2 101.036C1066.84 103.413 1059.34 105.482 1052.55 109.269C1043.38 114.377 1034.48 122.468 1024.52 125.737C1037.93 132.727 1067.7 164.237 1072.04 178.522C1072.3 179.368 1072.35 179.902 1072.37 180.798C1083.6 177.278 1094.1 171.389 1105.01 167.001C1122.4 160.013 1151.41 152.337 1169.54 160.882C1170.31 161.246 1170.75 161.642 1171.39 162.205C1144.11 158.272 1120.41 161.996 1095.76 174.496C1088.64 178.108 1081.34 183.341 1073.99 186.131C1085.15 198.888 1090.32 222.383 1089.19 238.984C1088.76 245.381 1087.58 254.548 1083.35 259.508C1097.1 253.778 1170.38 217.403 1176.25 208.717C1176.36 208.59 1176.48 208.468 1176.59 208.337C1182.87 200.689 1177.54 188.447 1191.7 186.905C1196.48 186.384 1200.97 187.703 1205.09 190.049L1206.55 192.164C1205.03 195.466 1201.77 196.612 1198.66 198.385L1199.34 199.41C1205.05 200.333 1214.91 195.118 1219.53 191.65C1220.31 191.063 1221.23 190.253 1221.65 189.358L1221.98 188.717C1224.79 183.127 1224.8 176.205 1231 173.12C1235.45 172.756 1244.19 172.445 1247.82 175.345C1248.06 175.539 1248.29 175.748 1248.53 175.95C1245.85 179.827 1235.57 181.11 1235.56 183.203C1240.36 185.802 1246.02 184.152 1250.97 182.645C1264.65 178.484 1269.51 162.291 1282.25 168.807C1289.95 172.742 1291.29 173.264 1299.74 171.533C1303.91 168.179 1306.92 165.332 1312.63 166.057C1314.38 166.279 1315.48 166.888 1316.79 168.012C1317.96 170.088 1318.13 171.956 1317.4 174.258C1316.61 176.745 1315.18 177.759 1313.03 178.958C1305.77 179.772 1292.09 170.59 1286.43 177.402C1283.43 181.009 1285.86 187.528 1279.37 188.307C1272.13 189.177 1265.36 185.117 1259.53 181.47C1255.18 182.86 1246.05 184.464 1242.85 187.369C1244.91 189.821 1247.84 188.246 1250.04 191.074C1249.26 194.255 1246.24 197.36 1243.51 199.064C1240.7 200.814 1237.82 200.995 1234.71 200.199C1229.23 198.794 1226.17 194.67 1221.16 192.76C1216.7 196.161 1207.06 199.805 1204.34 204.128C1207.13 205.961 1210 202.573 1212.44 204.863C1212.3 208.676 1211.2 212.972 1208.33 215.674Q1207.81 216.165 1207.24 216.6Q1206.67 217.036 1206.06 217.411Q1205.45 217.787 1204.8 218.1Q1204.15 218.412 1203.48 218.658Q1202.81 218.903 1202.11 219.08Q1201.42 219.257 1200.71 219.362Q1200 219.468 1199.28 219.501Q1198.57 219.535 1197.85 219.496C1191.18 219.107 1184.94 216.414 1179.29 213.02C1154.62 231.205 1125.46 239.652 1099.62 255.363C1087.13 262.955 1074.68 271.453 1063.6 280.984C1056.87 286.764 1050.88 293.949 1043.47 298.852C1043.43 298.788 1043.39 298.718 1043.33 298.66C1041.26 296.447 1039.22 296.13 1036.4 295.707C1037.44 294.123 1037.77 292.832 1038.13 290.986C1035.78 282.661 1029.19 257.865 1023.82 252.05C1022.77 250.92 1022.57 251.119 1021.05 251.104C1008.78 264.025 1015.93 325.813 1013.51 345.666C1012.24 347.015 1012.26 347.117 1010.44 347.355C1008.72 344.121 1010.08 338.746 1009.79 335.051C1007.53 306.535 1004.35 292.441 1009.98 262.568C1011.21 256.05 1017.82 245.375 1017.14 239.274C1015.82 227.266 984.788 199.566 975.172 190.971C964.645 216.933 964.012 241.957 970.721 269.096L968.806 271.309C958.126 249.639 959.536 222.334 967.169 199.905C968.527 195.913 970.02 192.065 971.954 188.31C946.332 171.492 920.726 159.475 889.879 157.905C888.65 157.843 889.104 158.1 888.415 157.364C918.21 154.346 949.49 168.635 974.056 184.342C984.617 159.784 1000.05 143.174 1020.14 126.037C1002.89 114.622 989.092 105.1 968.934 99.5293C971.673 98.2038 982.591 101.65 985.776 102.778C998.744 107.366 1011.11 115.385 1022.72 122.687ZM978.274 187.362C990.16 196.846 1001.85 206.93 1012.05 218.254C1015.2 221.758 1017.43 229.18 1021.02 231.418L1022.71 230.111C1029.51 221.009 1036.63 210.918 1045.17 203.381C1052.29 197.095 1062.72 192.227 1068.45 184.704C1069.2 176.956 1053.24 158.294 1048.32 152.331C1041.68 144.272 1032.09 133.93 1022.37 129.719C1001.72 145.971 989.077 163.526 978.274 187.362ZM1025.84 239.971C1030.11 244.858 1042.46 277.494 1042.22 283.477C1042.19 284.175 1042.1 284.843 1041.97 285.528L1044.52 288.448C1047.68 287.921 1073.38 267.183 1075.92 263.706C1076 263.588 1076.08 263.465 1076.17 263.344C1083.41 255.252 1085.84 241.929 1085.21 231.404C1084.85 225.41 1076.68 195.722 1073.02 192.325C1071.49 190.901 1070.77 190.809 1068.8 190.464C1063.42 199.258 1050.18 207.514 1042.73 215.419C1036.08 222.475 1031.04 231.787 1025.84 239.971Z"/>
	<path fill="#231F20" transform="scale(0.976562 0.976562)" d="M1054.81 226.466C1057.8 226.349 1060.84 226.304 1063.41 228.102C1065.67 229.684 1066.18 230.749 1066.55 233.391C1064.86 235.99 1063.99 236.418 1061.32 237.779C1059.53 238.922 1058.32 239.119 1056.21 239.14C1055.48 238.588 1054.72 238.256 1054.36 237.392C1052.93 233.949 1053.4 229.856 1054.81 226.466Z"/>
	<path fill="#231F20" transform="scale(0.976562 0.976562)" d="M1748.97 458.531C1751.94 456.474 1754.34 453.995 1756.86 451.415C1760.34 451.461 1763.31 457.777 1766.88 459.418C1768.7 460.258 1770.66 460.57 1772.54 459.672C1774.67 458.655 1775.44 457.456 1776.34 455.447C1774.87 450.522 1766.67 448.699 1762.63 446.207C1762.45 446.094 1762.27 445.978 1762.09 445.864C1770.31 447.058 1782 449.369 1788.34 455.115C1790.33 456.918 1790.85 457.975 1791.05 460.593C1789.75 463.075 1788.52 463.796 1786.11 465.024L1787.37 467.132C1785.46 469.288 1783.47 470.566 1783.42 473.515C1787.55 479.48 1804.99 480.203 1805.93 483.928C1772.54 477.097 1739.18 472.996 1705.04 475.452C1624.85 481.219 1551.4 516.952 1477.92 546.371C1414.85 571.626 1350.79 592.943 1283.01 600.984C1248.35 605.095 1215.89 607.328 1181.46 599.587C1200.98 600.081 1219.99 602.926 1239.62 601.88C1329.1 597.116 1413.38 556.272 1495.3 523.508Q1532.12 508.906 1569.3 495.231C1579.94 491.424 1591.32 488.849 1601.72 484.556C1606 481.612 1608.1 476.195 1610.68 471.858L1612.14 472.888C1612.15 473.559 1612.14 474.224 1612.02 474.887C1611.34 478.556 1608.85 481.216 1605.98 483.354C1618.02 481.363 1641.12 476.307 1652.48 472.638C1655.27 469.873 1653.2 467.319 1653.75 463.613C1654.27 460.14 1655.88 457.466 1658.7 455.389C1665.68 450.246 1677.79 448.201 1686.23 449.483C1689.12 449.922 1691.2 450.839 1692.93 453.159L1691.92 454.681C1683.57 458.211 1682.07 452.899 1675.05 453.373C1670.91 453.651 1664.44 455.498 1661.86 459.034C1660.28 461.199 1660.56 462.43 1660.9 464.885C1662.14 466.612 1663.27 467.683 1665.36 468.288C1669.19 469.397 1673.6 468.388 1677.04 466.552C1679.23 465.378 1680.27 465.185 1681.01 462.752L1678.2 460.104C1680.13 456.609 1694.13 463.282 1698.8 460.597C1699.06 459.59 1699.3 458.358 1699.81 457.453C1700.83 455.642 1702.3 455.679 1704.1 455.434C1705.01 455.84 1705.83 456.294 1706.56 456.987C1708.19 458.541 1709.47 461.109 1709.46 463.335C1714.67 463.317 1721.8 464.038 1726.7 462.256C1728.93 461.443 1729.54 461.09 1730.5 458.967C1729.88 457.663 1729.29 456.315 1728.43 455.141C1728.28 454.928 1728.12 454.719 1727.96 454.508L1729.69 452.183C1733.42 451.95 1736.59 451.623 1740.09 453.121L1740.1 454.169L1735.65 456.526L1735.47 457.616C1739.69 458.801 1744.6 458.448 1748.97 458.531Z"/>
	<path fill="#544643" transform="scale(0.976562 0.976562)" d="M1944.22 418.423C1944.4 418.248 1944.58 418.075 1944.75 417.897C1952.89 409.607 1953.1 390.318 1952.78 379.198C1951.93 349.734 1936.68 319.974 1915.35 300.031C1895.12 281.109 1868.24 270.224 1840.53 271.274C1835.79 271.454 1830.88 271.778 1826.23 272.764C1821.99 273.662 1816.18 277.232 1812.12 276.919C1825.19 267.454 1847.88 267.958 1863.17 270.436C1891.9 275.092 1918.37 293.434 1935.16 316.795C1950.87 338.634 1962.09 368.859 1957.42 396.138C1956.22 403.171 1948.52 419.432 1952.55 425.156C1957.7 432.489 1964.56 438.709 1969.87 445.973C1977.16 455.947 1995.44 488.979 1993.73 501.342C1993.6 502.292 1993.3 503.141 1992.93 504.021C1993.89 507.819 1994 509.028 1991.95 512.529C1990.52 514.963 1988.76 517.307 1987.62 519.876C1987.75 519.185 1987.73 519.384 1987.8 518.522C1989.45 499.271 1969.36 463.12 1957.34 448.613C1953.36 443.801 1948.13 437.389 1941.63 436.76C1942.29 434.992 1942.63 434.683 1942.07 432.821L1937.73 432.106C1937.24 431.544 1936.73 431.03 1936.16 430.541C1872 375.244 1784.92 376.455 1705.36 382.779C1706.36 380.716 1707.18 379.909 1706.58 377.555L1702.82 375.995C1782.34 362.162 1864.42 361.185 1933.6 409.47C1936.53 411.516 1942.36 415.431 1944.22 418.423Z"/>
	<path fill="#231F20" transform="scale(0.976562 0.976562)" d="M204.336 623.858C206.119 625.432 209.083 624.836 211.444 625.219C215.512 625.88 219.771 627.423 222.248 630.887C224.623 634.209 224.988 638.483 224.352 642.417C223.478 647.817 220.993 652.784 216.473 656.009C209.767 660.794 199.961 660.673 192.215 659.185C176.654 656.197 162.948 646.164 154.099 633.208Q153.232 631.918 152.429 630.588Q151.625 629.257 150.888 627.889Q150.151 626.521 149.482 625.119Q148.812 623.716 148.212 622.283Q147.612 620.849 147.083 619.388Q146.554 617.927 146.096 616.441Q145.639 614.956 145.255 613.45Q144.871 611.945 144.561 610.422Q144.251 608.899 144.015 607.363Q143.78 605.827 143.62 604.281Q143.46 602.735 143.376 601.183Q143.292 599.631 143.283 598.077Q143.275 596.523 143.343 594.971Q143.41 593.418 143.554 591.871Q143.697 590.323 143.916 588.785Q144.135 587.246 144.429 585.72C149.076 561.163 161.2 544.517 181.753 530.556C234.765 494.548 311.057 488.829 372.877 500.626Q383.8 502.225 394.632 504.36C431.869 512.671 465.743 524.706 500.97 539.187C495.157 541.137 492.615 544.6 488.597 548.968C464.099 540.315 439.944 530.396 414.995 523.118C350.708 504.367 268.133 494.692 205.926 524.315C183.69 534.905 161.304 549.851 152.701 574.14C147.043 590.117 147.728 610.881 155.226 626.132C161.796 639.496 173.438 650.302 187.663 655.023C196.127 657.833 204.154 658.003 212.206 653.888C216.16 651.867 218.196 650.087 219.555 645.748C220.64 642.282 221.59 636.693 219.667 633.369C218.479 631.316 217.553 631.213 215.439 630.42C209.454 631.369 208.498 638.202 201.998 636.056C198.675 632.241 197.201 626.499 197.55 621.497C197.847 617.225 200.052 613.62 203.313 610.918C208.434 606.675 216.616 604.541 223.179 605.226C230.902 606.034 238.656 611.333 243.36 617.336C247.032 622.021 249.769 627.255 251.155 633.044L250.603 639.192C249.211 638.1 248.267 636.904 247.204 635.497C245.425 628.797 242.073 622.543 237.138 617.644C231.862 612.406 224.53 608.666 216.955 608.835C213.224 608.919 209.154 609.644 206.542 612.504C204.926 614.273 204.906 614.624 205 616.978L202.442 620.555C202.986 621.745 203.446 622.875 204.336 623.858Z"/>
	<path fill="#544643" transform="scale(0.976562 0.976562)" d="M372.877 500.626Q383.8 502.225 394.632 504.36C393.795 504.41 393.282 504.543 392.523 504.906C388.887 506.648 385.833 506.791 381.827 506.588C378 506.393 375.274 505.953 372.694 503.061L372.877 500.626Z"/>
	<path fill="#544643" transform="scale(0.976562 0.976562)" d="M1482.5 568.91C1495.97 563.842 1509.25 556.133 1522.34 550.006C1595.98 515.557 1672.28 490.4 1754.53 495.565C1777.87 497.031 1800.73 500.396 1822.78 508.462C1829.93 511.077 1859.12 522.972 1861.9 528.965C1859.01 530.794 1859.45 533.635 1856.1 535.958C1835.56 514.771 1769.98 506.722 1740.05 506.186C1677.34 505.062 1606.09 528.613 1548.77 553.102C1529.12 561.499 1510.16 573.158 1489.6 579.064C1489.84 575.959 1483.85 572.856 1482.5 568.91Z"/>
	<path fill="#544643" transform="scale(0.976562 0.976562)" d="M1177.55 273.496Q1179.34 273.362 1181.13 273.268Q1182.92 273.175 1184.71 273.123Q1186.5 273.07 1188.29 273.059Q1190.09 273.048 1191.88 273.078Q1193.67 273.108 1195.46 273.179Q1197.25 273.25 1199.04 273.363Q1200.83 273.475 1202.62 273.628Q1204.41 273.781 1206.19 273.975Q1207.97 274.169 1209.75 274.404Q1211.52 274.639 1213.3 274.915Q1215.07 275.19 1216.83 275.507Q1218.6 275.823 1220.35 276.179Q1222.11 276.536 1223.86 276.933Q1225.61 277.33 1227.34 277.766Q1229.08 278.203 1230.81 278.68Q1232.54 279.156 1234.26 279.672Q1235.97 280.188 1237.68 280.744Q1239.38 281.299 1241.07 281.893Q1242.76 282.487 1244.44 283.12Q1246.12 283.753 1247.78 284.424Q1249.44 285.096 1251.09 285.805Q1252.74 286.514 1254.37 287.261Q1256 288.007 1257.61 288.791Q1259.22 289.575 1260.81 290.396Q1262.41 291.217 1263.98 292.074Q1265.56 292.931 1267.11 293.824Q1268.67 294.717 1270.2 295.645Q1271.73 296.573 1273.25 297.536Q1274.76 298.5 1276.25 299.497Q1277.74 300.495 1279.2 301.527Q1280.67 302.558 1282.11 303.623Q1283.55 304.688 1284.97 305.786C1305.51 321.585 1330.35 352.652 1333.54 379.156C1333.93 382.355 1334.38 387.09 1332.35 389.673C1329.95 383.694 1328.82 377.533 1326.85 371.446C1317.54 342.715 1275.45 311.365 1249.84 298.131C1221.34 283.403 1187.51 276.581 1156.32 286.596C1134.83 293.495 1115.77 308.986 1108.77 330.944C1107.11 336.158 1106.38 346.074 1104.33 349.878C1104.24 350.055 1104.13 350.226 1104.03 350.401C1106.57 354.851 1104.8 357.934 1105.8 362.415C1107.06 368.007 1109.92 373.957 1112.71 378.942C1120.15 392.208 1132.52 404.309 1147.49 408.338C1156.92 410.875 1166.21 409.964 1174.62 404.865C1181.74 400.543 1187.21 393.604 1189.11 385.43C1190.69 378.651 1189.68 371.516 1185.96 365.606C1177.06 351.501 1164.57 355.513 1150.95 352.45C1152.1 351.858 1153.24 351.431 1154.5 351.124C1164.07 348.788 1172.87 349.923 1181.31 355.13C1187.78 359.121 1191.98 365.353 1193.63 372.747C1195.52 381.166 1194.23 389.664 1189.47 396.885C1183.77 405.525 1173.85 411.202 1163.79 413.102C1151.19 415.483 1138.36 411.335 1128.02 404.14Q1126.61 403.161 1125.25 402.114Q1123.88 401.067 1122.57 399.955Q1121.26 398.843 1120.01 397.669Q1118.76 396.494 1117.56 395.26Q1116.37 394.026 1115.23 392.735Q1114.1 391.444 1113.03 390.1Q1111.96 388.755 1110.96 387.36Q1109.95 385.965 1109.02 384.523Q1108.09 383.08 1107.22 381.594Q1106.36 380.108 1105.57 378.582Q1104.78 377.056 1104.07 375.493Q1103.36 373.93 1102.72 372.334Q1102.08 370.738 1101.52 369.113Q1100.97 367.488 1100.49 365.838Q1100.01 364.188 1099.61 362.516Q1099.22 360.845 1098.9 359.156C1095.79 341.722 1098.37 324.72 1108.76 310.098C1125.3 286.812 1150.51 278.004 1177.55 273.496Z"/>
	<path fill="#231F20" transform="scale(0.976562 0.976562)" d="M254.725 524.418C295.504 519.979 344.356 530.389 381.878 547.085C402.538 556.279 430.694 570.9 439.13 593.636C442.136 601.738 441.386 610.638 437.639 618.363C434.158 625.537 427.856 631.888 420.163 634.363C413.49 636.509 405.706 635.6 399.551 632.309C394.168 629.432 390.562 624.632 388.815 618.823C386.783 612.069 386.539 604.606 390.033 598.303C392.784 593.341 397.46 589.307 402.972 587.776C407.344 586.562 412.125 586.883 416.051 589.285C420.003 591.703 422.259 595.814 423.325 600.217C424.801 606.311 424.372 611.016 420.999 616.32C419.185 619.172 416.944 621.194 413.529 621.895C409.035 622.817 405.018 621.504 401.335 618.958L400.633 618.466C399.712 620.341 399.982 620.622 400.399 622.596C403.477 625.587 407.82 625.857 411.905 625.805C418.667 625.72 422.581 623.868 427.216 619.022C428.947 615.481 430.225 612.247 430.461 608.27C430.996 599.281 426.737 591.113 420.76 584.677C412.24 575.5 400.637 568.963 389.831 562.879C380.476 557.612 370.97 551.999 361.106 547.748C333.825 535.991 300.489 529.902 271.03 528.611C243.184 527.391 210.071 533.729 187.059 550.245C179.044 555.997 173.107 562.717 165.929 569.208C164.556 570.45 163.527 571.868 161.63 571.775C161.798 569.593 162.766 568.257 164.157 566.603C187.437 538.929 219.782 527.908 254.725 524.418Z"/>
	<path fill="#544643" transform="scale(0.976562 0.976562)" d="M941.806 337.562C939.123 327.722 935.868 319.999 928.955 312.32C912.15 293.652 887.716 285.272 863.137 283.966C850.307 283.284 837.086 284.513 824.713 288.045C797.276 295.875 750.283 323.396 735.824 349.018C731.39 356.877 727.269 365.217 723.719 373.505C721.692 378.239 720.019 388.65 716.634 391.691C716.297 391.316 716.23 391.291 716.003 390.752C712.985 383.562 719.283 364.887 722.011 357.733C734.431 325.161 764.945 299.443 796.152 285.623C827.442 271.767 864.526 267.528 896.931 280.133C914.432 286.94 934.901 301.237 942.705 318.963L941.095 320.069C942.131 326.155 943.038 331.406 941.806 337.562Z"/>
	<path fill="#231F20" transform="scale(0.976562 0.976562)" d="M1882.38 520.093L1886.54 518.118C1887.78 518.601 1888.64 518.926 1889.63 519.84C1893.38 520.114 1900.58 519.192 1903.67 521.056L1904.94 519.888C1905.35 520.025 1905.57 520.092 1905.99 520.273C1915.55 524.398 1930.29 555.038 1933.94 564.889Q1934.39 566.084 1934.82 567.29Q1935.24 568.496 1935.63 569.713Q1936.03 570.929 1936.39 572.155Q1936.75 573.381 1937.08 574.615Q1937.42 575.85 1937.72 577.093Q1938.02 578.335 1938.28 579.585Q1938.55 580.835 1938.79 582.091Q1939.03 583.347 1939.23 584.609Q1939.44 585.87 1939.61 587.137Q1939.79 588.403 1939.93 589.674Q1940.07 590.944 1940.18 592.218Q1940.29 593.491 1940.37 594.767Q1940.45 596.043 1940.49 597.321Q1940.54 598.598 1940.55 599.877Q1940.56 601.155 1940.55 602.433Q1940.53 603.711 1940.48 604.989Q1940.42 606.266 1940.34 607.542Q1940.26 608.817 1940.14 610.09Q1940.03 611.363 1939.88 612.633Q1939.73 613.903 1939.55 615.169Q1939.38 616.435 1939.17 617.695Q1938.95 618.956 1938.71 620.211Q1938.47 621.466 1938.2 622.715Q1937.92 623.964 1937.62 625.205Q1937.31 626.446 1936.97 627.68Q1936.64 628.913 1936.27 630.137Q1935.9 631.362 1935.5 632.576Q1935.11 633.791 1934.68 634.995Q1934.25 636.2 1933.79 637.393Q1933.33 638.586 1932.84 639.767Q1932.35 640.949 1931.84 642.117Q1931.32 643.286 1930.77 644.441Q1930.3 645.434 1929.81 646.415Q1929.32 647.396 1928.81 648.365Q1928.29 649.333 1927.75 650.289Q1927.22 651.245 1926.65 652.187Q1926.09 653.129 1925.51 654.057Q1924.92 654.985 1924.31 655.899Q1923.71 656.812 1923.08 657.71Q1922.45 658.608 1921.79 659.49Q1921.14 660.373 1920.47 661.239Q1919.79 662.104 1919.1 662.953Q1918.41 663.803 1917.69 664.634Q1916.97 665.466 1916.24 666.28Q1915.5 667.094 1914.75 667.889Q1913.99 668.684 1913.22 669.461Q1912.44 670.238 1911.65 670.995Q1910.85 671.752 1910.04 672.49Q1909.23 673.227 1908.4 673.944Q1907.57 674.661 1906.72 675.358Q1905.88 676.055 1905.01 676.73Q1904.15 677.405 1903.27 678.059Q1902.38 678.713 1901.49 679.345Q1900.59 679.977 1899.68 680.587Q1898.77 681.197 1897.84 681.784Q1896.91 682.371 1895.97 682.935Q1895.03 683.499 1894.08 684.04Q1893.12 684.581 1892.16 685.098Q1891.19 685.615 1890.21 686.108Q1889.23 686.601 1888.24 687.069Q1887.24 687.538 1886.24 687.982Q1885.24 688.426 1884.22 688.846Q1883.21 689.265 1882.19 689.659Q1881.16 690.053 1880.13 690.422C1862.65 696.761 1844.11 697.191 1827.08 689.191C1814.03 683.064 1802.98 672.461 1798.21 658.631C1794.37 647.496 1794.81 634.044 1800.24 623.491C1804.62 614.968 1813.64 607.147 1822.87 604.422C1828.52 602.756 1835.29 602.827 1840.54 605.741C1843.16 607.195 1845.51 608.99 1846.28 611.888L1844.53 612.831C1841.99 612.532 1841.42 611.836 1839.38 610.287C1835.08 607.034 1831.8 606.058 1826.34 606.925C1818.44 608.18 1811.83 613.615 1807.36 620.03C1800.75 629.525 1798.58 640.262 1800.84 651.593Q1801.09 652.767 1801.39 653.927Q1801.69 655.087 1802.06 656.23Q1802.42 657.374 1802.84 658.498Q1803.26 659.621 1803.73 660.723Q1804.21 661.824 1804.74 662.9Q1805.27 663.976 1805.85 665.025Q1806.43 666.073 1807.07 667.09Q1807.7 668.108 1808.39 669.093Q1809.07 670.077 1809.81 671.026Q1810.54 671.975 1811.32 672.886Q1812.1 673.797 1812.92 674.668Q1813.75 675.539 1814.62 676.367Q1815.48 677.196 1816.39 677.98Q1817.3 678.763 1818.25 679.501Q1819.19 680.238 1820.17 680.927Q1821.15 681.616 1822.17 682.255C1835.13 690.545 1852.08 693.409 1867.05 690.175C1886.4 685.992 1904.51 673.517 1915.19 656.822C1929.38 634.646 1934.13 611.499 1928.4 585.644C1922.98 561.163 1904.4 533.879 1883.08 520.521L1882.38 520.093Z"/>
	<path fill="#231F20" transform="scale(0.976562 0.976562)" d="M1489.6 579.064C1489.25 579.596 1489.2 579.735 1488.64 580.199C1481.49 586.088 1460.82 593.6 1451.59 597.613C1399.1 620.411 1322.58 650.955 1264.17 642.635C1239.09 639.064 1216.61 630.842 1200.93 610.005C1202.04 609.435 1205.42 612.567 1206.6 613.524C1209.73 616.074 1212.29 619.283 1215.49 621.765C1223.96 628.32 1235.77 633.263 1246.15 635.81C1310.01 651.475 1380.92 618.779 1437.53 591.451C1452.16 584.389 1467.99 577.823 1481.81 569.337L1482.5 568.91C1483.85 572.856 1489.84 575.959 1489.6 579.064Z"/>
	<path fill="#231F20" transform="scale(0.976562 0.976562)" d="M1655.07 492.809Q1665.81 490.425 1676.68 488.668Q1687.54 486.912 1698.48 485.788Q1709.43 484.665 1720.42 484.178Q1731.42 483.692 1742.42 483.844C1797.55 484.558 1854.15 501.758 1893.25 542.151C1909.79 559.238 1921.68 581.166 1921.21 605.426C1920.79 627.127 1908.36 646.566 1893.07 661.184C1881.48 672.27 1864.36 679.535 1848.21 678.945C1837.21 678.543 1825.67 673.712 1818.19 665.544C1808.48 654.936 1807.72 642.733 1808.17 629.16L1810.22 628.91C1810.7 631.033 1810.61 632.845 1810.41 635.001C1815.31 642.489 1810.56 652.633 1821.59 663.48Q1822.31 664.203 1823.07 664.888Q1823.82 665.573 1824.61 666.219Q1825.4 666.865 1826.22 667.47Q1827.05 668.075 1827.9 668.638Q1828.75 669.2 1829.63 669.719Q1830.51 670.238 1831.41 670.711Q1832.31 671.184 1833.24 671.611Q1834.17 672.038 1835.11 672.418Q1836.06 672.797 1837.03 673.128Q1837.99 673.459 1838.97 673.74Q1839.95 674.022 1840.95 674.253Q1841.94 674.484 1842.95 674.665Q1843.95 674.846 1844.96 674.975Q1845.97 675.104 1846.99 675.182Q1848.01 675.26 1849.03 675.286Q1850.05 675.313 1851.07 675.287C1867.18 674.836 1882.82 666.12 1893.74 654.648C1907.54 640.163 1916.31 620.241 1915.81 600.054C1915.23 576.702 1901.82 555.457 1885.24 539.819C1841.32 498.379 1775.53 485.093 1716.88 487.486C1696.2 488.329 1675.72 492.228 1655.07 492.809Z"/>
	<path fill="#544643" transform="scale(0.976562 0.976562)" d="M1372.64 458.979C1380.94 454.588 1408.93 429.437 1417.87 422.012C1446.55 398.165 1474.4 376.704 1506.7 357.981C1508.78 358.262 1510.85 358.067 1512.26 359.67C1510.1 361.587 1507.84 363.138 1507.13 366.061C1506.77 366.841 1506.37 368.137 1505.86 368.785C1504.62 370.358 1476.44 388.409 1471.96 391.912C1454.47 405.585 1384.92 469.211 1371.84 474.088C1371.5 474.212 1371.16 474.313 1370.82 474.413Q1370.21 474.355 1369.61 474.283C1367.11 473.985 1365.92 473.805 1364.36 471.803C1365.42 467.405 1372.34 465.637 1374.34 461.213L1372.64 458.979Z"/>
	<path fill="#544643" transform="scale(0.976562 0.976562)" d="M1786.11 465.024C1828.94 474.562 1847.96 475.282 1885.95 502.137C1891.35 505.959 1900.08 510.814 1903.6 516.544C1904.22 517.558 1904.75 518.708 1904.94 519.888L1903.67 521.056C1900.58 519.192 1893.38 520.114 1889.63 519.84C1888.64 518.926 1887.78 518.601 1886.54 518.118L1882.38 520.093C1871.76 504.924 1823.92 489.001 1805.93 483.928C1804.99 480.203 1787.55 479.48 1783.42 473.515C1783.47 470.566 1785.46 469.288 1787.37 467.132L1786.11 465.024Z"/>
	<path fill="#231F20" transform="scale(0.976562 0.976562)" d="M653.037 442.318C689.203 472.758 727.27 501.005 769.674 522.161C769.173 525.296 766.986 526.647 765.368 529.101C719.499 509.912 679.828 482.266 642.802 449.449C646.728 447.984 649.86 444.974 653.037 442.318Z"/>
	<path fill="#544643" transform="scale(0.976562 0.976562)" d="M109.397 574.848C110.114 583.674 115.291 590.718 115.018 599.443C115.796 625.976 122.759 650.927 142.731 669.697C156.23 682.383 175.697 691.543 194.471 691.059C209.426 690.673 224.088 684.585 234.309 673.543C242.169 665.051 248.096 651.813 247.667 639.996C247.612 638.485 247.427 636.99 247.204 635.497C248.267 636.904 249.211 638.1 250.603 639.192L251.155 633.044C252.916 637.82 252.152 644.634 251.175 649.487Q250.906 650.855 250.569 652.208Q250.232 653.56 249.827 654.894Q249.423 656.229 248.953 657.541Q248.482 658.853 247.947 660.14Q247.411 661.427 246.812 662.686Q246.213 663.945 245.552 665.172Q244.891 666.4 244.17 667.593Q243.448 668.786 242.668 669.941Q241.888 671.096 241.051 672.211Q240.214 673.326 239.322 674.397Q238.431 675.469 237.487 676.495Q236.543 677.521 235.548 678.498Q234.554 679.476 233.513 680.402Q232.471 681.329 231.385 682.202Q230.298 683.075 229.169 683.893Q228.04 684.711 226.872 685.472C212.222 695.061 193.989 697.025 177.107 693.377C153.52 688.281 133.12 672.624 120.247 652.449C104.367 627.563 103.09 603.092 109.397 574.848Z"/>
	<path fill="#544643" transform="scale(0.976562 0.976562)" d="M1585.6 462.499C1588.53 462.196 1592.16 462.273 1594.76 463.848C1596.87 465.126 1598.51 467.394 1599 469.816C1599.56 472.636 1598.57 475.441 1596.92 477.712C1593.55 482.337 1588.35 484.609 1583.18 486.607C1562.29 494.666 1539.15 497.6 1517.86 505.23C1497.69 512.46 1478.38 521.852 1458.32 529.397C1426.69 541.295 1393.9 551.518 1361.8 562.132C1343.9 568.05 1324.85 575.89 1306.21 578.872L1304.49 578.464C1320.9 574.149 1337.04 568.016 1353.11 562.541Q1404.68 544.646 1455.64 525.085C1474 517.917 1492.06 509.989 1510.51 503.045C1531.38 495.19 1553.29 491.461 1574.04 483.892C1578.33 482.331 1584.84 480.217 1587.72 476.628C1586.98 474.083 1585.57 473.922 1583.43 472.627C1581.07 471.198 1579.55 470.554 1578.88 467.828C1580.26 464.98 1582.94 463.912 1585.6 462.499Z"/>
	<path fill="#231F20" fill-opacity="0.94117647" transform="scale(0.976562 0.976562)" d="M154.571 536.272C154.649 538.725 154.181 540.58 156.349 542.231C156.786 542.564 156.932 542.593 157.383 542.769C140.705 565.595 128.26 585.311 132.852 614.651C135.737 633.084 146.849 650.711 161.939 661.672C173.25 669.887 189.664 675.862 203.628 673.433Q204.575 673.265 205.512 673.051Q206.45 672.838 207.376 672.579Q208.302 672.32 209.214 672.016Q210.127 671.712 211.023 671.365Q211.92 671.017 212.798 670.627Q213.677 670.236 214.535 669.803Q215.394 669.37 216.231 668.896Q217.067 668.422 217.88 667.909Q218.693 667.395 219.479 666.842Q220.266 666.289 221.025 665.698Q221.784 665.108 222.513 664.482Q223.243 663.855 223.941 663.194Q224.639 662.533 225.304 661.838Q225.97 661.144 226.6 660.418Q227.231 659.693 227.826 658.937Q228.421 658.182 228.978 657.398C233.825 650.476 236.277 641.854 234.781 633.446C233.761 627.707 230.955 622.535 226.005 619.3C222.485 617 217.061 615.389 212.881 616.444C209.207 617.37 206.232 620.18 204.517 623.467C204.45 623.594 204.396 623.728 204.336 623.858C203.446 622.875 202.986 621.745 202.442 620.555L205 616.978C207.577 614.815 210.599 613.347 213.95 612.907C218.818 612.266 223.311 613.333 227.156 616.413C233.348 621.371 237.443 629.136 238.24 637.007C239.175 646.249 235.874 655.646 230.044 662.784C222.697 671.779 211.791 676.641 200.362 677.693C184.031 679.196 166.135 671.903 153.797 661.409Q152.342 660.163 150.949 658.848Q149.556 657.532 148.23 656.15Q146.903 654.768 145.646 653.323Q144.389 651.877 143.204 650.372Q142.019 648.867 140.909 647.305Q139.799 645.744 138.767 644.13Q137.735 642.516 136.784 640.853Q135.832 639.191 134.963 637.484Q134.093 635.776 133.309 634.029Q132.524 632.281 131.826 630.497Q131.129 628.713 130.519 626.897Q129.909 625.081 129.389 623.237Q128.869 621.393 128.44 619.526Q128.01 617.659 127.673 615.773Q127.336 613.888 127.092 611.988Q126.847 610.088 126.696 608.178C124.586 581.198 137.599 556.26 154.571 536.272Z"/>
	<path fill="#231F20" transform="scale(0.976562 0.976562)" d="M1620.92 623.102C1626.13 626.142 1631.58 629.04 1637.8 627.48C1641.77 626.483 1645.84 623.166 1648.19 619.875L1647.29 619.415C1643.83 621.579 1641.26 623.329 1637.01 622.255C1633.19 621.293 1629.94 617.717 1628.12 614.391C1625.71 609.983 1624.37 604.458 1625.81 599.518C1626.84 595.969 1629.22 593.156 1632.46 591.4C1636.58 589.164 1643.46 587.751 1648.02 589.315C1653.02 591.031 1658.2 598.986 1660.42 603.586C1662.33 607.546 1661.3 612.776 1659.7 616.651C1656.62 624.105 1649.91 631.267 1642.35 634.27C1636.09 636.756 1628.46 636.906 1622.3 634.04C1618.46 632.249 1615 629.478 1611.64 626.907C1614.9 624.643 1616.77 622.984 1620.92 623.102Z"/>
	<path fill="#544643" transform="scale(0.976562 0.976562)" d="M500.97 539.187C515.345 545.365 569.145 566.814 578.943 575.307L577.818 576.582C580.328 578.344 583.838 580.238 585.077 583.099L584.713 584.826L581.094 584.305C580.207 586.374 581.84 587.348 580.888 589.783C549.642 577.52 519.934 561.183 488.597 548.968C492.615 544.6 495.157 541.137 500.97 539.187Z"/>
	<path fill="#544643" transform="scale(0.976562 0.976562)" d="M1117.28 611.913C1141.51 624.21 1162.44 644.324 1170.99 670.82C1174.4 681.372 1176.69 703.855 1171.04 713.546C1170.72 714.09 1170.27 714.491 1169.82 714.916C1170.58 712.807 1170.81 711.158 1170.79 708.92C1167.49 708.319 1164.83 712.406 1160.67 712.228C1160.46 712.219 1160.26 712.192 1160.05 712.174C1160.36 711.851 1160.84 711.413 1161.1 711.011C1165.65 704.014 1164.15 691.107 1162.25 683.402C1155.65 656.738 1136.24 632.46 1112.9 618.365C1115.73 617.185 1116.9 616.247 1118.23 613.59L1117.28 611.913Z"/>
	<path fill="#231F20" fill-opacity="0.98823529" transform="scale(0.976562 0.976562)" d="M848.147 185.704C852.927 186.442 856.935 187.452 860.826 190.467C866.321 194.726 868.437 201.026 869.209 207.682C905.924 243.141 967.678 272.758 989.861 318.985L989.288 319.414C983.635 315.001 979.425 308.743 975.088 303.08C943.587 267.264 905.58 240.889 867.476 212.622C863.242 215.404 858.989 217.534 853.953 218.394C848.746 219.283 843.08 220.016 838.527 216.85C836.628 214.652 836.122 211.892 836.315 209.036C836.466 206.796 837.04 205.834 838.669 204.392C842.643 203.495 847.203 206.18 851.174 207.017L851.888 206.058C850.116 204.404 848.092 203.331 845.999 202.143C847.839 202.186 849.621 202.087 851.453 201.926C849.63 198.496 846.559 196.622 845.904 192.44C845.456 189.577 846.566 187.923 848.147 185.704Z"/>
	<path fill="#544643" transform="scale(0.976562 0.976562)" d="M1766.88 523.157C1805.29 521.749 1848.03 533.525 1876.66 560.104C1890.07 572.558 1899.84 588.241 1900.51 606.992C1900.98 620.186 1896.33 633.506 1887.26 643.176C1877.94 653.119 1864.14 659.564 1850.5 659.925C1833.03 660.387 1834.48 654.906 1821.78 648.762C1821.8 648.583 1821.82 648.404 1821.83 648.225C1822.28 642.509 1818.95 637.094 1822.61 631.815C1827.42 630.1 1831.27 630.984 1836.17 631.884C1834.63 632.69 1833.39 633.169 1831.69 633.493C1830.37 632.936 1829.36 633.304 1828.04 633.624C1826.48 635.445 1826.41 636.209 1826.29 638.599C1826.03 643.494 1828.24 647.794 1831.51 651.346C1835.66 655.848 1840.64 656.765 1846.59 656.852C1859.76 657.046 1872.96 651.231 1882.3 642.011C1892.21 632.226 1896.03 619.141 1895.99 605.526C1895.94 588.663 1886.38 575.021 1874.76 563.615C1843.24 532.667 1800.91 527.58 1758.84 527.891C1761.39 525.959 1765.19 525.832 1766.88 523.157Z"/>
	<path fill="#231F20" transform="scale(0.976562 0.976562)" d="M941.806 337.562C943.038 331.406 942.131 326.155 941.095 320.069L942.705 318.963C950.658 333.301 951.649 350.366 947.131 365.978C942.146 383.203 930.307 398.557 914.49 407.151C903.759 412.98 891.641 416.046 879.621 412.432Q878.728 412.167 877.848 411.857Q876.969 411.548 876.106 411.196Q875.244 410.844 874.399 410.45Q873.555 410.056 872.73 409.62Q871.906 409.185 871.105 408.71Q870.303 408.235 869.526 407.72Q868.749 407.206 867.998 406.654Q867.247 406.102 866.524 405.514Q865.801 404.926 865.108 404.303Q864.415 403.679 863.754 403.023Q863.092 402.366 862.464 401.678Q861.836 400.99 861.242 400.271Q860.648 399.553 860.091 398.806Q859.533 398.059 859.013 397.286Q858.493 396.513 858.012 395.715Q857.53 394.917 857.089 394.096C853.074 386.562 851.683 377.536 854.341 369.315C856.511 362.605 860.945 357.047 867.258 353.814C876.905 348.873 887.851 350.502 897.695 353.856Q899.504 354.475 901.302 355.127C890.217 353.898 876.426 351.472 866.946 359.058C861.558 363.37 858.898 370.363 858.269 377.08C857.568 384.553 859.705 391.883 864.641 397.577C870.582 404.431 879.839 408.562 888.825 409.11C901.564 409.887 913.702 403.884 922.928 395.474C935.148 384.337 942.035 369.381 942.717 352.901C942.93 347.744 942.416 342.676 941.806 337.562Z"/>
	<path fill="#231F20" transform="scale(0.976562 0.976562)" d="M154.571 536.272C188.505 500.196 242.183 484.816 290.464 483.394C313.334 482.721 338.164 483.559 360.656 487.812L360.788 488.955L361.972 488.662C361.807 488.702 361.644 488.746 361.477 488.78C352.528 490.638 326.681 486.423 315.346 486.259C262.407 485.49 193.709 502.116 157.383 542.769C156.932 542.593 156.786 542.564 156.349 542.231C154.181 540.58 154.649 538.725 154.571 536.272Z"/>
	<path fill="#544643" transform="scale(0.976562 0.976562)" d="M1666.81 544.345C1669.06 545.854 1669.73 545.832 1670.28 548.511C1670.5 549.581 1670.55 550.586 1670.59 551.674L1671.62 552.202C1671.53 552.303 1671.43 552.406 1671.34 552.505C1653.74 570.282 1619.94 575.598 1619.17 609.267C1619.07 613.8 1620.17 618.637 1620.92 623.102C1616.77 622.984 1614.9 624.643 1611.64 626.907C1611.73 621.406 1608.16 612.722 1606.2 607.452C1609.63 604.269 1612.71 592.285 1614.91 587.645C1624.29 567.808 1649.15 555.271 1666.81 544.345Z"/>
	<path fill="#231F20" transform="scale(0.976562 0.976562)" d="M1160.05 712.174C1160.26 712.192 1160.46 712.219 1160.67 712.228C1164.83 712.406 1167.49 708.319 1170.79 708.92C1170.81 711.158 1170.58 712.807 1169.82 714.916C1171.02 720.231 1166.57 728.433 1163.71 732.912C1153.24 749.332 1135.11 761.123 1116.2 765.208C1094.51 769.892 1080.37 761.969 1062.73 750.512C1061.82 749.922 1060.92 749.291 1059.98 748.762C1060.84 747.508 1061.66 746.833 1062.89 745.985C1077.86 751.514 1085.85 761.649 1104.02 759.957C1121.93 758.288 1140.29 747.957 1151.67 734.13C1156.72 727.987 1160.86 720.316 1160.05 712.174Z"/>
	<path fill="#231F20" transform="scale(0.976562 0.976562)" d="M1279.55 522.871C1300.06 514.017 1359.77 475.671 1372.64 458.979L1374.34 461.213C1372.34 465.637 1365.42 467.405 1364.36 471.803C1365.92 473.805 1367.11 473.985 1369.61 474.283Q1370.21 474.355 1370.82 474.413C1368.06 483.678 1327.88 505.988 1317.35 511.682C1308.24 516.609 1295.68 525.029 1285.7 527.203C1283.48 526.104 1282.4 523.963 1279.55 522.871Z"/>
	<path fill="#231F20" fill-opacity="0.96470588" transform="scale(0.976562 0.976562)" d="M1060.75 837.051C1061.85 838.123 1063.71 839.494 1063.94 841.041C1065.22 848.411 1054.71 862.502 1050.56 868.42C1044.25 877.397 1036.31 887.7 1027.31 894.067C1035.61 898.089 1042.89 905.139 1050.45 910.445C1061.07 917.898 1071.48 921.656 1083.47 926.066L1082.33 925.407C1082.08 925.499 1081.84 925.602 1081.59 925.684C1076.13 927.451 1055.82 918.151 1050.59 915.023C1041.6 909.654 1033.27 901.538 1024 897.003C1012.33 910.083 992.179 920.969 975.001 924.208L974.469 923.946L974.125 921.95L973.583 923.371C995.011 916.792 1004.27 906.719 1021.63 894.001C1009.5 880.841 997.702 867.465 988.939 851.755C990.426 850.877 990.778 849.338 991.375 847.812C1001.27 863.025 1013.84 875.972 1024 890.832C1035.19 883.975 1047.78 865.774 1054.46 854.411C1057.05 849.996 1062.09 842.285 1060.75 837.051Z"/>
	<path fill="#231F20" fill-opacity="0.98431373" transform="scale(0.976562 0.976562)" d="M1042.21 724.816C1048.1 709.454 1041.62 674.184 1035.63 658.815C1033.35 652.954 1026.84 646.335 1027.09 640.124L1028.01 640.281L1027.03 640.376L1027 641.378L1027.72 639.175L1029.42 638.96C1032.67 641.634 1034.1 647.438 1035.6 651.273C1043.18 670.657 1048.57 688.597 1049.64 709.507C1049.93 715.143 1048.12 726.413 1049.01 730.744C1050.04 735.799 1060.58 740.603 1062.89 745.985C1061.66 746.833 1060.84 747.508 1059.98 748.762C1057.11 745.427 1050.92 739.08 1046.77 737.855C1048.63 748.634 1043.65 763.631 1036.8 771.861C1036.32 772.436 1036.25 772.463 1035.76 772.875L1036.22 769.646L1034.03 767.987C1034.37 767.516 1034.66 767.106 1034.9 766.573C1038.28 758.973 1044.13 739.77 1040.97 732.038C1037.29 723.767 1030.85 717.496 1029.62 708.008L1030.93 708.192C1035.21 712.162 1040.61 719.145 1042.21 724.816Z"/>
	<path fill="#544643" transform="scale(0.976562 0.976562)" d="M1114.75 858.384C1157.4 866.699 1195.31 870.559 1233.23 845.035C1238.26 841.649 1242.05 838.187 1245.5 833.188C1247.07 830.907 1249.5 830.494 1251.47 828.664C1255.42 824.998 1259.12 818.847 1262.42 814.468C1266.5 809.069 1269.06 800.889 1273.75 796.353L1274.86 797.637L1274.9 796.041C1274.88 796.231 1274.87 796.421 1274.85 796.61C1272.88 812.795 1248.9 838.346 1236.32 847.784C1210.25 867.341 1176.59 872.889 1144.82 868.293C1135.65 866.966 1126.63 865.077 1117.59 863.034C1117.32 860.309 1116.82 860.265 1114.75 858.384Z"/>
	<path fill="#544643" fill-opacity="0.98039216" transform="scale(0.976562 0.976562)" d="M1036.4 295.707C1039.22 296.13 1041.26 296.447 1043.33 298.66C1043.39 298.718 1043.43 298.788 1043.47 298.852C1043.56 298.989 1043.65 299.123 1043.73 299.263C1046.01 303.091 1045.14 308.477 1044.9 312.731C1043.65 335.009 1036.84 354.082 1029.81 375.11C1028.01 380.501 1025.23 385.652 1023.91 391.175L1023.75 391.898L1022.27 391.913C1019.83 386.418 1039.05 337.232 1039.25 324.559C1039.33 319.365 1038.01 314.646 1036.06 309.887C1036.34 313.912 1027.25 329.096 1025.42 334.43C1021.16 346.77 1019.28 360.441 1015.64 373.01L1014.46 371.718C1013.44 367.373 1015.04 362.415 1015.79 358.09C1018.98 339.666 1023.81 324.733 1033.27 308.472C1035.65 304.393 1037.63 300.307 1036.4 295.707Z"/>
	<path fill="#544643" transform="scale(0.976562 0.976562)" d="M607.552 403.067C623.01 415.691 638.231 428.935 653.037 442.318C649.86 444.974 646.728 447.984 642.802 449.449C627.911 438.984 612.241 422.005 598.664 409.38C600.831 406.454 604.434 404.825 607.552 403.067Z"/>
	<path fill="#544643" transform="scale(0.976562 0.976562)" d="M1107.35 564.487C1156.09 562.351 1201.77 555.692 1247.46 537.888C1258.36 533.637 1269.73 529.298 1279.55 522.871C1282.4 523.963 1283.48 526.104 1285.7 527.203C1285.44 527.712 1285.42 527.832 1284.93 528.283C1280.31 532.583 1271.33 534.221 1265.58 536.497C1225.3 552.434 1150.19 571.46 1107.35 564.487Z"/>
	<path fill="#544643" transform="scale(0.976562 0.976562)" d="M769.674 522.161C821.608 545.999 864.112 560.575 921.949 564.446C909.456 567.171 894.749 563.91 882.321 561.881C842.357 555.355 802.317 546.161 765.368 529.101C766.986 526.647 769.173 525.296 769.674 522.161Z"/>
	<path fill="#231F20" transform="scale(0.976562 0.976562)" d="M1666.81 544.345C1698.45 532.431 1732.76 522.615 1766.88 523.157C1765.19 525.832 1761.39 525.959 1758.84 527.891C1741.5 531.229 1725.12 531.718 1708.05 537.306C1697.51 540.755 1680.26 550.258 1671.62 552.202L1670.59 551.674C1670.55 550.586 1670.5 549.581 1670.28 548.511C1669.73 545.832 1669.06 545.854 1666.81 544.345Z"/>
	<path fill="#231F20" transform="scale(0.976562 0.976562)" d="M808.004 174.224C823.09 171.093 824.816 185.55 832.728 194.216C835.565 197.323 840.274 199.684 843.873 201.87C838.404 200.223 832.745 195.352 827.424 194.71C824.297 194.333 822.791 196.448 820.567 198.287C818.444 199.601 816.008 200.492 813.494 200.618C810.407 200.772 805.952 199.858 803.7 197.611C802.119 196.034 802.27 195.361 802.162 193.258C804.197 190.202 805.842 189.843 809.118 188.307C804.2 187.02 798.402 186.102 794.113 183.304L794.327 181.844C796.738 179.004 803.106 178.613 806.731 177.754L808.004 174.224Z"/>
	<path fill="#231F20" transform="scale(0.976562 0.976562)" d="M1992.93 504.021C1998.25 509.627 1997.96 533.93 1997.74 541.784C1996.92 572.208 1985.05 596.196 1963.07 616.955C1960.65 619.245 1957.95 620.673 1954.96 622.115L1953.08 621.988C1956.37 616.835 1964.46 612.194 1968.84 607.113C1984.88 588.502 1991.53 567.934 1991.66 543.779C1991.69 538.62 1992.03 533.027 1990.94 527.968C1990.34 525.155 1989.68 521.966 1987.62 519.876C1988.76 517.307 1990.52 514.963 1991.95 512.529C1994 509.028 1993.89 507.819 1992.93 504.021Z"/>
	<path fill="#231F20" fill-opacity="0.93725491" transform="scale(0.976562 0.976562)" d="M52.4653 502.765C53.9073 507.22 51.9319 513.723 53.9502 517.324L56.2868 516.395C54.6678 535.569 52.47 551.948 58.4579 570.969C64.6146 590.526 75.5872 611.743 94.3115 621.55L93.843 621.081C95.1153 621.649 95.2277 621.578 95.8212 622.815C94.4921 623.788 93.1166 624.135 91.4793 623.874C83.372 622.583 71.8847 606.614 67.5114 599.888C47.8654 569.669 45.211 537.446 52.4653 502.765Z"/>
	<path fill="#231F20" transform="scale(0.976562 0.976562)" d="M1861.9 528.965C1878.23 533.904 1892.45 557.547 1899.89 571.457C1902.81 576.929 1906.59 589.197 1904.86 595.23C1901.29 590.496 1899.71 583.274 1897.08 577.853C1887.88 558.908 1873.56 547.028 1856.1 535.958C1859.45 533.635 1859.01 530.794 1861.9 528.965Z"/>
	<path fill="#231F20" transform="scale(0.976562 0.976562)" d="M1099.96 651.705C1103.82 653.102 1105.59 657.161 1107.18 660.678C1111.61 670.416 1112.03 685.592 1108.11 695.509C1105.59 701.859 1100.84 707.706 1094.43 710.389C1091.24 711.726 1087.14 712.577 1083.83 711.231C1078.61 709.106 1073.64 704.272 1071.57 699.007C1070.64 696.648 1070.7 694.861 1071.72 692.565C1074.57 689.507 1079.25 686.907 1083.46 686.633C1084.48 686.567 1085.69 687.238 1086.65 687.591L1087.87 689.461L1087.13 690.921C1083.74 690.781 1081.7 688.74 1078.45 689.776C1076.29 692.562 1074.73 695.29 1075.37 699.015C1075.93 702.229 1077.99 704.674 1080.65 706.398C1083.54 708.267 1087.13 709.11 1090.5 708.253C1095.73 706.926 1099.77 701.919 1102.26 697.409C1106.06 690.539 1107.09 682.11 1104.76 674.574C1103.06 669.054 1097.4 658.576 1092.88 655.033C1096.28 654.608 1097.49 653.989 1099.96 651.705Z"/>
	<path fill="#544643" transform="scale(0.976562 0.976562)" d="M819.378 345.997C824.378 345.777 829.748 345.802 833.626 349.456C835.065 350.812 835.986 352.759 835.982 354.726C835.975 358.643 833.526 362.255 830.878 364.95Q829.486 365.053 828.091 365.054C823.012 365.079 818.987 364.245 815.322 360.46C813.835 358.924 812.937 356.909 813.129 354.74C813.482 350.75 816.436 348.256 819.378 345.997Z"/>
	<path fill="#544643" transform="scale(0.976562 0.976562)" d="M1158.96 320.498C1173.26 319.525 1190.24 321.269 1202.06 330.127C1205.12 332.413 1206.95 334.263 1207.47 338.062L1205.87 339.709C1203.33 340.118 1201.66 339.116 1199.49 337.98L1198.59 337.505C1198.44 337.068 1198.41 336.884 1198.08 336.481C1187.09 323.08 1158.64 323.801 1142.86 323.647C1148.25 322.765 1153.61 321.572 1158.96 320.498Z"/>
	<path fill="#231F20" fill-opacity="0.98823529" transform="scale(0.976562 0.976562)" d="M1808.17 629.16C1811.48 622.48 1816.48 616.189 1823.85 613.707C1827.99 612.312 1832.25 612.787 1836.09 614.798C1840.52 617.117 1844.38 621.104 1845.81 625.976C1846.51 628.37 1846.8 631.18 1845.48 633.431C1844.57 635.005 1843.18 635.823 1841.4 636.084C1838.07 636.569 1834.37 635.382 1831.69 633.493C1833.39 633.169 1834.63 632.69 1836.17 631.884C1838.63 630.242 1838.99 630.229 1839.84 627.441C1839.33 624.88 1838.11 623.143 1835.91 621.744C1832.42 619.526 1827.89 618.946 1823.91 619.913C1819.59 620.964 1815.31 623.988 1812.99 627.809C1811.62 630.066 1811.65 632.709 1810.41 635.001C1810.61 632.845 1810.7 631.033 1810.22 628.91L1808.17 629.16Z"/>
	<path fill="#544643" transform="scale(0.976562 0.976562)" d="M856.247 322.376Q858.21 322.03 860.196 321.851C864.521 321.494 871.667 321.586 875 324.431C869.183 329.927 857.785 324.26 845.902 339.346C844.782 340.356 843.657 341.385 842.462 342.306C840.32 343.959 838.665 344.624 836.01 344.315C835.309 342.185 835.552 341.275 836.379 339.236C839.795 330.811 848.338 325.788 856.247 322.376Z"/>
	<path fill="#544643" transform="scale(0.976562 0.976562)" d="M1214.94 349.499C1217.97 348.855 1221.64 348.132 1224.67 349.05C1227.05 349.771 1229.93 351.925 1230.95 354.263C1231.81 356.209 1231.8 357.713 1231.02 359.706C1229.85 362.702 1226.97 364.177 1224.19 365.317C1223.59 365.7 1222.74 365.977 1222.06 366.177C1218.89 367.113 1216.75 366.748 1213.9 365.276C1212.28 363.176 1211.51 361.41 1211.24 358.782C1210.84 354.831 1212.62 352.435 1214.94 349.499Z"/>
	<path fill="#544643" transform="scale(0.976562 0.976562)" d="M456.851 479.748C455.325 478.966 453.868 478.158 452.68 476.895C451.309 475.439 450.616 473.669 450.792 471.656C451.009 469.169 452.693 466.869 454.644 465.397C457.43 463.296 461.079 462.356 464.518 463.06C467.956 463.763 469.295 465.754 471.001 468.524C470.579 471.986 470.396 475.29 467.516 477.678C464.752 479.97 460.251 480.001 456.851 479.748Z"/>
	<path fill="#231F20" transform="scale(0.976562 0.976562)" d="M456.851 479.748C461.728 476.005 463.438 471.162 467.389 466.788L471.001 468.524C470.579 471.986 470.396 475.29 467.516 477.678C464.752 479.97 460.251 480.001 456.851 479.748Z"/>
	<path fill="#544643" transform="scale(0.976562 0.976562)" d="M1076.93 627.937C1085.51 633.204 1096.73 639.652 1100.32 649.792L1099.96 651.705C1097.49 653.989 1096.28 654.608 1092.88 655.033C1090.48 648.17 1080.87 639.723 1074.82 635.925L1077.16 634.377C1078.36 631.858 1077.55 630.563 1076.93 627.937Z"/>
	<path fill="#544643" transform="scale(0.976562 0.976562)" d="M1085.51 818.495C1086.21 818.494 1086.91 818.504 1087.61 818.568C1090.48 818.828 1093.81 820.019 1095.56 822.495C1097.14 824.743 1096.96 825.734 1096.62 828.291C1095.06 830.894 1093.16 831.482 1090.48 832.498C1089.94 832.874 1089.42 833.272 1088.78 833.453C1086.03 834.228 1085.32 833.865 1083.06 832.449C1081.64 829.891 1081.18 827.911 1081.49 825.01C1081.86 821.631 1082.91 820.53 1085.51 818.495Z"/>
	<path fill="#544643" transform="scale(0.976562 0.976562)" d="M956.358 817.725C959.059 817.963 962.34 818.155 964.588 819.845C966.173 821.035 967.239 822.444 967.562 824.394C968.08 827.528 966.104 830.497 964.497 833.004C961.381 832.655 958.037 832.421 955.455 830.454C952.922 828.526 952.404 827.176 951.952 824.143C952.96 821.127 954.053 819.8 956.358 817.725Z"/>
	<path fill="#544643" fill-opacity="0.98431373" transform="scale(0.976562 0.976562)" d="M970.721 269.096C972.367 272.347 973.533 274.606 976.736 276.539C977.01 276.346 977.281 276.15 977.558 275.962C980.544 273.934 983.252 273.154 986.82 273.991C988.9 274.479 988.915 274.942 989.954 276.691C989.407 279.274 988.594 281.288 986.183 282.706Q985.796 282.93 985.389 283.114Q984.981 283.297 984.557 283.438Q984.133 283.579 983.696 283.675Q983.26 283.771 982.816 283.822Q982.372 283.872 981.925 283.877Q981.478 283.882 981.033 283.84Q980.588 283.799 980.149 283.712Q979.711 283.625 979.284 283.493C974.691 282.068 971.022 275.791 968.972 271.671C968.912 271.552 968.861 271.43 968.806 271.309L970.721 269.096Z"/>
	<defs>
		<linearGradient id="gradient_0" gradientUnits="userSpaceOnUse" x1="991.01263" y1="235.61571" x2="985.91937" y2="235.44794">
			<stop offset="0" stop-color="#231F20" stop-opacity="0.95686275"/>
			<stop offset="1" stop-color="#231F20"/>
		</linearGradient>
	</defs>
	<path fill="url(#gradient_0)" transform="scale(0.976562 0.976562)" d="M985.342 229.676C988.702 230.012 991.209 230.233 994.077 232.18C995.938 236.408 994.573 239.279 993.323 243.549C990.946 243.38 988.521 243.229 986.321 242.221C983.472 240.915 982.822 239.393 981.905 236.649C982.176 233.516 983.445 232.002 985.342 229.676Z"/>
	<path fill="#231F20" transform="scale(0.976562 0.976562)" d="M892.702 367.769C894.692 367.905 897.203 368.214 899.073 368.908C901.463 369.795 902.036 371.191 903.045 373.318C902.847 376.383 901.812 378.182 900.276 380.761C898.333 380.943 895.697 381.122 893.871 380.356C892.04 379.588 890.887 378.351 890.31 376.496C889.329 373.339 891.187 370.393 892.702 367.769Z"/>
	<path fill="#231F20" transform="scale(0.976562 0.976562)" d="M1148.48 368.495C1151.51 368.603 1153.79 368.487 1156.21 370.589C1157.57 373.044 1157.79 373.2 1157.33 375.929C1155.07 378.42 1154.19 378.85 1151.13 379.889C1148.86 380.112 1147.59 379.691 1145.55 378.719C1144.54 376.969 1143.77 375.843 1144.34 373.704C1144.95 371.456 1146.42 369.536 1148.48 368.495Z"/>
</svg>
