<?xml version="1.0" encoding="UTF-8" standalone="no"?>
<!-- Created with Inkscape (http://www.inkscape.org/) -->

<svg
   width="464.35641"
   height="70.894958"
   viewBox="0 0 12.286087 1.8757625"
   version="1.1"
   id="svg5"
   sodipodi:docname="text_logo.svg"
   inkscape:version="1.1.2 (0a00cf5339, 2022-02-04)"
   xmlns:inkscape="http://www.inkscape.org/namespaces/inkscape"
   xmlns:sodipodi="http://sodipodi.sourceforge.net/DTD/sodipodi-0.dtd"
   xmlns="http://www.w3.org/2000/svg"
   xmlns:svg="http://www.w3.org/2000/svg">
  <sodipodi:namedview
     id="namedview7"
     pagecolor="#1e1e1e"
     bordercolor="#ffffff"
     borderopacity="0.25"
     inkscape:pageshadow="2"
     inkscape:pageopacity="0"
     inkscape:pagecheckerboard="true"
     inkscape:document-units="mm"
     showgrid="false"
     inkscape:snap-global="true"
     inkscape:zoom="0.64"
     inkscape:cx="-12.5"
     inkscape:cy="107.8125"
     inkscape:window-width="1366"
     inkscape:window-height="696"
     inkscape:window-x="0"
     inkscape:window-y="0"
     inkscape:window-maximized="1"
     inkscape:current-layer="layer1"
     showguides="false"
     inkscape:guide-bbox="true"
     units="px"
     height="31px"
     width="320px"
     scale-x="0.1"
     fit-margin-top="0"
     fit-margin-left="0"
     fit-margin-right="0"
     fit-margin-bottom="0">
    <sodipodi:guide
       position="149.01327,453.28911"
       orientation="0,-1"
       id="guide618" />
  </sodipodi:namedview>
  <defs
     id="defs2">
    <clipPath
       clipPathUnits="userSpaceOnUse"
       id="clipPath215">
      <g
         inkscape:label="Clip"
         id="use217">
        <g
           id="g227">
          <path
             style="fill:#ffffff;stroke-width:0.141715"
             d="m 161.88063,180.4672 c -0.0942,-0.19065 -0.17163,-0.84903 -0.1721,-1.46305 -0.001,-1.65595 -0.19534,-2.47682 -0.95339,-4.03242 -0.37611,-0.77184 -0.66168,-1.50326 -0.63458,-1.62538 0.0858,-0.38671 0.98522,-0.22881 2.50732,0.4402 0.78923,0.34688 1.59964,0.6307 1.80093,0.6307 0.98195,0 3.31593,-1.10311 4.26185,-2.01429 0.69418,-0.66868 0.8285,-1.83305 0.83443,-7.23356 0.003,-2.91542 0.0574,-4.63968 0.14336,-4.55929 0.076,0.0711 0.77916,1.07858 1.56256,2.23882 1.56061,2.31134 1.88025,2.77691 2.50069,3.64249 0.39019,0.54436 0.4102,0.6413 0.3229,1.56513 -0.15144,1.6027 -0.75419,3.41368 -1.50691,4.52753 -1.08865,1.61096 -3.15166,3.16024 -5.1869,3.89526 -3.57047,1.28948 -3.66699,1.36079 -4.04558,2.98896 -0.16493,0.70929 -0.66567,1.34555 -1.05896,1.34555 -0.11239,0 -0.28143,-0.15599 -0.37562,-0.34665 z m -9.69582,-6.48659 c -0.0745,-0.31296 -0.0475,-0.45402 0.0956,-0.49799 0.10977,-0.0337 0.83192,-0.35738 1.60478,-0.71919 2.51127,-1.17563 2.58572,-1.41014 2.58572,-8.14523 0,-2.58246 -0.0332,-5.36906 -0.0738,-6.19246 -0.0633,-1.28404 -0.0423,-1.49021 0.14756,-1.44881 0.12174,0.0265 0.80238,0.17681 1.51252,0.33392 l 1.29118,0.28564 v 5.63833 5.63832 l 0.50789,0.44178 c 0.48074,0.41817 1.25558,0.65522 1.66867,0.5105 0.22021,-0.0772 0.24593,-0.52879 0.0369,-0.64794 -0.25052,-0.1428 -0.16313,-1.13954 0.14947,-1.70466 0.53449,-0.9663 1.6045,-1.32085 2.47345,-0.8196 0.98859,0.57026 1.0042,1.79432 0.0342,2.67918 -0.64963,0.5926 -0.92108,0.73427 -3.09979,1.61782 -0.85218,0.34559 -1.81503,0.73952 -2.13967,0.87539 -0.32463,0.13588 -1.32069,0.55313 -2.21344,0.92723 -2.76386,1.15817 -4.06406,1.66441 -4.27476,1.66441 -0.11136,0 -0.24927,-0.19649 -0.30645,-0.43664 z m 37.70916,-0.019 c -2.46243,-1.00647 -7.81582,-3.21847 -8.8538,-3.65834 -1.93455,-0.81982 -2.78189,-2.09871 -2.08228,-3.14275 0.30291,-0.45204 0.8447,-0.77301 1.30482,-0.77301 0.13288,0 0.51207,0.12076 0.84264,0.26835 1.01888,0.45491 1.49628,1.74694 0.97649,2.64273 -0.11326,0.19517 -0.16837,0.38949 -0.12248,0.43182 0.15611,0.14398 0.97702,0.10102 1.43849,-0.0753 0.87334,-0.33364 0.88786,-0.431 0.89721,-6.01684 0.005,-2.79203 0.055,-5.31798 0.11186,-5.61323 0.10332,-0.53682 0.10332,-0.53682 1.47992,-0.86148 0.75714,-0.17856 1.41074,-0.29319 1.45244,-0.25473 0.0417,0.0385 -0.007,1.52329 -0.10843,3.29961 -0.20457,3.58605 -0.11018,8.3881 0.19524,9.93303 0.27835,1.408 0.77962,1.93184 2.62899,2.74743 1.45176,0.64023 1.59532,0.77758 1.37251,1.31309 -0.12414,0.29838 -0.27225,0.27517 -1.53362,-0.2404 z m -15.93683,-4.07066 c 0,-0.0942 0.16601,-0.45882 0.3689,-0.81035 0.61751,-1.06986 0.49881,-1.51864 -0.96395,-3.64464 -0.54121,-0.78659 -1.43578,-2.10385 -1.98796,-2.92724 -0.55217,-0.82339 -1.33676,-1.98703 -1.74352,-2.58586 -0.90616,-1.33401 -1.20376,-1.77593 -2.01639,-2.99415 -0.34952,-0.52398 -0.84684,-1.25891 -1.10515,-1.63318 -0.25829,-0.37427 -0.96897,-1.44604 -1.57928,-2.38171 -1.1652,-1.78639 -2.3974,-3.63211 -2.82862,-4.23702 -0.24922,-0.3496 -0.24723,-0.36 0.0822,-0.43183 0.18568,-0.0405 0.85257,-0.11617 1.48201,-0.1682 0.8522,-0.0704 1.20395,-0.049 1.37762,0.0839 0.12827,0.0982 0.80855,0.94752 1.51174,1.8874 0.70317,0.93989 1.67692,2.24093 2.16388,2.8912 7.06008,9.4279 7.64118,10.27433 7.98971,11.63786 0.24099,0.94278 0.24075,1.04567 -0.005,2.00563 -0.27683,1.08303 -0.97851,2.14504 -1.99137,3.01398 -0.57491,0.49323 -0.75521,0.56346 -0.75521,0.29418 z m -5.50562,-4.1161 c -2.04734,-1.44536 -2.53224,-3.42229 -1.38572,-5.64957 0.28947,-0.56235 0.68931,-1.16368 0.88851,-1.33628 0.36219,-0.31382 0.36219,-0.31382 0.84208,0.45976 0.47691,0.7688 0.47927,0.78169 0.38023,2.08126 -0.0748,0.98175 -0.16682,1.37639 -0.36913,1.58343 -0.1482,0.15167 -0.30835,0.42321 -0.35588,0.60343 -0.0927,0.35169 0.20969,1.15044 0.57756,1.52535 0.14011,0.1428 0.20782,0.41983 0.17882,0.73176 l -0.0467,0.50196 z m 5.52998,-6.23321 c -0.0876,-0.0974 -1.12502,-1.51741 -2.30529,-3.15559 l -2.14597,-2.97853 -0.002,-5.86089 c -0.001,-3.22349 -0.0382,-5.98524 -0.0825,-6.13721 -0.11843,-0.40652 -1.30381,-0.96298 -3.49569,-1.64102 -2.32598,-0.71952 -3.04852,-0.75406 -5.25652,-0.25121 -1.66161,0.37841 -2.4201,0.35973 -3.00072,-0.0739 -0.27718,-0.20701 -0.31891,-0.3483 -0.26785,-0.90676 0.11566,-1.26477 0.0538,-2.02443 -0.20156,-2.47631 -0.35036,-0.61996 -0.35073,-1.24045 -0.001,-1.48319 0.3829,-0.26565 1.487,-0.13923 2.49273,0.28544 2.35722,0.99532 6.38703,1.31238 12.41947,0.97714 2.12232,-0.11794 4.24723,-0.27879 4.72203,-0.35744 1.37672,-0.22806 4.75423,-1.03838 5.88041,-1.41082 2.08375,-0.68912 2.74045,-0.33929 1.97177,1.05038 -0.29551,0.53424 -0.30425,0.63785 -0.13817,1.63843 0.1544,0.93026 0.14706,1.11065 -0.0568,1.39769 -0.27798,0.39128 -0.13944,0.3838 -2.02048,0.10902 -2.01986,-0.29505 -4.29659,-0.2052 -5.48818,0.21661 -0.47426,0.16788 -1.2047,0.56101 -1.62319,0.87362 -1.33877,1.00006 -1.27687,0.61505 -1.27712,7.94267 0,4.12678 0.0518,6.43062 0.14497,6.43062 0.12129,0 2.44953,-3.05027 3.4701,-4.54625 0.16232,-0.23794 0.46994,-0.64442 0.68363,-0.90331 0.21367,-0.25888 0.71169,-0.90693 1.10672,-1.44011 1.93293,-2.60895 4.15454,-5.29368 4.90276,-5.92483 1.36805,-1.15397 1.54819,-1.19714 5.01019,-1.20059 l 2.99705,-0.003 -0.0458,0.51037 c -0.0458,0.51037 -0.0458,0.51037 -0.8574,0.58262 -0.94371,0.084 -1.30297,0.24359 -1.81717,0.80719 -0.79161,0.86769 -1.18742,2.6783 -1.57801,7.21838 -0.22475,2.6125 -0.20498,2.55329 -0.91162,2.72878 -0.98057,0.24353 -2.68399,0.5221 -2.79737,0.45748 -0.0576,-0.0328 -0.0768,-0.83974 -0.0426,-1.79311 0.16169,-4.51047 0.17233,-5.61835 0.0546,-5.68545 -0.0699,-0.0398 -0.25551,0.15938 -0.41245,0.44273 -0.15697,0.28335 -0.75224,1.2501 -1.32283,2.14835 -1.3729,2.16126 -1.45727,2.29231 -2.82965,4.39584 -0.64948,0.99548 -1.18087,1.83722 -1.18087,1.87053 0,0.0955 -3.38159,5.10115 -3.88059,5.74427 -0.48611,0.62653 -0.5751,0.67025 -0.81707,0.40134 z m -8.7306,-1.60188 c -3.48636,-0.26782 -6.41999,-0.74581 -9.37026,-1.52674 -1.08554,-0.28733 -2.69734,-1.01399 -3.5637,-1.60665 -0.70866,-0.48478 -0.76641,-0.56854 -0.85525,-1.24025 -0.15771,-1.19278 -0.39809,-2.04603 -0.76846,-2.7278 -0.19315,-0.35555 -0.30701,-0.64646 -0.253,-0.64646 0.054,0 0.90177,0.27315 1.88393,0.607 0.98215,0.33385 2.08453,0.67057 2.44975,0.74827 0.36522,0.0777 1.15746,0.26385 1.76053,0.41367 0.60308,0.14983 2.64096,0.48728 4.52862,0.74991 1.88764,0.26262 3.52371,0.50992 3.63569,0.54956 0.11197,0.0396 0.34769,0.33004 0.52382,0.64536 0.17612,0.31532 0.82239,1.27762 1.43615,2.13844 1.59778,2.24093 1.52989,2.0448 0.70015,2.02242 -0.38837,-0.0105 -1.33695,-0.0675 -2.10797,-0.12673 z m 10.93041,-0.0161 c 0.006,-0.0981 0.50021,-0.9133 1.09845,-1.81154 0.59825,-0.89825 1.26888,-1.92556 1.4903,-2.28293 0.22509,-0.36329 0.53775,-0.67767 0.7092,-0.7131 0.16864,-0.0348 1.50189,-0.2213 2.96276,-0.41436 3.17154,-0.41911 6.85988,-1.21967 9.06096,-1.96667 0.88031,-0.29876 1.64317,-0.5432 1.69524,-0.5432 0.0521,0 -0.0642,0.29091 -0.25837,0.64646 -0.4014,0.73503 -0.68487,1.82866 -0.68487,2.64226 0,0.46354 -0.088,0.62768 -0.54203,1.01126 -0.96872,0.81838 -3.63062,1.87055 -6.12544,2.42122 -1.43948,0.31773 -2.3607,0.45795 -4.91624,0.74828 -3.74428,0.4254 -4.50243,0.46969 -4.48996,0.26232 z m -18.9568,-6.16841 c -0.72175,-0.17453 -1.36121,-0.39037 -1.42103,-0.47965 -0.0598,-0.0893 -0.15185,-0.72179 -0.2045,-1.40559 -0.1555,-2.01961 -0.53745,-5.12283 -0.74878,-6.08345 -0.42424,-1.9285 -1.28018,-2.86369 -2.73243,-2.98546 -0.81159,-0.068 -0.81159,-0.068 -0.8574,-0.57841 l -0.0458,-0.51037 2.92328,0.001 c 2.76809,10e-4 2.96246,0.0185 3.6611,0.32394 0.4058,0.17743 1.01209,0.5428 1.34733,0.81193 0.54824,0.44015 2.72053,2.9488 3.55363,4.10387 0.17957,0.24898 0.39538,0.49195 0.47958,0.53994 0.0842,0.048 0.15308,0.16196 0.15308,0.25325 0,0.12022 -0.41467,0.16388 -1.50407,0.15836 -1.50405,-0.008 -1.50405,-0.008 -1.99642,-0.71841 -0.2708,-0.39093 -0.55695,-0.71078 -0.63588,-0.71078 -0.0919,0 -0.10835,1.37076 -0.0457,3.81074 0.1132,4.411 0.33305,4.01502 -1.92595,3.46876 z m -4.95917,-1.24935 c -0.67648,-0.22236 -1.91833,-0.77223 -1.91833,-0.8494 0,-0.16104 1.08918,-1.04192 1.83787,-1.48637 0.70905,-0.42093 1.93053,-0.83633 2.45921,-0.83633 0.1972,0 0.2828,0.15484 0.35744,0.64647 0.17743,1.1688 0.19121,1.13541 -0.661,1.60163 -0.44124,0.24141 -0.91672,0.56927 -1.05658,0.72859 -0.24765,0.28206 -0.56803,0.34353 -1.01861,0.19541 z m 38.11678,-0.15617 c -0.0967,-0.14572 -0.56155,-0.46521 -1.03294,-0.70998 -0.47138,-0.24477 -0.88172,-0.46288 -0.91185,-0.48469 -0.0301,-0.0218 -0.008,-0.44744 0.0504,-0.94585 0.10521,-0.90621 0.10521,-0.90621 0.71883,-0.82065 0.85527,0.11926 2.54517,0.91266 3.38042,1.58711 0.38551,0.31129 0.70092,0.61204 0.70092,0.66835 0,0.14479 -1.5951,0.7826 -2.21344,0.88506 -0.41503,0.0688 -0.55102,0.0335 -0.69236,-0.17935 z m -30.85604,-2.97678 c 0.0436,-0.91355 0.0436,-0.91355 0.56011,-1.02613 0.76414,-0.16658 3.59129,-0.15479 4.94337,0.0206 2.4622,0.31942 2.85237,0.4277 3.32314,0.92223 0.64419,0.67668 0.58149,0.74727 -0.55633,0.62634 -1.7632,-0.1874 -5.31635,-0.11188 -6.58235,0.1399 -1.80568,0.35911 -1.73899,0.38609 -1.68794,-0.68296 z m 23.61687,0.74386 c -0.26377,-0.078 -0.47958,-0.20418 -0.47958,-0.2803 0,-0.27148 1.09777,-1.86369 1.28495,-1.86369 0.20762,0 0.26584,1.11648 0.0984,1.88836 -0.0988,0.45565 -0.16475,0.4743 -0.90382,0.25563 z m -7.19371,-0.21816 c -0.83261,-0.2497 -1.54941,-0.88895 -1.54941,-1.3818 0,-0.068 0.28221,-0.0291 0.62714,0.0865 0.7177,0.24054 2.32876,0.18253 3.6153,-0.13018 0.42609,-0.10357 0.77471,-0.16858 0.77471,-0.14447 0,0.0241 -0.27485,0.41323 -0.61078,0.8647 -0.61077,0.82086 -0.61077,0.82086 -1.58631,0.8073 -0.53654,-0.007 -1.10833,-0.0534 -1.27065,-0.10208 z M 79.258409,128.26153 c -0.144214,-0.13448 -0.184454,-2.35996 -0.184454,-10.19938 0,-8.55812 0.03111,-10.05117 0.212343,-10.18989 0.154086,-0.11794 1.076105,-0.15052 3.360931,-0.11874 3.148601,0.0438 3.148601,0.0438 4.133011,0.49112 1.093532,0.4969 1.995999,1.33521 2.511143,2.33263 0.265348,0.51377 0.322544,0.8721 0.327428,2.05152 0.0053,1.29107 -0.03344,1.50293 -0.401682,2.19452 -0.368805,0.69264 -1.274091,1.59379 -2.172781,2.16286 -0.322543,0.20424 -0.317216,0.21193 0.509448,0.73704 0.964709,0.6128 1.854413,1.68724 2.304525,2.78304 0.409148,0.9961 0.451573,2.64272 0.09566,3.71312 -0.552064,1.66029 -2.056811,3.17385 -3.796995,3.81922 -0.723532,0.26833 -1.131839,0.30609 -3.762863,0.34797 -2.238461,0.0356 -2.995815,0.005 -3.135719,-0.12503 z m 6.751019,-1.29341 c 1.148544,-0.50151 2.082797,-1.34178 2.625962,-2.3618 0.35306,-0.66302 0.399056,-0.90641 0.398775,-2.11043 0,-1.26537 -0.03338,-1.41934 -0.47083,-2.19172 -0.26706,-0.47151 -0.796443,-1.10101 -1.224229,-1.45574 -1.138215,-0.94384 -1.909262,-1.15331 -4.618273,-1.25464 -1.25836,-0.0471 -2.32114,-0.0351 -2.361765,0.0265 -0.06229,0.0946 -0.180558,9.40981 -0.123879,9.75703 0.01063,0.0649 1.098328,0.0936 2.417175,0.0638 2.313025,-0.0523 2.431857,-0.0691 3.357064,-0.47306 z m -0.06317,-10.62045 c 1.10609,-0.34674 2.153701,-1.4012 2.48985,-2.50614 0.31099,-1.02223 0.229269,-2.06845 -0.230022,-2.94498 -0.408647,-0.77988 -1.581302,-1.72887 -2.373304,-1.92064 -0.983052,-0.23803 -5.423968,-0.3392 -5.498989,-0.12528 -0.08996,0.25648 -0.189176,7.57832 -0.103767,7.6571 0.04049,0.0373 1.179592,0.0679 2.531315,0.0679 1.910945,0 2.619484,-0.0507 3.184917,-0.22796 z m 6.398019,11.62616 c -1.086199,-0.77048 -1.459017,-1.92289 -0.970775,-3.00065 0.269392,-0.59462 1.15514,-1.28716 1.785855,-1.39629 0.43695,-0.0756 0.526904,-0.15472 0.587922,-0.51708 0.03962,-0.2353 0.208522,-1.28524 0.375329,-2.33319 0.1668,-1.04796 0.36837,-2.27284 0.44792,-2.72196 0.0796,-0.44912 0.38153,-2.28644 0.67105,-4.08294 0.692204,-4.29527 0.891664,-5.36316 1.091154,-5.84175 0.14592,-0.35008 0.19187,-0.37382 0.3828,-0.19772 0.307707,0.28381 0.500667,1.24844 1.765737,8.82744 0.61829,3.70415 1.13622,6.74047 1.15096,6.74739 0.0148,0.007 0.24533,0.0928 0.512421,0.19097 2.04974,0.75303 2.41251,3.09268 0.66964,4.31875 -0.46974,0.33044 -0.67459,0.3813 -1.535871,0.3813 -0.88792,0 -1.05429,-0.0446 -1.56091,-0.41797 -0.31187,-0.22988 -0.67745,-0.6175 -0.81238,-0.86138 -0.341237,-0.61679 -0.391757,-0.64105 -0.547627,-0.26295 -0.40356,0.97897 -1.454854,1.61035 -2.681334,1.61035 -0.57284,0 -0.827579,-0.0846 -1.331891,-0.44232 z m 2.349991,-0.7043 c 0.46855,-0.22348 0.759214,-0.72825 0.759214,-1.31849 0,-0.90535 -0.634324,-1.47425 -1.648742,-1.4787 -0.575615,-0.003 -0.764599,0.0662 -1.143615,0.41573 -0.381333,0.35172 -0.454038,0.52374 -0.454038,1.0744 0,0.53565 0.07834,0.73297 0.428111,1.07831 0.345859,0.34147 0.545733,0.42269 1.040277,0.42269 0.33668,0 0.795143,-0.0873 1.018793,-0.19394 z m 5.717332,-0.2688 c 0.6862,-0.63288 0.7017,-1.35919 0.0437,-2.05034 -0.40383,-0.42421 -0.541021,-0.48108 -1.160601,-0.48108 -0.85579,0 -1.40898,0.35266 -1.61083,1.02693 -0.32093,1.07199 0.39221,1.96723 1.5671,1.96723 0.55256,0 0.73983,-0.0747 1.160591,-0.46274 z m -2.811401,-2.97883 c 0.4091,-0.32456 0.40943,-0.32622 0.23263,-1.19771 -0.36216,-1.78519 -0.26166,-1.62123 -0.993847,-1.62123 -0.65694,0 -0.65694,0 -0.6225,-0.47153 0.0366,-0.50152 -0.1,-0.74977 -0.29716,-0.54013 -0.0657,0.0699 -0.2382,0.91307 -0.38329,1.87379 -0.2638,1.74676 -0.2638,1.74676 0.17248,2.17756 0.23996,0.23695 0.5248,0.63784 0.63298,0.89087 l 0.19667,0.46006 0.326187,-0.62334 c 0.17939,-0.34283 0.51052,-0.76959 0.73585,-0.94834 z m -0.43617,-4.52016 c 0.22392,-0.31519 0.22392,-0.36531 0,-0.68049 -0.420767,-0.59229 -1.396257,-0.34022 -1.410727,0.36455 -0.0133,0.64898 1.01113,0.87842 1.410727,0.31594 z m 6.589881,8.82679 c -0.26331,-0.10158 -0.27057,-20.19321 -0.007,-20.43595 0.25997,-0.23976 5.1179,-0.21869 6.11647,0.0265 4.81828,1.18324 6.46741,6.65077 2.97312,9.85716 -0.72216,0.66265 -2.25944,1.52132 -2.72366,1.52132 -0.10879,0 -0.19778,0.0843 -0.19778,0.18727 0,0.10301 1.03231,1.98387 2.29403,4.1797 2.38654,4.15343 2.59573,4.68354 1.84807,4.68354 -0.42016,0 -0.53391,-0.16426 -2.45069,-3.53854 -0.72285,-1.27252 -1.68135,-2.95673 -2.12998,-3.7427 l -0.81572,-1.42902 h -1.9921 -1.99211 l -0.0738,4.35513 c -0.0717,4.23078 -0.0822,4.35587 -0.36891,4.38093 -0.16232,0.0142 -0.37813,-0.006 -0.47958,-0.0454 z m 6.64965,-10.15861 c 1.16575,-0.49223 2.18817,-1.41998 2.69674,-2.44704 0.36065,-0.7283 0.42084,-1.02196 0.42493,-2.07335 0.004,-1.04753 -0.0521,-1.33672 -0.38783,-1.99726 -0.81552,-1.60449 -2.31499,-2.61667 -4.21017,-2.84198 -1.51015,-0.17952 -3.93737,-0.15906 -4.14775,0.035 -0.13073,0.12057 -0.17708,1.36455 -0.17708,4.7523 0,2.52393 0.0438,4.69413 0.0972,4.82266 0.088,0.21145 0.32451,0.22733 2.48569,0.16687 2.16664,-0.0606 2.46555,-0.0994 3.21824,-0.41718 z m 6.4987,10.08581 c -0.17402,-0.24859 -0.21567,-19.83072 -0.043,-20.22977 0.1366,-0.31574 0.1366,-0.31574 3.35091,-0.27219 3.2143,0.0435 3.2143,0.0435 4.18769,0.48586 1.15372,0.52426 2.06787,1.38528 2.59218,2.44155 0.4895,0.98611 0.54947,2.62883 0.13319,3.64884 -0.37524,0.91951 -1.24961,1.96805 -1.98607,2.38171 -0.55144,0.30973 -0.81263,0.68049 -0.47939,0.68049 0.0739,0 0.4773,0.25005 0.8965,0.55566 2.23812,1.63167 2.99354,4.63881 1.7628,7.01732 -0.6397,1.23628 -1.86936,2.37034 -3.19474,2.94634 -1.00072,0.4349 -1.00072,0.4349 -4.04744,0.47946 -2.40449,0.0352 -3.07327,0.007 -3.17261,-0.13527 z m 6.4666,-1.14567 c 1.73684,-0.65559 2.86255,-1.84889 3.30874,-3.50739 0.6016,-2.23616 -0.62707,-4.54057 -2.95717,-5.54623 -0.9063,-0.39116 -1.01269,-0.40488 -3.34979,-0.43203 l -2.41376,-0.028 -0.0387,4.94957 -0.0388,4.94957 2.39976,-0.0625 c 1.91245,-0.0498 2.53987,-0.11539 3.08972,-0.32294 z m 0.65796,-10.90347 c 0.78675,-0.38807 1.46082,-1.01471 1.85251,-1.72218 0.38359,-0.69283 0.52191,-2.17396 0.27799,-2.97672 -0.24851,-0.81789 -1.0626,-1.79208 -1.85586,-2.22083 -0.75776,-0.40958 -1.8771,-0.53686 -4.72139,-0.53686 h -1.62319 l -0.0392,3.92345 -0.0392,3.92345 2.76908,-0.0447 c 2.52203,-0.0407 2.82353,-0.0715 3.3792,-0.34562 z m 6.67853,12.00584 c -0.91049,-0.45643 -0.86963,0.0199 -0.86963,-10.13693 v -9.26145 l 0.50496,-0.50837 0.50498,-0.50836 h 3.80908 c 3.49381,0 3.81318,0.0195 3.85841,0.23549 0.0454,0.21656 -0.20948,0.23844 -3.17044,0.27219 -3.21976,0.0367 -3.21976,0.0367 -3.21976,0.37695 0,0.34025 0,0.34025 3.09455,0.37712 2.99148,0.0357 3.70388,0.13504 3.17565,0.44305 -0.12106,0.0706 -1.59798,0.12929 -3.28204,0.13043 -3.06194,0.002 -3.06194,0.002 -3.06194,0.33099 0,0.4245 0.15414,0.46645 1.41163,0.38425 1.6672,-0.10899 5.08115,0.0973 5.08115,0.30696 0,0.30312 -0.38641,0.34087 -3.4896,0.34087 -3.02278,0 -3.02278,0 -2.97609,0.37427 0.0467,0.37427 0.0467,0.37427 3.25619,0.41094 2.58289,0.0295 3.2095,0.0727 3.2095,0.22116 0,0.28723 -0.70446,0.35461 -3.70752,0.35461 -2.78526,0 -2.78526,0 -2.78526,0.34024 0,0.34025 0,0.34025 2.56176,0.34025 2.94016,0 3.93102,0.0898 3.93102,0.35615 0,0.29466 -0.49963,0.33631 -3.54152,0.29519 -2.87748,-0.0389 -2.87748,-0.0389 -2.92728,0.28595 -0.0274,0.17867 0.039,0.37678 0.14756,0.44024 0.10855,0.0634 1.57524,0.11631 3.2593,0.11746 2.62235,0.002 3.06194,0.0314 3.06194,0.20623 0,0.25009 0.16063,0.23485 -2.87748,0.27306 -3.83614,0.0483 -3.6153,0.0273 -3.6153,0.34365 0,0.15206 0.083,0.30202 0.18445,0.33325 0.14388,0.0443 3.94818,0.17294 5.97632,0.2021 0.19248,0.003 0.33201,0.0895 0.33201,0.20627 0,0.17062 -0.49168,0.20711 -3.2095,0.23817 -3.2095,0.0367 -3.2095,0.0367 -3.2557,0.4062 -0.0639,0.51154 0.22586,0.55595 3.00663,0.46073 2.5318,-0.0867 3.45857,-0.0135 3.45857,0.27327 0,0.14796 -0.62993,0.1913 -3.2095,0.22078 -3.2095,0.0367 -3.2095,0.0367 -3.2095,0.37692 0,0.34024 0,0.34024 3.17261,0.40829 2.68893,0.0577 3.17261,0.0992 3.17261,0.2722 0,0.17302 -0.48368,0.21452 -3.17261,0.27219 -3.17261,0.068 -3.17261,0.068 -3.21902,0.43964 -0.0464,0.3716 -0.0464,0.3716 3.17068,0.4083 2.91405,0.0332 3.2217,0.0589 3.26616,0.27219 0.0451,0.21656 -0.20983,0.23845 -3.17067,0.2722 -3.21976,0.0367 -3.21976,0.0367 -3.21976,0.37695 0,0.34024 0,0.34024 3.21976,0.37695 2.96081,0.0338 3.21583,0.0556 3.17075,0.27219 -0.0441,0.21198 -0.36556,0.24229 -3.21976,0.30354 -3.17075,0.068 -3.17075,0.068 -3.17075,0.4083 0,0.34024 0,0.34024 3.17261,0.40829 2.68893,0.0577 3.17261,0.0992 3.17261,0.2722 0,0.17302 -0.48348,0.21452 -3.17075,0.27219 -2.95428,0.0634 -3.1744,0.0855 -3.22402,0.32394 -0.0293,0.14074 0.0363,0.30822 0.1457,0.37218 0.10944,0.064 1.57685,0.11724 3.26091,0.11839 2.62235,0.002 3.06194,0.0314 3.06194,0.20623 0,0.11228 -0.0166,0.21637 -0.0369,0.23132 -0.0203,0.0149 -1.46456,0.0609 -3.2095,0.10208 -3.17261,0.0749 -3.17261,0.0749 -3.17261,0.41514 0,0.34024 0,0.34024 3.2095,0.37692 2.60384,0.0298 3.2095,0.072 3.2095,0.22361 0,0.31546 -0.36256,0.35215 -3.4798,0.35215 -3.01298,0 -3.01298,0 -3.01298,0.32205 0,0.32204 0,0.32204 3.10361,0.38549 1.9351,0.0395 3.16365,0.1188 3.26305,0.21048 0.40655,0.37497 -0.0851,0.44296 -3.20276,0.44296 -3.1639,0 -3.1639,0 -3.1639,0.34024 0,0.34025 0,0.34025 2.78526,0.34025 3.00967,0 3.70752,0.0673 3.70752,0.35726 0,0.2788 -7.27808,0.26339 -7.8366,-0.0166 z m 10.296,0.11299 c -0.0541,-0.0499 -0.0984,-4.67266 -0.0984,-10.2728 0,-10.18207 0,-10.18207 0.35275,-10.26373 0.19402,-0.0449 1.57189,-0.059 3.06194,-0.0314 3.11527,0.0578 3.83535,0.23155 5.1947,1.25314 1.8074,1.3583 2.53847,2.87028 2.4281,5.02168 -0.0553,1.07802 -0.1308,1.37059 -0.54779,2.12287 -0.8426,1.52013 -2.30002,2.67295 -4.03829,3.19429 -0.31249,0.0937 -0.55702,-0.38765 2.39343,4.7115 2.14464,3.70649 2.35265,4.24085 1.68493,4.32865 -0.40788,0.0536 -0.60289,-0.21071 -2.08867,-2.83157 -0.65775,-1.16024 -1.68844,-2.96694 -2.29041,-4.01489 l -1.0945,-1.90537 h -1.97474 -1.97472 l -0.0391,4.2075 c -0.0263,2.8274 -0.0927,4.26708 -0.20252,4.38915 -0.17301,0.19227 -0.60176,0.24312 -0.76676,0.0909 z m 5.59258,-9.8562 c 1.71093,-0.28896 3.10922,-1.30754 3.87466,-2.82244 0.33035,-0.65382 0.39062,-0.96082 0.39258,-2.00012 0.002,-1.1152 -0.0421,-1.31102 -0.48268,-2.13637 -1.13183,-2.12043 -2.96278,-2.88902 -6.67182,-2.8007 l -1.69698,0.0404 -0.0388,4.76265 c -0.0214,2.61946 -0.007,4.83956 0.0323,4.93355 0.0912,0.21927 3.33266,0.23552 4.59082,0.023 z M 45.780598,103.72301 c -1.208661,-0.48517 -1.748138,-2.12788 -1.102652,-3.35765 0.172575,-0.3288 0.482237,-0.842792 0.688132,-1.142202 0.344722,-0.50133 0.369602,-0.64128 0.314369,-1.76928 -0.04403,-0.89929 -0.159236,-1.45098 -0.433408,-2.07549 -0.377216,-0.85916 -0.353606,-0.92479 0.276489,-0.76885 0.251241,0.0622 0.350802,0.24855 0.489777,0.9168 0.223101,1.07279 0.662648,2.40789 0.977784,2.96993 0.366547,0.65376 1.679107,1.877852 2.249056,2.097492 0.274807,0.1059 0.658693,0.15572 0.853093,0.11072 0.586564,-0.13578 0.421381,0.24368 -0.352072,0.80873 -0.388017,0.28348 -0.789242,0.68989 -0.891577,0.90314 -0.381717,0.79535 -1.465702,1.5096 -2.271707,1.49685 -0.185206,-0.003 -0.543992,-0.0885 -0.797284,-0.19019 z m 1.476282,-0.40153 c 0.71248,-0.27456 1.137211,-0.897 1.156925,-1.69546 0.02668,-1.08021 -0.815449,-2.065232 -1.761684,-2.060612 -1.685394,0.008 -2.42535,2.136012 -1.175872,3.381292 0.567498,0.56559 1.031865,0.66333 1.780631,0.37478 z m 52.99376,0.0293 c -0.516761,-0.37491 -0.953091,-1.25335 -0.957271,-1.92728 -0.002,-0.29165 0.19827,-0.94503 0.45386,-1.482137 0.399571,-0.839655 0.444481,-1.053775 0.356761,-1.701245 -0.113161,-0.83544 -0.554691,-2.10596 -0.901471,-2.59409 -0.28276,-0.39802 -0.21252,-0.48455 0.25907,-0.31918 0.28347,0.0994 0.44833,0.36768 0.775931,1.26271 0.63149,1.72529 1.01338,2.31851 2.00025,3.107015 0.73739,0.589177 1.00287,0.721017 1.47484,0.732437 0.31657,0.008 0.61814,-0.0254 0.67019,-0.0734 0.052,-0.048 -0.30854,-0.848722 -0.80131,-1.779392 -0.73975,-1.39714 -1.04931,-1.82705 -1.77566,-2.46605 -1.0159,-0.89371 -1.884471,-1.30305 -2.773941,-1.30729 -0.34493,-0.002 -0.62772,-0.0489 -0.62843,-0.10506 0,-0.0561 -0.21711,-0.31643 -0.48089,-0.57841 -0.93008,-0.92373 -1.697927,-1.86425 -3.666711,-4.49124 -1.09392,-1.45965 -2.22182,-2.960134 -2.506425,-3.334404 -0.912059,-1.19939 -2.443338,-3.26083 -2.552683,-3.43647 -0.05826,-0.0936 -0.03859,-0.17012 0.04369,-0.17012 0.202767,0 8.518549,8.480304 9.596649,9.786524 1.06015,1.28446 2.132321,2.27407 2.814051,2.59737 0.33852,0.16053 0.64358,0.47168 0.88538,0.90307 0.47354,0.84483 1.16015,1.27552 2.03346,1.27552 h 0.66175 l -0.0992,-2.82403 c -0.24658,-7.01655 -0.40282,-9.767014 -0.57349,-10.095284 -0.22589,-0.43449 -0.7624,-0.68592 -1.46912,-0.68848 -0.30435,-0.001 -0.55336,-0.0549 -0.55336,-0.11953 0,-0.14572 5.19269,-0.29818 5.35874,-0.15734 0.0661,0.0561 -0.17359,0.17025 -0.53275,0.25366 -0.35915,0.0834 -0.74528,0.25478 -0.85806,0.38082 -0.16992,0.18989 -0.19907,1.36249 -0.17001,6.841194 0.0249,4.69521 0.0825,6.6266 0.19875,6.66233 0.40855,0.1256 1.16009,0.89099 1.38584,1.41136 0.19116,0.44062 0.22552,0.782105 0.14923,1.482782 -0.0899,0.8259 -0.0687,0.93843 0.2292,1.21315 0.30317,0.27961 0.41725,0.29597 1.48924,0.21351 0.97796,-0.0752 1.16092,-0.057 1.16092,0.11545 0,0.2971 -0.60504,0.39243 -1.97054,0.31048 -1.46497,-0.0879 -2.64323,-0.47777 -3.63971,-1.20424 l -0.74004,-0.53953 -0.50427,0.50766 c -0.27733,0.27922 -0.5839,0.66425 -0.68123,0.85563 -0.0973,0.19139 -0.24919,0.49175 -0.33745,0.66748 -0.0883,0.17573 -0.35759,0.49726 -0.59853,0.71451 -0.56567,0.51008 -1.59576,0.55613 -2.22521,0.0995 z m 1.71457,-0.18986 c 1.10568,-0.52734 1.13658,-2.38016 0.0528,-3.166407 -0.61641,-0.447205 -1.19926,-0.384955 -1.7882,0.190977 -0.429411,0.41993 -0.497011,0.57972 -0.497011,1.1748 0,0.73959 0.361111,1.44205 0.930321,1.80977 0.40284,0.26024 0.74227,0.25786 1.30208,-0.009 z m 5.00638,-2.37671 c 0.15614,-0.0771 0.3912,-0.33153 0.52237,-0.56546 0.45596,-0.813212 -0.0383,-1.906002 -1.06534,-2.355502 -1.01605,-0.44469 -2.12134,0.17523 -2.12134,1.18978 0,0.41615 0.66682,1.358882 1.16144,1.641992 0.445,0.25473 1.08996,0.293 1.50287,0.0892 z m -9.210471,-8.664712 c 0.11623,-0.42712 -0.23703,-0.78492 -0.65436,-0.66276 -0.544277,0.15933 -0.589187,0.95491 -0.06,1.06372 0.39997,0.0823 0.61587,-0.0389 0.7144,-0.40096 z M 55.685177,103.37515 c -1.671479,-0.22901 -3.640238,-1.09814 -4.450995,-1.96492 -0.672992,-0.71949 -0.987788,-1.29703 -1.619876,-2.971882 -0.943195,-2.49918 -2.585131,-4.12328 -4.446007,-4.39773 -0.320906,-0.0473 -0.645885,-0.1255 -0.722204,-0.17373 -0.557125,-0.35205 -4.969739,-6.959814 -6.079695,-9.104174 -0.289475,-0.55923 -0.500137,-0.55719 -0.968709,0.009 -1.112553,1.34532 -1.707336,3.431934 -1.707336,5.989754 0,3.35923 1.098254,5.93475 3.350925,7.85829 0.984823,0.84092 2.407141,1.541562 3.593771,1.770292 0.974035,0.18776 1.022997,0.2263 0.917578,0.72235 -0.08343,0.3926 -0.08343,0.3926 -1.132253,0.30922 -3.029031,-0.2408 -6.010665,-1.924042 -7.647216,-4.317132 -2.847808,-4.16432 -2.127508,-9.98967 1.636152,-13.232254 0.416173,-0.35856 0.756675,-0.72699 0.756675,-0.81873 0,-0.0918 -0.397314,-0.80891 -0.88293,-1.5937 -0.894514,-1.445597 -1.107211,-1.968381 -0.662293,-1.62783 0.124027,0.09495 0.880244,0.97517 1.680465,1.95606 0.800221,0.98089 2.011494,2.45712 2.691716,3.28051 3.763528,4.555604 4.560104,5.553554 5.323138,6.668804 1.002014,1.46453 2.037362,2.57998 2.673758,2.88063 0.547357,0.25858 0.637075,0.36572 0.835931,0.99816 0.241768,0.76894 1.416047,1.76734 2.080333,1.76876 0.318087,6.8e-4 0.926963,-1.27192 1.305654,-2.72893 0.422282,-1.62466 0.4233,-4.66995 0.0021,-6.19337 -0.949038,-3.432434 -3.349775,-5.757734 -6.60049,-6.393074 -0.547475,-0.10701 -1.271789,-0.19562 -1.609576,-0.19692 -0.983598,-0.004 -2.788636,0.36379 -3.759218,0.76551 -0.89658,0.3711 -0.89658,0.3711 -1.1727,0.0398 -0.151858,-0.18223 -0.27646,-0.36194 -0.276873,-0.39937 -0.0015,-0.11739 1.501485,-0.65872 2.502776,-0.90153 0.680399,-0.165 1.516685,-0.23028 2.877484,-0.22463 2.310826,0.01 3.805332,0.31566 5.681185,1.16345 1.625602,0.73468 3.372042,2.28862 4.166951,3.70763 1.87575,3.348454 1.641346,7.446964 -0.603239,10.547084 -0.336842,0.46524 -0.610941,0.91546 -0.609097,1.0005 0.0019,0.085 0.213524,0.25012 0.470402,0.36684 1.177659,0.53513 1.664234,1.7383 1.313299,3.247482 -0.30553,1.31398 0.02907,1.63231 1.82825,1.73931 1.382328,0.0822 1.558445,0.14007 1.189197,0.39071 -0.305662,0.20747 -0.746906,0.22107 -1.927014,0.0594 z m -1.917614,-2.23494 c 1.033681,-0.95337 0.36817,-2.673822 -1.189936,-3.076172 -0.587242,-0.15164 -0.744899,-0.14486 -1.190717,0.0512 -1.140133,0.50145 -1.161323,1.788575 -0.04639,2.816882 0.523614,0.48292 0.656258,0.53659 1.326328,0.53659 0.590312,0 0.818298,-0.068 1.100719,-0.32852 z m -9.967972,-9.939372 c 0.419714,-0.46642 -0.159147,-1.25491 -0.694182,-0.94558 -0.52655,0.30443 -0.337153,1.14224 0.258235,1.14224 0.142443,0 0.338629,-0.0885 0.435947,-0.19666 z m 16.606592,11.219072 c -0.09792,-0.14614 0.03037,-0.21531 0.61286,-0.33045 0.660656,-0.13058 0.926122,-0.46837 1.088073,-1.38448 0.07791,-0.44076 0.18621,-3.413132 0.240646,-6.605292 l 0.09897,-5.80393 1.065038,0.35329 1.065023,0.35328 0.07945,5.72284 c 0.0449,3.23439 0.145792,5.959552 0.232043,6.267222 0.199564,0.71197 0.586623,0.98147 1.572832,1.09511 0.527495,0.0608 0.807776,0.1565 0.807776,0.27583 0,0.14777 -0.649145,0.18175 -3.392568,0.17755 -1.865908,-0.003 -3.427466,-0.0573 -3.470143,-0.12097 z m 14.4612,0 c -0.101995,-0.15223 0.03488,-0.21602 0.701575,-0.32697 0.414196,-0.0689 0.610986,-0.19545 0.784033,-0.50409 0.282525,-0.50388 0.499871,-3.317902 0.504357,-6.530022 l 0.0031,-2.25892 -0.85507,-0.75223 c -0.470285,-0.41372 -1.138672,-0.88567 -1.485284,-1.04876 -0.687851,-0.32364 -0.718043,-0.51577 -0.129191,-0.82199 0.3624,-0.18847 0.402405,-0.17859 0.702784,0.17361 0.366813,0.43009 2.352351,1.85111 3.050605,2.18328 0.336858,0.16024 0.844564,0.22327 1.77076,0.21983 1.395417,-0.005 1.871235,-0.15301 2.157197,-0.67022 0.439163,-0.79426 0.496979,-0.38462 0.568916,4.03101 0.03158,1.93873 -1.382225,3.05272 -2.934635,2.31231 -0.29036,-0.13848 -0.481027,-0.16751 -0.513314,-0.0782 -0.121857,0.33714 0.169757,2.714572 0.378662,3.087142 0.262737,0.46862 0.40335,0.53385 1.418541,0.65806 0.467584,0.0572 0.739616,0.15702 0.739616,0.27138 0,0.14536 -0.666351,0.17987 -3.392568,0.1757 -1.865908,-0.003 -3.427466,-0.0573 -3.470142,-0.12097 z m 6.535592,-4.566022 c 0.515055,-0.33273 0.770103,-0.92771 0.766562,-1.78828 -0.006,-1.46074 -0.946412,-2.62664 -2.118655,-2.62664 -0.723487,0 -1.196354,0.30766 -1.480885,0.96353 -0.326942,0.75361 -0.289623,1.43812 0.122979,2.25542 0.591345,1.17134 1.87274,1.73684 2.709999,1.19597 z M 17.156158,102.2733 c -1.652193,-0.17784 -2.651417,-0.58848 -3.551774,-1.45964 -1.23844,-1.198272 -1.278961,-1.330082 -1.348994,-4.388922 -0.05866,-2.56188 -0.07285,-2.6671 -0.376301,-2.79 -0.23861,-0.0966 -0.326425,-0.26963 -0.36097,-0.71105 -0.0556,-0.71071 0.315402,-1.32392 1.201269,-1.98555 1.090891,-0.81477 1.506311,-0.94686 2.688042,-0.85473 0.579894,0.0452 1.259777,0.0279 1.510826,-0.0385 1.150772,-0.3044 2.379635,0.2664 2.752542,1.27853 0.239067,0.64888 0.114671,1.03352 -0.411525,1.27238 -0.391131,0.17755 -0.391131,0.17755 -0.391131,2.25855 0,1.8094 0.0337,2.10901 0.258236,2.29563 0.37397,0.31083 1.067738,0.45024 1.077758,0.21658 0.05684,-1.32484 -0.05363,-6.0622 -0.146619,-6.28776 -0.06795,-0.16484 -0.36336,-0.56445 -0.656465,-0.88801 -0.293105,-0.32357 -0.53291,-0.67419 -0.53291,-0.77918 0,-0.10498 0.2383,-0.43415 0.529546,-0.73148 0.822768,-0.83995 0.88749,-1.24934 0.861371,-5.448494 l -0.02329,-3.742691 -1.693229,-0.03816 c -1.693244,-0.03816 -1.693244,-0.03816 -2.554158,0.578416 -1.025225,0.734255 -1.505219,0.782815 -2.407067,0.24348 -1.142449,-0.68322 -1.55179,-2.245749 -0.922934,-3.522988 0.325111,-0.660311 1.791226,-1.841945 2.621255,-2.112626 0.828007,-0.270024 10.959524,-0.267303 11.312819,0.003 0.219825,0.168213 0.244188,0.743393 0.244926,5.784162 0,3.526147 0.05876,5.789787 0.157376,6.117377 0.08612,0.286 0.38455,0.752754 0.663209,1.037234 0.613346,0.62615 0.626819,0.81989 0.09724,1.39816 -0.225182,0.24588 -0.507397,0.56348 -0.627144,0.70577 -0.176294,0.20949 -0.231763,1.01231 -0.291511,4.21904 -0.07378,3.96032 -0.07378,3.96032 -0.484333,4.73137 -0.441833,0.82983 -1.871648,2.171362 -3.046842,2.858742 -1.457866,0.85271 -3.305402,1.08747 -6.149226,0.78136 z m 5.599214,-1.89664 c 1.720086,-0.489997 2.916883,-1.604612 3.194759,-2.975412 0.08174,-0.4032 0.148611,-2.18545 0.148611,-3.96055 0,-3.48395 0.05678,-3.82778 0.771668,-4.67302 0.440048,-0.5203 0.440048,-0.5203 0.138473,-0.81659 -0.165861,-0.16296 -0.437038,-0.57188 -0.602619,-0.90873 -0.287615,-0.585144 -0.301191,-0.869054 -0.304275,-6.369144 l -0.0032,-5.756701 -5.127823,0.04059 c -5.659524,0.0448 -5.828528,0.06948 -6.305836,0.920772 -0.479123,0.854536 -0.128778,2.342236 0.651728,2.767467 0.684015,0.372665 0.995049,0.304202 1.106459,-0.243547 0.05311,-0.261078 0.222142,-0.536676 0.375637,-0.612441 0.157907,-0.07794 1.404537,-0.137751 2.871138,-0.137751 h 2.592052 l 0.03607,3.164271 c 0.06112,5.36165 0.0166,5.78862 -0.707094,6.780464 -0.50592,0.69337 -0.50592,0.69337 -0.121503,1.15821 0.722661,0.87383 0.779104,1.23037 0.786054,4.96517 0.0065,3.47906 0.0065,3.47906 -0.441155,3.8746 -0.387383,0.3423 -0.58106,0.40166 -1.438742,0.44101 -1.138937,0.0522 -1.837443,-0.23999 -2.122018,-0.88776 -0.168739,-0.38409 -0.202649,-4.35263 -0.0412,-4.82177 0.04678,-0.13595 0.246637,-0.28458 0.444136,-0.3303 0.603593,-0.13972 0.383841,-0.84673 -0.3758,-1.20904 -0.597778,-0.2851 -1.220672,-0.25673 -1.680022,0.0765 -0.388814,0.28208 -0.388814,0.28208 -0.777629,0 -0.852134,-0.61821 -2.414888,-0.0579 -2.414888,0.86581 0,0.11721 0.09487,0.2131 0.210809,0.2131 0.115941,0 0.315151,0.0962 0.44269,0.21387 0.193013,0.17802 0.232486,0.61714 0.235482,2.61988 0.004,2.63305 0.123067,3.37418 0.664374,4.13374 0.563175,0.790235 2.062314,1.502042 3.685141,1.749732 1.082657,0.16525 2.999607,0.0335 4.108575,-0.28245 z m -6.618124,-5.070992 c -0.105419,-1.81527 -0.04628,-2.54719 0.205821,-2.54719 0.069,0 0.166688,0.22966 0.217095,0.51036 0.109581,0.61019 -0.04533,3.42281 -0.203696,3.69857 -0.0613,0.10673 -0.159944,-0.64105 -0.21922,-1.66174 z m 8.001662,0.86931 c -0.05833,-0.47881 -0.106053,-1.81087 -0.106053,-2.96013 0,-1.76664 0.03421,-2.08955 0.221344,-2.08955 0.188454,0 0.219427,0.33873 0.208419,2.27964 -0.0071,1.2538 -0.059,2.58586 -0.115291,2.96013 l -0.102365,0.68049 z m -0.07449,-7.09404 c -0.08039,-0.18872 -0.319577,-0.42873 -0.531552,-0.53336 -0.471288,-0.23263 -0.480259,-0.31342 -0.05402,-0.48623 0.182241,-0.0739 0.42631,-0.31808 0.542384,-0.54264 l 0.211015,-0.4083 0.195861,0.44232 c 0.107721,0.24328 0.245457,0.44326 0.306105,0.4444 0.06063,10e-4 0.199225,0.0541 0.307965,0.11767 0.156092,0.0912 0.125015,0.18564 -0.147564,0.44824 -0.189899,0.18295 -0.421499,0.45153 -0.514671,0.59684 -0.162113,0.25286 -0.175644,0.24948 -0.31552,-0.0789 z m -0.03156,-5.215244 c 0,-2.70139 0.175792,-5.941874 0.317939,-5.860848 0.142945,0.08148 0.172221,6.607038 0.03252,7.251228 -0.201128,0.92749 -0.350462,0.33502 -0.350462,-1.39038 z m 64.571811,17.758356 c -0.0653,-0.0974 0.01092,-0.15532 0.204493,-0.15532 0.169712,0 0.534946,-0.0872 0.811612,-0.19385 0.852267,-0.32843 0.86661,-0.48858 0.762194,-8.516402 -0.09293,-7.145144 -0.09293,-7.145144 0.269746,-6.736854 0.76181,0.85763 0.774028,0.93651 0.958955,6.192454 0.2083,5.91979 0.352882,7.973842 0.595299,8.457082 0.221419,0.44137 0.714782,0.66148 1.482701,0.66148 0.320817,0 0.583297,0.0612 0.583297,0.13609 0,0.0809 -0.553858,0.13639 -1.364954,0.1368 -0.750728,4.1e-4 -2.002685,0.0397 -2.782114,0.0873 -0.993986,0.0607 -1.44823,0.0402 -1.521229,-0.0687 z M 82.689258,91.623858 c -0.772583,-0.23409 -1.064773,-0.38049 -2.703138,-1.3544 -2.482944,-1.47597 -4.716092,-1.57669 -6.350474,-0.28642 l -0.629608,0.49705 -1.429829,-0.31367 c -0.786409,-0.17253 -1.861451,-0.46042 -2.38899,-0.63977 -1.700504,-0.57812 -2.419506,-0.82583 -3.17261,-1.09302 -2.487814,-0.88268 -7.693285,-2.695234 -8.613003,-2.999064 -0.956254,-0.3159 -1.373489,-0.59119 -1.174382,-0.77483 0.03412,-0.0315 1.187781,0.14791 2.563705,0.39862 1.37591,0.25071 2.761426,0.49809 3.078923,0.54973 l 0.577252,0.0939 -0.0985,-3.53563 c -0.05417,-1.94459 -0.13871,-3.721063 -0.187863,-3.947712 -0.134578,-0.620566 -0.549186,-0.937345 -1.453454,-1.110484 -0.774958,-0.14838 -1.113453,-0.400896 -0.55832,-0.416502 1.549355,-0.04356 6.275688,0.01464 6.387999,0.07866 0.252495,0.143925 -0.0047,0.33689 -0.449065,0.33689 -0.234153,0 -0.598856,0.137799 -0.810432,0.30622 -0.549835,0.437689 -0.678289,1.552028 -0.630582,5.470608 l 0.03965,3.25644 2.803702,0.51129 c 1.542036,0.28122 3.600544,0.730764 4.574462,0.998994 1.836306,0.50574 3.541562,0.6516 4.352555,0.3723 0.296381,-0.10207 0.461047,-0.0616 0.842955,0.20703 0.511455,0.35979 1.414527,0.53321 2.032153,0.39024 0.211075,-0.0489 0.785273,-0.42927 1.275994,-0.84534 0.917047,-0.77757 1.864595,-1.268774 2.457652,-1.274034 0.496742,-0.004 1.235739,0.31506 1.65535,0.715604 0.202899,0.19367 0.637606,0.83055 0.966023,1.41528 0.853284,1.51926 1.304902,1.5277 2.623852,0.049 0.900357,-1.00942 1.132149,-1.14539 1.132149,-0.66415 0,0.76134 -2.095147,2.61306 -3.764176,3.32681 -0.93294,0.39896 -2.170346,0.51656 -2.949952,0.28034 z m 1.549414,-0.75142 c 0.537824,-0.36407 0.733183,-0.8066 0.735647,-1.66641 0.0027,-0.92363 -0.399705,-1.56695 -1.208956,-1.93308 -1.694646,-0.766724 -3.367084,1.05341 -2.574596,2.80196 0.4775,1.05356 2.058523,1.46726 3.047905,0.79753 z M 70.43314,88.917448 c 0.304674,-0.40118 0.289681,-0.68875 -0.05618,-1.07745 -0.232456,-0.26126 -0.335854,-0.29323 -0.553362,-0.1711 -0.444652,0.24969 -0.575924,0.79571 -0.28853,1.20024 0.305943,0.43066 0.59586,0.44625 0.89807,0.0483 z m 7.976724,-1.11102 c -0.243509,-0.0979 -0.533854,-0.27922 -0.645206,-0.40297 -0.111366,-0.12375 -0.352543,-0.225 -0.535979,-0.225 -0.333508,0 -0.333508,0 -0.39575,-4.457214 -0.05311,-3.803373 -0.09792,-4.519274 -0.3055,-4.880351 -0.251861,-0.438121 -0.755376,-0.693962 -1.500084,-0.762207 -0.447796,-0.04104 -0.683085,-0.308209 -0.349636,-0.397027 0.104888,-0.02794 1.606049,-0.03201 3.335918,-0.0091 2.349089,0.03117 3.130422,0.08272 3.086714,0.203656 -0.03218,0.08905 -0.287734,0.19628 -0.567883,0.238278 -1.295694,0.194246 -1.327715,0.331059 -1.423218,6.080591 -0.04384,2.63995 -0.119526,4.797524 -0.168163,4.794594 -0.04865,-0.003 -0.287704,-0.0854 -0.531213,-0.1833 z"
             id="path225" />
        </g>
      </g>
    </clipPath>
  </defs>
  <g
     inkscape:label="Capa 1"
     inkscape:groupmode="layer"
     id="layer1"
     transform="translate(-0.11858499,-0.13894058)">
    <path
       style="fill:#ffffff;stroke-width:0.00866044"
       d="M 2.129755,2.0025937 C 2.0588193,1.9717207 2.0271576,1.8671886 2.0650409,1.7889336 c 0.010128,-0.020924 0.028302,-0.053631 0.040386,-0.072683 0.020232,-0.031902 0.021692,-0.040808 0.01845,-0.1125852 -0.00259,-0.057225 -0.00935,-0.092331 -0.025436,-0.1320718 -0.022139,-0.054672 -0.020752,-0.058848 0.016227,-0.048925 0.014746,0.00395 0.020588,0.015816 0.028745,0.05834 0.013098,0.068266 0.038891,0.1532233 0.057386,0.188988 0.021512,0.041602 0.098546,0.1194948 0.1319961,0.133472 0.016128,0.00673 0.038659,0.0099 0.050068,0.00704 0.034426,-0.00864 0.024731,0.015505 -0.020662,0.051462 -0.022773,0.018039 -0.04632,0.043901 -0.052327,0.057471 -0.022403,0.050611 -0.086022,0.096062 -0.1333257,0.09525 -0.010871,-1.861e-4 -0.031927,-0.00563 -0.046792,-0.012104 z m 0.086643,-0.02555 C 2.258213,1.9595727 2.283141,1.9199647 2.284298,1.8691541 2.285858,1.8004161 2.236439,1.7377346 2.1809052,1.7380289 2.0819902,1.738553 2.0385623,1.8739525 2.1118932,1.9531942 c 0.033307,0.035992 0.060559,0.04221 0.1045048,0.02385 z m 3.1101859,0.00187 c -0.03033,-0.023858 -0.055937,-0.079757 -0.056182,-0.1226418 -1.04e-4,-0.018559 0.01164,-0.060137 0.026637,-0.094314 0.02345,-0.053431 0.026086,-0.067057 0.020938,-0.1082568 -0.00664,-0.053162 -0.032555,-0.1340102 -0.052907,-0.1650719 -0.016595,-0.025328 -0.012475,-0.030835 0.015204,-0.020311 0.016636,0.00632 0.026313,0.023397 0.045539,0.080351 0.037061,0.1097867 0.059475,0.1475359 0.1173935,0.1977116 0.043278,0.037492 0.058859,0.045881 0.086558,0.046608 0.01858,4.867e-4 0.036279,-0.00162 0.039334,-0.00467 0.00305,-0.00305 -0.018108,-0.054008 -0.047029,-0.1132296 C 5.4786535,1.5861863 5.4604847,1.5588291 5.4178568,1.5181678 5.3582333,1.4612965 5.3072574,1.4352491 5.2550552,1.43498 5.2348122,1.4348751 5.2182152,1.43186 5.2181732,1.4283 c 0,-0.00357 -0.01274,-0.020136 -0.028223,-0.036807 C 5.1353637,1.3327034 5.0902991,1.2728546 4.9747514,1.105689 4.91055,1.0128058 4.8443538,0.91732452 4.8276505,0.89350842 4.7741221,0.81718632 4.6842518,0.68600912 4.6778345,0.67483222 c -0.00342,-0.00595 -0.00227,-0.010831 0.00256,-0.010831 0.011905,0 0.4999506,0.53963458 0.5632239,0.62275418 0.06222,0.081735 0.1251449,0.1447083 0.1651553,0.1652806 0.019868,0.010221 0.037772,0.030015 0.051962,0.057467 0.027792,0.05376 0.068089,0.081166 0.1193437,0.081166 h 0.038838 L 5.6130974,1.4109695 C 5.5986254,0.96447932 5.5894564,0.78945752 5.5794394,0.76856802 c -0.013257,-0.027649 -0.044745,-0.043647 -0.086222,-0.04381 -0.017863,-6.93e-5 -0.032477,-0.00349 -0.032477,-0.00761 0,-0.00927 0.3047573,-0.018975 0.3145029,-0.010009 0.00388,0.00357 -0.010195,0.010831 -0.031267,0.01614 -0.021079,0.0053 -0.04374,0.016213 -0.050359,0.024234 -0.00997,0.012077 -0.011679,0.086701 -0.00998,0.43533098 0.00146,0.2987745 0.00484,0.4216764 0.011666,0.4239504 0.023977,0.00799 0.068085,0.056696 0.081334,0.08981 0.011215,0.028039 0.01323,0.049768 0.00876,0.094356 -0.00528,0.052555 -0.00403,0.059715 0.013452,0.077197 0.017792,0.017792 0.024488,0.018834 0.087404,0.013587 0.057396,-0.00479 0.068134,-0.00363 0.068134,0.00734 0,0.018906 -0.035509,0.024972 -0.1156503,0.019757 -0.085978,-0.00559 -0.15513,-0.030403 -0.2136131,-0.076631 l -0.043433,-0.034332 -0.029595,0.032305 c -0.016277,0.017767 -0.034268,0.042269 -0.039981,0.054447 -0.00571,0.012183 -0.014625,0.031292 -0.019805,0.042474 -0.00518,0.011189 -0.020987,0.031643 -0.035127,0.045468 -0.0332,0.032458 -0.093654,0.035388 -0.1305962,0.00634 z m 0.1006274,-0.012077 c 0.064892,-0.033556 0.066705,-0.1514589 0.0031,-0.2014911 -0.036177,-0.028458 -0.070384,-0.024496 -0.1049492,0.012157 -0.025202,0.026721 -0.02917,0.036889 -0.02917,0.074756 0,0.047064 0.021193,0.091764 0.054599,0.1151624 0.023643,0.016561 0.043564,0.016408 0.076419,-5.82e-4 z M 5.7210336,1.8155883 c 0.00916,-0.00491 0.02296,-0.021096 0.030658,-0.035982 C 5.7784526,1.7278593 5.7494416,1.6583191 5.6891666,1.629716 5.6295356,1.601419 5.564666,1.640865 5.564666,1.705426 c 0,0.026481 0.039136,0.086472 0.068165,0.1044866 0.026118,0.016209 0.063969,0.018645 0.088203,0.00567 z M 5.1804742,1.2642188 c 0.00683,-0.027179 -0.013911,-0.049948 -0.038404,-0.042174 -0.031944,0.010142 -0.03458,0.060765 -0.00353,0.067689 0.023474,0.00524 0.036145,-0.00248 0.041928,-0.025514 z M 2.7110515,1.98046 C 2.612953,1.9658868 2.4974071,1.9105811 2.449824,1.8554246 2.4103265,1.8096406 2.3918511,1.7728891 2.3547541,1.6663112 2.2993983,1.5072789 2.2030336,1.403931 2.0938195,1.3864667 2.0749856,1.3834553 2.0559127,1.3784806 2.0514335,1.3754118 2.0187361,1.3530097 1.7597612,0.93253232 1.6946182,0.79607842 1.6776294,0.76049262 1.6652659,0.76062252 1.6377655,0.79667592 1.5724707,0.88228312 1.5375623,1.0150628 1.5375623,1.1778268 c 0,0.213761 0.064456,0.3776512 0.1966647,0.5000532 0.057799,0.053511 0.1412743,0.098095 0.2109172,0.1126516 0.057166,0.011944 0.06004,0.0144 0.053853,0.045966 l -0.00489,0.024983 -0.061555,-0.0053 C 1.754772,1.8408511 1.5797809,1.7337394 1.4837323,1.5814574 1.3165953,1.3164659 1.3588696,0.94577642 1.5797574,0.73943822 c 0.024425,-0.022817 0.04441,-0.04626 0.04441,-0.052099 0,-0.00583 -0.023318,-0.051474 -0.051819,-0.1014135 -0.052499,-0.091989 -0.064982,-0.1252563 -0.03887,-0.1035851 0.00728,0.00605 0.051661,0.062054 0.098626,0.1244715 0.046964,0.062418 0.1180537,0.1563557 0.1579758,0.2087513 0.2208801,0.28989068 0.267631,0.35339428 0.3124132,0.42436148 0.058808,0.093194 0.1195717,0.1641743 0.1569219,0.1833057 0.032124,0.016455 0.03739,0.023273 0.04906,0.063517 0.014189,0.04893 0.083107,0.1124633 0.1220945,0.1125534 0.018668,4.32e-5 0.054403,-0.080937 0.076628,-0.1736523 C 2.531982,1.3222655 2.5320417,1.1284821 2.5073192,1.031541 2.4516202,0.81312172 2.3107218,0.66515422 2.1199385,0.62472472 c -0.032131,-0.006814 -0.074641,-0.0124484 -0.094466,-0.0125279 -0.057726,-2.408e-4 -0.1636642,0.0231494 -0.2206273,0.0487129 l -0.05262,0.023615 -0.016205,-0.021083 c -0.00891,-0.0116 -0.016225,-0.023031 -0.016249,-0.025414 -8.66e-5,-0.00746 0.088122,-0.041917 0.1468871,-0.057368 0.039933,-0.0105 0.089014,-0.014653 0.1688786,-0.014294 0.1356215,6.105e-4 0.2233336,0.020087 0.3334268,0.074034 0.095405,0.046751 0.1979041,0.1456337 0.244557,0.2359305 0.1100876,0.21307508 0.096329,0.47387948 -0.035404,0.67115208 -0.019769,0.029604 -0.035856,0.058254 -0.035748,0.063665 1.126e-4,0.00541 0.012528,0.015916 0.027608,0.023343 0.069117,0.034052 0.097674,0.1106152 0.077076,0.20665 -0.017931,0.083613 0.00171,0.1038701 0.1072997,0.1106789 0.081129,0.00524 0.091464,0.00891 0.069793,0.024862 -0.017939,0.013204 -0.043836,0.014067 -0.1130956,0.00378 z M 2.5985074,1.8382419 c 0.060667,-0.060667 0.021608,-0.1701461 -0.069837,-0.195749 -0.034466,-0.00965 -0.043718,-0.00921 -0.069883,0.00326 -0.066913,0.03191 -0.068158,0.1138141 -0.00272,0.1792496 0.030731,0.03073 0.038516,0.034145 0.077841,0.034145 0.034646,0 0.048026,-0.00434 0.064601,-0.020905 z M 2.0134904,1.2057608 c 0.024633,-0.02968 -0.00935,-0.079855 -0.040741,-0.060171 -0.030903,0.019373 -0.019787,0.072686 0.015155,0.072686 0.00837,0 0.019874,-0.00563 0.025586,-0.012515 z m 0.9746354,0.7139131 c -0.00575,-0.00929 0.00178,-0.013701 0.035969,-0.021027 0.038774,-0.00831 0.054354,-0.029805 0.063859,-0.088101 0.00457,-0.028047 0.010924,-0.2171912 0.014124,-0.4203207 l 0.00581,-0.3693265 0.062507,0.022481 0.062506,0.022481 0.00467,0.3641663 c 0.00264,0.2058167 0.00855,0.3792296 0.013619,0.3988082 0.011706,0.045306 0.034429,0.062455 0.092309,0.069687 0.030959,0.00387 0.047408,0.00996 0.047408,0.017552 0,0.0094 -0.038098,0.01156 -0.1991086,0.011295 -0.1095123,-1.801e-4 -0.2011603,-0.00365 -0.2036648,-0.0077 z m 0.8487229,0 c -0.00599,-0.00969 0.00204,-0.013746 0.041175,-0.020806 0.024309,-0.00439 0.035859,-0.012435 0.046015,-0.032078 0.016581,-0.032063 0.029338,-0.2111314 0.0296,-0.4155307 l 1.818e-4,-0.1437439 -0.050183,-0.047867 c -0.027601,-0.026327 -0.066829,-0.056358 -0.08717,-0.066737 -0.04037,-0.020595 -0.042141,-0.03282 -0.00758,-0.052307 0.02127,-0.011998 0.023617,-0.011361 0.041247,0.011043 0.021528,0.027368 0.1380586,0.1177926 0.1790389,0.1389304 0.01977,0.010195 0.049567,0.014208 0.1039258,0.013989 0.081897,-3.299e-4 0.1098225,-0.00973 0.1266046,-0.042649 0.025774,-0.050542 0.029168,-0.024475 0.033389,0.2565089 0.00186,0.1233685 -0.081122,0.1942562 -0.1722327,0.1471411 -0.017041,-0.00882 -0.028231,-0.010659 -0.030127,-0.00497 -0.00715,0.021454 0.00997,0.1727391 0.022224,0.1964473 0.015421,0.02982 0.023672,0.033971 0.083254,0.041875 0.027442,0.00365 0.043407,0.01 0.043407,0.017269 0,0.00925 -0.039108,0.011441 -0.1991087,0.011176 C 3.9309974,1.9271901 3.8393503,1.923735 3.8368458,1.919675 Z M 4.2204203,1.6291198 c 0.030229,-0.021173 0.045197,-0.059033 0.044989,-0.1137956 -3.516e-4,-0.092952 -0.055544,-0.1671436 -0.1243429,-0.1671436 -0.042461,0 -0.070213,0.019578 -0.086913,0.061314 -0.019188,0.047956 -0.016998,0.091513 0.00721,0.1435213 0.034706,0.074536 0.1099099,0.1105225 0.1590488,0.076103 z M 0.44979647,1.9103451 C 0.35282932,1.8990236 0.29418569,1.872898 0.241344,1.8174624 0.16865974,1.7412107 0.16628275,1.7328243 0.16217175,1.5381782 0.15872492,1.3751558 0.15788973,1.3684601 0.14008688,1.3606391 c -0.0140034,-0.00615 -0.0191577,-0.017157 -0.0211847,-0.045246 -0.003261,-0.045225 0.0185108,-0.084246 0.0705022,-0.1263487 0.0640235,-0.051847 0.0884044,-0.060252 0.15776027,-0.05439 0.0340334,0.00288 0.0739357,0.00178 0.0886696,-0.00245 0.0675379,-0.01937 0.13965993,0.016952 0.16154568,0.081358 0.0140312,0.041292 0.006735,0.065767 -0.0241516,0.080967 l -0.0229559,0.011295 v 0.1324217 c 0,0.1151399 0.001975,0.1342044 0.0151554,0.14608 0.0219483,0.01978 0.0626646,0.028651 0.0632532,0.013782 0.003341,-0.084304 -0.003142,-0.3857607 -0.008604,-0.4001142 -0.00399,-0.010486 -0.0213252,-0.035919 -0.0385275,-0.056508 -0.0172023,-0.020589 -0.031276,-0.042901 -0.031276,-0.049583 0,-0.00668 0.0139862,-0.027626 0.0310784,-0.046547 0.0482874,-0.05345 0.0520868,-0.0795 0.050553,-0.34670828 l -0.001365,-0.238162 -0.0993746,-0.00243 -0.099376,-0.00243 -0.0505265,0.039236 c -0.0601696,0.046723 -0.0883408,0.049813 -0.14126987,0.015493 -0.06705,-0.043476 -0.0910744,-0.1429057 -0.0541669,-0.2241813 0.0190808,-0.042018 0.10512685,-0.1172106 0.15384057,-0.1344345 0.0485949,-0.017182 0.64321077,-0.01701 0.66394547,1.93e-4 0.012899,0.010698 0.014331,0.047305 0.014375,0.3680686 0,0.2243825 0.00345,0.3684271 0.00924,0.3892724 0.00505,0.018199 0.022569,0.0479 0.038924,0.066003 0.035997,0.039844 0.036788,0.052173 0.00571,0.088971 -0.013217,0.015646 -0.029779,0.035856 -0.036807,0.044911 -0.01034,0.01333 -0.013602,0.064417 -0.017108,0.2684735 l -0.00434,0.2520104 -0.0240946,0.049066 C 0.96358083,1.7315125 0.87966518,1.81688 0.81069341,1.8606206 c -0.0855621,0.054261 -0.1939929,0.0692 -0.36089601,0.049722 z M 0.77841243,1.7896545 c 0.10095089,-0.031181 0.17119096,-0.1021082 0.18749935,-0.1893373 0.004799,-0.025658 0.008723,-0.1390687 0.008723,-0.2520255 0,-0.2216974 0.003328,-0.2435763 0.0452885,-0.2973622 l 0.025826,-0.033108 -0.017699,-0.018854 c -0.00973,-0.010367 -0.02565,-0.036392 -0.0353669,-0.057826 -0.0168801,-0.037235 -0.0176768,-0.055302 -0.0178571,-0.4052932 l -1.9209e-4,-0.366322 -0.30095015,0.00259 c -0.33215559,0.00285 -0.34207436,0.00441 -0.37008737,0.058592 -0.0281195,0.054378 -0.007556,0.1490455 0.0382492,0.1761047 0.0401449,0.023714 0.0583985,0.019358 0.0649382,-0.015497 0.003115,-0.016614 0.0130317,-0.03415 0.0220464,-0.038972 0.009267,-0.00496 0.0824322,-0.00876 0.16850615,-0.00876 h 0.1521267 l 0.002121,0.2013552 c 0.003593,0.3411826 9.7426e-4,0.3683518 -0.0414984,0.4314665 l -0.0296984,0.044119 0.0225608,0.029579 c 0.0424132,0.055605 0.0457261,0.078293 0.0461331,0.3159535 l 3.81e-4,0.2213859 -0.0262714,0.02517 c -0.0227358,0.021781 -0.0341024,0.025559 -0.0844393,0.028062 -0.0668446,0.00333 -0.10783924,-0.015271 -0.12454043,-0.056491 -0.009903,-0.024441 -0.0118915,-0.2769749 -0.002413,-0.3068281 0.002744,-0.00866 0.0144753,-0.018109 0.026066,-0.021018 0.0354241,-0.0089 0.0225277,-0.05388 -0.0220557,-0.076936 -0.0350834,-0.018142 -0.0716409,-0.016337 -0.0986004,0.00487 l -0.0228193,0.01795 -0.0228193,-0.01795 C 0.32155829,1.144933 0.22984014,1.180582 0.22984014,1.239367 c 0,0.00746 0.005568,0.013561 0.0123688,0.013561 0.006801,0 0.0184962,0.00612 0.0259811,0.01361 0.0113215,0.011322 0.0136441,0.039271 0.0138204,0.1667134 2.3385e-4,0.1675513 0.007225,0.2147121 0.0389915,0.263046 0.0330524,0.050285 0.1210366,0.09558 0.21627968,0.111343 0.0635409,0.010513 0.17604594,0.00213 0.24113049,-0.017974 z M 0.38999697,1.4669668 c -0.006191,-0.1155124 -0.002718,-0.1620876 0.0120771,-0.1620876 0.004043,0 0.009784,0.014614 0.01274,0.032477 0.00643,0.038828 -0.002665,0.2178065 -0.0119578,0.2353544 -0.003593,0.00679 -0.009386,-0.040793 -0.0128593,-0.1057438 z m 0.46961498,0.055318 c -0.00342,-0.030469 -0.006231,-0.1152327 -0.006231,-0.1883645 0,-0.1124182 0.002002,-0.1329665 0.0129919,-0.1329665 0.0110564,0 0.0128726,0.021555 0.0122362,0.1450624 -4.1574e-4,0.079785 -0.00346,0.1645483 -0.006761,0.1883645 l -0.006005,0.043303 z m -0.004375,-0.4514217 c -0.004719,-0.012011 -0.018756,-0.027282 -0.0311964,-0.033939 -0.0276594,-0.014803 -0.0281858,-0.019944 -0.003168,-0.030941 0.0106984,-0.00471 0.02502,-0.020241 0.0318328,-0.034531 l 0.0123821,-0.025981 0.0114938,0.028146 c 0.006324,0.01548 0.0144051,0.028206 0.0179646,0.028279 0.003553,6.93e-5 0.0116927,0.00345 0.0180746,0.00749 0.009161,0.00581 0.007331,0.011812 -0.008657,0.028523 -0.0111492,0.01164 -0.0247376,0.028733 -0.0302061,0.03798 -0.009519,0.01609 -0.010314,0.015875 -0.0185174,-0.00502 z m -0.001856,-0.33186608 c 0,-0.1719001 0.010314,-0.3781045 0.0186593,-0.3729485 0.008392,0.00518 0.0101018,0.4204312 0.001909,0.4614236 -0.0117988,0.059019 -0.0205683,0.021319 -0.0205683,-0.0884751 z M 4.6430788,1.8690301 c -0.00383,-0.0062 6.409e-4,-0.00989 0.011998,-0.00989 0.00996,0 0.031395,-0.00555 0.047634,-0.012329 0.050019,-0.0209 0.050861,-0.03109 0.044733,-0.5419324 l -0.00545,-0.45467298 0.021285,0.025981 c 0.044711,0.054574 0.045428,0.059594 0.05628,0.39404998 0.012223,0.3766988 0.02071,0.5074069 0.034937,0.5381572 0.012992,0.028085 0.041951,0.042092 0.087019,0.042092 0.018829,0 0.034234,0.0039 0.034234,0.00866 0,0.00514 -0.032506,0.00868 -0.080109,0.00871 -0.04406,2.6e-5 -0.1175368,0.00252 -0.1632813,0.00555 -0.058336,0.00386 -0.084996,0.00256 -0.089281,-0.00437 z M 4.2959116,1.2326792 C 4.2505691,1.2177832 4.2334206,1.2084668 4.1372654,1.1464932 3.9915424,1.0525717 3.8604796,1.0461627 3.7645583,1.1282676 l -0.036951,0.031629 -0.083916,-0.01996 C 3.5975366,1.128958 3.5344427,1.1106384 3.5034816,1.0992258 3.4036795,1.0624377 3.3614815,1.046675 3.3172822,1.0296722 3.1712732,0.97350432 2.8657658,0.85816482 2.8117879,0.83883052 c -0.056122,-0.020102 -0.08061,-0.037619 -0.068924,-0.049305 0.002,-0.002 0.069711,0.00941 0.1504629,0.025366 0.080751,0.015954 0.1620672,0.031695 0.180701,0.034981 l 0.033878,0.00598 -0.00578,-0.2249856 c -0.00318,-0.1237423 -0.00814,-0.2367859 -0.01103,-0.2512085 -0.0079,-0.039489 -0.032232,-0.059647 -0.085302,-0.070664 -0.045482,-0.00944 -0.065348,-0.02551 -0.032767,-0.026503 0.090931,-0.00277 0.3683181,9.317e-4 0.3749095,0.00501 0.014819,0.00916 -2.77e-4,0.021438 -0.026355,0.021438 -0.013742,0 -0.035147,0.00876 -0.047564,0.019487 -0.03227,0.027852 -0.039808,0.098762 -0.037008,0.3481158 l 0.00233,0.2072199 0.1645482,0.032535 c 0.090502,0.017894 0.2113148,0.0465 0.2684737,0.063569 0.1077729,0.032183 0.2078531,0.041464 0.25545,0.023692 0.017395,-0.0065 0.027059,-0.00392 0.049473,0.013178 0.030017,0.022895 0.083018,0.03393 0.1192668,0.024833 0.012382,-0.00312 0.046088,-0.027316 0.074887,-0.053793 0.053821,-0.049481 0.1094328,-0.080737 0.1442387,-0.081072 0.029153,-2.806e-4 0.072525,0.020049 0.097151,0.045537 0.011905,0.012329 0.037421,0.052852 0.056695,0.09006 0.050078,0.096677 0.076585,0.097214 0.1539929,0.00312 0.052841,-0.064233 0.066446,-0.072886 0.066446,-0.042262 0,0.048448 -0.1229629,0.1662792 -0.2209182,0.2116977 -0.054754,0.025389 -0.1273774,0.032871 -0.1731318,0.01784 z m 0.090935,-0.047815 c 0.031565,-0.023167 0.04303,-0.051327 0.043174,-0.1060403 1.559e-4,-0.058774 -0.023458,-0.099711 -0.070953,-0.12300918 -0.099458,-0.048788 -0.197613,0.067033 -0.1511022,0.17829998 0.028024,0.067042 0.1208139,0.093367 0.1788812,0.05075 z M 3.5766048,1.0604599 c 0.017881,-0.025529 0.017001,-0.043828 -0.0033,-0.068563 -0.013643,-0.016626 -0.019712,-0.018659 -0.032477,-0.010884 -0.026096,0.015889 -0.033801,0.050634 -0.016933,0.076376 0.017955,0.027405 0.034971,0.028397 0.052707,0.00308 z m 0.4681513,-0.070698 c -0.014291,-0.00623 -0.031332,-0.017768 -0.037867,-0.025643 -0.00654,-0.00787 -0.02069,-0.014318 -0.031456,-0.014318 h -0.019574 l -0.00366,-0.2836293 c -0.00312,-0.2420237 -0.00575,-0.2875792 -0.01793,-0.310556 -0.014782,-0.02788 -0.044333,-0.044159 -0.08804,-0.048502 -0.026281,-0.00261 -0.04009,-0.019612 -0.02052,-0.025264 0.00615,-0.00178 0.094259,-0.00204 0.1957839,-5.76e-4 0.1378673,0.00199 0.1837235,0.00526 0.1811583,0.012965 -0.00188,0.00566 -0.016887,0.012488 -0.033329,0.015162 -0.076044,0.0123556 -0.077923,0.0210666 -0.083528,0.3869311 -0.00257,0.1679904 -0.00701,0.3052848 -0.00986,0.3050982 -0.00285,-1.862e-4 -0.016885,-0.00544 -0.031176,-0.011666 z"
       id="path828"
       sodipodi:nodetypes="cscscccsccsssccssssscccssssssccssccsscsscssccsssccsccccssssscsssscccscsscccssssccccccccssssscssccccsssscscssssscccscccsssssccccccccscssccccscccsccccsccsscccccccsccccsccccccsccccsssccccscscsscsccsccssscccccsssscccsccccssccccscccsccccsccscsccsccscsccsccsssscccccccccccscccccsccccccccccsscssccccsscssscsscsscsssssscccccscscccsssccsscssssccsssssscccsscsscccssccccsccs" />
    <path
       d="M 6.7520468,1.910471 C 6.7408378,1.89975 6.7376958,1.7223821 6.7376958,1.0975798 c 0,-0.6820833 0.00242,-0.80107959 0.016512,-0.81213535 0.011978,-0.009394 0.083679,-0.0119862 0.2613496,-0.009469 l 0.2448393,0.003482 0.076548,0.0356506 c 0.085033,0.0396021 0.1552109,0.10641564 0.1952696,0.18591137 0.020634,0.0409473 0.025081,0.0695063 0.02546,0.16350602 4.137e-4,0.10289855 -0.0026,0.11978335 -0.031236,0.17490302 -0.028679,0.0552043 -0.099075,0.12702489 -0.1689575,0.17238024 -0.025081,0.016272 -0.024667,0.016891 0.039616,0.058743 0.075016,0.04884 0.1442011,0.1344736 0.1792026,0.2218088 0.031815,0.07939 0.035114,0.2106248 0.00745,0.2959355 C 7.5408174,1.7206303 7.4238077,1.841262 7.2884882,1.892698 7.2322252,1.914084 7.2004752,1.917093 6.9958834,1.920432 6.8218181,1.923272 6.7629253,1.9208628 6.7520468,1.910472 Z M 7.277014,1.8073857 C 7.366327,1.7674167 7.4389754,1.7004453 7.481212,1.61915 7.508666,1.566308 7.512242,1.546908 7.512221,1.4509483 7.512221,1.3500987 7.509621,1.3378281 7.475608,1.2762679 7.454841,1.2386899 7.413676,1.1885169 7.380411,1.1602445 7.291903,1.0850195 7.2319452,1.0683255 7.0212884,1.0602485 c -0.097851,-0.00376 -0.1804944,-0.00281 -0.1836532,0.0021 -0.00485,0.00754 -0.014034,0.7499625 -0.00962,0.7776364 8.273e-4,0.00519 0.085408,0.00748 0.1879624,0.00509 0.1798634,-0.00417 0.1891043,-0.00551 0.2610492,-0.037703 z M 7.2720984,0.96093455 C 7.3581079,0.93330039 7.4395734,0.84925853 7.4657119,0.76119522 7.4898963,0.67972383 7.4835405,0.59633946 7.4478263,0.52647993 7.4160499,0.46432403 7.3248625,0.38868881 7.2632755,0.37340468 c -0.076443,-0.0189703 -0.4217739,-0.0270349 -0.427608,-0.00998 -0.007,0.0204417 -0.014719,0.60399287 -0.00806,0.61027127 0.00314,0.00297 0.091725,0.00541 0.1968379,0.00541 0.148598,0 0.2036942,-0.00403 0.2476626,-0.018169 z M 7.7696133,1.8875411 C 7.6851488,1.8261346 7.6561574,1.7342865 7.694124,1.6483887 7.715072,1.6009977 7.783949,1.5458019 7.8329942,1.5371047 c 0.033977,-0.00602 0.040972,-0.012337 0.045718,-0.041212 0.00307,-0.018752 0.016212,-0.102434 0.029186,-0.1859554 0.012958,-0.083522 0.028645,-0.1811449 0.034832,-0.2169401 0.00619,-0.035796 0.029667,-0.18222994 0.052181,-0.32541048 0.053826,-0.34233393 0.069338,-0.4274449 0.084849,-0.46558865 0.011342,-0.0279015 0.014912,-0.0297927 0.029768,-0.0157574 0.023929,0.0226198 0.038933,0.0995007 0.1373053,0.70354808 0.048079,0.29522045 0.088353,0.53721565 0.089501,0.53776675 0.00115,5.501e-4 0.019077,0.0074 0.039847,0.015226 0.1593899,0.060016 0.1875999,0.2464865 0.052071,0.3442043 -0.036528,0.026336 -0.052456,0.03039 -0.1194315,0.03039 -0.069046,0 -0.081983,-0.00356 -0.1213778,-0.033313 -0.024252,-0.018322 -0.052679,-0.049215 -0.063173,-0.068651 -0.026535,-0.049159 -0.030465,-0.051092 -0.042584,-0.020958 -0.031382,0.078024 -0.11313,0.1283451 -0.2085034,0.1283451 -0.044545,0 -0.064353,-0.00674 -0.1035704,-0.035252 z m 0.182738,-0.056134 c 0.036435,-0.017812 0.059037,-0.058041 0.059037,-0.1050843 0,-0.072157 -0.049325,-0.1174975 -0.128208,-0.1178532 -0.044761,-1.989e-4 -0.059456,0.00529 -0.08893,0.033133 -0.029654,0.02803 -0.035306,0.041741 -0.035306,0.08563 0,0.042691 0.00609,0.058418 0.033291,0.085941 0.026894,0.027216 0.042437,0.033688 0.080894,0.033688 0.026181,0 0.061832,-0.00695 0.079223,-0.015458 z m 0.4445929,-0.021422 c 0.053359,-0.05044 0.054564,-0.1083282 0.00341,-0.163413 -0.031403,-0.033809 -0.042071,-0.038342 -0.090249,-0.038342 -0.066546,0 -0.1095632,0.028108 -0.1252586,0.081847 -0.024957,0.085438 0.030498,0.156788 0.1218588,0.156788 0.042967,0 0.057531,-0.00595 0.090251,-0.036879 z m -0.218618,-0.237413 c 0.031812,-0.025867 0.031839,-0.026 0.01809,-0.095458 -0.028162,-0.1422802 -0.020346,-0.129211 -0.077282,-0.129211 h -0.051084 l 0.00268,-0.037582 c 0.00285,-0.039972 -0.00778,-0.059757 -0.023109,-0.043048 -0.00511,0.00556 -0.018523,0.072771 -0.029806,0.1493409 l -0.020514,0.1392175 0.033927,0.034336 c 0.018659,0.018884 0.040809,0.050836 0.049221,0.071003 l 0.015299,0.036666 0.025365,-0.04968 c 0.013947,-0.027324 0.039698,-0.061338 0.057221,-0.075583 z M 8.1444084,1.2123146 c 0.017407,-0.02512 0.017407,-0.029115 0,-0.054236 -0.03272,-0.047206 -0.1085748,-0.027116 -0.1096997,0.029054 -0.00103,0.051724 0.078628,0.07001 0.1096997,0.02518 z m 0.5124368,0.7034966 c -0.020476,-0.0081 -0.021039,-1.60940063 -5.749e-4,-1.62874692 0.020215,-0.0191091 0.3979737,-0.0174295 0.475624,0.002104 0.3746752,0.0943029 0.5029128,0.53006604 0.2311933,0.78561592 -0.056155,0.052813 -0.175697,0.1212487 -0.2117953,0.1212487 -0.00847,0 -0.015387,0.00673 -0.015387,0.014927 0,0.0082 0.080274,0.1581144 0.1783869,0.3331216 0.18558,0.3310291 0.2018467,0.3732795 0.1437075,0.3732795 -0.032672,0 -0.041519,-0.013083 -0.190568,-0.2820227 C 9.2112305,1.5339284 9.1366957,1.3996968 9.1018096,1.3370555 L 9.0383791,1.2231612 H 8.8834704 8.7285612 l -0.00575,0.3471045 c -0.00556,0.337194 -0.0064,0.3471633 -0.028687,0.3491606 -0.012627,0.00113 -0.029403,-4.971e-4 -0.037292,-0.00362 z M 9.1739305,1.1061683 c 0.090649,-0.03923 0.170155,-0.11317155 0.2097022,-0.19502828 0.028044,-0.0580449 0.032725,-0.08145 0.033043,-0.16524621 3.155e-4,-0.083489 -0.00405,-0.10653713 -0.030157,-0.15918215 C 9.3231008,0.45883353 9.2065011,0.37816223 9.0591291,0.36020593 c -0.1174308,-0.0143133 -0.3061744,-0.0126688 -0.322534,0.002793 -0.010176,0.009619 -0.013772,0.10875527 -0.013772,0.37875841 0,0.2011583 0.00341,0.37412336 0.00755,0.38436716 0.00684,0.016853 0.025234,0.018118 0.19329,0.0133 0.1684814,-0.00483 0.1917239,-0.00792 0.250254,-0.03325 z M 9.6792769,1.9100087 C 9.6657517,1.890197 9.6625029,0.32949878 9.675938,0.29769457 l 0.010626,-0.0251648 0.2499487,0.003469 0.2499483,0.003469 0.07569,0.0352523 c 0.08971,0.0417827 0.1608,0.1104073 0.201571,0.19459193 0.03806,0.0785943 0.04273,0.20951835 0.01036,0.29081258 -0.02918,0.0732851 -0.09717,0.15685447 -0.15444,0.18982297 -0.04288,0.0246851 -0.06319,0.0542359 -0.03728,0.0542359 0.0057,0 0.03712,0.019928 0.06971,0.044286 0.174041,0.1300457 0.232783,0.3697138 0.137081,0.5592816 -0.04974,0.098533 -0.145364,0.1889161 -0.248428,0.2348236 l -0.07781,0.034662 -0.2369186,0.00356 c -0.1869756,0.00281 -0.238981,5.302e-4 -0.2467059,-0.010771 z m 0.5028521,-0.09131 c 0.135058,-0.05225 0.222596,-0.1473565 0.257291,-0.2795391 0.04678,-0.1782225 -0.04876,-0.361884 -0.229952,-0.4420355 -0.07048,-0.031175 -0.07875,-0.032269 -0.2604852,-0.034433 l -0.1876974,-0.00224 -0.00302,0.3944811 -0.00302,0.3944811 0.1866082,-0.00498 c 0.1487144,-0.00397 0.1975044,-0.00919 0.2402614,-0.025738 z m 0.05116,-0.86900715 c 0.06118,-0.03093 0.113594,-0.0808726 0.144054,-0.13725808 0.02983,-0.0552193 0.04059,-0.17326541 0.02162,-0.2372453 C 10.379638,0.51000344 10.316335,0.43235913 10.254649,0.39818799 10.195725,0.36554425 10.108683,0.3554008 9.8875074,0.3554008 H 9.7612855 l -0.00303,0.31269921 -0.00303,0.31269914 0.2153277,-0.00356 c 0.1961168,-0.00324 0.2195618,-0.0057 0.2627718,-0.027546 z m 0.519334,0.95686605 c -0.0708,-0.036377 -0.06762,0.00159 -0.06762,-0.807914 V 0.3605054 l 0.03927,-0.0405177 0.03927,-0.0405177 h 0.296197 c 0.271683,0 0.296518,0.001553 0.300034,0.0187672 0.0036,0.0172604 -0.01628,0.0190039 -0.246536,0.0216929 l -0.250372,0.002918 v 0.0271174 0.0271174 l 0.240636,0.002943 c 0.232621,0.002843 0.288017,0.0107588 0.246942,0.0353099 -0.0094,0.005624 -0.124254,0.0103079 -0.255217,0.0103956 l -0.238098,1.6583e-4 v 0.0262131 c 0,0.0338332 0.01198,0.0371761 0.10977,0.0306244 0.129647,-0.00868 0.395116,0.007753 0.395116,0.0244659 0,0.0241591 -0.03005,0.0271675 -0.271356,0.0271675 h -0.235054 l 0.0036,0.029829 0.0036,0.029829 0.249574,0.002918 c 0.200848,0.002355 0.249575,0.005799 0.249575,0.0176274 0,0.0228916 -0.05477,0.0282622 -0.288302,0.0282622 h -0.216584 v 0.0271174 0.0271174 h 0.199204 c 0.228632,0 0.305682,0.007152 0.305682,0.0283849 0,0.0234852 -0.03885,0.0268043 -0.275393,0.0235263 l -0.223756,-0.003106 -0.0039,0.0258912 c -0.0021,0.0142457 0.003,0.0300282 0.01147,0.0350857 0.0085,0.00506 0.122492,0.009268 0.253446,0.009369 0.203917,1.3251e-4 0.2381,0.002505 0.2381,0.0164375 0,0.0199319 0.01245,0.0187183 -0.223756,0.0217631 -0.298303,0.003858 -0.28113,0.002179 -0.28113,0.027388 0,0.012124 0.0065,0.0240714 0.01435,0.0265601 0.01118,0.003532 0.307014,0.013781 0.464724,0.0161056 0.01497,2.3196e-4 0.02582,0.007127 0.02582,0.0164375 0,0.0135982 -0.03824,0.0165039 -0.249574,0.0189813 l -0.249574,0.00292 -0.0036,0.029451 c -0.005,0.040769 0.01756,0.04431 0.233798,0.03672 0.196876,-0.0069 0.268943,-0.00107 0.268943,0.021779 0,0.011786 -0.04898,0.015243 -0.249575,0.017595 l -0.249573,0.00292 v 0.027117 0.027118 l 0.246705,0.00544 c 0.209093,0.0046 0.246706,0.0079 0.246706,0.021696 0,0.013799 -0.03762,0.017098 -0.246706,0.021693 l -0.246705,0.00542 -0.0036,0.029615 -0.0036,0.029615 0.250164,0.00292 c 0.226599,0.00266 0.250523,0.0047 0.253981,0.021693 0.0034,0.01726 -0.01632,0.019004 -0.246556,0.021695 l -0.250371,0.00292 v 0.027117 0.027117 l 0.250371,0.00292 c 0.230236,0.00269 0.250067,0.00443 0.246561,0.021693 -0.0034,0.016895 -0.02842,0.019311 -0.250371,0.024192 l -0.246561,0.00544 v 0.027117 0.027117 l 0.246705,0.00544 c 0.209094,0.0046 0.246705,0.0079 0.246705,0.021693 0,0.013781 -0.03759,0.017098 -0.24656,0.021693 -0.229728,0.00505 -0.246845,0.00681 -0.250703,0.025817 -0.0023,0.011222 0.0028,0.024566 0.01133,0.029664 0.0085,0.0051 0.122618,0.00934 0.253572,0.00943 0.203917,1.325e-4 0.238099,0.0025 0.238099,0.016438 0,0.00896 -0.0013,0.017245 -0.0029,0.018438 -0.0016,0.00119 -0.113893,0.00485 -0.249573,0.00814 l -0.246706,0.00596 v 0.027117 0.027117 l 0.249574,0.00292 c 0.202477,0.00238 0.249574,0.00572 0.249574,0.017822 0,0.025142 -0.0282,0.028065 -0.270593,0.028065 h -0.234194 v 0.025655 0.025667 l 0.24134,0.00506 c 0.150475,0.00316 0.246008,0.00947 0.253738,0.016776 0.03161,0.029884 -0.0066,0.035304 -0.24905,0.035304 h -0.246028 v 0.027117 0.027117 h 0.216584 c 0.234035,0 0.288301,0.00536 0.288301,0.028473 0,0.022222 -0.565951,0.020993 -0.609382,-0.00133 z m 0.800628,0.00901 c -0.0042,-0.00398 -0.0077,-0.3724115 -0.0077,-0.818743 V 0.28530805 l 0.02743,-0.006513 c 0.01509,-0.003582 0.122227,-0.004697 0.238099,-0.002492 0.242246,0.004622 0.29824,0.018454 0.403945,0.0998752 0.140546,0.10825804 0.197396,0.22876207 0.188813,0.40022904 -0.0042,0.0859188 -0.0102,0.10923497 -0.0426,0.16919227 -0.06552,0.12115344 -0.178853,0.21303484 -0.314023,0.25458584 -0.0243,0.00748 -0.04331,-0.030895 0.186116,0.3755063 0.16677,0.2954075 0.182944,0.3379962 0.131024,0.3449944 -0.03171,0.00427 -0.04688,-0.016802 -0.16241,-0.2256852 -0.05114,-0.092471 -0.13129,-0.2364651 -0.178104,-0.319987 l -0.0851,-0.1518519 h -0.153559 -0.153557 l -0.003,0.3353381 c -0.002,0.2253448 -0.0072,0.3400873 -0.01575,0.3498164 -0.01346,0.015325 -0.0468,0.019377 -0.05962,0.00724 z m 0.434885,-0.7855398 c 0.133045,-0.023029 0.241778,-0.1042112 0.301299,-0.22494846 0.02569,-0.0521107 0.03037,-0.0765778 0.03053,-0.15940966 1.75e-4,-0.0888822 -0.0033,-0.10448933 -0.03754,-0.1702696 -0.088,-0.16900297 -0.230384,-0.23025997 -0.518804,-0.22322053 l -0.131966,0.003219 -0.003,0.37958391 c -0.0017,0.208771 -5.3e-4,0.38571304 0.0025,0.39320434 0.0072,0.017476 0.25915,0.018771 0.356988,0.00183 z"
       style="fill:#ffffff;stroke-width:0.000295181"
       id="path140" />
  </g>
</svg>
