<?xml version="1.0" encoding="UTF-8" standalone="no"?>
<svg
   width="538.60822"
   height="240.54088"
   viewBox="0 0 538.60821 240.54089"
   version="1.1"
   id="svg78"
   sodipodi:docname="text_logo.svg"
   inkscape:version="1.2.2 (b0a8486541, 2022-12-01)"
   xmlns:inkscape="http://www.inkscape.org/namespaces/inkscape"
   xmlns:sodipodi="http://sodipodi.sourceforge.net/DTD/sodipodi-0.dtd"
   xmlns="http://www.w3.org/2000/svg"
   xmlns:svg="http://www.w3.org/2000/svg">
  <defs
     id="defs82" />
  <sodipodi:namedview
     id="namedview80"
     pagecolor="#ffffff"
     bordercolor="#666666"
     borderopacity="1.0"
     inkscape:showpageshadow="2"
     inkscape:pageopacity="0.0"
     inkscape:pagecheckerboard="0"
     inkscape:deskcolor="#d1d1d1"
     showgrid="false"
     inkscape:zoom="1.165713"
     inkscape:cx="224.32623"
     inkscape:cy="70.343217"
     inkscape:window-width="1366"
     inkscape:window-height="687"
     inkscape:window-x="0"
     inkscape:window-y="0"
     inkscape:window-maximized="1"
     inkscape:current-layer="svg78" />
  <path
     d="m 317.8934,127.76344 c 0.586,0.26067 0.87067,0.65133 0.854,1.172 -0.016,0.52067 -0.23567,1.123 -0.659,1.807 -0.42333,0.68333 -1.01733,1.40767 -1.782,2.173 -0.76533,0.76467 -1.60367,1.53767 -2.515,2.319 -0.74867,0.61867 -1.61133,1.286 -2.588,2.002 -0.846,0.65067 -1.87933,1.39133 -3.1,2.222 -1.22067,0.83 -2.61233,1.73333 -4.175,2.71 0.87867,-0.814 1.497,-1.54667 1.855,-2.198 0.358,-0.65067 0.537,-1.25267 0.537,-1.806 0,-0.74867 -0.29267,-1.4 -0.878,-1.954 -0.586,-0.55333 -1.335,-1.017 -2.247,-1.391 -0.91133,-0.37467 -1.92833,-0.67567 -3.051,-0.903 -1.12333,-0.228 -2.214,-0.399 -3.272,-0.513 -1.058,-0.114 -2.02633,-0.18733 -2.905,-0.22 -0.87867,-0.0327 -1.52967,-0.049 -1.953,-0.049 -1.72533,0 -3.467,0.171 -5.225,0.513 -1.758,0.342 -3.33667,0.91167 -4.736,1.709 -1.4,0.79733 -2.53933,1.85533 -3.418,3.174 -0.87867,1.318 -1.318,2.95367 -1.318,4.907 0,2.21333 0.61833,4.10967 1.855,5.689 1.23667,1.57867 2.86433,2.954 4.883,4.126 2.018,1.17133 4.30467,2.19667 6.86,3.076 2.55533,0.87867 5.14333,1.71667 7.764,2.514 2.62067,0.798 5.15967,1.60367 7.617,2.417 2.458,0.814 4.59833,1.742 6.421,2.784 2.40867,1.432 4.142,3.1 5.2,5.004 1.058,1.90467 1.587,3.915 1.587,6.031 0,2.734 -0.72433,5.33 -2.173,7.788 -1.44867,2.45733 -3.33667,4.744 -5.664,6.86 -2.32733,2.116 -4.972,4.02033 -7.934,5.713 -2.96267,1.69267 -5.95767,3.14133 -8.985,4.346 -3.02733,1.204 -5.957,2.13167 -8.789,2.783 -2.832,0.65067 -5.28967,0.976 -7.373,0.976 -2.702,0 -5.07833,-0.26833 -7.129,-0.805 -2.05067,-0.53733 -3.75967,-1.18033 -5.127,-1.929 -1.36733,-0.74867 -2.38467,-1.52167 -3.052,-2.319 -0.66733,-0.798 -0.952,-1.441 -0.854,-1.929 0.0653,-0.586 0.36633,-1.229 0.903,-1.929 0.53733,-0.69933 1.343,-1.456 2.417,-2.27 1.07467,-0.814 2.42567,-1.70933 4.053,-2.686 1.62733,-0.97667 3.59667,-2.05067 5.908,-3.222 -0.944,0.91133 -1.367,1.75767 -1.269,2.539 0.0973,0.78133 0.561,1.481 1.391,2.099 0.83,0.61867 1.92067,1.164 3.272,1.636 1.35067,0.472 2.783,0.86267 4.297,1.172 1.51333,0.30933 3.035,0.54533 4.565,0.708 1.53,0.16267 2.881,0.244 4.053,0.244 1.98533,0 3.96267,-0.21167 5.932,-0.635 1.97,-0.42267 3.74433,-1.098 5.323,-2.026 1.57867,-0.928 2.86433,-2.14867 3.857,-3.662 0.99267,-1.514 1.489,-3.345 1.489,-5.493 0,-1.27 -0.26033,-2.58033 -0.781,-3.931 -0.52067,-1.35067 -1.40767,-2.661 -2.661,-3.931 -1.25333,-1.26933 -2.938,-2.46567 -5.054,-3.589 -2.116,-1.12267 -4.75267,-2.091 -7.91,-2.905 -4.81733,-1.26933 -8.878,-2.57933 -12.182,-3.93 -3.30467,-1.35133 -5.95767,-2.8 -7.959,-4.346 -2.002,-1.54667 -3.39367,-3.23933 -4.175,-5.078 -0.78133,-1.83933 -1.07433,-3.89833 -0.879,-6.177 0.19533,-2.63667 0.99267,-5.03733 2.392,-7.202 1.4,-2.16467 3.18233,-4.10167 5.347,-5.811 2.16467,-1.70867 4.58967,-3.198 7.275,-4.468 2.686,-1.26933 5.42067,-2.319 8.204,-3.149 2.78267,-0.83 5.49233,-1.44833 8.129,-1.855 2.63733,-0.40733 4.98133,-0.611 7.032,-0.611 1.562,0 3.035,0.0653 4.419,0.196 1.38333,0.13 2.62033,0.27633 3.711,0.439 1.09,0.16267 2.00933,0.35 2.758,0.562 0.74867,0.21133 1.286,0.382 1.612,0.512 z m 112.695,25.098 c 0,1.432 -0.187,3.076 -0.561,4.932 -0.37467,1.85533 -1.05833,3.906 -2.051,6.152 -0.99333,2.246 -2.35233,4.68733 -4.077,7.324 -1.72533,2.63667 -3.95533,5.43633 -6.69,8.399 -3.48267,3.808 -7.06333,7.63267 -10.742,11.474 -3.67867,3.84133 -7.19433,7.536 -10.547,11.084 -3.35267,3.548 -6.39633,6.87633 -9.131,9.985 -2.734,3.10933 -4.89867,5.852 -6.494,8.228 -1.59533,2.376 -2.824,4.47567 -3.686,6.299 -0.86267,1.82267 -1.47333,3.40133 -1.832,4.736 -0.358,1.33467 -0.537,2.474 -0.537,3.418 0,0.944 0.0817,1.72533 0.245,2.344 0.0973,0.39067 0.10533,0.757 0.024,1.099 -0.0813,0.34133 -0.21967,0.64233 -0.415,0.903 -0.19533,0.26 -0.43967,0.46333 -0.733,0.61 -0.29267,0.14667 -0.58533,0.22 -0.878,0.22 -0.39067,0 -0.78133,-0.18733 -1.172,-0.562 -0.39067,-0.374 -0.7,-0.98433 -0.928,-1.831 -0.228,-1.00867 -0.114,-2.36767 0.342,-4.077 0.45533,-1.70867 1.17133,-3.564 2.148,-5.566 0.97667,-2.002 2.165,-4.069 3.565,-6.201 1.39933,-2.13267 2.96167,-4.159 4.687,-6.079 2.116,-2.344 4.525,-5.038 7.227,-8.082 2.70133,-3.04333 5.48433,-6.24133 8.349,-9.594 -0.358,-2.344 -0.85433,-5.03767 -1.489,-8.081 -0.63467,-3.044 -1.38333,-6.153 -2.246,-9.327 -0.86267,-3.17333 -1.85567,-6.29 -2.979,-9.35 -1.12267,-3.06 -2.36767,-5.78633 -3.735,-8.179 -1.36733,-2.39267 -2.84833,-4.32133 -4.443,-5.786 -1.59533,-1.46467 -3.30433,-2.197 -5.127,-2.197 -0.74867,0 -1.51367,0.13833 -2.295,0.415 -0.78133,0.27667 -1.579,0.64267 -2.393,1.098 0.944,-0.91133 2.01833,-1.93667 3.223,-3.076 1.20467,-1.13933 2.47433,-2.19733 3.809,-3.174 1.334,-0.976 2.70933,-1.79767 4.126,-2.465 1.416,-0.66733 2.80733,-1.001 4.174,-1.001 0.944,0 1.831,0.244 2.661,0.732 0.83067,0.48867 1.604,1.28633 2.32,2.393 0.68333,1.10667 1.63533,2.726 2.856,4.858 1.22067,2.132 2.539,4.71167 3.955,7.739 1.416,3.02733 2.816,6.46967 4.2,10.327 1.38333,3.858 2.57933,8.04933 3.588,12.574 1.758,-2.27867 3.38567,-4.51667 4.883,-6.714 1.49733,-2.19733 2.80767,-4.289 3.931,-6.275 1.12267,-1.98533 2.00167,-3.83267 2.637,-5.542 0.63467,-1.70867 0.952,-3.23033 0.952,-4.565 0,-1.20467 -0.122,-2.287 -0.366,-3.247 -0.24467,-0.96 -0.59467,-1.75767 -1.05,-2.393 -0.456,-0.63467 -1.042,-1.082 -1.758,-1.342 -0.716,-0.26067 -1.52967,-0.30967 -2.441,-0.147 0.74867,-0.91133 1.61933,-1.92033 2.612,-3.027 0.99267,-1.10667 2.05067,-2.14033 3.174,-3.101 1.12267,-0.96 2.29433,-1.75733 3.515,-2.392 1.22067,-0.63533 2.44967,-0.953 3.687,-0.953 0.87867,0 1.57833,0.24433 2.099,0.733 0.52133,0.488 0.912,1.09033 1.172,1.807 0.26067,0.716 0.43167,1.48067 0.513,2.294 0.0813,0.814 0.122,1.53033 0.122,2.149 z m -43.279,-107.515999 1.025,-30.81 c -0.0653,-1.790667 -0.39067,-3.320667 -0.976,-4.59 -0.26067,-0.5206667 -0.58633,-1.017 -0.977,-1.489 -0.39067,-0.472 -0.87067,-0.8383333 -1.44,-1.099 -0.57,-0.2606667 -1.25367,-0.407 -2.051,-0.439 -0.79733,-0.032667 -1.717,0.1136667 -2.759,0.439 1.26933,-0.586 2.62033,-1.2453333 4.053,-1.978 1.432,-0.732 2.856,-1.4153333 4.272,-2.05 1.416,-0.6346667 2.79967,-1.172 4.151,-1.612 1.35067,-0.4393334 2.59567,-0.659 3.735,-0.659 1.23667,0 2.27033,0.3256666 3.101,0.977 0.83,0.6506667 1.29367,1.6596667 1.391,3.027 0.098,0.9113333 0.155,2.1646667 0.171,3.76 0.016,1.594667 0.024,3.499 0.024,5.713 0,2.636667 -0.0243,5.574333 -0.073,8.813 -0.0487,3.239333 -0.10567,6.616667 -0.171,10.132 -0.0647,3.515333 -0.146,7.096 -0.244,10.742 -0.0973,3.646 -0.17867,7.210667 -0.244,10.694 -0.0653,3.482667 -0.12233,6.794667 -0.171,9.936 -0.0487,3.141333 -0.073,5.949 -0.073,8.423 0,1.953333 0.122,3.874 0.366,5.762 0.244,1.888 0.73233,3.580667 1.465,5.078 0.73267,1.497333 1.758,2.709667 3.076,3.637 1.31867,0.928 3.06833,1.392 5.249,1.392 0.814,0 1.66867,-0.08133 2.564,-0.244 0.89467,-0.162667 1.84667,-0.439333 2.856,-0.83 -4.39467,2.994667 -8.138,5.143 -11.23,6.445 -3.09267,1.302 -5.71333,1.953 -7.862,1.953 -0.87867,0 -1.782,-0.138333 -2.71,-0.415 -0.92733,-0.276667 -1.81433,-0.748667 -2.661,-1.416 -0.846,-0.667333 -1.619,-1.562333 -2.319,-2.685 -0.7,-1.123333 -1.24533,-2.547667 -1.636,-4.273 -1.59467,1.172 -3.36067,2.327667 -5.298,3.467 -1.93667,1.139333 -3.93033,2.164667 -5.981,3.076 -2.05067,0.911333 -4.10967,1.643667 -6.177,2.197 -2.06733,0.554 -4.045,0.831 -5.933,0.831 -3.19,0 -6.05433,-0.643 -8.593,-1.929 -2.53933,-1.286 -4.696,-2.987 -6.47,-5.103 -1.774,-2.116 -3.14133,-4.524667 -4.102,-7.226 -0.96,-2.702 -1.44,-5.485333 -1.44,-8.35 0,-3.19 0.49633,-6.046333 1.489,-8.569 0.99267,-2.522667 2.34367,-4.768667 4.053,-6.738 1.70867,-1.97 3.68633,-3.711667 5.933,-5.225 2.246,-1.514 4.63833,-2.840667 7.177,-3.98 2.53933,-1.139333 5.14367,-2.140333 7.813,-3.003 2.66933,-0.862 5.257,-1.651333 7.763,-2.368 0.228,-0.03267 0.505,-0.065 0.831,-0.097 0.26,-0.03267 0.57733,-0.05733 0.952,-0.074 0.374,-0.016 0.80533,-0.024 1.294,-0.024 0.91133,0 1.94467,0.057 3.1,0.171 1.156,0.114 2.385,0.317333 3.687,0.61 z m -242.627,14.6 35.791,-11.67 c -3.74333,1.822667 -7.21833,3.442 -10.425,4.858 -3.20667,1.416 -6.03067,2.612333 -8.472,3.589 -2.832,1.139333 -5.436,2.148667 -7.812,3.028 -1.46467,0.618 -3.08433,1.244333 -4.859,1.879 -1.774,0.635333 -3.62133,1.254 -5.542,1.856 -1.92,0.602 -3.881,1.204333 -5.883,1.807 -2.002,0.602 -3.97967,1.196 -5.933,1.782 v 0.976 c 0,3.353333 0.529,6.364667 1.587,9.034 1.058,2.668667 2.531,4.939 4.419,6.811 1.888,1.872 4.15033,3.304333 6.787,4.297 2.63667,0.992667 5.55,1.489 8.74,1.489 1.66,0 3.312,-0.13 4.956,-0.39 1.644,-0.260667 3.20667,-0.610667 4.688,-1.05 1.48067,-0.439333 2.87233,-0.968333 4.175,-1.587 1.302,-0.618667 2.45733,-1.286 3.466,-2.002 -2.474,2.213333 -5.021,4.068667 -7.641,5.566 -2.62067,1.497333 -5.24133,2.71 -7.862,3.638 -2.62,0.928 -5.20767,1.603333 -7.763,2.026 -2.55533,0.423333 -5.005,0.651333 -7.349,0.684 -2.376,0.06533 -4.71167,-0.301 -7.007,-1.099 -2.29467,-0.797333 -4.386,-2.009667 -6.274,-3.637 -1.888,-1.628 -3.483,-3.654333 -4.785,-6.079 -1.302,-2.425333 -2.14833,-5.249333 -2.539,-8.472 -0.16267,-1.139333 -0.236,-2.238 -0.22,-3.296 0.016,-1.058 0.12167,-2.107667 0.317,-3.149 -1.13933,0.422667 -2.17267,0.813 -3.1,1.171 -0.928,0.358667 -1.685,0.717 -2.271,1.075 0.944,-0.651333 1.888,-1.261667 2.832,-1.831 0.944,-0.57 1.87167,-1.099 2.783,-1.587 0.554,-2.539333 1.50633,-4.964667 2.857,-7.276 1.35067,-2.311333 2.97833,-4.459667 4.883,-6.445 1.904,-1.986 4.028,-3.784667 6.372,-5.396 2.34333,-1.611333 4.77667,-2.986667 7.3,-4.126 2.52267,-1.139333 5.086,-2.018 7.69,-2.636 2.604,-0.618667 5.12667,-0.928 7.568,-0.928 1.628,0 3.00333,0.244 4.126,0.732 1.12333,0.488667 1.88033,1.351333 2.271,2.588 0.19533,1.302 -0.27667,2.702 -1.416,4.2 -0.48867,0.650667 -1.148,1.342333 -1.978,2.075 -0.83,0.732 -1.904,1.505 -3.222,2.319 -1.31867,0.814 -2.89767,1.660333 -4.737,2.539 -1.83867,0.879333 -4.01133,1.758333 -6.518,2.637 z m 167.285,0 35.791,-11.67 c -3.74333,1.822667 -7.21833,3.442 -10.425,4.858 -3.206,1.416 -6.03,2.612333 -8.472,3.589 -2.832,1.139333 -5.436,2.148667 -7.812,3.028 -1.46467,0.618 -3.084,1.244333 -4.858,1.879 -1.77467,0.635333 -3.622,1.254 -5.542,1.856 -1.92067,0.602 -3.882,1.204333 -5.884,1.807 -2.002,0.602 -3.97967,1.196 -5.933,1.782 v 0.976 c 0,3.353333 0.529,6.364667 1.587,9.034 1.058,2.668667 2.531,4.939 4.419,6.811 1.888,1.872 4.15033,3.304333 6.787,4.297 2.63667,0.992667 5.55,1.489 8.74,1.489 1.66067,0 3.31267,-0.13 4.956,-0.39 1.644,-0.260667 3.20667,-0.610667 4.688,-1.05 1.48133,-0.439333 2.873,-0.968333 4.175,-1.587 1.302,-0.618667 2.45767,-1.286 3.467,-2.002 -2.474,2.213333 -5.02133,4.068667 -7.642,5.566 -2.62067,1.497333 -5.241,2.71 -7.861,3.638 -2.62067,0.928 -5.20867,1.603333 -7.764,2.026 -2.55533,0.423333 -5.005,0.651333 -7.349,0.684 -2.376,0.06533 -4.71167,-0.301 -7.007,-1.099 -2.29467,-0.797333 -4.386,-2.009667 -6.274,-3.637 -1.888,-1.628 -3.483,-3.654333 -4.785,-6.079 -1.302,-2.425333 -2.14833,-5.249333 -2.539,-8.472 -0.16267,-1.139333 -0.236,-2.238 -0.22,-3.296 0.0167,-1.058 0.12233,-2.107667 0.317,-3.149 -1.13867,0.422667 -2.172,0.813 -3.1,1.171 -0.928,0.358667 -1.685,0.717 -2.271,1.075 0.944,-0.651333 1.888,-1.261667 2.832,-1.831 0.944,-0.57 1.872,-1.099 2.784,-1.587 0.55333,-2.539333 1.50533,-4.964667 2.856,-7.276 1.35067,-2.311333 2.97833,-4.459667 4.883,-6.445 1.904,-1.986 4.028,-3.784667 6.372,-5.396 2.344,-1.611333 4.77733,-2.986667 7.3,-4.126 2.52267,-1.139333 5.086,-2.018 7.69,-2.636 2.604,-0.618667 5.127,-0.928 7.569,-0.928 1.62733,0 3.00267,0.244 4.126,0.732 1.12267,0.488667 1.87933,1.351333 2.27,2.588 0.19533,1.302 -0.27667,2.702 -1.416,4.2 -0.488,0.650667 -1.14733,1.342333 -1.978,2.075 -0.83,0.732 -1.904,1.505 -3.222,2.319 -1.31867,0.814 -2.89733,1.660333 -4.736,2.539 -1.83933,0.879333 -4.01233,1.758333 -6.519,2.637 z m 190.643,103.999999 35.791,-11.67 c -3.744,1.82267 -7.219,3.442 -10.425,4.858 -3.20667,1.416 -6.03067,2.61233 -8.472,3.589 -2.832,1.13933 -5.436,2.14867 -7.812,3.028 -1.46533,0.618 -3.085,1.24433 -4.859,1.879 -1.774,0.63533 -3.62133,1.254 -5.542,1.856 -1.92067,0.602 -3.882,1.20433 -5.884,1.807 -2.002,0.602 -3.97933,1.196 -5.932,1.782 v 0.976 c 0,3.35333 0.529,6.36467 1.587,9.034 1.058,2.66867 2.531,4.939 4.419,6.811 1.888,1.872 4.15033,3.30433 6.787,4.297 2.63667,0.99267 5.55,1.489 8.74,1.489 1.66,0 3.312,-0.13 4.956,-0.39 1.644,-0.26067 3.20667,-0.61067 4.688,-1.05 1.48067,-0.43933 2.872,-0.96833 4.174,-1.587 1.302,-0.61867 2.45767,-1.286 3.467,-2.002 -2.474,2.21333 -5.021,4.06867 -7.641,5.566 -2.62067,1.49733 -5.24133,2.71 -7.862,3.638 -2.62,0.928 -5.20767,1.60333 -7.763,2.026 -2.55533,0.42333 -5.005,0.65133 -7.349,0.684 -2.37667,0.0653 -4.71233,-0.301 -7.007,-1.099 -2.29467,-0.79733 -4.386,-2.00967 -6.274,-3.637 -1.888,-1.628 -3.48333,-3.65433 -4.786,-6.079 -1.302,-2.42533 -2.14833,-5.24933 -2.539,-8.472 -0.16267,-1.13933 -0.23567,-2.238 -0.219,-3.296 0.016,-1.058 0.12167,-2.10767 0.317,-3.149 -1.13933,0.42267 -2.173,0.813 -3.101,1.171 -0.92733,0.35867 -1.684,0.717 -2.27,1.075 0.944,-0.65133 1.888,-1.26167 2.832,-1.831 0.944,-0.57 1.87167,-1.099 2.783,-1.587 0.55333,-2.53933 1.50567,-4.96467 2.857,-7.276 1.35067,-2.31133 2.978,-4.45967 4.882,-6.445 1.90467,-1.986 4.029,-3.78467 6.373,-5.396 2.34333,-1.61133 4.77633,-2.98667 7.299,-4.126 2.52333,-1.13933 5.087,-2.018 7.691,-2.636 2.604,-0.61867 5.12667,-0.928 7.568,-0.928 1.628,0 3.00333,0.244 4.126,0.732 1.12333,0.48867 1.88033,1.35133 2.271,2.588 0.19533,1.302 -0.27667,2.702 -1.416,4.2 -0.48867,0.65067 -1.148,1.34233 -1.978,2.075 -0.83,0.732 -1.90433,1.505 -3.223,2.319 -1.318,0.814 -2.89667,1.66033 -4.736,2.539 -1.83933,0.87933 -4.012,1.75833 -6.518,2.637 z M 220.8544,75.179441 c 0,2.246 -0.59433,4.337667 -1.783,6.275 -1.188,1.936667 -2.74233,3.718667 -4.663,5.346 -1.92067,1.628 -4.09333,3.060333 -6.518,4.297 -2.42533,1.237333 -4.89133,2.279 -7.398,3.125 -2.506,0.846667 -4.931,1.465333 -7.275,1.856 -2.344,0.390667 -4.39467,0.520667 -6.152,0.39 -1.53,-0.06467 -3.13333,-0.300667 -4.81,-0.708 -1.67667,-0.406667 -3.15767,-0.903 -4.443,-1.489 -1.286,-0.586 -2.24633,-1.220667 -2.881,-1.904 -0.63467,-0.684 -0.659,-1.351333 -0.073,-2.002 0.58533,-0.618667 1.22,-1.237333 1.904,-1.856 0.68333,-0.618 1.497,-1.260667 2.441,-1.928 0.944,-0.667333 2.067,-1.375333 3.369,-2.124 1.30267,-0.748667 2.86533,-1.579 4.688,-2.491 -0.586,0.912 -0.73267,1.709667 -0.44,2.393 0.29333,0.683333 0.83867,1.293667 1.636,1.831 0.79733,0.537333 1.774,0.985 2.93,1.343 1.15533,0.358 2.29467,0.651 3.418,0.879 1.12267,0.227333 2.148,0.39 3.076,0.488 0.928,0.09733 1.58733,0.146 1.978,0.146 1.17133,0 2.335,-0.05667 3.491,-0.17 1.15533,-0.114 2.18867,-0.366333 3.1,-0.757 0.912,-0.390667 1.65267,-0.968667 2.222,-1.734 0.57,-0.764667 0.855,-1.814333 0.855,-3.149 0,-1.628 -0.44767,-3.011667 -1.343,-4.151 -0.89533,-1.138667 -2.06733,-2.090667 -3.516,-2.856 -1.44867,-0.764667 -3.068,-1.375 -4.858,-1.831 -1.79067,-0.456 -3.573,-0.838333 -5.347,-1.147 -1.774,-0.309333 -3.45033,-0.57 -5.029,-0.782 -1.57867,-0.211333 -2.87267,-0.447333 -3.882,-0.708 -1.62733,-0.422667 -2.98633,-0.984 -4.077,-1.684 -1.09067,-0.7 -1.96967,-1.481333 -2.637,-2.344 -0.66733,-0.862667 -1.14733,-1.782333 -1.44,-2.759 -0.29333,-0.976667 -0.44,-1.953333 -0.44,-2.93 0,-2.180667 0.586,-4.198667 1.758,-6.054 1.172,-1.855333 2.702,-3.532 4.59,-5.03 1.888,-1.497333 4.02833,-2.815667 6.421,-3.955 2.39267,-1.139333 4.81767,-2.099333 7.275,-2.88 2.458,-0.781333 4.84233,-1.367333 7.153,-1.758 2.31133,-0.390667 4.31333,-0.586 6.006,-0.586 1.95333,0 3.687,0.105667 5.201,0.317 1.51333,0.212 2.742,0.464333 3.686,0.757 0.91133,0.292667 1.489,0.667 1.733,1.123 0.24467,0.456 0.24467,0.977 0,1.563 -0.244,0.585333 -0.70767,1.22 -1.391,1.904 -0.684,0.683333 -1.498,1.383 -2.442,2.099 -0.74867,0.586 -1.546,1.139667 -2.392,1.661 -0.74867,0.455333 -1.57867,0.919 -2.49,1.391 -0.912,0.472 -1.856,0.887 -2.832,1.245 0.488,-0.618 0.69133,-1.171333 0.61,-1.66 -0.0813,-0.488 -0.38233,-0.927333 -0.903,-1.318 -0.52133,-0.390667 -1.22133,-0.724333 -2.1,-1.001 -0.87867,-0.276667 -1.85533,-0.504667 -2.93,-0.684 -1.074,-0.178667 -2.205,-0.308667 -3.393,-0.39 -1.188,-0.08133 -2.35167,-0.122 -3.491,-0.122 -1.10733,0 -2.21433,0.04067 -3.321,0.122 -1.10667,0.08133 -2.09933,0.292667 -2.978,0.634 -0.87933,0.342 -1.59567,0.871 -2.149,1.587 -0.55333,0.716667 -0.83,1.693333 -0.83,2.93 0,1.009333 0.228,2.059 0.684,3.149 0.45533,1.090667 1.13067,2.116333 2.026,3.077 0.89533,0.96 2.01033,1.814333 3.345,2.563 1.33467,0.748667 2.881,1.285667 4.639,1.611 1.36667,0.260667 2.88033,0.456 4.541,0.586 1.66,0.130667 3.32,0.293667 4.98,0.489 1.66,0.195333 3.26333,0.472 4.81,0.83 1.546,0.358 2.92133,0.895 4.126,1.611 1.204,0.716 2.164,1.66 2.88,2.832 0.71667,1.172 1.075,2.669333 1.075,4.492 z m 54.004,0 c 0,2.246 -0.59433,4.337667 -1.783,6.275 -1.188,1.936667 -2.74233,3.718667 -4.663,5.346 -1.92067,1.628 -4.09333,3.060333 -6.518,4.297 -2.42533,1.237333 -4.89133,2.279 -7.398,3.125 -2.50667,0.846667 -4.93167,1.465333 -7.275,1.856 -2.344,0.390667 -4.39467,0.520667 -6.152,0.39 -1.53,-0.06467 -3.13333,-0.300667 -4.81,-0.708 -1.67667,-0.406667 -3.15767,-0.903 -4.443,-1.489 -1.286,-0.586 -2.24633,-1.220667 -2.881,-1.904 -0.63467,-0.684 -0.65933,-1.351333 -0.074,-2.002 0.586,-0.618667 1.221,-1.237333 1.905,-1.856 0.68333,-0.618 1.497,-1.260667 2.441,-1.928 0.944,-0.667333 2.067,-1.375333 3.369,-2.124 1.302,-0.748667 2.86467,-1.579 4.688,-2.491 -0.586,0.912 -0.73267,1.709667 -0.44,2.393 0.29333,0.683333 0.83867,1.293667 1.636,1.831 0.79733,0.537333 1.774,0.985 2.93,1.343 1.15533,0.358 2.29467,0.651 3.418,0.879 1.12267,0.227333 2.148,0.39 3.076,0.488 0.928,0.09733 1.587,0.146 1.977,0.146 1.172,0 2.336,-0.05667 3.492,-0.17 1.15533,-0.114 2.18867,-0.366333 3.1,-0.757 0.91133,-0.390667 1.652,-0.968667 2.222,-1.734 0.56933,-0.764667 0.854,-1.814333 0.854,-3.149 0,-1.628 -0.44733,-3.011667 -1.342,-4.151 -0.89533,-1.138667 -2.06733,-2.090667 -3.516,-2.856 -1.44867,-0.764667 -3.068,-1.375 -4.858,-1.831 -1.79067,-0.456 -3.573,-0.838333 -5.347,-1.147 -1.774,-0.309333 -3.45033,-0.57 -5.029,-0.782 -1.57867,-0.211333 -2.87267,-0.447333 -3.882,-0.708 -1.628,-0.422667 -2.987,-0.984 -4.077,-1.684 -1.09067,-0.7 -1.96967,-1.481333 -2.637,-2.344 -0.66733,-0.862667 -1.14733,-1.782333 -1.44,-2.759 -0.29333,-0.976667 -0.44,-1.953333 -0.44,-2.93 0,-2.180667 0.586,-4.198667 1.758,-6.054 1.172,-1.855333 2.702,-3.532 4.59,-5.03 1.888,-1.497333 4.02833,-2.815667 6.421,-3.955 2.39267,-1.139333 4.81767,-2.099333 7.275,-2.88 2.458,-0.781333 4.84233,-1.367333 7.153,-1.758 2.31133,-0.390667 4.31333,-0.586 6.006,-0.586 1.95333,0 3.68667,0.105667 5.2,0.317 1.514,0.212 2.743,0.464333 3.687,0.757 0.91133,0.292667 1.489,0.667 1.733,1.123 0.24467,0.456 0.24467,0.977 0,1.563 -0.244,0.585333 -0.70767,1.22 -1.391,1.904 -0.684,0.683333 -1.498,1.383 -2.442,2.099 -0.74867,0.586 -1.546,1.139667 -2.392,1.661 -0.74867,0.455333 -1.57867,0.919 -2.49,1.391 -0.912,0.472 -1.85633,0.887 -2.833,1.245 0.48867,-0.618 0.69233,-1.171333 0.611,-1.66 -0.0813,-0.488 -0.38233,-0.927333 -0.903,-1.318 -0.52133,-0.390667 -1.22133,-0.724333 -2.1,-1.001 -0.87867,-0.276667 -1.85533,-0.504667 -2.93,-0.684 -1.074,-0.178667 -2.205,-0.308667 -3.393,-0.39 -1.18867,-0.08133 -2.35267,-0.122 -3.492,-0.122 -1.10667,0 -2.21333,0.04067 -3.32,0.122 -1.10667,0.08133 -2.09933,0.292667 -2.978,0.634 -0.87933,0.342 -1.59567,0.871 -2.149,1.587 -0.55333,0.716667 -0.83,1.693333 -0.83,2.93 0,1.009333 0.228,2.059 0.684,3.149 0.45533,1.090667 1.13067,2.116333 2.026,3.077 0.89533,0.96 2.01033,1.814333 3.345,2.563 1.33467,0.748667 2.88067,1.285667 4.638,1.611 1.36733,0.260667 2.881,0.456 4.541,0.586 1.66067,0.130667 3.321,0.293667 4.981,0.489 1.66,0.195333 3.26333,0.472 4.81,0.83 1.546,0.358 2.921,0.895 4.125,1.611 1.20467,0.716 2.165,1.66 2.881,2.832 0.71667,1.172 1.075,2.669333 1.075,4.492 z m 74.431,54.976999 -0.195,16.406 c 0.846,0.0327 1.676,0.057 2.49,0.073 0.814,0.0167 1.53033,0.025 2.149,0.025 h 2.05 c 2.8,0.0647 5.453,0.032 7.959,-0.098 1.07467,-0.0327 2.17333,-0.0977 3.296,-0.195 1.12333,-0.098 2.20567,-0.22 3.247,-0.366 1.042,-0.14667 2.01067,-0.334 2.906,-0.562 0.89467,-0.228 1.65133,-0.48833 2.27,-0.781 -1.758,1.75733 -3.68667,3.23833 -5.786,4.443 -2.09933,1.20467 -4.28833,2.18933 -6.567,2.954 -2.27867,0.76533 -4.61433,1.34333 -7.007,1.734 -2.39267,0.39067 -4.761,0.651 -7.105,0.781 -0.0647,4.65467 -0.11333,9.22833 -0.146,13.721 -0.0327,4.492 -0.049,8.919 -0.049,13.281 0.0327,1.432 0.39067,2.783 1.074,4.053 0.684,1.26933 1.63633,2.376 2.857,3.32 1.22067,0.944 2.661,1.70067 4.321,2.27 1.66,0.57 3.499,0.855 5.517,0.855 2.05133,0 4.257,-0.342 6.617,-1.026 2.36,-0.68333 4.76067,-1.80633 7.202,-3.369 -2.53933,2.05133 -5.046,3.89067 -7.52,5.518 -2.474,1.62733 -4.87467,2.99433 -7.202,4.101 -2.32733,1.10733 -4.557,1.92933 -6.689,2.466 -2.13267,0.53733 -4.12667,0.741 -5.982,0.611 -1.888,-0.13067 -3.62133,-0.58667 -5.2,-1.368 -1.57867,-0.78067 -2.93767,-1.95233 -4.077,-3.515 -1.13933,-1.56267 -2.01833,-3.56467 -2.637,-6.006 -0.61867,-2.44133 -0.879,-5.38733 -0.781,-8.838 0.0327,-1.85533 0.0977,-4.05267 0.195,-6.592 0.0653,-2.18067 0.13067,-4.88233 0.196,-8.105 0.0647,-3.22267 0.12967,-6.98233 0.195,-11.279 -0.684,0.0647 -1.52233,0.146 -2.515,0.244 -0.99267,0.0973 -2.06667,0.268 -3.222,0.512 -1.156,0.24467 -2.35233,0.57033 -3.589,0.977 -1.23733,0.40667 -2.458,0.91933 -3.662,1.538 0.976,-0.61867 1.96067,-1.25333 2.954,-1.904 0.99267,-0.65133 1.896,-1.25367 2.71,-1.807 0.944,-0.61867 1.85533,-1.237 2.734,-1.855 0.87867,-0.456 1.66,-1.28633 2.344,-2.491 0.586,-1.04133 1.123,-2.52233 1.611,-4.443 0.48867,-1.92067 0.733,-4.50867 0.733,-7.764 2.278,-1.13933 4.19833,-2.181 5.761,-3.125 1.56267,-0.944 2.83233,-1.74133 3.809,-2.392 1.13933,-0.78133 2.05067,-1.44867 2.734,-2.002 z M 18.754401,97.054441 l 2.197,-65.381 c -1.36667,0 -2.84767,-0.04867 -4.443,-0.146 -1.59533,-0.098 -14.4796299,0.03924 -16.36762986,-0.18809 L 23.783401,23.959441 c 1.13933,0.195333 2.25433,0.325333 3.345,0.39 1.09067,0.06533 2.108,0.098 3.052,0.098 1.69267,0 3.33633,-0.106 4.931,-0.318 1.59533,-0.211333 3.158,-0.455333 4.688,-0.732 1.53,-0.276667 3.04367,-0.520667 4.541,-0.732 1.49733,-0.212 3.011,-0.318 4.541,-0.318 2.50667,0 4.80967,0.35 6.909,1.05 2.1,0.7 3.90667,1.725333 5.42,3.076 1.514,1.351333 2.66967,3.003333 3.467,4.956 0.79733,1.953333 1.16367,4.199667 1.099,6.739 -0.16333,1.627333 -0.733,3.32 -1.709,5.078 -0.42333,0.748667 -0.94433,1.546 -1.563,2.392 -0.61867,0.846667 -1.38367,1.709333 -2.295,2.588 -0.91133,0.878667 -1.96933,1.757667 -3.174,2.637 -1.204,0.878667 -2.58733,1.741333 -4.15,2.588 0.586,-0.06533 1.15567,-0.114333 1.709,-0.147 0.55333,-0.03267 1.074,-0.049 1.562,-0.049 2.116,0 3.96333,0.22 5.542,0.66 1.57933,0.439333 2.94667,1.025 4.102,1.757 1.15533,0.732667 2.10733,1.554667 2.856,2.466 0.74867,0.911333 1.351,1.855333 1.807,2.832 1.074,2.278667 1.611,4.834 1.611,7.666 -0.358,2.962667 -1.27733,5.762333 -2.758,8.399 -1.48133,2.636667 -3.32867,5.078 -5.542,7.324 -2.214,2.246 -4.70433,4.272333 -7.471,6.079 -2.76733,1.806667 -5.62367,3.336667 -8.569,4.59 -2.946,1.253333 -5.90033,2.221667 -8.863,2.905 -2.962,0.684 -5.729,1.026 -8.301,1.026 -1.26933,-0.03267 -2.555,-0.114333 -3.857,-0.245 -1.13933,-0.13 -2.409,-0.317 -3.809,-0.561 -1.39933,-0.244 -2.78267,-0.610333 -4.15,-1.099 z m 99.120999,-11.181 c -3.25533,2.246 -5.98967,4.093333 -8.203,5.542 -2.21333,1.448 -4.142,2.603333 -5.786,3.466 -1.644,0.862667 -3.125,1.457 -4.442999,1.783 -1.31867,0.325333 -2.71033,0.488 -4.175,0.488 -1.27,0 -2.499,-0.301 -3.687,-0.903 -1.188,-0.602667 -2.246,-1.709667 -3.174,-3.321 -0.92733,-1.611333 -1.66767,-3.824667 -2.221,-6.64 -0.55333,-2.816 -0.83,-6.453667 -0.83,-10.913 0,-4.394667 0.0487,-9.001 0.146,-13.819 0.098,-4.817333 0.20367,-9.651333 0.317,-14.502 0.114,-4.85 0.22,-9.602667 0.318,-14.258 0.0973,-4.654667 0.146,-9.000333 0.146,-13.037 0,-3.971333 -0.602,-7.063667 -1.806,-9.277 -1.20467,-2.2133333 -3.044,-3.32 -5.518,-3.32 -0.74867,0 -1.57867,0.1056667 -2.49,0.317 -0.91133,0.2113333 -1.87167,0.5776667 -2.881,1.099 1.26933,-0.912 2.604,-1.848 4.004,-2.808 1.4,-0.96 2.824,-1.8306667 4.272,-2.612 1.44867,-0.7813333 2.91367,-1.4243333 4.395,-1.929 1.48133,-0.50466671 2.95433,-0.75700004 4.419,-0.75700004 1.85533,0 3.312,0.464 4.37,1.39200004 1.058,0.9273333 1.83933,2.0746667 2.344,3.442 0.50467,1.3673333 0.81367,2.8566667 0.927,4.468 0.114,1.611333 0.171,3.100667 0.171,4.468 -0.032,2.083333 -0.0727,4.589667 -0.122,7.519 -0.0487,2.93 -0.10567,6.079667 -0.171,9.449 -0.0647,3.368667 -0.12967,6.859667 -0.195,10.473 -0.0653,3.613333 -0.13033,7.153333 -0.195,10.62 -0.0653,3.466667 -0.12233,6.762667 -0.171,9.888 -0.0487,3.124667 -0.10567,5.875333 -0.171,8.252 -0.0653,3.19 0.16267,5.948667 0.684,8.276 0.52067,2.327333 1.26933,4.24 2.245999,5.738 0.97667,1.497333 2.14833,2.604 3.515,3.32 1.36733,0.716 2.881,1.074 4.541,1.074 2.99533,0 6.13667,-0.992667 9.424,-2.978 z m 357.928,103.999999 c -3.25533,2.246 -5.98967,4.09333 -8.203,5.542 -2.214,1.448 -4.14267,2.60333 -5.786,3.466 -1.644,0.86267 -3.12533,1.457 -4.444,1.783 -1.318,0.32533 -2.70967,0.488 -4.175,0.488 -1.26933,0 -2.498,-0.301 -3.686,-0.903 -1.188,-0.60267 -2.246,-1.70967 -3.174,-3.321 -0.92733,-1.61133 -1.668,-3.82467 -2.222,-6.64 -0.55333,-2.816 -0.83,-6.45367 -0.83,-10.913 0,-4.39467 0.049,-9.001 0.147,-13.819 0.0973,-4.81733 0.203,-9.65133 0.317,-14.502 0.114,-4.85 0.22,-9.60267 0.318,-14.258 0.0973,-4.65467 0.146,-9.00033 0.146,-13.037 0,-3.97133 -0.60233,-7.06367 -1.807,-9.277 -1.204,-2.21333 -3.043,-3.32 -5.517,-3.32 -0.74867,0 -1.57867,0.10567 -2.49,0.317 -0.912,0.21133 -1.87233,0.57767 -2.881,1.099 1.26933,-0.912 2.604,-1.848 4.004,-2.808 1.39933,-0.96 2.82333,-1.83067 4.272,-2.612 1.44867,-0.78133 2.91367,-1.42433 4.395,-1.929 1.48067,-0.50467 2.95367,-0.757 4.419,-0.757 1.85533,0 3.312,0.464 4.37,1.392 1.058,0.92733 1.839,2.07467 2.343,3.442 0.50467,1.36733 0.814,2.85667 0.928,4.468 0.114,1.61133 0.171,3.10067 0.171,4.468 -0.0327,2.08333 -0.0733,4.58967 -0.122,7.519 -0.0487,2.93 -0.10567,6.07967 -0.171,9.449 -0.0653,3.36867 -0.13033,6.85967 -0.195,10.473 -0.0653,3.61333 -0.13033,7.15333 -0.195,10.62 -0.0653,3.46667 -0.12233,6.76267 -0.171,9.888 -0.0493,3.12467 -0.10633,5.87533 -0.171,8.252 -0.0653,3.19 0.16233,5.94867 0.683,8.276 0.52133,2.32733 1.27,4.24 2.246,5.738 0.97667,1.49733 2.14867,2.604 3.516,3.32 1.36733,0.716 2.881,1.074 4.541,1.074 2.99467,0 6.136,-0.99267 9.424,-2.978 z M 33.549401,30.648441 l -2.197,58.887 c 2.34333,0.716 4.47533,1.212333 6.396,1.489 1.92067,0.276667 3.69467,0.415 5.322,0.415 2.66933,0 5.02967,-0.374333 7.081,-1.123 2.05067,-0.748667 3.77567,-1.831 5.175,-3.247 1.4,-1.416 2.458,-3.141333 3.174,-5.176 0.716,-2.034667 1.074,-4.354 1.074,-6.958 0,-2.213333 -0.37433,-4.256 -1.123,-6.128 -0.74867,-1.871333 -1.79833,-3.482667 -3.149,-4.834 -1.35067,-1.350667 -2.93767,-2.408667 -4.761,-3.174 -1.82267,-0.764667 -3.80833,-1.147 -5.957,-1.147 -0.814,0 -1.636,0.08133 -2.466,0.244 -0.83,0.162667 -1.652,0.455667 -2.466,0.879 2.76733,-1.464667 5.03,-2.970333 6.788,-4.517 1.75733,-1.546 3.13267,-3.076 4.126,-4.59 0.99267,-1.513333 1.676,-2.986 2.05,-4.418 0.37467,-1.432667 0.562,-2.767333 0.562,-4.004 0,-1.856 -0.33367,-3.589667 -1.001,-5.201 -0.66733,-1.611333 -1.57067,-3.011 -2.71,-4.199 -1.13933,-1.188 -2.49033,-2.115667 -4.053,-2.783 -1.56267,-0.667333 -3.239,-1.001 -5.029,-1.001 -1.23733,0 -2.40933,0.057 -3.516,0.171 -1.10667,0.114 -2.21333,0.252333 -3.32,0.415 z m 353.466999,25.391 c -1.13933,-0.976667 -2.36,-1.790667 -3.662,-2.442 -1.302,-0.650667 -2.645,-1.179667 -4.029,-1.587 -1.38333,-0.406667 -2.76667,-0.699667 -4.15,-0.879 -1.38333,-0.178667 -2.726,-0.268 -4.028,-0.268 -2.832,0 -5.249,0.423 -7.251,1.269 -2.002,0.846667 -3.638,2.051333 -4.908,3.614 -1.26933,1.562 -2.197,3.433667 -2.783,5.615 -0.586,2.180667 -0.879,4.605667 -0.879,7.275 0,2.864667 0.44767,5.574667 1.343,8.13 0.89533,2.555333 2.15667,4.801333 3.784,6.738 1.628,1.937333 3.60567,3.467333 5.933,4.59 2.32733,1.123333 4.907,1.685 7.739,1.685 2.018,0 3.74333,-0.252333 5.176,-0.757 1.432,-0.504667 2.62833,-1.204667 3.589,-2.1 0.96,-0.894667 1.733,-1.977 2.319,-3.247 0.586,-1.269333 1.058,-2.669 1.416,-4.199 0,-1.269333 0.008,-2.758667 0.025,-4.468 0.016,-1.708667 0.0483,-3.564 0.097,-5.566 0.0487,-2.002 0.0893,-4.134333 0.122,-6.397 0.0327,-2.262 0.0817,-4.597333 0.147,-7.006 z m -245.264,4.101 c 1.4,-0.618667 2.66133,-1.286 3.784,-2.002 1.12333,-0.716 2.00233,-1.464667 2.637,-2.246 0.63467,-0.781333 0.96833,-1.595 1.001,-2.441 0.0327,-0.846667 -0.309,-1.742 -1.025,-2.686 -0.48867,-0.716 -1.16433,-1.212333 -2.027,-1.489 -0.86267,-0.276667 -1.74967,-0.415 -2.661,-0.415 -0.846,0 -1.65967,0.08933 -2.441,0.268 -0.78133,0.179333 -1.465,0.415333 -2.051,0.708 -0.39067,0.228 -0.92767,0.724667 -1.611,1.49 -0.684,0.764667 -1.384,1.757333 -2.1,2.978 -0.716,1.220667 -1.39133,2.636667 -2.026,4.248 -0.63533,1.611333 -1.09933,3.377333 -1.392,5.298 2.05067,-0.748667 3.906,-1.416 5.566,-2.002 1.66067,-0.586 3.10933,-1.155667 4.346,-1.709 z m 167.285,0 c 1.4,-0.618667 2.66133,-1.286 3.784,-2.002 1.12333,-0.716 2.00233,-1.464667 2.637,-2.246 0.63467,-0.781333 0.96833,-1.595 1.001,-2.441 0.0327,-0.846667 -0.309,-1.742 -1.025,-2.686 -0.48867,-0.716 -1.16433,-1.212333 -2.027,-1.489 -0.86267,-0.276667 -1.74967,-0.415 -2.661,-0.415 -0.846,0 -1.65967,0.08933 -2.441,0.268 -0.78133,0.179333 -1.465,0.415333 -2.051,0.708 -0.39067,0.228 -0.92767,0.724667 -1.611,1.49 -0.684,0.764667 -1.384,1.757333 -2.1,2.978 -0.716,1.220667 -1.39133,2.636667 -2.026,4.248 -0.63467,1.611333 -1.09867,3.377333 -1.392,5.298 2.05067,-0.748667 3.90633,-1.416 5.567,-2.002 1.66,-0.586 3.10833,-1.155667 4.345,-1.709 z m 190.643,103.999999 c 1.39933,-0.61867 2.66067,-1.286 3.784,-2.002 1.12333,-0.716 2.00233,-1.46467 2.637,-2.246 0.63467,-0.78133 0.96833,-1.595 1.001,-2.441 0.0327,-0.84667 -0.30933,-1.742 -1.026,-2.686 -0.488,-0.716 -1.16333,-1.21233 -2.026,-1.489 -0.86267,-0.27667 -1.74967,-0.415 -2.661,-0.415 -0.84667,0 -1.66067,0.0893 -2.442,0.268 -0.78067,0.17933 -1.464,0.41533 -2.05,0.708 -0.39067,0.228 -0.928,0.72467 -1.612,1.49 -0.68333,0.76467 -1.383,1.75733 -2.099,2.978 -0.71667,1.22067 -1.39233,2.63667 -2.027,4.248 -0.63467,1.61133 -1.09833,3.37733 -1.391,5.298 2.05067,-0.74867 3.906,-1.416 5.566,-2.002 1.66,-0.586 3.10867,-1.15567 4.346,-1.709 z"
     vector-effect="non-scaling-stroke"
     id="path75"
     style="font-size:12px;fill:#ffffff;fill-rule:evenodd;stroke:#ffffff;stroke-width:0.25mm;stroke-linecap:round"
     sodipodi:nodetypes="cccccccccscccssssccscccccccscscccscsccccsccccssscscssccccscccccccscsccsccccsscsccscsccscccsccscsccscsscsscsccssccsccsccccsscsccsscccsccccscsscsssccssssscssccscccccscscscsscccccccsscccsccccccscsssccccccccccccscccccsccccsccccccccccccccccscssscsscscccccccccccccscsscscccscccccccccsccscsssccsccccccccccccccccscccscccccccsccccscccccsscccscccscccsccccccsscsscsccscccccccccccscsssccsccsccscccssccccccccccsssccscccscscscccccccscsscsccscccccccccccscsssccsccsccscccscccsccccccscscsccscsccsccccssccccccccccccccsccccccccscscsccccccsccssccscccccccccccccscscccscccscsscscsscsccccscsccccscccccscccscscscssccscsccscssccccccsscccssccsscccssccccsssssscccccscscssscscscccsscccsscsscccsccccccsscsscccssccccssscssccscscsc" />
</svg>
