<?xml version="1.0" encoding="UTF-8" standalone="no"?>
<!-- Created with Inkscape (http://www.inkscape.org/) -->

<svg
   version="1.1"
   id="svg2"
   width="520.36853"
   height="545.97699"
   viewBox="0 0 520.36853 545.97699"
   sodipodi:docname="whatsapp_logo.svg"
   inkscape:version="1.1.2 (0a00cf5339, 2022-02-04)"
   xmlns:inkscape="http://www.inkscape.org/namespaces/inkscape"
   xmlns:sodipodi="http://sodipodi.sourceforge.net/DTD/sodipodi-0.dtd"
   xmlns="http://www.w3.org/2000/svg"
   xmlns:svg="http://www.w3.org/2000/svg">
  <defs
     id="defs6" />
  <sodipodi:namedview
     id="namedview4"
     pagecolor="#ffffff"
     bordercolor="#000000"
     borderopacity="0.25"
     inkscape:pageshadow="2"
     inkscape:pageopacity="0.0"
     inkscape:pagecheckerboard="0"
     showgrid="false"
     fit-margin-top="0"
     fit-margin-left="0"
     fit-margin-right="0"
     fit-margin-bottom="0"
     inkscape:zoom="0.57231455"
     inkscape:cx="217.53772"
     inkscape:cy="283.06112"
     inkscape:window-width="1366"
     inkscape:window-height="696"
     inkscape:window-x="0"
     inkscape:window-y="0"
     inkscape:window-maximized="1"
     inkscape:current-layer="layer1" />
  <g
     inkscape:groupmode="layer"
     id="layer1"
     inkscape:label="k">
    <ellipse
       style="fill:#ffffff;fill-opacity:1"
       id="path863"
       cx="324.17529"
       cy="323.60056"
       rx="213.25587"
       ry="224.13472"
       transform="translate(-57.243974,-39.390236)" />
  </g>
  <g
     inkscape:groupmode="layer"
     inkscape:label="Image"
     id="g8"
     transform="translate(-57.243974,-39.390236)">
    <path
       style="fill:#00ae00;fill-opacity:1"
       d="m 240.74603,584.59764 c -0.59165,-1.40682 -7.50992,-5.20741 -9.47912,-5.20741 -1.05035,0 -2.68033,-0.9 -3.62218,-2 -0.94185,-1.1 -2.77715,-2 -4.07844,-2 -1.30129,0 -4.43098,-1.57674 -6.95486,-3.50387 -5.49432,-4.19522 -9.24238,-5.82085 -12.94873,-5.6162 -2.28048,0.12591 -2.75,-0.25917 -2.75,-2.25547 0,-1.85472 -0.87378,-2.75692 -3.80662,-3.93041 -2.09364,-0.83771 -4.39874,-2.23657 -5.12244,-3.10858 -0.72371,-0.87201 -1.75041,-1.58547 -2.28157,-1.58547 -0.53116,0 -3.95731,-2.7 -7.61368,-6 -3.65636,-3.3 -7.17917,-6 -7.82847,-6 -0.64931,0 -1.33055,-0.3375 -1.51389,-0.75 -0.18333,-0.4125 -2.90367,-2.70399 -6.0452,-5.0922 -3.14153,-2.3882 -5.98436,-5.2007 -6.31739,-6.25 -0.66264,-2.08777 -0.59606,-2.06797 -8.35375,-2.4846 -5.44272,-0.29231 -11.99766,-4.72539 -12.08524,-8.1732 -0.0175,-0.6875 -0.45143,-1.25 -0.96436,-1.25 -0.51294,0 -1.21826,-0.9 -1.56739,-2 -0.34913,-1.1 -1.50445,-2 -2.56739,-2 -1.77622,0 -2.02025,0.60585 -1.91324,4.75 0.0106,0.4125 0.83791,0.75 1.83836,0.75 1.98676,0 5.14227,2.22288 5.14227,3.62244 0,0.48266 -0.675,0.87756 -1.5,0.87756 -0.825,0 -1.5,0.45 -1.5,1 0,1.88963 -2.62912,0.99655 -5.31291,-1.80472 -1.4779,-1.54259 -2.68709,-3.32847 -2.68709,-3.96861 0,-0.64015 -0.67432,-0.90514 -1.49849,-0.58887 -1.53139,0.58764 -6.45274,-3.31331 -6.48423,-5.13978 -0.01,-0.5511 -2.52653,-3.2511 -5.59339,-6 -4.74056,-4.24909 -9.50602,-11.37711 -10.02696,-14.99802 -0.43852,-3.04798 -3.05926,-7.42886 -5.375296,-8.98546 -1.458581,-0.98031 -3.185443,-2.98758 -3.837473,-4.46062 -0.65203,-1.47303 -2.018,-3.57182 -3.0355,-4.66398 -1.85345,-1.98942 -8.414893,-15.19939 -13.604723,-27.38994 -1.521972,-3.575 -3.176582,-7.4 -3.676913,-8.5 -4.618164,-10.15324 -14.346328,-42.0445 -15.252085,-50 -0.250476,-2.2 -1.188404,-7.0904 -2.084284,-10.86756 -0.89588,-3.77716 -1.401183,-7.09525 -1.122895,-7.37354 0.965477,-0.96548 3.592234,0.68665 3.592234,2.25938 0,0.86957 0.689743,2.91486 1.532762,4.54508 1.545227,2.98813 2.68789,7.42519 4.747937,18.43664 0.617372,3.3 1.414409,6.225 1.771193,6.5 1.315379,1.01386 3.08933,5.19234 2.686578,6.32814 -0.583182,1.64464 5.874649,14.10686 6.655427,12.84354 0.351296,-0.56842 0.181386,-1.31614 -0.377585,-1.6616 -0.558972,-0.34546 -1.016312,-1.47583 -1.016312,-2.51194 0,-1.0361 -0.827056,-3.37204 -1.837903,-5.19098 -4.466962,-8.03794 -10.393582,-34.29905 -9.553825,-42.33341 0.459582,-4.39705 0.197127,-7.00373 -0.991636,-9.84884 -0.88915,-2.12804 -1.616636,-5.41155 -1.616636,-7.29669 0,-1.88515 -0.650319,-4.68512 -1.445152,-6.22216 -2.126495,-4.11218 -1.006246,-21.18518 1.337598,-20.38548 1.316489,0.44918 1.290923,0.2978 -0.141205,-0.83605 -1.470803,-1.16447 -1.788691,-3.37133 -2,-13.88453 -0.138182,-6.875 -0.638688,-12.78243 -1.112235,-13.12762 -1.782676,-1.29946 2.535727,-20.87238 4.605105,-20.87238 0.415739,0 0.755889,-1.07686 0.755889,-2.39301 0,-2.20187 1.634883,-3.60699 4.196797,-3.60699 0.568273,0 0.296095,1.125 -0.60484,2.5 -0.900935,1.375 -1.177689,2.5 -0.61501,2.5 0.562679,0 1.023053,1.35 1.023053,3 0,1.65 0.407871,3 0.90638,3 0.49851,0 0.672784,-0.89328 0.387277,-1.98506 -0.285507,-1.09178 -0.178799,-2.77928 0.237128,-3.75 0.415928,-0.97072 0.670668,-2.88994 0.566088,-4.26494 -0.104579,-1.375 0.438469,-4.3 1.206774,-6.5 0.768305,-2.2 1.184443,-4.61454 0.924751,-5.36565 -0.259692,-0.75111 -0.07236,-1.65111 0.416297,-2 1.300677,-0.92866 3.355305,-9.54775 3.355305,-14.07538 0,-2.88514 0.459465,-4.03239 1.750003,-4.36964 1.66666,-0.43555 1.66666,-0.46285 0,-0.57333 -2.055893,-0.13628 -2.061509,-0.16648 -0.6979,-3.75304 1.04408,-2.74613 1.0364,-2.75303 -1.006131,-0.90456 -2.870392,2.59767 -3.46004,1.42806 -1.348092,-2.67404 1.762597,-3.42354 5.776943,-6.22697 7.442583,-5.19755 0.98185,0.60682 1.17841,-0.9346 0.23898,-1.87404 -1.71853,-1.71852 -0.34162,-15.71277 1.54599,-15.71277 0.48803,0 0.68825,-0.7875 0.44494,-1.75 -0.24706,-0.9773 0.67736,-2.94497 2.093624,-4.45636 1.394799,-1.48849 2.536009,-3.85099 2.536009,-5.25 0,-1.399 0.47158,-2.54364 1.04795,-2.54364 1.33231,0 5.87853,-5.11923 5.92045,-6.66667 0.0174,-0.64166 0.39529,-1.31666 0.83981,-1.5 0.444522,-0.18333 2.266133,-2.47083 4.048039,-5.08333 1.78191,-2.6125 3.66821,-4.75 4.19179,-4.75 0.52358,0 0.95196,-0.62686 0.95196,-1.39301 0,-1.49638 2.67165,-2.92795 3.96849,-2.12647 0.4334,0.26786 1.05654,-0.85568 1.38476,-2.49675 0.42658,-2.13292 1.1742,-2.98377 2.62175,-2.98377 1.35833,0 2.025,-0.65844 2.025,-2 0,-1.1 0.4151,-2 0.92245,-2 0.50734,0 1.41436,-1.49053 2.0156,-3.31229 0.60123,-1.82175 2.85798,-5.03559 5.01499,-7.14186 2.15701,-2.10626 4.45459,-5.11573 5.10572,-6.68771 1.46012,-3.52504 2.94124,-3.70539 2.94124,-0.35814 0,3.90875 3.21133,3.1267 6.04897,-1.4731 1.34807,-2.18521 3.23853,-3.98521 4.20103,-4 0.9625,-0.0148 1.75,-0.7019 1.75,-1.5269 0,-0.825 0.675,-1.5 1.5,-1.5 0.825,0 1.5,0.74746 1.5,1.66103 0,1.08116 0.96003,0.40883 2.75,-1.92588 1.5125,-1.9728 4.4254,-4.63276 6.4731,-5.91103 2.04771,-1.27826 3.73521,-3.11162 3.75,-4.07412 0.0148,-0.9625 0.55165,-1.75 1.19301,-1.75 0.64136,0 1.87886,-0.68539 2.75,-1.52308 0.87114,-0.83769 3.88439,-3.72658 6.6961,-6.41974 2.81172,-2.69316 5.39885,-5.64361 5.74918,-6.55655 0.48451,-1.26264 1.35492,-1.50221 3.63681,-1.00103 2.36335,0.51908 2.88302,0.35444 2.44925,-0.77596 -0.39329,-1.02489 0.74163,-1.79664 3.97228,-2.70117 2.81116,-0.78707 4.74848,-1.9771 5.11897,-3.1444 0.32784,-1.03294 1.24075,-1.87807 2.02869,-1.87807 0.78793,0 1.43261,-0.59507 1.43261,-1.32237 0,-1.69253 7.56425,-6.677626 10.13244,-6.677626 1.07413,0 4.31017,-1.6875 7.1912,-3.75 8.49376,-6.080578 20.30466,-12.249998 23.45174,-12.249998 0.95894,0 2.30559,-0.9 2.99255,-2 0.68696,-1.1 1.93813,-2 2.78038,-2 0.84225,0 3.29551,-0.9 5.45169,-2 2.21618,-1.13061 5.89377,-2 8.46016,-2 3.87317,0 4.53984,-0.29369 4.53984,-2 0,-1.1 0.62686,-2 1.39301,-2 1.4021,0 3.06533,-2.87499 2.1771,-3.76322 -0.73621,-0.73621 -5.27362,0.61807 -6.75018,2.01472 -2.18213,2.06404 -6.22701,2.25171 -5.46016,0.25333 0.35213,-0.91762 0.64023,-1.8566 0.64023,-2.08661 0,-0.23002 0.80298,-0.41822 1.78439,-0.41822 1.50838,0 5.21561,-4.54064 5.21561,-6.38811 0,-0.54188 -5.17231,1.43881 -9.34738,3.57948 -2.31842,1.18873 -2.72232,0.79117 -2.0005,-1.96909 0.5796,-2.21638 5.34161,-4.20491 10.09788,-4.2167 1.33085,-0.003 2.25,-0.61834 2.25,-1.50558 0,-0.83333 0.88889,-1.5 2,-1.5 1.17029,0 2,-0.66666 2,-1.60699 0,-1.05452 0.5438,-1.39831 1.58179,-1 0.86998,0.33385 1.76998,0.60699 2,0.60699 1.70881,0 -0.24145,2.29065 -3.27554,3.84723 -6.35599,3.26082 -0.45746,4.10092 6.69375,0.95336 3.98641,-1.75459 5.18544,-1.22572 4.36179,1.92391 -0.34241,1.30938 -1.83883,2.60787 -3.72143,3.22918 -2.60204,0.85875 -7.04518,8.04632 -4.974,8.04632 0.20237,0 4.29773,-1.32676 9.10079,-2.94836 4.80307,-1.6216 13.90785,-3.96996 20.23285,-5.21859 6.325,-1.24863 11.77199,-2.65492 12.10442,-3.1251 0.66857,-0.9456 9.3044,-2.16002 15.14558,-2.12986 2.0625,0.0106 3.75,-0.34007 3.75,-0.77936 0,-0.4393 0.675,-0.79873 1.5,-0.79873 0.825,0 1.5,0.62198 1.5,1.38216 0,1.16842 0.57993,1.17521 3.75,0.0439 5.01797,-1.79077 6.02098,-1.74124 6.56067,0.32395 0.43555,1.66667 0.46285,1.66667 0.57333,0 0.14217,-2.14479 2.42823,-2.28364 4.116,-0.25 1.62638,1.95967 3,1.91068 3,-0.10699 0,-1.14276 0.50554,-1.39545 1.75,-0.87472 2.9991,1.25495 9.55536,2.39135 14.25,2.46996 2.475,0.0414 5.35379,0.72163 6.39732,1.51152 1.04353,0.78989 2.27177,1.20474 2.72943,0.92189 1.79629,-1.11016 8.87325,1.87003 8.87325,3.73663 0,2.26387 -0.39746,2.28262 -3.62053,0.17078 -2.17207,-1.4232 -2.68084,-1.46026 -3.43163,-0.25 -0.66163,1.06654 -0.14152,1.61512 2.08534,2.19952 2.00321,0.52571 2.96682,1.40929 2.96682,2.7204 0,1.78371 0.71241,1.93193 8.75,1.82047 10.36144,-0.14369 19.42135,1.18373 20.00151,2.93054 0.22834,0.6875 -0.29734,1.25 -1.16818,1.25 -2.65149,0 -1.76504,1.92419 1.16667,2.53245 1.5125,0.3138 5,1.42742 7.75,2.47469 2.75,1.04728 7.25,2.44704 10,3.11059 2.75,0.66355 5.225,1.47101 5.5,1.79436 0.87886,1.03338 9.45276,5.09357 10.75,5.09069 0.6875,-0.001 1.25,0.7247 1.25,1.61385 0,2.05331 0.92963,2.328938 -19.25,-5.70739 -8.1995,-3.26536 -13.82569,-4.90924 -16.80194,-4.90924 -1.50781,0 -2.99225,-0.67277 -3.30969,-1.5 -0.35225,-0.91797 -1.86824,-1.5 -3.90699,-1.5 -1.83226,0 -3.92763,-0.5625 -4.65638,-1.25 -1.06,-1 -1.41667,-1 -1.78333,0 -0.64123,1.74879 -2.76101,1.5596 -7.08151,-0.63202 -4.06221,-2.06061 -20.07801,-4.05242 -16.96016,-2.10926 4.43992,2.76712 1.9985,3.85499 -8,3.56472 -5.3625,-0.15568 -7.1625,-0.10192 -4,0.11947 4.1757,0.29232 5.75,0.80015 5.75,1.85481 0,0.79875 0.3375,1.51031 0.75,1.58123 3.18306,0.54727 8.12496,0.78466 16.41694,0.78862 9.59169,0.005 12.36974,0.94575 9.94593,3.36956 -0.61208,0.61208 -1.11976,2.26037 -1.12818,3.66287 -0.0199,3.30433 -0.93557,4.6089 -3.8811,5.529068 -2.09317,0.65391 -2.32645,0.48116 -1.84361,-1.365208 0.57672,-2.20542 -1.56171,-3.0527 -2.77006,-1.09755 -0.34546,0.55897 -1.10503,0.72157 -1.68793,0.36132 -2.48131,-1.53354 -21.80199,-1.41564 -21.80199,0.13303 0,0.81914 -0.675,1.489338 -1.5,1.489338 -0.825,0 -1.5,0.6375 -1.5,1.41667 0,0.77916 -0.5625,1.66385 -1.25,1.96596 -0.6875,0.30211 2.35,0.47064 6.75,0.37452 4.4,-0.0961 8.55802,-0.58218 9.24004,-1.08014 0.84682,-0.61827 2.10656,0.0821 3.97268,2.20881 1.55663,1.77396 3.71272,3.11418 5.00996,3.11418 1.35762,0 2.27732,0.60578 2.27732,1.499996 0,0.825 0.675,1.5 1.5,1.5 2.45833,0 1.70853,1.41947 -1.5,2.83971 -4.99281,2.21003 -3.94387,4.78936 2.25,5.53268 9.44545,1.13354 32.52967,6.97557 41.78571,10.5749 4.38503,1.70517 4.53572,1.70212 4.53572,-0.0918 0,-1.02054 -0.69107,-1.87382 -1.53572,-1.89617 -2.36423,-0.0626 -8.61235,-5.78925 -7.49127,-6.86609 0.96494,-0.92688 9.62914,2.53454 10.28889,4.11049 0.18334,0.43793 0.97084,0.79624 1.75,0.79624 1.80286,0 1.7928,1.01799 -0.0359,3.62878 -1.37974,1.96985 -1.19176,2.19017 3.75,4.3954 9.79102,4.36917 23.20064,11.17491 27.70254,14.05977 2.475,1.586 5.175,3.19693 6,3.57984 3.07599,1.42766 9.52765,5.86033 10.29969,7.0765 0.43983,0.69284 1.2627,1.25971 1.82861,1.25971 1.98655,0 20.24967,15.49344 28.72363,24.36756 12.604,13.19919 20.70264,22.91023 25.63555,30.73945 0.55689,0.88386 2.34763,3.58386 3.97944,6 5.45357,8.07486 18.46397,33.29549 20.06348,38.89299 0.39291,1.375 1.03319,2.95 1.42285,3.5 2.29101,3.23375 8.94646,27.70618 12.23806,45 3.36503,17.67958 3.34024,55.41816 -0.048,73 -3.57206,18.536 -10.87631,44.40984 -13.25409,46.95 -0.4891,0.5225 -0.88927,1.52629 -0.88927,2.23065 0,2.81788 -13.12473,28.25122 -20,38.75635 -13.21499,20.19199 -30.32003,38.87485 -50,54.61217 -5.81179,4.64747 -8.80278,6.80246 -16.58698,11.95083 -9.62792,6.36778 -36.00112,20 -38.69246,20 -0.72631,0 -1.74806,0.40407 -2.27056,0.89794 -1.74972,1.65383 -32.62964,11.08222 -36.47821,11.13768 -1.35949,0.0196 -5.17179,0.70084 -8.47179,1.51388 -13.18416,3.24826 -64.4465,3.8745 -71.91404,0.87854 -1.34503,-0.53963 -1.69909,-0.42011 -1.19099,0.40202 0.39769,0.64347 1.82151,1.16994 3.16405,1.16994 1.41668,0 2.44098,0.583 2.44098,1.38934 0,1.39997 -11.95998,1.38157 -21,-0.0323 -1.925,-0.30107 -5.81819,-0.69017 -8.65154,-0.86466 -2.83335,-0.17449 -6.20835,-0.99659 -7.5,-1.82689 -1.29165,-0.8303 -4.59846,-1.82475 -7.34846,-2.20989 -2.75,-0.38514 -5.675,-1.2417 -6.5,-1.90347 -0.825,-0.66177 -4.2,-2.44879 -7.5,-3.97116 -9.16922,-4.22998 -15.83263,-7.72716 -17.57874,-9.22589 -0.86823,-0.74526 -2.18865,-1.35504 -2.9342,-1.35504 -0.74554,0 -3.18511,-0.84945 -5.42126,-1.88768 -2.23614,-1.03822 -4.96572,-2.1143 -6.06572,-2.39128 -1.1,-0.27699 -3.6875,-1.23358 -5.75,-2.12575 -3.30022,-1.42757 -3.75,-1.44061 -3.75,-0.10871 0,2.33368 -1.70898,1.82725 -6.70379,-1.98658 -2.5211,-1.925 -5.6441,-3.5 -6.94001,-3.5 -1.33253,0 -2.3562,-0.59738 -2.3562,-1.375 0,-1.42872 -4.15851,-2.625 -9.125,-2.625 -1.58125,0 -2.875,-0.45 -2.875,-1 0,-0.55 -0.9,-1 -2,-1 -2.21329,0 -2.70961,-1.547 -0.75,-2.33772 0.6875,-0.27741 -0.6625,-0.53991 -3,-0.58333 -4.46121,-0.0829 -5.03562,-0.84811 -3.03785,-4.04704 1.53359,-2.45568 0.68856,-3.29123 -3.46422,-3.42537 -4.87293,-0.15739 -9.18651,-4.14479 -11.20375,-10.35654 -0.94323,-2.90451 -2.30904,-5.25 -3.05716,-5.25 -0.74373,0 -1.61906,-0.84065 -1.94516,-1.86812 -1.31,-4.12743 -4.63257,-5.86084 -3.91695,-2.04349 0.35176,1.87638 1.00113,3.81018 1.44304,4.29732 0.76917,0.84789 -1.21035,3.61429 -2.58623,3.61429 -0.36362,0 -1.5058,-1.0125 -2.53816,-2.25 -1.16349,-1.39469 -1.88967,-1.7345 -1.91029,-0.89392 -0.0183,0.74584 1.09173,2.241 2.46673,3.32258 2.74532,2.15947 3.37436,5.82134 1,5.82134 -0.825,0 -1.5,-0.88417 -1.5,-1.96482 0,-1.08065 -1.0125,-2.50432 -2.25,-3.16372 -2.08328,-1.11006 -2.1421,-1.06814 -0.79383,0.5657 0.80089,0.97053 1.54861,2.39447 1.6616,3.16431 0.11299,0.76984 1.37021,2.78397 2.79383,4.47585 1.42362,1.69187 2.5884,3.9866 2.5884,5.09941 0,2.40254 6.11271,8.82327 8.4,8.82327 0.88,0 1.6,0.48032 1.6,1.06739 0,0.61231 0.85269,0.79675 2,0.43261 1.46008,-0.46341 2,-0.1797 2,1.05092 0,1.82299 5.40523,7.06892 8.25,8.00687 0.9625,0.31734 1.75,0.99666 1.75,1.5096 0,0.51293 -0.7875,0.93558 -1.75,0.9392 -1.25118,0.005 -0.89488,0.57291 1.25,1.99341 1.65,1.09275 3.59769,1.98979 4.32819,1.99341 0.73051,0.004 2.98051,1.69409 5,3.75659 4.12277,4.21056 8.17181,6.81608 8.17181,5.25847 0,-0.55466 0.5625,-0.9935 1.25,-0.9752 1.65659,0.0441 5.75,3.50157 5.75,4.8567 0,1.5093 7.7599,5.33033 8.19206,4.03384 0.65428,-1.96282 3.69169,0.24771 3.99968,2.91082 0.26012,2.2491 0.97201,2.80469 4.55826,3.55745 3.01416,0.63268 4.25,1.39405 4.25,2.61833 0,1.25584 1.08237,1.87143 3.9719,2.259 4.78522,0.64183 11.0281,4.29418 11.0281,6.45191 0,1.89307 2.856,4.20337 5.25,4.24688 0.9625,0.0175 1.75,0.45524 1.75,0.97278 0,1.83834 -2.16434,2.23359 -5.24449,0.95775 -2.39471,-0.99192 -3.21695,-1.0144 -3.52298,-0.0963 -0.45205,1.35615 -1.89663,1.6 -2.3992,0.405 z M 152.4127,524.39023 c -0.33992,-0.55 -1.37898,-0.99311 -2.30902,-0.98469 -1.45727,0.0132 -1.48367,0.14929 -0.19098,0.98469 1.95837,1.2656 3.28218,1.2656 2.5,0 z m 47.16667,0.33333 c -0.36667,-0.36666 -0.96667,-0.36666 -1.33334,0 -0.36666,0.36667 -0.0667,0.66667 0.66667,0.66667 0.73333,0 1.03333,-0.3 0.66667,-0.66667 z m -52.66667,-3.25641 c 0,-1.83568 -5.80268,-8.60757 -6.64977,-7.76048 -0.81546,0.81545 1.54073,5.42774 3.07317,6.01579 0.86713,0.33275 1.5766,1.29412 1.5766,2.13639 0,0.84226 0.45,1.53138 1,1.53138 0.55,0 1,-0.86538 1,-1.92308 z m 49,1.4821 c 0,-0.24254 -0.45,-0.7191 -1,-1.05902 -0.55,-0.33992 -1,-0.14148 -1,0.44098 0,0.58246 0.45,1.05902 1,1.05902 0.55,0 1,-0.19844 1,-0.44098 z m 161.44723,-3.05511 c 17.54835,-2.07643 36.11204,-7.2808 52.1623,-14.6238 2.26024,-1.03406 4.33599,-1.88011 4.61277,-1.88011 1.05715,0 20.23397,-11.15677 26.67729,-15.52043 2.41978,-1.63876 5.10941,-3.42957 5.97696,-3.97957 0.86756,-0.55 2.03774,-1.47302 2.60041,-2.05116 0.56267,-0.57813 3.27304,-2.82679 6.02304,-4.997 21.64526,-17.08177 57.5,-66.57745 57.5,-79.37587 0,-0.66287 0.84395,-3.31363 1.87544,-5.89059 12.8862,-32.19339 14.53965,-80.48841 3.9949,-116.68538 -4.78503,-16.42557 -13.80231,-37.69108 -19.62034,-46.2708 -1.2375,-1.82491 -2.25,-3.50047 -2.25,-3.72348 0,-0.223 -1.4625,-2.49902 -3.25,-5.05782 -1.7875,-2.5588 -3.7,-5.39386 -4.25,-6.30013 -0.55,-0.90627 -1.225,-1.87277 -1.5,-2.14777 -0.275,-0.275 -2.04627,-2.525 -3.93616,-5 -5.25809,-6.88601 -18.00457,-20.33725 -24.63777,-26 -6.4338,-5.49253 -16.4368,-13 -17.32127,-13 -0.51597,0 -1.08813,-0.38274 -1.27147,-0.85054 -0.30454,-0.77707 -6.4321,-4.95642 -11.33333,-7.72998 -5.68805,-3.21883 -14.0433,-7.41948 -14.75761,-7.41948 -0.44702,0 -2.01427,-0.78726 -3.48278,-1.74947 -2.88293,-1.88896 -5.21643,-2.80415 -18.25961,-7.16128 -48.32694,-16.14384 -105.97323,-12.18124 -148.5,10.20786 -8.80101,4.63347 -15.08038,8.1397 -15.5,8.65478 -0.275,0.33756 -2.975,2.15863 -6,4.04682 -3.025,1.88819 -5.85986,4.01093 -6.29969,4.71719 -0.43983,0.70625 -1.41483,1.2841 -2.16667,1.2841 -0.75183,0 -1.51697,0.3375 -1.70031,0.75 -0.18333,0.4125 -2.58333,2.55 -5.33333,4.75 -11.11998,8.89599 -34.5,34.1993 -34.5,37.33806 0,0.5474 -0.38274,1.14527 -0.85054,1.32861 -0.78417,0.30732 -5.06957,6.60088 -7.71707,11.33333 -3.53847,6.32506 -5.72847,10.11736 -6.35235,11 -0.97902,1.38509 -8.38696,18.8156 -10.83746,25.5 -13.75374,37.51709 -13.77908,89.08612 -0.0624,127 4.2542,11.75892 12.27159,29.40363 15.90327,35 9.45837,14.57523 11.55599,17.60986 12.64922,18.29969 0.69704,0.43983 1.26734,1.18396 1.26734,1.65361 0,3.55224 35.26496,38.0467 38.89655,38.0467 0.6069,0 1.10345,0.42121 1.10345,0.93602 0,0.5148 1.8,1.94767 4,3.18414 2.2,1.23647 4,2.56277 4,2.94735 0,0.38457 0.7875,0.95751 1.75,1.27319 0.9625,0.31568 3.55,1.70402 5.75,3.0852 4.82793,3.03102 24.18602,12.5741 25.5065,12.5741 0.517,0 2.86454,0.85952 5.21675,1.91005 10.45326,4.66854 30.62287,9.517 45.77675,11.00401 6.325,0.62065 12.85,1.30135 14.5,1.51266 4.30119,0.55083 21.06801,-0.39886 33.94723,-1.92281 z M 229.92748,422.64023 c 0.008,-0.4125 4.09481,-12.675 9.08152,-27.25 10.78445,-31.52046 10.54435,-30.61277 8.67234,-32.78504 -13.61866,-15.80306 -17.59246,-60.29824 -7.83369,-87.71496 6.76781,-19.01378 31.2165,-51.5 38.7582,-51.5 0.37287,0 1.60695,-0.83786 2.7424,-1.8619 23.01072,-20.7531 79.54093,-24.19681 110.56445,-6.73537 2.475,1.39305 5.85,3.27923 7.5,4.19152 6.70658,3.70811 25.5,20.25332 25.5,22.44951 0,0.48723 0.9,1.36754 2,1.95624 1.1,0.5887 2,1.69203 2,2.45185 0,0.75982 0.38274,1.53148 0.85054,1.71482 2.20713,0.86499 13.37998,21.72121 14.7339,27.50358 0.36441,1.55636 1.59131,5.52975 2.72644,8.82975 3.39508,9.87001 3.04007,43.81996 -0.57739,55.21673 -3.69595,11.64405 -11.32405,28.25617 -12.98349,28.27483 -0.4125,0.005 -0.75,0.45341 -0.75,0.99727 0,3.95601 -17.03537,21.81283 -28.00269,29.35298 -10.04014,6.90271 -10.93721,7.4544 -14.99731,9.22312 -1.925,0.83859 -4.4,1.93871 -5.5,2.44471 -25.00394,11.50166 -61.99771,10.7687 -88.27921,-1.74908 -6.22591,-2.96538 -6.22591,-2.96538 -16.47335,0.35637 -5.63609,1.82696 -13.39744,4.28475 -17.24744,5.46176 -3.85,1.177 -9.19751,2.9908 -11.88335,4.03066 -2.68585,1.03986 -5.6742,1.89065 -6.6408,1.89065 -0.96659,0 -3.71908,0.89012 -6.11665,1.97804 -4.49479,2.03956 -7.87033,2.5869 -7.84442,1.27196 z M 362.9127,396.52216 c 56.71327,-14.66237 84.8654,-74.8079 58.80415,-125.63193 -1.69216,-3.3 -3.76466,-7.32043 -4.60557,-8.93428 -1.75472,-3.36762 -20.12733,-22.56572 -21.59543,-22.56572 -0.53584,0 -1.90325,-0.85294 -3.0387,-1.89542 -19.44953,-17.8571 -62.8945,-20.35659 -92.06445,-5.29669 -22.49933,11.61598 -38.26798,31.79111 -45.09149,57.69211 -5.76868,21.89699 0.29513,55.32218 12.61273,69.52449 2.26862,2.61574 2.08944,5.01856 -0.96757,12.97551 -8.03924,20.92493 -8.35165,22.99428 -3.17275,21.01522 2.54049,-0.97082 7.76908,-2.74188 11.61908,-3.93568 3.85,-1.1938 9.14257,-2.87209 11.76126,-3.72952 4.76126,-1.55898 4.76126,-1.55898 16.15631,4.0455 6.26727,3.08246 12.2247,5.62338 13.23874,5.64647 1.01403,0.0231 5.21869,0.91958 9.34369,1.9922 9.32084,2.42368 25.67832,2.0248 37,-0.90226 z m -1,-36.50758 c -6.90299,-1.74578 -20.23636,-6.92995 -25,-9.72028 -0.825,-0.48325 -2.85,-1.62032 -4.5,-2.52683 -1.65,-0.90651 -3.35986,-2.26223 -3.79969,-3.01272 -0.43983,-0.75049 -1.34415,-1.36452 -2.0096,-1.36452 -1.76012,0 -18.37688,-17.32557 -24.45677,-25.5 -15.20744,-20.44646 -17.18002,-36.56503 -6.27194,-51.25 1.32776,-1.7875 2.96699,-3.25 3.64273,-3.25 0.67573,0 1.39763,-0.50707 1.60421,-1.12683 1.81163,-5.43488 14.37448,-1.30175 17.47284,5.7485 9.76733,22.22533 9.80089,22.64218 2.40722,29.90044 -3.53948,3.47466 -3.69688,4.44583 -1.339,8.26155 5.39405,8.72909 16.70046,19.73671 24.36968,23.72567 13.35228,6.94486 12.37701,6.97543 18.43523,-0.57779 7.43014,-9.26369 6.76209,-9.24292 24.19509,-0.75238 24.08681,11.7312 3.03875,38.47303 -24.75,31.44519 z m -173.4,156.77565 c -0.35589,-0.92744 -0.87208,-1.46126 -1.14708,-1.18626 -0.275,0.275 -0.20881,1.25882 0.14708,2.18626 0.35589,0.92744 0.87208,1.46126 1.14708,1.18626 0.275,-0.275 0.20881,-1.25882 -0.14708,-2.18626 z m -58.6,1.1 c 0,-0.275 -0.225,-0.5 -0.5,-0.5 -0.275,0 -0.5,0.225 -0.5,0.5 0,0.275 0.225,0.5 0.5,0.5 0.275,0 0.5,-0.225 0.5,-0.5 z m 28,-1.94098 c 0,-0.24254 -0.51953,-0.76207 -1.15451,-1.15451 -0.7153,-0.44208 -0.88306,-0.27432 -0.44098,0.44098 0.71244,1.15275 1.59549,1.54767 1.59549,0.71353 z m -24,-3.05902 c 0,-0.275 -0.225,-0.5 -0.5,-0.5 -0.275,0 -0.5,0.225 -0.5,0.5 0,0.275 0.225,0.5 0.5,0.5 0.275,0 0.5,-0.225 0.5,-0.5 z m 5,-1.43278 c 0,-1.06303 -2.443,-4.45512 -5.42889,-7.53798 -2.98589,-3.08286 -5.72152,-6.93755 -6.07918,-8.56598 -0.35766,-1.62843 -1.5118,-3.5642 -2.56475,-4.30171 -1.05295,-0.73752 -1.63002,-1.62538 -1.28237,-1.97303 1.02496,-1.02495 -5.96599,-9.54442 -8.10778,-9.8805 -1.26902,-0.19913 -2.17913,-1.37178 -2.57442,-3.31704 -0.71426,-3.51501 -5.96261,-9.79707 -5.96261,-7.137 0,0.90531 -0.5625,1.68155 -1.25,1.72497 -1,0.0632 -1,0.17982 0,0.58333 0.6875,0.27741 1.25,1.14189 1.25,1.92105 0,0.77917 0.43247,1.41667 0.96104,1.41667 1.58379,0 5.03896,4.24345 5.03896,6.18856 0,0.99629 0.675,1.81144 1.5,1.81144 1.7742,0 1.84734,0.48246 0.46482,3.06574 -0.79603,1.48738 -0.70933,1.93426 0.37525,1.93426 0.77575,0 2.70408,2.69409 4.28519,5.98686 1.58111,3.29277 3.43724,5.99277 4.12474,6 1.94427,0.0204 1.4704,2.0032 -0.5,2.09209 -1.39251,0.0628 -1.44358,0.19491 -0.25,0.64663 0.825,0.31223 1.85986,1.1767 2.29969,1.92105 0.43983,0.74435 1.29054,1.35337 1.89047,1.35337 2.71541,0 9.80984,4.46736 9.80984,6.17726 0,1.0025 0.45,1.82274 1,1.82274 0.55,0 1,-0.86975 1,-1.93278 z m 15,-0.56722 c 0,-0.275 -0.225,-0.5 -0.5,-0.5 -0.275,0 -0.5,0.225 -0.5,0.5 0,0.275 0.225,0.5 0.5,0.5 0.275,0 0.5,-0.225 0.5,-0.5 z m 24.66667,-0.16667 c -0.36667,-0.36666 -0.96667,-0.36666 -1.33334,0 -0.36666,0.36667 -0.0667,0.66667 0.66667,0.66667 0.73333,0 1.03333,-0.3 0.66667,-0.66667 z m -28.16667,-5.33333 c -0.99549,-1.1 -2.19404,-2 -2.66346,-2 -0.46942,0 -0.29143,0.9 0.39553,2 0.68696,1.1 1.88552,2 2.66346,2 1.08741,0 0.99596,-0.46242 -0.39553,-2 z m 0.5,-4.5 c 0,-0.825 -0.45,-1.5 -1,-1.5 -0.55,0 -1,-0.64468 -1,-1.43261 0,-0.78794 -1.0125,-1.74117 -2.25,-2.11828 -4.96061,-1.51171 -7.83159,-6.44911 -3.75,-6.44911 2.49046,0 2.52579,-1.05701 0.13756,-4.11514 -1.02434,-1.31167 -2.15452,-3.31813 -2.51151,-4.45879 -0.35698,-1.14066 -2.03204,-3.39066 -3.72235,-5 -3.07329,-2.92607 -3.07329,-2.92607 -1.2385,0.31761 1.00914,1.78402 2.1723,3.24652 2.5848,3.25 0.4125,0.003 0.75,0.68132 0.75,1.50632 0,1.78562 -0.47869,1.84936 -3.1504,0.41951 -2.22337,-1.18991 -5.25395,-7.45625 -4.32947,-8.95207 0.32106,-0.51949 -0.11463,-0.67654 -0.96819,-0.349 -1.01803,0.39066 -1.55194,0.0251 -1.55194,-1.06248 0,-0.94965 -1.49531,-2.2828 -3.5,-3.12041 -1.925,-0.80431 -3.5,-1.93543 -3.5,-2.51359 0,-2.53753 -4.38339,-10.92196 -5.71001,-10.92196 -0.80504,0 -1.96875,-1.33797 -2.586,-2.97327 -0.61726,-1.6353 -1.70317,-3.19617 -2.41314,-3.46861 -1.51445,-0.58115 -1.75446,1.03732 -0.28822,1.94351 0.55145,0.34081 1.89168,2.57123 2.97829,4.95648 1.08661,2.38525 3.0812,5.6507 4.43243,7.25654 1.35123,1.60585 2.77144,4.23949 3.15602,5.85253 0.38459,1.61305 1.22072,3.60782 1.85807,4.43282 0.63735,0.825 1.77795,2.7375 2.53467,4.25 0.75672,1.5125 1.74981,2.75 2.20687,2.75 0.45706,0 0.83102,0.42617 0.83102,0.94704 0,1.04246 7.88653,11.69827 12.44252,16.81159 1.69729,1.90492 3.8507,3.24137 5.22278,3.24137 1.28408,0 2.3347,0.45 2.3347,1 0,0.55 0.45,1 1,1 0.55,0 1,-0.675 1,-1.5 z m 6,-4.74055 c 0,-0.4177 -0.675,-0.75945 -1.5,-0.75945 -0.825,0 -1.5,0.1882 -1.5,0.41821 0,0.23002 -0.29024,1.17458 -0.64499,2.09902 -0.57117,1.48845 -0.3995,1.5275 1.5,0.34124 1.17975,-0.73676 2.14499,-1.68132 2.14499,-2.09902 z m -9.15161,-5.85758 c -1.86606,-1.15941 -2.35019,0.7881 -0.69293,2.78748 1.23166,1.48592 1.37379,1.47217 1.69293,-0.1638 0.19162,-0.98224 -0.25838,-2.1629 -1,-2.62368 z m 4.19025,-3.98108 c -2.22125,-2.24356 -4.03864,-4.73268 -4.03864,-5.53138 0,-0.7987 -0.675,-1.7112 -1.5,-2.02778 -0.825,-0.31659 -1.5,-1.20246 -1.5,-1.96862 0,-0.76615 -0.45,-1.39301 -1,-1.39301 -1.13343,0 -1.24805,1.47252 -0.36971,4.75 0.33163,1.2375 1.20966,2.25 1.95116,2.25 0.7415,0 1.86668,1.0125 2.50041,2.25 1.3725,2.68015 4.90462,5.69667 6.70678,5.72776 0.70876,0.0122 -0.52874,-1.8134 -2.75,-4.05697 z M 137.9127,470.89023 c 0,-0.275 -0.225,-0.5 -0.5,-0.5 -0.275,0 -0.5,0.225 -0.5,0.5 0,0.275 0.225,0.5 0.5,0.5 0.275,0 0.5,-0.225 0.5,-0.5 z m -32.33772,-6.75 c -0.27741,-0.6875 -0.50439,-0.125 -0.50439,1.25 0,1.375 0.22698,1.9375 0.50439,1.25 0.27741,-0.6875 0.27741,-1.8125 0,-2.5 z m 3.00702,-23.14609 c -0.33141,-2.41785 -1.25434,-5.90535 -2.05098,-7.75 -4.10593,-9.50755 -5.61832,-14.0046 -5.61832,-16.70596 0,-1.6397 -0.44774,-3.13128 -0.994976,-3.31462 -0.547231,-0.18333 -1.907851,-3.70833 -3.023593,-7.83333 -1.11574,-4.125 -2.52779,-8.48214 -3.1379,-9.68254 -0.61011,-1.2004 -0.81659,-2.94529 -0.45885,-3.87753 0.82203,-2.14218 -3.17617,-14.52194 -5.22874,-16.18993 -2.213493,-1.79876 -3.591203,-1.5424 -1.727369,0.32143 1.770079,1.77009 1.824089,2.00632 2.041219,8.92857 0.0863,2.75 0.90672,7.57445 1.82326,10.72101 0.91652,3.14655 1.43006,6.33696 1.14117,7.08978 -0.28889,0.75283 0.12505,1.90848 0.91985,2.56811 1.00689,0.83563 1.28401,2.40049 0.91385,5.16022 -0.3235,2.4119 -0.12531,3.96088 0.50679,3.96088 0.57092,0 0.80269,-0.9 0.51504,-2 -0.35681,-1.36443 -0.0307,-2 1.02623,-2 1.8335,0 3.479042,4.23499 1.85577,4.77608 -1.2918,0.4306 -0.44587,5.76015 1.384702,8.72392 0.67941,1.1 1.547937,3.125 1.930057,4.5 0.95695,3.44342 7.50508,17 8.21138,17 0.31568,0 0.30281,-1.97824 -0.0286,-4.39609 z m -26.462422,-9.95252 c -0.56404,-1.18327 -1.34372,-3.05139 -1.73263,-4.15139 -0.44317,-1.25347 -0.88123,-1.53387 -1.17361,-0.7512 -0.25658,0.68684 0.35831,3.00117 1.36642,5.14297 1.00812,2.14179 1.99773,3.44796 2.19914,2.90259 0.20141,-0.54537 -0.0953,-1.95971 -0.65932,-3.14297 z m 5.459784,3.68194 c -0.36666,-0.36666 -0.96666,-0.36666 -1.33333,0 -0.366674,0.36667 -0.0667,0.66667 0.66667,0.66667 0.73333,0 1.033329,-0.3 0.66666,-0.66667 z m -1.666664,-4.83333 c 0,-0.275 -0.225,-0.5 -0.5,-0.5 -0.275,0 -0.5,0.225 -0.5,0.5 0,0.275 0.225,0.5 0.5,0.5 0.275,0 0.5,-0.225 0.5,-0.5 z m -1,-3 c 0,-0.275 -0.225,-0.5 -0.5,-0.5 -0.275,0 -0.5,0.225 -0.5,0.5 0,0.275 0.225,0.5 0.5,0.5 0.275,0 0.5,-0.225 0.5,-0.5 z m 2.683114,-57.6875 c -0.31923,-0.79773 -0.55618,-0.56078 -0.60417,0.60417 -0.0434,1.05416 0.19293,1.64479 0.52522,1.3125 0.332289,-0.33229 0.367819,-1.1948 0.0789,-1.91667 z m -3.683114,-2.3125 c 0,-0.275 -0.225,-0.5 -0.5,-0.5 -0.275,0 -0.5,0.225 -0.5,0.5 0,0.275 0.225,0.5 0.5,0.5 0.275,0 0.5,-0.225 0.5,-0.5 z m 3.000004,-3 c 0,-0.275 -0.225,-0.5 -0.5,-0.5 -0.275004,0 -0.500004,0.225 -0.500004,0.5 0,0.275 0.225,0.5 0.500004,0.5 0.275,0 0.5,-0.225 0.5,-0.5 z m -19.903816,-8.22124 c -0.943579,-1.62106 -1.03807,-1.58653 -1.065782,0.38945 -0.04962,3.53764 1.366193,6.41537 1.776343,3.61055 0.178648,-1.22169 -0.141105,-3.02169 -0.710561,-4 z m 15.289002,-6.10281 c -0.34579,-1.72892 -0.99704,-2.91584 -1.44722,-2.63761 -0.45019,0.27823 -0.34337,1.86889 0.23737,3.53481 1.32522,3.80152 2.04312,3.26914 1.20985,-0.8972 z m -1.59316,-6.43628 c -0.85908,-0.68182 -1.8032,-1.91467 -2.09805,-2.73967 -0.352611,-0.98662 -0.563108,-0.74694 -0.615036,0.70031 -0.04342,1.21017 0.704806,2.63892 1.662726,3.175 2.28575,1.27917 3.05079,0.45201 1.05036,-1.13564 z M 68.579362,286.72356 c -0.366667,-0.36666 -0.666667,-0.0667 -0.666667,0.66667 0,0.73333 0.3,1.03333 0.666667,0.66667 0.366666,-0.36667 0.366666,-0.96667 0,-1.33334 z m 13.333336,-53.83333 c 0,-0.275 -0.225,-0.5 -0.5,-0.5 -0.275,0 -0.5,0.225 -0.5,0.5 0,0.275 0.225,0.5 0.5,0.5 0.275,0 0.5,-0.225 0.5,-0.5 z m 33.000002,-58.5 c 0.5887,-1.1 0.84537,-2 0.57037,-2 -0.275,0 -0.98167,0.9 -1.57037,2 -0.5887,1.1 -0.84537,2 -0.57037,2 0.275,0 0.98167,-0.9 1.57037,-2 z m 165.45286,-62.78426 c 1.29301,-1.01708 4.98258,-2.43561 8.19903,-3.15228 3.21646,-0.71668 9.02681,-2.14914 12.9119,-3.18325 10.06658,-2.67948 18.0827,-2.53834 20.42938,0.35969 1.81376,2.2399 1.81376,2.2399 7.40785,0.33841 5.92369,-2.01353 35.19607,-2.94896 42.34898,-1.35331 1.7875,0.39875 3.25,0.322 3.25,-0.17054 0,-0.49255 -1.35,-1.19206 -3,-1.55446 -1.65,-0.3624 -3,-1.02067 -3,-1.46282 0,-1.546066 -4.04809,-1.846226 -5.48744,-0.40689 -1.26967,1.26968 -1.82697,1.25848 -4.43275,-0.089 -2.13223,-1.102636 -5.98297,-1.541286 -13.53015,-1.541286 -5.80231,0 -10.53965,-0.3375 -10.52742,-0.75 0.0828,-2.79213 3.98864,-5.48991 8.5605,-5.91274 7.60274,-0.70313 9.41726,-1.25349 9.41726,-2.856308 0,-0.81452 -0.45,-1.48095 -1,-1.48095 -0.55,0 -1,0.675 -1,1.5 0,1.09841 -1.13962,1.499998 -4.2566,1.499998 -2.34113,0 -5.68495,0.40964 -7.4307,0.91032 -1.74678,0.50097 -4.79156,0.54552 -6.77105,0.0991 -2.57425,-0.58058 -3.97698,-0.4312 -4.93358,0.5254 -0.98091,0.9809 -1.63261,1.04067 -2.44873,0.22455 -0.81611,-0.81611 -1.58412,-0.69476 -2.88571,0.45597 -1.26066,1.11455 -4.07659,1.60675 -9.73628,1.70184 -6.38163,0.10722 -8.37255,0.51885 -10.02701,2.07313 -1.53675,1.4437 -3.71869,1.9948 -8.53734,2.15631 -3.93132,0.13176 -7.84149,0.930886 -9.95819,2.035176 -1.91686,1 -3.98461,1.8182 -4.59501,1.8182 -2.17765,0 -4.67455,3.84886 -4.06708,6.26922 0.4997,1.99096 0.0597,2.54148 -2.88148,3.60502 -1.90918,0.69037 -3.47124,1.63205 -3.47124,2.09262 0,1.24542 8.73995,-1.61714 11.45286,-3.75112 z M 389.9127,85.890236 c 0,-0.275 -0.225,-0.5 -0.5,-0.5 -0.275,0 -0.5,0.225 -0.5,0.5 0,0.275 0.225,0.5 0.5,0.5 0.275,0 0.5,-0.225 0.5,-0.5 z m -7,-1.5 c 0,-0.55 -0.45,-1 -1,-1 -0.55,0 -1,0.45 -1,1 0,0.55 0.45,1 1,1 0.55,0 1,-0.45 1,-1 z m -92.26797,-3 c 0.94185,-1.1 2.73744,-2 3.99021,-2 1.25277,0 2.27776,-0.47224 2.27776,-1.04943 0,-0.62295 2.03016,-0.9568 4.99554,-0.8215 3.8977,0.17785 5.49098,-0.23301 7.25,-1.86958 3.07141,-2.85761 9.26026,-3.98975 10.08343,-1.84458 0.71067,1.85196 7.9377,2.1946 12.18985,0.57794 1.45696,-0.55394 3.15511,-0.69437 3.77367,-0.31208 3.26736,2.01934 14.57037,1.00176 15.16445,-1.36521 0.51632,-2.0572 1.0254,-2.26831 4.31423,-1.78911 4.01908,0.5856 6.90848,-0.61773 5.79793,-2.41464 -0.81383,-1.31681 -5.25604,-1.49759 -5.73577,-0.23342 -0.67667,1.78315 -6.83333,2.41479 -6.83333,0.70107 0,-2.10289 -1.9657,-2.00869 -3.55895,0.17054 -1.11556,1.52587 -3.30701,1.77134 -17.11024,1.91659 -8.70695,0.0916 -18.08081,0.68744 -20.83081,1.32402 -2.75,0.63659 -8.23501,1.53507 -12.18892,1.99664 -10.21101,1.19199 -16.07135,5.01275 -7.68864,5.01275 1.93317,0 1.71587,1.70358 -0.37244,2.9199 -1.56128,0.90937 -1.50631,1.02256 0.50979,1.04969 1.24288,0.0167 3.03039,-0.86959 3.97224,-1.96959 z m 74.99714,-10.60416 c -0.33229,-0.3323 -1.1948,-0.36782 -1.91667,-0.0789 -0.79773,0.31922 -0.56078,0.55618 0.60417,0.60416 1.05416,0.0434 1.64479,-0.19293 1.3125,-0.52522 z m 3.27083,0.10416 c 0,-0.275 -0.225,-0.5 -0.5,-0.5 -0.275,0 -0.5,0.225 -0.5,0.5 0,0.275 0.225,0.5 0.5,0.5 0.275,0 0.5,-0.225 0.5,-0.5 z m 4,-9 c 0,-0.275 -0.225,-0.5 -0.5,-0.5 -0.275,0 -0.5,0.225 -0.5,0.5 0,0.275 0.225,0.5 0.5,0.5 0.275,0 0.5,-0.225 0.5,-0.5 z M 325.51445,583.79478 c -0.42232,-1.10055 0.64465,-1.40455 4.92963,-1.40455 4.09787,0 5.46862,0.36163 5.46862,1.44274 0,2.00345 -9.62837,1.9681 -10.39825,-0.0382 z m -26.62181,-1.92872 c -0.69572,-0.83829 -0.99677,-1.79233 -0.66901,-2.12009 1.09011,-1.09011 5.68907,0.65868 5.68907,2.16331 0,1.93694 -3.40097,1.90767 -5.02006,-0.0432 z m 16.52006,0.52417 c 0.33992,-0.55 1.94148,-1 3.55902,-1 1.61754,0 2.94098,0.45 2.94098,1 0,0.55 -1.60156,1 -3.55902,1 -2.11803,0 -3.30878,-0.40488 -2.94098,-1 z m 21.5,-5.5 c 0,-1.23288 0.78684,-1.55085 3.25,-1.31336 1.7875,0.17235 3.25,0.76336 3.25,1.31336 0,0.55 -1.4625,1.14101 -3.25,1.31336 -2.46316,0.23749 -3.25,-0.0805 -3.25,-1.31336 z m 13,0.0696 c 0,-1.02107 0.90283,-1.5696 2.58333,-1.5696 3.13272,0 2.78984,2.34847 -0.41166,2.81955 -1.44221,0.21221 -2.17167,-0.20766 -2.17167,-1.25 z m -82.46466,-2.51236 c -0.35935,-0.58151 -1.75182,-1.05724 -3.09436,-1.05724 -1.34254,0 -2.44098,-0.39541 -2.44098,-0.87868 0,-1.10422 -4.34868,-2.83993 -9.25,-3.69199 -2.0625,-0.35855 -3.75,-1.05183 -3.75,-1.54062 0,-0.48879 -0.89691,-0.88871 -1.99314,-0.88871 -3.3022,0 -9.85087,-3.29547 -10.35128,-5.20906 -0.30206,-1.15509 -1.41286,-1.79094 -3.12868,-1.79094 -1.46319,0 -4.14641,-1.13348 -5.96272,-2.51885 -1.96928,-1.50203 -3.96074,-2.26621 -4.93328,-1.89301 -1.17122,0.44944 -1.6309,0.0648 -1.6309,-1.36452 0,-1.14935 -0.84508,-2.21135 -2,-2.51337 -2.28312,-0.59705 -2.97242,-6.73499 -0.75,-6.67845 2.25725,0.0574 4.80429,2.66314 4.18379,4.28015 -0.45465,1.18479 0.2861,1.73248 3.04259,2.2496 2.52122,0.47298 3.48073,1.10783 3.11497,2.06099 -0.377,0.98245 0.33696,1.37746 2.48969,1.37746 3.2294,0 8.91896,2.49232 8.91896,3.90697 0,0.47058 1.99829,1.35878 4.44064,1.97377 2.44236,0.61499 4.71892,1.56841 5.05902,2.11871 0.34011,0.5503 2.07872,1.00055 3.86358,1.00055 3.29958,0 12.63676,5.10914 12.63676,6.91462 0,0.52726 1.4625,1.09967 3.25,1.27202 2.08295,0.20084 3.25,0.852 3.25,1.81336 0,1.75396 -4.00672,2.60716 -4.96466,1.05719 z m 7.21466,-8.12385 c -0.9625,-0.568 -1.75,-1.7335 -1.75,-2.59002 0,-1.09093 0.52408,-1.34154 1.75,-0.83686 0.9625,0.39625 2.5559,0.95169 3.54089,1.23432 2.03058,0.58264 1.77371,2.63913 -0.37376,2.99225 -0.77942,0.12817 -2.20463,-0.2317 -3.16713,-0.79969 z m 122.44384,-3.0317 c 0.54911,-1.66741 8.80616,-2.56674 8.80616,-0.95919 0,0.58163 -1.0125,1.06364 -2.25,1.07115 -1.2375,0.008 -3.32275,0.30075 -4.63388,0.65165 -1.77751,0.4757 -2.26647,0.28146 -1.92228,-0.76366 z m -146.74743,-4.98835 c -0.76806,-1.24274 2.39759,-3.07336 4.73833,-2.74005 4.0865,0.58188 3.48296,3.64773 -0.69478,3.52931 -1.99054,-0.0564 -3.81014,-0.41159 -4.04355,-0.78926 z M 167.6627,544.40585 c -2.94218,-3.0899 -3.52767,-5.03528 -1.5,-4.98402 1.89687,0.048 6.75,4.66414 6.75,6.42043 0,2.36764 -2.20129,1.76537 -5.25,-1.43641 z m 41.25,1.98438 c 0,-0.55 -0.47158,-1 -1.04797,-1 -1.3711,0 -5.87974,-5.14039 -5.92043,-6.75 -0.0378,-1.49448 1.59694,-1.66005 2.4684,-0.25 0.33992,0.55 1.54658,1 2.68146,1 1.73532,0 1.86229,-0.24236 0.79848,-1.52417 -2.31284,-2.7868 1.88152,-3.21098 5.89818,-0.59647 1.89303,1.2322 0.38252,3.33814 -1.8794,2.62023 -2.23242,-0.70854 -1.6164,3.32616 0.64004,4.19203 2.35469,0.90358 1.52694,3.30838 -1.13876,3.30838 -1.375,0 -2.5,-0.45 -2.5,-1 z m -12.51716,-8.84744 c -5.41344,-3.3013 -9.79811,-7.8886 -9.15129,-9.57419 0.69643,-1.81486 2.66845,-2.139 2.66845,-0.43861 0,1.36407 2.99735,3.78377 4.74239,3.82844 2.03,0.052 6.25761,4.24885 6.25761,6.21214 0,2.28128 -0.73822,2.27674 -4.51716,-0.0278 z m -59.73284,-5.86881 c -3.44995,-0.52263 -3.52396,-1.97399 -0.17839,-3.49833 2.08194,-0.9486 2.74548,-0.89691 3.48469,0.27144 1.10958,1.75373 1.22424,3.99919 0.1937,3.79331 -0.4125,-0.0824 -1.9875,-0.3373 -3.5,-0.56642 z m 41.83889,-7.36048 c -2.85143,-3.38873 -3.26023,-4.92327 -1.31157,-4.92327 1.38522,0 6.72268,5.63928 6.72268,7.10283 0,1.93252 -2.9513,0.74375 -5.41111,-2.17956 z m -16.07002,-18.90242 c -1.66162,-1.83607 -1.66935,-2.02587 -0.10695,-2.62543 1.55523,-0.59679 4.47216,1.87091 4.55628,3.85458 0.0625,1.47489 -2.69049,0.71435 -4.44933,-1.22915 z M 68.162695,263.72795 c -2.406956,-0.97123 -1.436835,-4.33772 1.25,-4.33772 2,0 2.5,0.5 2.5,2.5 0,2.39921 -1.065016,2.92113 -3.75,1.83772 z M 116.68284,151.82703 c -0.79516,-0.79516 0.23419,-3.69728 1.65692,-4.67149 1.99463,-1.3658 2.70708,-0.77656 2.38936,1.97614 -0.2961,2.56541 -2.62493,4.11671 -4.04628,2.69535 z m 19.22986,-8.98225 c 0,-1.74003 4.34931,-6.45455 5.95455,-6.45455 1.79113,0 1.15913,1.6668 -1.85576,4.89424 -3.25634,3.48593 -4.09879,3.80663 -4.09879,1.56031 z m 308.5,-29.45455 c -0.33992,-0.55 -1.78049,-1 -3.20126,-1 -1.42077,0 -6.86911,-2.05723 -12.10742,-4.57162 -10.30062,-4.94429 -14.11457,-5.64799 -16.68423,-3.07833 -0.90747,0.90747 -2.01532,1.64995 -2.46189,1.64995 -0.44656,0 -1.0561,0.93367 -1.35451,2.07482 -0.62023,2.37174 -4.69069,1.06747 -4.69069,-1.50301 0,-1.49739 -2.12301,-2.57181 -5.08179,-2.57181 -2.35242,0 -2.41801,-0.79024 -0.26322,-3.17126 1.57464,-1.739956 1.47755,-1.828736 -2,-1.828736 -5.1412,0 -4.54377,-1.29245 1.59501,-3.45059 2.8875,-1.01512 5.79482,-2.26944 6.46071,-2.78738 0.66588,-0.51793 3.13121,-0.78877 5.47849,-0.60186 3.54498,0.28227 4.33095,0.0187 4.64072,-1.556078 0.29693,-1.50956 -0.004,-1.73674 -1.4785,-1.11482 -2.86188,1.2074 -5.60645,1.13282 -6.05866,-0.16462 -0.8927,-2.56123 11.93658,-6.10809 13.4977,-3.73164 0.39025,0.59407 2.88643,2.34451 5.54707,3.88988 2.66065,1.545358 5.07129,3.418908 5.35699,4.163428 0.2857,0.74452 1.11599,1.35368 1.84508,1.35368 0.72909,0 1.61127,0.9 1.9604,2 0.34913,1.1 1.22486,2 1.94607,2 0.72121,0 1.8779,1.367916 2.57043,3.039826 0.69252,1.6719 1.98462,3.58988 2.87132,4.26218 1.79728,1.36269 4.11218,5.1256 4.11218,6.68442 0,1.30478 -1.6963,1.31398 -2.5,0.0136 z m -42.5,-12.5 c 0,-0.275 -0.225,-0.5 -0.5,-0.5 -0.275,0 -0.5,0.225 -0.5,0.5 0,0.275 0.225,0.5 0.5,0.5 0.275,0 0.5,-0.225 0.5,-0.5 z m 17.77106,-9.313176 c 0.24358,-0.730748 -0.21359,-0.954238 -1.1875,-0.580508 -0.87096,0.334218 -1.58356,1.047018 -1.58356,1.584008 0,1.31439 2.27278,0.49134 2.77106,-1.0035 z m 3.95811,0.20901 c -0.33229,-0.33229 -1.1948,-0.36781 -1.91667,-0.0789 -0.79773,0.31922 -0.56078,0.55618 0.60417,0.60416 1.05416,0.0434 1.64479,-0.19292 1.3125,-0.52522 z m -244.72917,5.1875 c 0,-0.87083 0.41968,-1.58333 0.93261,-1.58333 0.51294,0 1.18281,-0.78828 1.4886,-1.75174 0.49183,-1.54965 7.49632,-4.664058 8.41764,-3.742738 0.82143,0.82143 -3.55071,5.337118 -6.33169,6.539588 -1.65394,0.71514 -3.34466,1.48505 -3.75716,1.71091 -0.4125,0.22585 -0.75,-0.30185 -0.75,-1.17269 z m 12,-1.50154 c 0,-2.05149 1.29673,-4.08179 2.60699,-4.08179 1.91844,0 1.76183,3.64449 -0.18878,4.39301 -2.11024,0.80978 -2.41821,0.77014 -2.41821,-0.31122 z m 256.00982,-1.56996 c -0.99821,-1.20277 -0.93499,-1.60332 0.32967,-2.08861 1.9566,-0.750818 3.66051,0.24336 3.66051,2.1358 0,1.87963 -2.41476,1.85108 -3.99018,-0.0472 z M 197.9127,89.997226 c 0,-0.76616 0.74407,-1.67854 1.6535,-2.02752 1.52869,-0.58661 1.5301,-0.72678 0.0186,-1.85699 -1.95868,-1.46464 -0.65211,-4.3125 1.58474,-3.45414 1.99415,0.76523 3.15385,6.85328 1.50485,7.90007 -2.01571,1.279618 -4.76169,0.955868 -4.76169,-0.56142 z m 11.26077,-10.09129 c -1.50884,-1.7146 -0.85732,-3.72315 1.63382,-5.03682 1.02095,-0.53838 3.31403,-1.80467 5.09574,-2.81398 5.06001,-2.86639 5.38739,-0.6091 0.66785,4.60495 -4.57922,5.05904 -5.46124,5.44606 -7.39741,3.24585 z m 3.73923,-2.0157 c 0,-0.275 -0.225,-0.5 -0.5,-0.5 -0.275,0 -0.5,0.225 -0.5,0.5 0,0.275 0.225,0.5 0.5,0.5 0.275,0 0.5,-0.225 0.5,-0.5 z m 62.58295,-16.36578 c -0.43077,-0.69701 -0.51316,-1.53734 -0.18309,-1.86742 0.89497,-0.89496 1.87077,0.42131 1.38739,1.87145 -0.33872,1.01617 -0.57427,1.01538 -1.2043,-0.004 z m 24.41705,-12.56467 c 0,-1.02102 0.90283,-1.56955 2.58333,-1.56955 3.13272,0 2.78984,2.34847 -0.41166,2.81955 -1.44221,0.21222 -2.17167,-0.20766 -2.17167,-1.25 z m -75.44423,-5.47931 c -0.72276,-1.16945 0.38495,-4.09024 1.55122,-4.09024 0.49115,0 0.89301,0.68358 0.89301,1.51905 0,1.12098 0.65514,1.35463 2.5,0.8916 1.42008,-0.35642 2.5,-0.19488 2.5,0.37396 0,1.97802 -6.3413,3.09021 -7.44423,1.30563 z"
       id="path876" />
  </g>
</svg>
